G04*
G04 #@! TF.GenerationSoftware,Altium Limited,Altium Designer,24.8.2 (39)*
G04*
G04 Layer_Color=8421504*
%FSLAX44Y44*%
%MOMM*%
G71*
G04*
G04 #@! TF.SameCoordinates,39C3E627-9C26-4201-8F53-7C701A0798BB*
G04*
G04*
G04 #@! TF.FilePolarity,Positive*
G04*
G01*
G75*
G04:AMPARAMS|DCode=28|XSize=0.8mm|YSize=0.95mm|CornerRadius=0.1mm|HoleSize=0mm|Usage=FLASHONLY|Rotation=270.000|XOffset=0mm|YOffset=0mm|HoleType=Round|Shape=RoundedRectangle|*
%AMROUNDEDRECTD28*
21,1,0.8000,0.7500,0,0,270.0*
21,1,0.6000,0.9500,0,0,270.0*
1,1,0.2000,-0.3750,-0.3000*
1,1,0.2000,-0.3750,0.3000*
1,1,0.2000,0.3750,0.3000*
1,1,0.2000,0.3750,-0.3000*
%
%ADD28ROUNDEDRECTD28*%
G04:AMPARAMS|DCode=29|XSize=0.8mm|YSize=0.95mm|CornerRadius=0.1mm|HoleSize=0mm|Usage=FLASHONLY|Rotation=0.000|XOffset=0mm|YOffset=0mm|HoleType=Round|Shape=RoundedRectangle|*
%AMROUNDEDRECTD29*
21,1,0.8000,0.7500,0,0,0.0*
21,1,0.6000,0.9500,0,0,0.0*
1,1,0.2000,0.3000,-0.3750*
1,1,0.2000,-0.3000,-0.3750*
1,1,0.2000,-0.3000,0.3750*
1,1,0.2000,0.3000,0.3750*
%
%ADD29ROUNDEDRECTD29*%
%ADD30R,1.2500X1.0000*%
%ADD31R,1.7000X1.1000*%
%ADD32R,1.8000X1.2000*%
%ADD33R,1.7000X0.4000*%
%ADD34R,1.2000X1.1000*%
%ADD35R,0.9100X1.2200*%
%ADD36R,2.5000X2.4257*%
G04:AMPARAMS|DCode=37|XSize=1.125mm|YSize=1.75mm|CornerRadius=0.1238mm|HoleSize=0mm|Usage=FLASHONLY|Rotation=90.000|XOffset=0mm|YOffset=0mm|HoleType=Round|Shape=RoundedRectangle|*
%AMROUNDEDRECTD37*
21,1,1.1250,1.5025,0,0,90.0*
21,1,0.8775,1.7500,0,0,90.0*
1,1,0.2475,0.7512,0.4387*
1,1,0.2475,0.7512,-0.4387*
1,1,0.2475,-0.7512,-0.4387*
1,1,0.2475,-0.7512,0.4387*
%
%ADD37ROUNDEDRECTD37*%
%ADD38R,1.0000X1.2500*%
G04:AMPARAMS|DCode=39|XSize=1mm|YSize=1.45mm|CornerRadius=0.125mm|HoleSize=0mm|Usage=FLASHONLY|Rotation=90.000|XOffset=0mm|YOffset=0mm|HoleType=Round|Shape=RoundedRectangle|*
%AMROUNDEDRECTD39*
21,1,1.0000,1.2000,0,0,90.0*
21,1,0.7500,1.4500,0,0,90.0*
1,1,0.2500,0.6000,0.3750*
1,1,0.2500,0.6000,-0.3750*
1,1,0.2500,-0.6000,-0.3750*
1,1,0.2500,-0.6000,0.3750*
%
%ADD39ROUNDEDRECTD39*%
G04:AMPARAMS|DCode=40|XSize=1.15mm|YSize=1.8mm|CornerRadius=0.1265mm|HoleSize=0mm|Usage=FLASHONLY|Rotation=0.000|XOffset=0mm|YOffset=0mm|HoleType=Round|Shape=RoundedRectangle|*
%AMROUNDEDRECTD40*
21,1,1.1500,1.5470,0,0,0.0*
21,1,0.8970,1.8000,0,0,0.0*
1,1,0.2530,0.4485,-0.7735*
1,1,0.2530,-0.4485,-0.7735*
1,1,0.2530,-0.4485,0.7735*
1,1,0.2530,0.4485,0.7735*
%
%ADD40ROUNDEDRECTD40*%
%ADD41O,0.2800X1.8000*%
%ADD42O,1.8000X0.2800*%
G04:AMPARAMS|DCode=43|XSize=1.025mm|YSize=1.4mm|CornerRadius=0.123mm|HoleSize=0mm|Usage=FLASHONLY|Rotation=0.000|XOffset=0mm|YOffset=0mm|HoleType=Round|Shape=RoundedRectangle|*
%AMROUNDEDRECTD43*
21,1,1.0250,1.1540,0,0,0.0*
21,1,0.7790,1.4000,0,0,0.0*
1,1,0.2460,0.3895,-0.5770*
1,1,0.2460,-0.3895,-0.5770*
1,1,0.2460,-0.3895,0.5770*
1,1,0.2460,0.3895,0.5770*
%
%ADD43ROUNDEDRECTD43*%
G04:AMPARAMS|DCode=44|XSize=1.025mm|YSize=1.4mm|CornerRadius=0.123mm|HoleSize=0mm|Usage=FLASHONLY|Rotation=270.000|XOffset=0mm|YOffset=0mm|HoleType=Round|Shape=RoundedRectangle|*
%AMROUNDEDRECTD44*
21,1,1.0250,1.1540,0,0,270.0*
21,1,0.7790,1.4000,0,0,270.0*
1,1,0.2460,-0.5770,-0.3895*
1,1,0.2460,-0.5770,0.3895*
1,1,0.2460,0.5770,0.3895*
1,1,0.2460,0.5770,-0.3895*
%
%ADD44ROUNDEDRECTD44*%
%ADD45R,2.0000X2.0000*%
%ADD46R,4.2000X3.5000*%
%ADD47R,1.1000X1.5000*%
%ADD48R,1.5000X1.3589*%
%ADD49R,1.3589X1.5000*%
%ADD50R,1.6000X1.5390*%
%ADD51R,1.5390X1.6000*%
%ADD52R,0.5250X0.2500*%
%ADD53R,1.0000X0.7500*%
%ADD54R,0.7500X1.0000*%
%ADD55R,1.2500X0.7000*%
%ADD56R,2.0000X2.0000*%
%ADD57R,0.9800X2.2650*%
%ADD58R,0.4900X1.1570*%
%ADD59R,0.4900X1.1750*%
%ADD60R,1.7000X1.1500*%
%ADD61R,0.3000X1.3000*%
%ADD62R,1.1000X0.6000*%
%ADD63R,0.6000X1.1000*%
%ADD64O,0.5600X1.8400*%
%ADD65R,3.6000X2.3400*%
%ADD66R,1.1000X2.5000*%
%ADD67R,2.5000X1.1000*%
%ADD68R,2.3400X3.6000*%
%ADD69R,1.0700X0.6000*%
%ADD70R,0.6000X1.0700*%
%ADD71O,0.5684X1.9502*%
%ADD72R,0.7600X1.6599*%
%ADD73O,2.3600X0.5950*%
%ADD74R,1.8000X2.5000*%
%ADD75R,1.0000X1.2000*%
%ADD76R,1.3000X1.9000*%
%ADD77R,1.0000X2.8000*%
%ADD78R,1.0000X0.8000*%
%ADD79R,0.7000X1.2000*%
%ADD80R,0.9000X1.5000*%
%ADD81R,1.5000X0.9000*%
%ADD82R,0.9000X0.9000*%
%ADD83R,2.7000X3.3000*%
G04:AMPARAMS|DCode=84|XSize=0.9mm|YSize=0.95mm|CornerRadius=0.1125mm|HoleSize=0mm|Usage=FLASHONLY|Rotation=180.000|XOffset=0mm|YOffset=0mm|HoleType=Round|Shape=RoundedRectangle|*
%AMROUNDEDRECTD84*
21,1,0.9000,0.7250,0,0,180.0*
21,1,0.6750,0.9500,0,0,180.0*
1,1,0.2250,-0.3375,0.3625*
1,1,0.2250,0.3375,0.3625*
1,1,0.2250,0.3375,-0.3625*
1,1,0.2250,-0.3375,-0.3625*
%
%ADD84ROUNDEDRECTD84*%
%ADD85C,1.0000*%
%ADD86R,0.6096X0.4826*%
%ADD87R,0.8000X1.0000*%
%ADD88O,1.8148X0.3556*%
%ADD89R,0.4826X0.6096*%
%ADD90R,3.0099X2.7991*%
%ADD91R,1.4400X1.6200*%
%ADD92R,2.5400X1.2700*%
%ADD93R,2.5000X2.2000*%
%ADD94R,1.9000X2.3760*%
%ADD95R,0.6090X0.2500*%
%ADD96R,0.6090X0.3800*%
G04:AMPARAMS|DCode=97|XSize=1.15mm|YSize=1.8mm|CornerRadius=0.1265mm|HoleSize=0mm|Usage=FLASHONLY|Rotation=90.000|XOffset=0mm|YOffset=0mm|HoleType=Round|Shape=RoundedRectangle|*
%AMROUNDEDRECTD97*
21,1,1.1500,1.5470,0,0,90.0*
21,1,0.8970,1.8000,0,0,90.0*
1,1,0.2530,0.7735,0.4485*
1,1,0.2530,0.7735,-0.4485*
1,1,0.2530,-0.7735,-0.4485*
1,1,0.2530,-0.7735,0.4485*
%
%ADD97ROUNDEDRECTD97*%
G04:AMPARAMS|DCode=98|XSize=1mm|YSize=1.45mm|CornerRadius=0.125mm|HoleSize=0mm|Usage=FLASHONLY|Rotation=0.000|XOffset=0mm|YOffset=0mm|HoleType=Round|Shape=RoundedRectangle|*
%AMROUNDEDRECTD98*
21,1,1.0000,1.2000,0,0,0.0*
21,1,0.7500,1.4500,0,0,0.0*
1,1,0.2500,0.3750,-0.6000*
1,1,0.2500,-0.3750,-0.6000*
1,1,0.2500,-0.3750,0.6000*
1,1,0.2500,0.3750,0.6000*
%
%ADD98ROUNDEDRECTD98*%
%ADD99R,2.3200X1.9240*%
%ADD100R,0.4000X0.7500*%
%ADD101R,0.9500X1.1500*%
G04:AMPARAMS|DCode=102|XSize=0.9mm|YSize=0.95mm|CornerRadius=0.1125mm|HoleSize=0mm|Usage=FLASHONLY|Rotation=90.000|XOffset=0mm|YOffset=0mm|HoleType=Round|Shape=RoundedRectangle|*
%AMROUNDEDRECTD102*
21,1,0.9000,0.7250,0,0,90.0*
21,1,0.6750,0.9500,0,0,90.0*
1,1,0.2250,0.3625,0.3375*
1,1,0.2250,0.3625,-0.3375*
1,1,0.2250,-0.3625,-0.3375*
1,1,0.2250,-0.3625,0.3375*
%
%ADD102ROUNDEDRECTD102*%
%ADD103R,0.7850X0.5600*%
G04:AMPARAMS|DCode=104|XSize=0.54mm|YSize=0.64mm|CornerRadius=0.0675mm|HoleSize=0mm|Usage=FLASHONLY|Rotation=0.000|XOffset=0mm|YOffset=0mm|HoleType=Round|Shape=RoundedRectangle|*
%AMROUNDEDRECTD104*
21,1,0.5400,0.5050,0,0,0.0*
21,1,0.4050,0.6400,0,0,0.0*
1,1,0.1350,0.2025,-0.2525*
1,1,0.1350,-0.2025,-0.2525*
1,1,0.1350,-0.2025,0.2525*
1,1,0.1350,0.2025,0.2525*
%
%ADD104ROUNDEDRECTD104*%
%ADD105R,0.4200X0.6000*%
%ADD106R,0.2700X3.0000*%
G36*
X434388Y1314285D02*
Y1287185D01*
X433388Y1286185D01*
X425801D01*
X424801Y1287185D01*
Y1295079D01*
X423801Y1296079D01*
X415923D01*
X414923Y1295079D01*
Y1287185D01*
X413923Y1286185D01*
X406336D01*
X405336Y1287185D01*
Y1314285D01*
X406336Y1315285D01*
X433388D01*
X434388Y1314285D01*
D02*
G37*
G36*
Y1267684D02*
Y1240584D01*
X433388Y1239585D01*
X406336D01*
X405336Y1240584D01*
Y1267684D01*
X406336Y1268684D01*
X413923D01*
X414923Y1267684D01*
Y1259790D01*
X415923Y1258791D01*
X423801D01*
X424801Y1259790D01*
Y1267684D01*
X425801Y1268684D01*
X433388D01*
X434388Y1267684D01*
D02*
G37*
G36*
X222618Y1256848D02*
X210618D01*
Y1263848D01*
X222618D01*
Y1256848D01*
D02*
G37*
G36*
Y1244148D02*
X210618D01*
Y1251148D01*
X222618D01*
Y1244148D01*
D02*
G37*
G36*
X222618Y1231447D02*
X210617D01*
Y1238448D01*
X222618D01*
Y1231447D01*
D02*
G37*
G36*
X222617Y1218748D02*
X210617D01*
Y1225748D01*
X222617D01*
Y1218748D01*
D02*
G37*
G36*
X268118Y1263879D02*
X268295D01*
X280623Y1263818D01*
Y1256822D01*
X269998D01*
Y1251085D01*
X280633D01*
Y1244125D01*
X270048D01*
Y1238411D01*
X280662D01*
Y1231354D01*
X270012D01*
Y1225838D01*
X280626D01*
Y1218872D01*
X268634D01*
Y1218291D01*
X232060D01*
Y1264285D01*
X268118D01*
Y1263879D01*
D02*
G37*
G36*
X173998Y894158D02*
Y883333D01*
X172998Y882333D01*
X163593D01*
X162593Y883333D01*
Y885694D01*
X161593Y886694D01*
X151843D01*
X150843Y885694D01*
Y883333D01*
X149843Y882333D01*
X140438D01*
X139438Y883333D01*
Y894158D01*
X140438Y895158D01*
X172998D01*
X173998Y894158D01*
D02*
G37*
G36*
X131834D02*
Y883333D01*
X130834Y882333D01*
X121429D01*
X120429Y883333D01*
Y885694D01*
X119429Y886694D01*
X109679D01*
X108679Y885694D01*
Y883333D01*
X107679Y882333D01*
X98274D01*
X97274Y883333D01*
Y894158D01*
X98274Y895158D01*
X130834D01*
X131834Y894158D01*
D02*
G37*
G36*
X173998Y832833D02*
Y822008D01*
X172998Y821008D01*
X140438D01*
X139438Y822008D01*
Y832833D01*
X140438Y833833D01*
X149843D01*
X150843Y832833D01*
Y830473D01*
X151843Y829473D01*
X161593D01*
X162593Y830473D01*
Y832833D01*
X163593Y833833D01*
X172998D01*
X173998Y832833D01*
D02*
G37*
G36*
X131834D02*
Y822008D01*
X130834Y821008D01*
X98274D01*
X97274Y822008D01*
Y832833D01*
X98274Y833833D01*
X107679D01*
X108679Y832833D01*
Y830473D01*
X109679Y829473D01*
X119429D01*
X120429Y830473D01*
Y832833D01*
X121429Y833833D01*
X130834D01*
X131834Y832833D01*
D02*
G37*
G36*
X566991Y754104D02*
X564490D01*
Y756604D01*
X566991D01*
Y754104D01*
D02*
G37*
G36*
X540490Y754104D02*
X537990D01*
Y756604D01*
X540490D01*
Y754104D01*
D02*
G37*
G36*
X561555Y759101D02*
X561620Y759094D01*
X561685Y759084D01*
X561749Y759069D01*
X561811Y759050D01*
X561873Y759027D01*
X561932Y759000D01*
X561990Y758969D01*
X562045Y758934D01*
X562099Y758896D01*
X562149Y758855D01*
X562197Y758810D01*
X562242Y758762D01*
X562283Y758712D01*
X562321Y758658D01*
X562356Y758603D01*
X562387Y758545D01*
X562414Y758486D01*
X562437Y758424D01*
X562456Y758362D01*
X562471Y758298D01*
X562481Y758233D01*
X562488Y758168D01*
X562490Y758103D01*
Y754853D01*
X562488Y754788D01*
X562481Y754722D01*
X562471Y754658D01*
X562456Y754594D01*
X562437Y754531D01*
X562414Y754470D01*
X562387Y754411D01*
X562356Y754353D01*
X562321Y754297D01*
X562283Y754244D01*
X562242Y754194D01*
X562197Y754146D01*
X562149Y754101D01*
X562099Y754060D01*
X562045Y754022D01*
X561990Y753987D01*
X561932Y753956D01*
X561873Y753929D01*
X561811Y753906D01*
X561749Y753887D01*
X561685Y753872D01*
X561620Y753862D01*
X561555Y753855D01*
X561490Y753853D01*
X561425Y753855D01*
X561359Y753862D01*
X561295Y753872D01*
X561231Y753887D01*
X561168Y753906D01*
X561107Y753929D01*
X561048Y753956D01*
X560990Y753987D01*
X560934Y754022D01*
X560881Y754060D01*
X560830Y754101D01*
X560783Y754146D01*
X560738Y754194D01*
X560697Y754244D01*
X560658Y754297D01*
X560624Y754353D01*
X560593Y754411D01*
X560566Y754470D01*
X560543Y754531D01*
X560524Y754594D01*
X560509Y754658D01*
X560499Y754722D01*
X560492Y754788D01*
X560490Y754853D01*
Y758103D01*
X560492Y758168D01*
X560499Y758233D01*
X560509Y758298D01*
X560524Y758362D01*
X560543Y758424D01*
X560566Y758486D01*
X560593Y758545D01*
X560624Y758603D01*
X560658Y758658D01*
X560697Y758712D01*
X560738Y758762D01*
X560783Y758810D01*
X560830Y758855D01*
X560881Y758896D01*
X560934Y758934D01*
X560990Y758969D01*
X561048Y759000D01*
X561107Y759027D01*
X561168Y759050D01*
X561231Y759069D01*
X561295Y759084D01*
X561359Y759094D01*
X561425Y759101D01*
X561490Y759103D01*
X561555Y759101D01*
D02*
G37*
G36*
X554491Y753853D02*
X550491D01*
Y759103D01*
X554491D01*
Y753853D01*
D02*
G37*
G36*
X547555Y759101D02*
X547620Y759094D01*
X547684Y759084D01*
X547748Y759069D01*
X547811Y759050D01*
X547872Y759027D01*
X547931Y759000D01*
X547989Y758969D01*
X548045Y758934D01*
X548098Y758896D01*
X548149Y758855D01*
X548196Y758810D01*
X548241Y758762D01*
X548282Y758712D01*
X548321Y758658D01*
X548355Y758603D01*
X548386Y758545D01*
X548413Y758486D01*
X548436Y758424D01*
X548455Y758362D01*
X548470Y758298D01*
X548481Y758233D01*
X548487Y758168D01*
X548489Y758103D01*
Y754853D01*
X548487Y754788D01*
X548481Y754722D01*
X548470Y754658D01*
X548455Y754594D01*
X548436Y754531D01*
X548413Y754470D01*
X548386Y754411D01*
X548355Y754353D01*
X548321Y754297D01*
X548282Y754244D01*
X548241Y754194D01*
X548196Y754146D01*
X548149Y754101D01*
X548098Y754060D01*
X548045Y754022D01*
X547990Y753987D01*
X547931Y753956D01*
X547872Y753929D01*
X547811Y753906D01*
X547748Y753887D01*
X547684Y753872D01*
X547620Y753862D01*
X547555Y753855D01*
X547489Y753853D01*
X547424Y753855D01*
X547359Y753862D01*
X547294Y753872D01*
X547230Y753887D01*
X547168Y753906D01*
X547107Y753929D01*
X547047Y753956D01*
X546989Y753987D01*
X546934Y754022D01*
X546880Y754060D01*
X546830Y754101D01*
X546782Y754146D01*
X546737Y754194D01*
X546696Y754244D01*
X546658Y754297D01*
X546623Y754353D01*
X546592Y754411D01*
X546565Y754470D01*
X546542Y754531D01*
X546523Y754594D01*
X546508Y754658D01*
X546498Y754722D01*
X546491Y754788D01*
X546489Y754853D01*
Y758103D01*
X546491Y758168D01*
X546498Y758233D01*
X546508Y758298D01*
X546523Y758362D01*
X546542Y758424D01*
X546565Y758486D01*
X546592Y758545D01*
X546623Y758603D01*
X546658Y758658D01*
X546696Y758712D01*
X546737Y758762D01*
X546782Y758810D01*
X546830Y758855D01*
X546880Y758896D01*
X546934Y758934D01*
X546989Y758969D01*
X547047Y759000D01*
X547107Y759027D01*
X547168Y759050D01*
X547230Y759069D01*
X547294Y759084D01*
X547359Y759094D01*
X547424Y759101D01*
X547489Y759103D01*
X547555Y759101D01*
D02*
G37*
G36*
X557554Y759101D02*
X557620Y759094D01*
X557684Y759083D01*
X557748Y759068D01*
X557811Y759049D01*
X557872Y759026D01*
X557932Y758999D01*
X557989Y758968D01*
X558045Y758934D01*
X558098Y758896D01*
X558148Y758855D01*
X558196Y758810D01*
X558241Y758762D01*
X558283Y758712D01*
X558320Y758657D01*
X558355Y758603D01*
X558386Y758544D01*
X558413Y758486D01*
X558436Y758424D01*
X558455Y758362D01*
X558470Y758298D01*
X558481Y758233D01*
X558487Y758168D01*
X558489Y758103D01*
Y754853D01*
X558487Y754787D01*
X558481Y754722D01*
X558470Y754658D01*
X558455Y754594D01*
X558436Y754531D01*
X558413Y754469D01*
X558386Y754410D01*
X558355Y754353D01*
X558320Y754297D01*
X558283Y754243D01*
X558241Y754193D01*
X558196Y754145D01*
X558148Y754101D01*
X558098Y754060D01*
X558045Y754021D01*
X557989Y753986D01*
X557932Y753956D01*
X557872Y753929D01*
X557811Y753905D01*
X557748Y753886D01*
X557684Y753872D01*
X557620Y753861D01*
X557554Y753855D01*
X557489Y753853D01*
X557424Y753855D01*
X557359Y753861D01*
X557294Y753872D01*
X557230Y753886D01*
X557168Y753905D01*
X557106Y753929D01*
X557047Y753956D01*
X556990Y753986D01*
X556934Y754021D01*
X556880Y754060D01*
X556830Y754101D01*
X556782Y754145D01*
X556738Y754193D01*
X556696Y754243D01*
X556658Y754297D01*
X556623Y754352D01*
X556592Y754410D01*
X556566Y754469D01*
X556542Y754531D01*
X556523Y754594D01*
X556509Y754658D01*
X556498Y754722D01*
X556491Y754787D01*
X556489Y754853D01*
Y758103D01*
X556491Y758168D01*
X556498Y758233D01*
X556509Y758298D01*
X556523Y758362D01*
X556542Y758424D01*
X556566Y758486D01*
X556592Y758544D01*
X556623Y758603D01*
X556658Y758657D01*
X556696Y758712D01*
X556738Y758762D01*
X556782Y758810D01*
X556830Y758855D01*
X556880Y758896D01*
X556934Y758934D01*
X556989Y758968D01*
X557047Y758999D01*
X557106Y759026D01*
X557168Y759049D01*
X557230Y759068D01*
X557294Y759083D01*
X557359Y759094D01*
X557424Y759101D01*
X557489Y759103D01*
X557554Y759101D01*
D02*
G37*
G36*
X543557D02*
X543622Y759094D01*
X543686Y759083D01*
X543750Y759068D01*
X543813Y759050D01*
X543874Y759026D01*
X543934Y758999D01*
X543991Y758969D01*
X544047Y758934D01*
X544100Y758896D01*
X544151Y758855D01*
X544199Y758810D01*
X544243Y758762D01*
X544285Y758712D01*
X544323Y758658D01*
X544358Y758603D01*
X544388Y758545D01*
X544415Y758486D01*
X544438Y758424D01*
X544457Y758362D01*
X544472Y758298D01*
X544483Y758233D01*
X544489Y758168D01*
X544491Y758103D01*
Y754853D01*
X544489Y754787D01*
X544483Y754722D01*
X544472Y754658D01*
X544457Y754594D01*
X544438Y754531D01*
X544415Y754470D01*
X544388Y754410D01*
X544358Y754353D01*
X544323Y754297D01*
X544285Y754244D01*
X544243Y754193D01*
X544199Y754145D01*
X544151Y754101D01*
X544100Y754060D01*
X544047Y754021D01*
X543992Y753986D01*
X543934Y753956D01*
X543874Y753929D01*
X543813Y753906D01*
X543750Y753886D01*
X543686Y753872D01*
X543622Y753861D01*
X543557Y753855D01*
X543491Y753853D01*
X543426Y753855D01*
X543361Y753861D01*
X543296Y753872D01*
X543233Y753886D01*
X543170Y753906D01*
X543109Y753929D01*
X543049Y753956D01*
X542991Y753986D01*
X542936Y754021D01*
X542883Y754060D01*
X542832Y754101D01*
X542784Y754145D01*
X542740Y754193D01*
X542698Y754244D01*
X542660Y754297D01*
X542625Y754353D01*
X542594Y754410D01*
X542568Y754470D01*
X542545Y754531D01*
X542525Y754594D01*
X542511Y754658D01*
X542500Y754722D01*
X542494Y754787D01*
X542491Y754853D01*
Y758103D01*
X542494Y758168D01*
X542500Y758233D01*
X542511Y758298D01*
X542525Y758362D01*
X542545Y758424D01*
X542568Y758486D01*
X542594Y758545D01*
X542625Y758603D01*
X542660Y758658D01*
X542698Y758712D01*
X542740Y758762D01*
X542784Y758810D01*
X542832Y758855D01*
X542883Y758896D01*
X542936Y758934D01*
X542991Y758969D01*
X543049Y758999D01*
X543109Y759026D01*
X543170Y759050D01*
X543233Y759068D01*
X543296Y759083D01*
X543361Y759094D01*
X543426Y759101D01*
X543491Y759103D01*
X543557Y759101D01*
D02*
G37*
G36*
X568555Y752101D02*
X568620Y752095D01*
X568685Y752084D01*
X568749Y752069D01*
X568811Y752050D01*
X568872Y752027D01*
X568932Y752000D01*
X568990Y751970D01*
X569045Y751935D01*
X569098Y751896D01*
X569149Y751855D01*
X569197Y751810D01*
X569242Y751762D01*
X569283Y751712D01*
X569321Y751659D01*
X569356Y751603D01*
X569386Y751546D01*
X569414Y751486D01*
X569436Y751425D01*
X569456Y751362D01*
X569470Y751298D01*
X569481Y751234D01*
X569488Y751169D01*
X569490Y751103D01*
X569488Y751038D01*
X569481Y750973D01*
X569470Y750908D01*
X569456Y750844D01*
X569436Y750782D01*
X569414Y750721D01*
X569386Y750661D01*
X569356Y750603D01*
X569321Y750548D01*
X569283Y750495D01*
X569242Y750444D01*
X569197Y750396D01*
X569149Y750352D01*
X569098Y750310D01*
X569045Y750272D01*
X568990Y750237D01*
X568932Y750207D01*
X568872Y750179D01*
X568811Y750156D01*
X568749Y750137D01*
X568685Y750123D01*
X568620Y750112D01*
X568555Y750105D01*
X568490Y750103D01*
X565240D01*
X565175Y750105D01*
X565109Y750112D01*
X565045Y750123D01*
X564981Y750137D01*
X564918Y750156D01*
X564857Y750179D01*
X564798Y750207D01*
X564740Y750237D01*
X564684Y750272D01*
X564631Y750310D01*
X564580Y750352D01*
X564533Y750396D01*
X564488Y750444D01*
X564447Y750495D01*
X564408Y750548D01*
X564374Y750603D01*
X564343Y750661D01*
X564316Y750721D01*
X564293Y750782D01*
X564274Y750844D01*
X564259Y750908D01*
X564249Y750973D01*
X564242Y751038D01*
X564240Y751103D01*
X564242Y751169D01*
X564249Y751234D01*
X564259Y751298D01*
X564274Y751362D01*
X564293Y751425D01*
X564316Y751486D01*
X564343Y751546D01*
X564374Y751603D01*
X564408Y751659D01*
X564447Y751712D01*
X564488Y751762D01*
X564533Y751810D01*
X564580Y751855D01*
X564631Y751896D01*
X564684Y751935D01*
X564740Y751970D01*
X564798Y752000D01*
X564857Y752027D01*
X564918Y752050D01*
X564981Y752069D01*
X565045Y752084D01*
X565109Y752095D01*
X565175Y752101D01*
X565240Y752103D01*
X568490D01*
X568555Y752101D01*
D02*
G37*
G36*
X539807Y752101D02*
X539872Y752094D01*
X539937Y752083D01*
X540000Y752068D01*
X540064Y752049D01*
X540125Y752026D01*
X540184Y752000D01*
X540242Y751969D01*
X540297Y751934D01*
X540351Y751896D01*
X540401Y751854D01*
X540449Y751809D01*
X540494Y751762D01*
X540535Y751711D01*
X540573Y751658D01*
X540608Y751602D01*
X540639Y751545D01*
X540666Y751485D01*
X540689Y751424D01*
X540708Y751361D01*
X540723Y751298D01*
X540733Y751233D01*
X540740Y751168D01*
X540742Y751103D01*
X540740Y751037D01*
X540733Y750972D01*
X540723Y750907D01*
X540708Y750844D01*
X540689Y750781D01*
X540666Y750720D01*
X540639Y750660D01*
X540608Y750602D01*
X540573Y750547D01*
X540535Y750493D01*
X540494Y750443D01*
X540449Y750395D01*
X540401Y750350D01*
X540351Y750309D01*
X540297Y750272D01*
X540242Y750237D01*
X540184Y750206D01*
X540125Y750179D01*
X540064Y750156D01*
X540000Y750136D01*
X539937Y750122D01*
X539872Y750111D01*
X539807Y750104D01*
X539742Y750102D01*
X536492D01*
X536427Y750104D01*
X536361Y750111D01*
X536297Y750122D01*
X536233Y750136D01*
X536170Y750156D01*
X536109Y750179D01*
X536049Y750206D01*
X535992Y750237D01*
X535936Y750272D01*
X535883Y750309D01*
X535833Y750350D01*
X535785Y750395D01*
X535740Y750443D01*
X535698Y750493D01*
X535661Y750547D01*
X535625Y750602D01*
X535595Y750660D01*
X535568Y750720D01*
X535545Y750781D01*
X535526Y750844D01*
X535511Y750907D01*
X535500Y750972D01*
X535494Y751037D01*
X535492Y751103D01*
X535494Y751168D01*
X535500Y751233D01*
X535511Y751298D01*
X535526Y751361D01*
X535545Y751424D01*
X535568Y751485D01*
X535595Y751545D01*
X535625Y751602D01*
X535661Y751658D01*
X535698Y751711D01*
X535740Y751762D01*
X535785Y751809D01*
X535833Y751854D01*
X535883Y751896D01*
X535936Y751934D01*
X535991Y751969D01*
X536049Y752000D01*
X536109Y752026D01*
X536170Y752049D01*
X536233Y752068D01*
X536297Y752083D01*
X536361Y752094D01*
X536427Y752101D01*
X536492Y752102D01*
X539742D01*
X539807Y752101D01*
D02*
G37*
G36*
X568556Y748101D02*
X568620Y748094D01*
X568685Y748084D01*
X568749Y748069D01*
X568811Y748050D01*
X568873Y748026D01*
X568932Y747999D01*
X568990Y747969D01*
X569046Y747934D01*
X569099Y747896D01*
X569151Y747855D01*
X569198Y747810D01*
X569242Y747762D01*
X569283Y747711D01*
X569322Y747658D01*
X569357Y747603D01*
X569388Y747545D01*
X569414Y747485D01*
X569437Y747424D01*
X569457Y747362D01*
X569470Y747298D01*
X569482Y747234D01*
X569488Y747168D01*
X569490Y747103D01*
X569488Y747037D01*
X569482Y746972D01*
X569470Y746908D01*
X569457Y746844D01*
X569437Y746781D01*
X569414Y746720D01*
X569388Y746660D01*
X569357Y746603D01*
X569322Y746547D01*
X569283Y746494D01*
X569242Y746443D01*
X569198Y746395D01*
X569151Y746351D01*
X569099Y746310D01*
X569046Y746271D01*
X568991Y746236D01*
X568932Y746206D01*
X568873Y746179D01*
X568811Y746156D01*
X568749Y746137D01*
X568685Y746122D01*
X568620Y746111D01*
X568556Y746105D01*
X568490Y746103D01*
X565240D01*
X565175Y746105D01*
X565110Y746111D01*
X565045Y746122D01*
X564982Y746137D01*
X564919Y746156D01*
X564857Y746179D01*
X564799Y746206D01*
X564740Y746236D01*
X564685Y746271D01*
X564631Y746310D01*
X564581Y746351D01*
X564534Y746395D01*
X564488Y746443D01*
X564447Y746494D01*
X564409Y746547D01*
X564375Y746602D01*
X564344Y746660D01*
X564316Y746720D01*
X564294Y746781D01*
X564275Y746844D01*
X564260Y746908D01*
X564249Y746972D01*
X564243Y747037D01*
X564240Y747103D01*
X564243Y747168D01*
X564249Y747234D01*
X564260Y747298D01*
X564275Y747362D01*
X564294Y747424D01*
X564316Y747485D01*
X564344Y747545D01*
X564375Y747603D01*
X564409Y747658D01*
X564447Y747711D01*
X564488Y747762D01*
X564534Y747810D01*
X564581Y747855D01*
X564631Y747896D01*
X564685Y747934D01*
X564740Y747969D01*
X564799Y747999D01*
X564857Y748026D01*
X564919Y748050D01*
X564982Y748069D01*
X565045Y748084D01*
X565110Y748094D01*
X565175Y748101D01*
X565240Y748103D01*
X568490D01*
X568556Y748101D01*
D02*
G37*
G36*
X539808Y748100D02*
X539872Y748093D01*
X539937Y748083D01*
X540000Y748068D01*
X540064Y748049D01*
X540126Y748026D01*
X540184Y747999D01*
X540242Y747969D01*
X540297Y747934D01*
X540352Y747895D01*
X540402Y747853D01*
X540449Y747809D01*
X540494Y747762D01*
X540535Y747710D01*
X540574Y747657D01*
X540608Y747602D01*
X540639Y747544D01*
X540666Y747484D01*
X540689Y747423D01*
X540708Y747361D01*
X540723Y747297D01*
X540734Y747233D01*
X540740Y747167D01*
X540742Y747102D01*
X540740Y747036D01*
X540734Y746972D01*
X540723Y746907D01*
X540708Y746844D01*
X540689Y746781D01*
X540666Y746719D01*
X540639Y746659D01*
X540608Y746602D01*
X540574Y746546D01*
X540535Y746493D01*
X540494Y746442D01*
X540449Y746395D01*
X540402Y746351D01*
X540352Y746309D01*
X540297Y746271D01*
X540243Y746236D01*
X540184Y746205D01*
X540126Y746179D01*
X540064Y746155D01*
X540000Y746136D01*
X539937Y746122D01*
X539872Y746111D01*
X539808Y746104D01*
X539742Y746102D01*
X536492D01*
X536427Y746104D01*
X536361Y746111D01*
X536297Y746122D01*
X536233Y746136D01*
X536171Y746155D01*
X536109Y746179D01*
X536050Y746205D01*
X535993Y746236D01*
X535937Y746271D01*
X535883Y746309D01*
X535833Y746351D01*
X535785Y746395D01*
X535741Y746442D01*
X535699Y746493D01*
X535661Y746546D01*
X535626Y746601D01*
X535596Y746659D01*
X535569Y746719D01*
X535546Y746781D01*
X535526Y746844D01*
X535512Y746907D01*
X535500Y746972D01*
X535494Y747036D01*
X535492Y747102D01*
X535494Y747167D01*
X535500Y747233D01*
X535512Y747297D01*
X535526Y747361D01*
X535546Y747423D01*
X535569Y747484D01*
X535596Y747544D01*
X535626Y747602D01*
X535661Y747657D01*
X535699Y747710D01*
X535741Y747762D01*
X535785Y747809D01*
X535833Y747853D01*
X535883Y747895D01*
X535937Y747934D01*
X535991Y747969D01*
X536050Y747999D01*
X536109Y748026D01*
X536171Y748049D01*
X536233Y748068D01*
X536297Y748083D01*
X536361Y748093D01*
X536427Y748100D01*
X536492Y748102D01*
X539742D01*
X539808Y748100D01*
D02*
G37*
G36*
X569490Y740104D02*
X564240D01*
Y744104D01*
X569490D01*
Y740104D01*
D02*
G37*
G36*
X540742Y740103D02*
X535491D01*
Y744103D01*
X540742D01*
Y740103D01*
D02*
G37*
G36*
X568555Y738101D02*
X568620Y738094D01*
X568685Y738083D01*
X568749Y738069D01*
X568811Y738050D01*
X568872Y738027D01*
X568932Y737999D01*
X568990Y737969D01*
X569045Y737934D01*
X569098Y737896D01*
X569149Y737855D01*
X569197Y737810D01*
X569242Y737762D01*
X569283Y737712D01*
X569321Y737658D01*
X569356Y737603D01*
X569386Y737545D01*
X569414Y737486D01*
X569436Y737424D01*
X569456Y737362D01*
X569470Y737298D01*
X569481Y737233D01*
X569488Y737168D01*
X569490Y737103D01*
X569488Y737038D01*
X569481Y736972D01*
X569470Y736907D01*
X569456Y736844D01*
X569436Y736781D01*
X569414Y736720D01*
X569386Y736661D01*
X569356Y736603D01*
X569321Y736547D01*
X569283Y736494D01*
X569242Y736443D01*
X569197Y736396D01*
X569149Y736351D01*
X569098Y736309D01*
X569045Y736271D01*
X568990Y736236D01*
X568932Y736206D01*
X568872Y736179D01*
X568811Y736155D01*
X568749Y736136D01*
X568685Y736122D01*
X568620Y736111D01*
X568555Y736105D01*
X568490Y736103D01*
X565240D01*
X565175Y736105D01*
X565109Y736111D01*
X565045Y736122D01*
X564981Y736136D01*
X564918Y736155D01*
X564857Y736179D01*
X564798Y736206D01*
X564740Y736236D01*
X564684Y736271D01*
X564631Y736309D01*
X564580Y736351D01*
X564533Y736396D01*
X564488Y736443D01*
X564447Y736494D01*
X564408Y736547D01*
X564374Y736603D01*
X564343Y736661D01*
X564316Y736720D01*
X564293Y736781D01*
X564274Y736844D01*
X564259Y736907D01*
X564249Y736972D01*
X564242Y737038D01*
X564240Y737103D01*
X564242Y737168D01*
X564249Y737233D01*
X564259Y737298D01*
X564274Y737362D01*
X564293Y737424D01*
X564316Y737486D01*
X564343Y737545D01*
X564374Y737602D01*
X564408Y737658D01*
X564447Y737712D01*
X564488Y737762D01*
X564533Y737810D01*
X564580Y737855D01*
X564631Y737896D01*
X564684Y737934D01*
X564740Y737969D01*
X564798Y737999D01*
X564857Y738027D01*
X564918Y738050D01*
X564981Y738069D01*
X565045Y738083D01*
X565109Y738094D01*
X565175Y738101D01*
X565240Y738103D01*
X568490D01*
X568555Y738101D01*
D02*
G37*
G36*
X539807Y738100D02*
X539872Y738093D01*
X539937Y738082D01*
X540000Y738068D01*
X540064Y738049D01*
X540125Y738026D01*
X540184Y737999D01*
X540242Y737968D01*
X540297Y737933D01*
X540351Y737895D01*
X540401Y737854D01*
X540449Y737809D01*
X540494Y737761D01*
X540535Y737711D01*
X540573Y737657D01*
X540608Y737602D01*
X540639Y737544D01*
X540666Y737485D01*
X540689Y737423D01*
X540708Y737361D01*
X540723Y737297D01*
X540733Y737232D01*
X540740Y737167D01*
X540742Y737102D01*
X540740Y737037D01*
X540733Y736971D01*
X540723Y736907D01*
X540708Y736843D01*
X540689Y736780D01*
X540666Y736719D01*
X540639Y736660D01*
X540608Y736602D01*
X540573Y736547D01*
X540535Y736493D01*
X540494Y736442D01*
X540449Y736395D01*
X540401Y736350D01*
X540351Y736308D01*
X540297Y736271D01*
X540242Y736236D01*
X540184Y736205D01*
X540125Y736178D01*
X540064Y736155D01*
X540000Y736136D01*
X539937Y736121D01*
X539872Y736111D01*
X539807Y736104D01*
X539742Y736102D01*
X536492D01*
X536427Y736104D01*
X536361Y736111D01*
X536297Y736121D01*
X536233Y736136D01*
X536170Y736155D01*
X536109Y736178D01*
X536049Y736205D01*
X535992Y736236D01*
X535936Y736271D01*
X535883Y736308D01*
X535833Y736350D01*
X535785Y736395D01*
X535740Y736442D01*
X535698Y736493D01*
X535661Y736547D01*
X535625Y736602D01*
X535595Y736660D01*
X535568Y736719D01*
X535545Y736780D01*
X535526Y736843D01*
X535511Y736907D01*
X535500Y736971D01*
X535494Y737037D01*
X535492Y737102D01*
X535494Y737167D01*
X535500Y737232D01*
X535511Y737297D01*
X535526Y737361D01*
X535545Y737423D01*
X535568Y737485D01*
X535595Y737544D01*
X535625Y737602D01*
X535661Y737657D01*
X535698Y737711D01*
X535740Y737761D01*
X535785Y737809D01*
X535833Y737854D01*
X535883Y737895D01*
X535936Y737933D01*
X535991Y737968D01*
X536049Y737999D01*
X536109Y738026D01*
X536170Y738049D01*
X536233Y738068D01*
X536297Y738082D01*
X536361Y738093D01*
X536427Y738100D01*
X536492Y738102D01*
X539742D01*
X539807Y738100D01*
D02*
G37*
G36*
X560091Y734504D02*
X544891D01*
Y749704D01*
X560091D01*
Y734504D01*
D02*
G37*
G36*
X568555Y734103D02*
X568620Y734096D01*
X568685Y734085D01*
X568749Y734071D01*
X568811Y734052D01*
X568873Y734028D01*
X568932Y734002D01*
X568990Y733971D01*
X569046Y733936D01*
X569099Y733898D01*
X569150Y733857D01*
X569197Y733812D01*
X569242Y733764D01*
X569283Y733714D01*
X569322Y733660D01*
X569356Y733605D01*
X569388Y733547D01*
X569414Y733488D01*
X569436Y733426D01*
X569456Y733363D01*
X569470Y733300D01*
X569482Y733235D01*
X569488Y733170D01*
X569490Y733105D01*
X569488Y733040D01*
X569482Y732974D01*
X569470Y732910D01*
X569456Y732846D01*
X569436Y732783D01*
X569414Y732722D01*
X569388Y732663D01*
X569356Y732605D01*
X569322Y732549D01*
X569283Y732496D01*
X569242Y732446D01*
X569197Y732398D01*
X569150Y732353D01*
X569099Y732311D01*
X569046Y732274D01*
X568990Y732239D01*
X568932Y732208D01*
X568873Y732181D01*
X568811Y732158D01*
X568749Y732139D01*
X568685Y732124D01*
X568620Y732114D01*
X568555Y732107D01*
X568490Y732105D01*
X565240D01*
X565175Y732107D01*
X565110Y732114D01*
X565045Y732124D01*
X564982Y732139D01*
X564919Y732158D01*
X564857Y732181D01*
X564798Y732208D01*
X564740Y732239D01*
X564684Y732274D01*
X564631Y732311D01*
X564581Y732353D01*
X564534Y732398D01*
X564488Y732446D01*
X564447Y732496D01*
X564409Y732549D01*
X564374Y732605D01*
X564343Y732663D01*
X564316Y732722D01*
X564293Y732783D01*
X564275Y732846D01*
X564260Y732910D01*
X564249Y732974D01*
X564243Y733040D01*
X564240Y733105D01*
X564243Y733170D01*
X564249Y733235D01*
X564260Y733300D01*
X564275Y733363D01*
X564293Y733426D01*
X564316Y733488D01*
X564343Y733547D01*
X564374Y733605D01*
X564409Y733660D01*
X564447Y733714D01*
X564488Y733764D01*
X564534Y733812D01*
X564581Y733857D01*
X564631Y733898D01*
X564684Y733936D01*
X564740Y733971D01*
X564798Y734002D01*
X564857Y734028D01*
X564919Y734052D01*
X564982Y734071D01*
X565045Y734085D01*
X565110Y734096D01*
X565175Y734103D01*
X565240Y734105D01*
X568490D01*
X568555Y734103D01*
D02*
G37*
G36*
X539807Y734102D02*
X539872Y734096D01*
X539937Y734085D01*
X540000Y734070D01*
X540064Y734051D01*
X540125Y734028D01*
X540184Y734001D01*
X540242Y733970D01*
X540297Y733935D01*
X540351Y733897D01*
X540402Y733856D01*
X540449Y733812D01*
X540494Y733763D01*
X540535Y733713D01*
X540574Y733660D01*
X540608Y733605D01*
X540639Y733546D01*
X540666Y733487D01*
X540689Y733426D01*
X540708Y733363D01*
X540723Y733299D01*
X540734Y733235D01*
X540740Y733170D01*
X540742Y733104D01*
X540740Y733039D01*
X540734Y732974D01*
X540723Y732909D01*
X540708Y732845D01*
X540689Y732783D01*
X540666Y732722D01*
X540639Y732662D01*
X540608Y732604D01*
X540574Y732548D01*
X540535Y732496D01*
X540494Y732445D01*
X540449Y732397D01*
X540402Y732352D01*
X540351Y732311D01*
X540297Y732273D01*
X540242Y732238D01*
X540184Y732207D01*
X540125Y732180D01*
X540064Y732157D01*
X540000Y732139D01*
X539937Y732123D01*
X539872Y732113D01*
X539807Y732106D01*
X539742Y732104D01*
X536492D01*
X536427Y732106D01*
X536361Y732113D01*
X536297Y732123D01*
X536233Y732139D01*
X536171Y732157D01*
X536109Y732180D01*
X536049Y732207D01*
X535993Y732238D01*
X535936Y732273D01*
X535883Y732311D01*
X535833Y732352D01*
X535785Y732397D01*
X535741Y732445D01*
X535699Y732496D01*
X535661Y732548D01*
X535625Y732604D01*
X535595Y732662D01*
X535569Y732722D01*
X535545Y732783D01*
X535526Y732845D01*
X535512Y732909D01*
X535500Y732974D01*
X535494Y733039D01*
X535492Y733104D01*
X535494Y733170D01*
X535500Y733235D01*
X535512Y733299D01*
X535526Y733363D01*
X535545Y733426D01*
X535569Y733487D01*
X535595Y733546D01*
X535625Y733604D01*
X535661Y733660D01*
X535699Y733713D01*
X535741Y733763D01*
X535785Y733812D01*
X535833Y733856D01*
X535883Y733897D01*
X535936Y733935D01*
X535991Y733970D01*
X536049Y734001D01*
X536109Y734028D01*
X536171Y734051D01*
X536233Y734070D01*
X536297Y734085D01*
X536361Y734096D01*
X536427Y734102D01*
X536492Y734104D01*
X539742D01*
X539807Y734102D01*
D02*
G37*
G36*
X566991Y727607D02*
X564490D01*
Y730106D01*
X566991D01*
Y727607D01*
D02*
G37*
G36*
X540493Y727604D02*
X537992D01*
Y730104D01*
X540493D01*
Y727604D01*
D02*
G37*
G36*
X561555Y730353D02*
X561620Y730347D01*
X561684Y730336D01*
X561748Y730321D01*
X561811Y730302D01*
X561872Y730279D01*
X561932Y730252D01*
X561990Y730221D01*
X562045Y730186D01*
X562098Y730148D01*
X562149Y730107D01*
X562197Y730062D01*
X562241Y730014D01*
X562283Y729964D01*
X562321Y729911D01*
X562356Y729855D01*
X562387Y729797D01*
X562413Y729738D01*
X562436Y729677D01*
X562455Y729614D01*
X562470Y729550D01*
X562481Y729486D01*
X562487Y729420D01*
X562489Y729355D01*
Y726105D01*
X562487Y726040D01*
X562481Y725975D01*
X562470Y725910D01*
X562455Y725846D01*
X562436Y725784D01*
X562413Y725722D01*
X562387Y725663D01*
X562356Y725605D01*
X562321Y725550D01*
X562283Y725496D01*
X562241Y725446D01*
X562197Y725398D01*
X562149Y725353D01*
X562098Y725312D01*
X562045Y725274D01*
X561990Y725239D01*
X561932Y725208D01*
X561872Y725181D01*
X561811Y725158D01*
X561748Y725139D01*
X561684Y725125D01*
X561620Y725114D01*
X561555Y725107D01*
X561489Y725105D01*
X561424Y725107D01*
X561359Y725114D01*
X561295Y725125D01*
X561231Y725139D01*
X561168Y725158D01*
X561107Y725181D01*
X561047Y725208D01*
X560989Y725239D01*
X560934Y725274D01*
X560881Y725312D01*
X560830Y725353D01*
X560782Y725398D01*
X560738Y725446D01*
X560697Y725496D01*
X560658Y725550D01*
X560623Y725605D01*
X560592Y725663D01*
X560566Y725722D01*
X560542Y725784D01*
X560523Y725846D01*
X560509Y725910D01*
X560498Y725975D01*
X560491Y726040D01*
X560489Y726105D01*
Y729355D01*
X560491Y729420D01*
X560498Y729486D01*
X560509Y729550D01*
X560523Y729614D01*
X560542Y729677D01*
X560566Y729738D01*
X560592Y729797D01*
X560623Y729855D01*
X560658Y729911D01*
X560697Y729964D01*
X560738Y730014D01*
X560782Y730062D01*
X560830Y730107D01*
X560881Y730148D01*
X560934Y730186D01*
X560989Y730221D01*
X561047Y730252D01*
X561107Y730279D01*
X561168Y730302D01*
X561231Y730321D01*
X561295Y730336D01*
X561359Y730347D01*
X561424Y730353D01*
X561489Y730355D01*
X561555Y730353D01*
D02*
G37*
G36*
X554490Y725105D02*
X550490D01*
Y730355D01*
X554490D01*
Y725105D01*
D02*
G37*
G36*
X547554Y730353D02*
X547619Y730347D01*
X547684Y730336D01*
X547747Y730321D01*
X547811Y730302D01*
X547872Y730279D01*
X547931Y730252D01*
X547989Y730221D01*
X548044Y730186D01*
X548098Y730148D01*
X548148Y730107D01*
X548196Y730062D01*
X548241Y730014D01*
X548282Y729964D01*
X548320Y729911D01*
X548355Y729855D01*
X548386Y729797D01*
X548413Y729738D01*
X548436Y729677D01*
X548455Y729614D01*
X548469Y729550D01*
X548480Y729486D01*
X548487Y729420D01*
X548489Y729355D01*
Y726105D01*
X548487Y726040D01*
X548480Y725975D01*
X548469Y725910D01*
X548455Y725846D01*
X548436Y725784D01*
X548413Y725722D01*
X548386Y725663D01*
X548355Y725605D01*
X548320Y725550D01*
X548282Y725496D01*
X548241Y725446D01*
X548196Y725398D01*
X548148Y725353D01*
X548098Y725312D01*
X548044Y725274D01*
X547989Y725239D01*
X547931Y725208D01*
X547872Y725181D01*
X547811Y725158D01*
X547747Y725139D01*
X547684Y725125D01*
X547619Y725114D01*
X547554Y725107D01*
X547489Y725105D01*
X547424Y725107D01*
X547358Y725114D01*
X547294Y725125D01*
X547230Y725139D01*
X547167Y725158D01*
X547106Y725181D01*
X547046Y725208D01*
X546989Y725239D01*
X546933Y725274D01*
X546880Y725312D01*
X546829Y725353D01*
X546782Y725398D01*
X546737Y725446D01*
X546695Y725496D01*
X546657Y725550D01*
X546623Y725605D01*
X546592Y725663D01*
X546565Y725722D01*
X546542Y725784D01*
X546523Y725846D01*
X546508Y725910D01*
X546497Y725975D01*
X546491Y726040D01*
X546489Y726105D01*
Y729355D01*
X546491Y729420D01*
X546497Y729486D01*
X546508Y729550D01*
X546523Y729614D01*
X546542Y729677D01*
X546565Y729738D01*
X546592Y729797D01*
X546623Y729855D01*
X546657Y729911D01*
X546695Y729964D01*
X546737Y730014D01*
X546782Y730062D01*
X546829Y730107D01*
X546880Y730148D01*
X546933Y730186D01*
X546989Y730221D01*
X547046Y730252D01*
X547106Y730279D01*
X547167Y730302D01*
X547230Y730321D01*
X547294Y730336D01*
X547358Y730347D01*
X547424Y730353D01*
X547489Y730355D01*
X547554Y730353D01*
D02*
G37*
G36*
X557554Y730353D02*
X557619Y730347D01*
X557684Y730336D01*
X557748Y730321D01*
X557811Y730301D01*
X557872Y730279D01*
X557932Y730251D01*
X557989Y730220D01*
X558044Y730186D01*
X558098Y730148D01*
X558148Y730107D01*
X558196Y730062D01*
X558240Y730014D01*
X558283Y729964D01*
X558320Y729910D01*
X558355Y729855D01*
X558386Y729797D01*
X558413Y729738D01*
X558436Y729677D01*
X558455Y729614D01*
X558470Y729550D01*
X558480Y729485D01*
X558487Y729420D01*
X558489Y729355D01*
Y726105D01*
X558487Y726039D01*
X558480Y725975D01*
X558470Y725910D01*
X558455Y725846D01*
X558436Y725784D01*
X558413Y725721D01*
X558386Y725663D01*
X558355Y725605D01*
X558320Y725549D01*
X558283Y725495D01*
X558240Y725445D01*
X558196Y725397D01*
X558148Y725353D01*
X558098Y725312D01*
X558044Y725273D01*
X557989Y725238D01*
X557932Y725208D01*
X557872Y725181D01*
X557811Y725158D01*
X557748Y725138D01*
X557684Y725125D01*
X557619Y725114D01*
X557554Y725107D01*
X557489Y725105D01*
X557424Y725107D01*
X557359Y725114D01*
X557294Y725125D01*
X557230Y725138D01*
X557167Y725158D01*
X557106Y725181D01*
X557046Y725208D01*
X556989Y725238D01*
X556933Y725273D01*
X556880Y725312D01*
X556829Y725353D01*
X556782Y725397D01*
X556738Y725445D01*
X556696Y725495D01*
X556657Y725549D01*
X556623Y725604D01*
X556592Y725663D01*
X556565Y725721D01*
X556542Y725784D01*
X556523Y725846D01*
X556508Y725910D01*
X556497Y725975D01*
X556491Y726039D01*
X556489Y726105D01*
Y729355D01*
X556491Y729420D01*
X556497Y729485D01*
X556508Y729550D01*
X556523Y729614D01*
X556542Y729677D01*
X556565Y729738D01*
X556592Y729797D01*
X556623Y729855D01*
X556657Y729910D01*
X556696Y729964D01*
X556738Y730014D01*
X556782Y730062D01*
X556829Y730107D01*
X556880Y730148D01*
X556933Y730186D01*
X556989Y730220D01*
X557046Y730251D01*
X557106Y730279D01*
X557167Y730301D01*
X557230Y730321D01*
X557294Y730336D01*
X557359Y730347D01*
X557424Y730353D01*
X557489Y730355D01*
X557554Y730353D01*
D02*
G37*
G36*
X543556D02*
X543621Y730347D01*
X543686Y730336D01*
X543750Y730321D01*
X543813Y730302D01*
X543874Y730279D01*
X543933Y730252D01*
X543991Y730221D01*
X544046Y730186D01*
X544100Y730148D01*
X544151Y730107D01*
X544199Y730062D01*
X544243Y730014D01*
X544284Y729964D01*
X544322Y729911D01*
X544357Y729855D01*
X544388Y729797D01*
X544415Y729738D01*
X544438Y729677D01*
X544457Y729614D01*
X544472Y729550D01*
X544482Y729485D01*
X544489Y729420D01*
X544491Y729355D01*
Y726105D01*
X544489Y726040D01*
X544482Y725975D01*
X544472Y725910D01*
X544457Y725846D01*
X544438Y725784D01*
X544415Y725722D01*
X544388Y725663D01*
X544357Y725605D01*
X544322Y725549D01*
X544284Y725496D01*
X544243Y725445D01*
X544199Y725398D01*
X544151Y725353D01*
X544100Y725312D01*
X544046Y725273D01*
X543991Y725239D01*
X543933Y725208D01*
X543874Y725181D01*
X543813Y725158D01*
X543750Y725139D01*
X543686Y725125D01*
X543621Y725114D01*
X543556Y725107D01*
X543491Y725105D01*
X543426Y725107D01*
X543360Y725114D01*
X543296Y725125D01*
X543232Y725139D01*
X543169Y725158D01*
X543108Y725181D01*
X543049Y725208D01*
X542991Y725239D01*
X542935Y725273D01*
X542882Y725312D01*
X542832Y725353D01*
X542784Y725398D01*
X542739Y725445D01*
X542698Y725496D01*
X542660Y725549D01*
X542625Y725605D01*
X542594Y725663D01*
X542567Y725722D01*
X542544Y725784D01*
X542525Y725846D01*
X542510Y725910D01*
X542500Y725975D01*
X542493Y726040D01*
X542491Y726105D01*
Y729355D01*
X542493Y729420D01*
X542500Y729485D01*
X542510Y729550D01*
X542525Y729614D01*
X542544Y729677D01*
X542567Y729738D01*
X542594Y729797D01*
X542625Y729855D01*
X542660Y729911D01*
X542698Y729964D01*
X542739Y730014D01*
X542784Y730062D01*
X542832Y730107D01*
X542882Y730148D01*
X542935Y730186D01*
X542991Y730221D01*
X543049Y730252D01*
X543108Y730279D01*
X543169Y730302D01*
X543232Y730321D01*
X543296Y730336D01*
X543360Y730347D01*
X543426Y730353D01*
X543491Y730355D01*
X543556Y730353D01*
D02*
G37*
G36*
X1209072Y629357D02*
X1205072D01*
Y631857D01*
X1209072D01*
Y629357D01*
D02*
G37*
G36*
X1215072Y626107D02*
X1211072D01*
Y628107D01*
X1215072D01*
Y626107D01*
D02*
G37*
G36*
X1203072D02*
X1199072D01*
Y628107D01*
X1203072D01*
Y626107D01*
D02*
G37*
G36*
X1215072Y622107D02*
X1211072D01*
Y624107D01*
X1215072D01*
Y622107D01*
D02*
G37*
G36*
X1203072D02*
X1199072D01*
Y624107D01*
X1203072D01*
Y622107D01*
D02*
G37*
G36*
X1215072Y618106D02*
X1211072D01*
Y620107D01*
X1215072D01*
Y618106D01*
D02*
G37*
G36*
X1203072D02*
X1199072D01*
Y620107D01*
X1203072D01*
Y618106D01*
D02*
G37*
G36*
X1215072Y614106D02*
X1211072D01*
Y616106D01*
X1215072D01*
Y614106D01*
D02*
G37*
G36*
X1203072D02*
X1199072D01*
Y616106D01*
X1203072D01*
Y614106D01*
D02*
G37*
G36*
X1215072Y610108D02*
X1211072D01*
Y612108D01*
X1215072D01*
Y610108D01*
D02*
G37*
G36*
X1203072D02*
X1199072D01*
Y612108D01*
X1203072D01*
Y610108D01*
D02*
G37*
G36*
X1215072Y606107D02*
X1211072D01*
Y608107D01*
X1215072D01*
Y606107D01*
D02*
G37*
G36*
X1203072D02*
X1199072D01*
Y608107D01*
X1203072D01*
Y606107D01*
D02*
G37*
G36*
X1215072Y602107D02*
X1211072D01*
Y604107D01*
X1215072D01*
Y602107D01*
D02*
G37*
G36*
X1203072D02*
X1199072D01*
Y604107D01*
X1203072D01*
Y602107D01*
D02*
G37*
G36*
X1208072Y601107D02*
X1206072D01*
Y625107D01*
X1208072D01*
Y601107D01*
D02*
G37*
G36*
X1215072Y598106D02*
X1211072D01*
Y600107D01*
X1215072D01*
Y598106D01*
D02*
G37*
G36*
X1203072D02*
X1199072D01*
Y600107D01*
X1203072D01*
Y598106D01*
D02*
G37*
G36*
X1209072Y594357D02*
X1205072D01*
Y596857D01*
X1209072D01*
Y594357D01*
D02*
G37*
G36*
X441490Y584131D02*
Y573306D01*
X440490Y572306D01*
X433580D01*
X432580Y573306D01*
Y575667D01*
X431580Y576667D01*
X424400D01*
X423400Y575667D01*
Y573306D01*
X422400Y572306D01*
X415490D01*
X414490Y573306D01*
Y584131D01*
X415490Y585131D01*
X440490D01*
X441490Y584131D01*
D02*
G37*
G36*
X482608Y583832D02*
Y570982D01*
X481608Y569982D01*
X472203D01*
X471203Y570982D01*
Y574031D01*
X470203Y575031D01*
X460453D01*
X459453Y574031D01*
Y570982D01*
X458453Y569982D01*
X449048D01*
X448048Y570982D01*
Y583832D01*
X449048Y584832D01*
X481608D01*
X482608Y583832D01*
D02*
G37*
G36*
X1502828Y543447D02*
X1500078D01*
Y555947D01*
X1502828D01*
Y543447D01*
D02*
G37*
G36*
X1497829D02*
X1495079D01*
Y555947D01*
X1497829D01*
Y543447D01*
D02*
G37*
G36*
X1492827D02*
X1490078D01*
Y555947D01*
X1492827D01*
Y543447D01*
D02*
G37*
G36*
X1487829D02*
X1485079D01*
Y555947D01*
X1487829D01*
Y543447D01*
D02*
G37*
G36*
X1482828D02*
X1480078D01*
Y555947D01*
X1482828D01*
Y543447D01*
D02*
G37*
G36*
X1477828D02*
X1475079D01*
Y555947D01*
X1477828D01*
Y543447D01*
D02*
G37*
G36*
X1472827D02*
X1470078D01*
Y555947D01*
X1472827D01*
Y543447D01*
D02*
G37*
G36*
X1467829D02*
X1465079D01*
Y555947D01*
X1467829D01*
Y543447D01*
D02*
G37*
G36*
X1462828D02*
X1460078D01*
Y555947D01*
X1462828D01*
Y543447D01*
D02*
G37*
G36*
X1457828D02*
X1455079D01*
Y555947D01*
X1457828D01*
Y543447D01*
D02*
G37*
G36*
X1452828D02*
X1450077D01*
Y555947D01*
X1452828D01*
Y543447D01*
D02*
G37*
G36*
X1447427D02*
X1444678D01*
Y555947D01*
X1447427D01*
Y543447D01*
D02*
G37*
G36*
X482608Y537982D02*
Y525132D01*
X481608Y524132D01*
X449048D01*
X448048Y525132D01*
Y537982D01*
X449048Y538982D01*
X458453D01*
X459453Y537982D01*
Y534933D01*
X460453Y533933D01*
X470203D01*
X471203Y534933D01*
Y537982D01*
X472203Y538982D01*
X481608D01*
X482608Y537982D01*
D02*
G37*
G36*
X1504246Y538376D02*
X1504948Y536448D01*
X1504246Y534520D01*
X1502468Y533493D01*
X1500448Y533850D01*
X1499128Y535422D01*
Y537474D01*
X1500448Y539046D01*
X1502468Y539403D01*
X1504246Y538376D01*
D02*
G37*
G36*
X1488246D02*
X1488948Y536448D01*
X1488246Y534520D01*
X1486469Y533493D01*
X1484448Y533850D01*
X1483129Y535422D01*
Y537474D01*
X1484448Y539046D01*
X1486469Y539403D01*
X1488246Y538376D01*
D02*
G37*
G36*
X1480248D02*
X1480950Y536448D01*
X1480248Y534520D01*
X1478470Y533493D01*
X1476449Y533850D01*
X1475130Y535422D01*
Y537474D01*
X1476449Y539046D01*
X1478470Y539403D01*
X1480248Y538376D01*
D02*
G37*
G36*
X1472247D02*
X1472948Y536448D01*
X1472247Y534520D01*
X1470470Y533493D01*
X1468448Y533850D01*
X1467129Y535422D01*
Y537474D01*
X1468448Y539046D01*
X1470470Y539403D01*
X1472247Y538376D01*
D02*
G37*
G36*
X1464248D02*
X1464950Y536448D01*
X1464248Y534520D01*
X1462471Y533493D01*
X1460450Y533850D01*
X1459131Y535422D01*
Y537474D01*
X1460450Y539046D01*
X1462471Y539403D01*
X1464248Y538376D01*
D02*
G37*
G36*
X1448246D02*
X1448948Y536448D01*
X1448246Y534520D01*
X1446469Y533493D01*
X1444448Y533850D01*
X1443129Y535422D01*
Y537474D01*
X1444448Y539046D01*
X1446469Y539403D01*
X1448246Y538376D01*
D02*
G37*
G36*
X441490Y536306D02*
Y525481D01*
X440490Y524481D01*
X415490D01*
X414490Y525481D01*
Y536306D01*
X415490Y537306D01*
X422400D01*
X423400Y536306D01*
Y533946D01*
X424400Y532946D01*
X431580D01*
X432580Y533946D01*
Y536306D01*
X433580Y537306D01*
X440490D01*
X441490Y536306D01*
D02*
G37*
G36*
X1500248Y531376D02*
X1500950Y529448D01*
X1500248Y527519D01*
X1498470Y526493D01*
X1496449Y526850D01*
X1495130Y528422D01*
Y530474D01*
X1496449Y532046D01*
X1498470Y532402D01*
X1500248Y531376D01*
D02*
G37*
G36*
X1492249D02*
X1492951Y529448D01*
X1492249Y527519D01*
X1490472Y526493D01*
X1488451Y526850D01*
X1487132Y528422D01*
Y530474D01*
X1488451Y532046D01*
X1490472Y532402D01*
X1492249Y531376D01*
D02*
G37*
G36*
X1484248D02*
X1484950Y529448D01*
X1484248Y527519D01*
X1482471Y526493D01*
X1480450Y526850D01*
X1479131Y528422D01*
Y530474D01*
X1480450Y532046D01*
X1482471Y532402D01*
X1484248Y531376D01*
D02*
G37*
G36*
X1468246D02*
X1468948Y529448D01*
X1468246Y527519D01*
X1466469Y526493D01*
X1464448Y526850D01*
X1463129Y528422D01*
Y530474D01*
X1464448Y532046D01*
X1466469Y532402D01*
X1468246Y531376D01*
D02*
G37*
G36*
X1460248D02*
X1460950Y529448D01*
X1460248Y527519D01*
X1458470Y526493D01*
X1456450Y526850D01*
X1455130Y528422D01*
Y530474D01*
X1456450Y532046D01*
X1458470Y532402D01*
X1460248Y531376D01*
D02*
G37*
G36*
X1452247D02*
X1452949Y529448D01*
X1452247Y527519D01*
X1450470Y526493D01*
X1448449Y526850D01*
X1447129Y528422D01*
Y530474D01*
X1448449Y532046D01*
X1450470Y532402D01*
X1452247Y531376D01*
D02*
G37*
G36*
X1515621Y538434D02*
X1515869Y538410D01*
X1516115Y538373D01*
X1516359Y538323D01*
X1516601Y538262D01*
X1516839Y538188D01*
X1517074Y538103D01*
X1517303Y538006D01*
X1517528Y537898D01*
X1517747Y537779D01*
X1517960Y537649D01*
X1518166Y537508D01*
X1518364Y537358D01*
X1518555Y537197D01*
X1518738Y537028D01*
X1518912Y536849D01*
X1519077Y536662D01*
X1519233Y536468D01*
X1519378Y536265D01*
X1519513Y536056D01*
X1519638Y535840D01*
X1519752Y535618D01*
X1519854Y535391D01*
X1519945Y535159D01*
X1520025Y534922D01*
X1520092Y534682D01*
X1520148Y534439D01*
X1520191Y534194D01*
X1520222Y533946D01*
X1520241Y533698D01*
X1520247Y533448D01*
Y527449D01*
X1520241Y527199D01*
X1520222Y526951D01*
X1520191Y526703D01*
X1520148Y526458D01*
X1520092Y526215D01*
X1520025Y525975D01*
X1519945Y525738D01*
X1519854Y525506D01*
X1519752Y525279D01*
X1519638Y525057D01*
X1519513Y524841D01*
X1519378Y524632D01*
X1519233Y524430D01*
X1519077Y524235D01*
X1518912Y524048D01*
X1518738Y523869D01*
X1518555Y523700D01*
X1518364Y523540D01*
X1518166Y523389D01*
X1517960Y523248D01*
X1517747Y523118D01*
X1517528Y522999D01*
X1517303Y522891D01*
X1517074Y522794D01*
X1516839Y522709D01*
X1516601Y522635D01*
X1516359Y522574D01*
X1516115Y522524D01*
X1515869Y522487D01*
X1515621Y522463D01*
X1515372Y522450D01*
X1515122D01*
X1514873Y522463D01*
X1514625Y522487D01*
X1514379Y522524D01*
X1514134Y522574D01*
X1513893Y522635D01*
X1513655Y522709D01*
X1513420Y522794D01*
X1513190Y522891D01*
X1512966Y522999D01*
X1512747Y523118D01*
X1512534Y523248D01*
X1512328Y523389D01*
X1512130Y523540D01*
X1511939Y523700D01*
X1511756Y523869D01*
X1511582Y524048D01*
X1511417Y524235D01*
X1511261Y524430D01*
X1511116Y524632D01*
X1510981Y524841D01*
X1510856Y525057D01*
X1510742Y525279D01*
X1510640Y525506D01*
X1510548Y525738D01*
X1510469Y525975D01*
X1510402Y526215D01*
X1510346Y526458D01*
X1510303Y526703D01*
X1510272Y526951D01*
X1510253Y527199D01*
X1510247Y527449D01*
Y533448D01*
X1510253Y533698D01*
X1510272Y533946D01*
X1510303Y534194D01*
X1510346Y534439D01*
X1510402Y534682D01*
X1510469Y534922D01*
X1510548Y535159D01*
X1510640Y535391D01*
X1510742Y535618D01*
X1510856Y535840D01*
X1510981Y536056D01*
X1511116Y536265D01*
X1511261Y536468D01*
X1511417Y536662D01*
X1511582Y536849D01*
X1511756Y537028D01*
X1511939Y537197D01*
X1512130Y537358D01*
X1512328Y537508D01*
X1512534Y537649D01*
X1512747Y537779D01*
X1512966Y537898D01*
X1513190Y538006D01*
X1513420Y538103D01*
X1513655Y538188D01*
X1513893Y538262D01*
X1514134Y538323D01*
X1514379Y538373D01*
X1514625Y538410D01*
X1514873Y538434D01*
X1515122Y538447D01*
X1515372D01*
X1515621Y538434D01*
D02*
G37*
G36*
X1433022D02*
X1433270Y538410D01*
X1433517Y538373D01*
X1433761Y538323D01*
X1434003Y538262D01*
X1434241Y538188D01*
X1434475Y538103D01*
X1434705Y538006D01*
X1434930Y537898D01*
X1435149Y537779D01*
X1435361Y537649D01*
X1435567Y537508D01*
X1435766Y537358D01*
X1435957Y537197D01*
X1436140Y537028D01*
X1436314Y536849D01*
X1436479Y536662D01*
X1436634Y536468D01*
X1436780Y536265D01*
X1436915Y536056D01*
X1437040Y535840D01*
X1437154Y535618D01*
X1437256Y535391D01*
X1437347Y535159D01*
X1437426Y534922D01*
X1437494Y534682D01*
X1437550Y534439D01*
X1437593Y534194D01*
X1437624Y533946D01*
X1437643Y533698D01*
X1437649Y533448D01*
Y527449D01*
X1437643Y527199D01*
X1437624Y526951D01*
X1437593Y526703D01*
X1437550Y526458D01*
X1437494Y526215D01*
X1437426Y525975D01*
X1437347Y525738D01*
X1437256Y525506D01*
X1437154Y525279D01*
X1437040Y525057D01*
X1436915Y524841D01*
X1436780Y524632D01*
X1436634Y524430D01*
X1436479Y524235D01*
X1436314Y524048D01*
X1436140Y523869D01*
X1435957Y523700D01*
X1435766Y523540D01*
X1435567Y523389D01*
X1435361Y523248D01*
X1435149Y523118D01*
X1434930Y522999D01*
X1434705Y522891D01*
X1434475Y522794D01*
X1434241Y522709D01*
X1434003Y522635D01*
X1433761Y522574D01*
X1433517Y522524D01*
X1433270Y522487D01*
X1433022Y522463D01*
X1432773Y522450D01*
X1432524D01*
X1432275Y522463D01*
X1432027Y522487D01*
X1431781Y522524D01*
X1431536Y522574D01*
X1431295Y522635D01*
X1431056Y522709D01*
X1430822Y522794D01*
X1430592Y522891D01*
X1430367Y522999D01*
X1430149Y523118D01*
X1429936Y523248D01*
X1429730Y523389D01*
X1429531Y523540D01*
X1429340Y523700D01*
X1429157Y523869D01*
X1428983Y524048D01*
X1428818Y524235D01*
X1428663Y524430D01*
X1428517Y524632D01*
X1428382Y524841D01*
X1428257Y525057D01*
X1428144Y525279D01*
X1428041Y525506D01*
X1427950Y525738D01*
X1427871Y525975D01*
X1427803Y526215D01*
X1427748Y526458D01*
X1427704Y526703D01*
X1427673Y526951D01*
X1427655Y527199D01*
X1427649Y527449D01*
Y533448D01*
X1427655Y533698D01*
X1427673Y533946D01*
X1427704Y534194D01*
X1427748Y534439D01*
X1427803Y534682D01*
X1427871Y534922D01*
X1427950Y535159D01*
X1428041Y535391D01*
X1428144Y535618D01*
X1428257Y535840D01*
X1428382Y536056D01*
X1428517Y536265D01*
X1428663Y536468D01*
X1428818Y536662D01*
X1428983Y536849D01*
X1429157Y537028D01*
X1429340Y537197D01*
X1429531Y537358D01*
X1429730Y537508D01*
X1429936Y537649D01*
X1430149Y537779D01*
X1430367Y537898D01*
X1430592Y538006D01*
X1430822Y538103D01*
X1431056Y538188D01*
X1431295Y538262D01*
X1431536Y538323D01*
X1431781Y538373D01*
X1432027Y538410D01*
X1432275Y538434D01*
X1432524Y538447D01*
X1432773D01*
X1433022Y538434D01*
D02*
G37*
G36*
X1519222Y494533D02*
X1519470Y494508D01*
X1519717Y494471D01*
X1519961Y494422D01*
X1520203Y494360D01*
X1520441Y494287D01*
X1520675Y494201D01*
X1520905Y494105D01*
X1521130Y493997D01*
X1521349Y493877D01*
X1521561Y493747D01*
X1521767Y493607D01*
X1521966Y493456D01*
X1522157Y493296D01*
X1522340Y493126D01*
X1522514Y492948D01*
X1522679Y492761D01*
X1522834Y492566D01*
X1522980Y492364D01*
X1523115Y492154D01*
X1523240Y491938D01*
X1523354Y491717D01*
X1523456Y491489D01*
X1523547Y491257D01*
X1523626Y491021D01*
X1523694Y490781D01*
X1523750Y490538D01*
X1523793Y490292D01*
X1523824Y490045D01*
X1523842Y489796D01*
X1523849Y489547D01*
Y483547D01*
X1523842Y483298D01*
X1523824Y483049D01*
X1523793Y482802D01*
X1523750Y482556D01*
X1523694Y482313D01*
X1523626Y482074D01*
X1523547Y481837D01*
X1523456Y481605D01*
X1523354Y481378D01*
X1523240Y481156D01*
X1523115Y480940D01*
X1522980Y480731D01*
X1522834Y480528D01*
X1522679Y480333D01*
X1522514Y480146D01*
X1522340Y479968D01*
X1522157Y479798D01*
X1521966Y479638D01*
X1521767Y479487D01*
X1521561Y479347D01*
X1521349Y479217D01*
X1521130Y479098D01*
X1520905Y478990D01*
X1520675Y478893D01*
X1520441Y478807D01*
X1520203Y478734D01*
X1519961Y478673D01*
X1519717Y478623D01*
X1519470Y478586D01*
X1519222Y478561D01*
X1518973Y478549D01*
X1518724D01*
X1518475Y478561D01*
X1518227Y478586D01*
X1517980Y478623D01*
X1517736Y478673D01*
X1517495Y478734D01*
X1517256Y478807D01*
X1517022Y478893D01*
X1516792Y478990D01*
X1516568Y479098D01*
X1516349Y479217D01*
X1516136Y479347D01*
X1515930Y479487D01*
X1515731Y479638D01*
X1515540Y479798D01*
X1515357Y479968D01*
X1515183Y480146D01*
X1515018Y480333D01*
X1514863Y480528D01*
X1514717Y480731D01*
X1514582Y480940D01*
X1514458Y481156D01*
X1514344Y481378D01*
X1514241Y481605D01*
X1514150Y481837D01*
X1514071Y482074D01*
X1514003Y482313D01*
X1513948Y482556D01*
X1513905Y482802D01*
X1513873Y483049D01*
X1513855Y483298D01*
X1513849Y483547D01*
Y489547D01*
X1513855Y489796D01*
X1513873Y490045D01*
X1513905Y490292D01*
X1513948Y490538D01*
X1514003Y490781D01*
X1514071Y491021D01*
X1514150Y491257D01*
X1514241Y491489D01*
X1514344Y491717D01*
X1514458Y491938D01*
X1514582Y492154D01*
X1514717Y492364D01*
X1514863Y492566D01*
X1515018Y492761D01*
X1515183Y492948D01*
X1515357Y493126D01*
X1515540Y493296D01*
X1515731Y493456D01*
X1515930Y493607D01*
X1516136Y493747D01*
X1516349Y493877D01*
X1516568Y493997D01*
X1516792Y494105D01*
X1517022Y494201D01*
X1517256Y494287D01*
X1517495Y494360D01*
X1517736Y494422D01*
X1517980Y494471D01*
X1518227Y494508D01*
X1518475Y494533D01*
X1518724Y494546D01*
X1518973D01*
X1519222Y494533D01*
D02*
G37*
G36*
X1429421D02*
X1429669Y494508D01*
X1429915Y494471D01*
X1430159Y494422D01*
X1430401Y494360D01*
X1430639Y494287D01*
X1430874Y494201D01*
X1431103Y494105D01*
X1431328Y493997D01*
X1431547Y493877D01*
X1431760Y493747D01*
X1431966Y493607D01*
X1432164Y493456D01*
X1432355Y493296D01*
X1432538Y493126D01*
X1432712Y492948D01*
X1432877Y492761D01*
X1433033Y492566D01*
X1433178Y492364D01*
X1433313Y492154D01*
X1433438Y491938D01*
X1433552Y491717D01*
X1433654Y491489D01*
X1433745Y491257D01*
X1433825Y491021D01*
X1433892Y490781D01*
X1433948Y490538D01*
X1433991Y490292D01*
X1434022Y490045D01*
X1434041Y489796D01*
X1434047Y489547D01*
Y483547D01*
X1434041Y483298D01*
X1434022Y483049D01*
X1433991Y482802D01*
X1433948Y482556D01*
X1433892Y482313D01*
X1433825Y482074D01*
X1433745Y481837D01*
X1433654Y481605D01*
X1433552Y481378D01*
X1433438Y481156D01*
X1433313Y480940D01*
X1433178Y480731D01*
X1433033Y480528D01*
X1432877Y480333D01*
X1432712Y480146D01*
X1432538Y479968D01*
X1432355Y479798D01*
X1432164Y479638D01*
X1431966Y479487D01*
X1431760Y479347D01*
X1431547Y479217D01*
X1431328Y479098D01*
X1431103Y478990D01*
X1430874Y478893D01*
X1430639Y478807D01*
X1430401Y478734D01*
X1430159Y478673D01*
X1429915Y478623D01*
X1429669Y478586D01*
X1429421Y478561D01*
X1429172Y478549D01*
X1428922D01*
X1428673Y478561D01*
X1428425Y478586D01*
X1428179Y478623D01*
X1427934Y478673D01*
X1427693Y478734D01*
X1427455Y478807D01*
X1427220Y478893D01*
X1426991Y478990D01*
X1426766Y479098D01*
X1426547Y479217D01*
X1426334Y479347D01*
X1426128Y479487D01*
X1425930Y479638D01*
X1425739Y479798D01*
X1425556Y479968D01*
X1425382Y480146D01*
X1425217Y480333D01*
X1425061Y480528D01*
X1424916Y480731D01*
X1424780Y480940D01*
X1424656Y481156D01*
X1424542Y481378D01*
X1424440Y481605D01*
X1424348Y481837D01*
X1424269Y482074D01*
X1424202Y482313D01*
X1424146Y482556D01*
X1424103Y482802D01*
X1424072Y483049D01*
X1424053Y483298D01*
X1424047Y483547D01*
Y489547D01*
X1424053Y489796D01*
X1424072Y490045D01*
X1424103Y490292D01*
X1424146Y490538D01*
X1424202Y490781D01*
X1424269Y491021D01*
X1424348Y491257D01*
X1424440Y491489D01*
X1424542Y491717D01*
X1424656Y491938D01*
X1424780Y492154D01*
X1424916Y492364D01*
X1425061Y492566D01*
X1425217Y492761D01*
X1425382Y492948D01*
X1425556Y493126D01*
X1425739Y493296D01*
X1425930Y493456D01*
X1426128Y493607D01*
X1426334Y493747D01*
X1426547Y493877D01*
X1426766Y493997D01*
X1426991Y494105D01*
X1427220Y494201D01*
X1427455Y494287D01*
X1427693Y494360D01*
X1427934Y494422D01*
X1428179Y494471D01*
X1428425Y494508D01*
X1428673Y494533D01*
X1428922Y494546D01*
X1429172D01*
X1429421Y494533D01*
D02*
G37*
D28*
X245811Y1310063D02*
D03*
Y1293564D02*
D03*
X261457D02*
D03*
Y1310063D02*
D03*
X1683309Y1236542D02*
D03*
Y1220042D02*
D03*
X1390650Y1207008D02*
D03*
Y1223508D02*
D03*
X1398016Y1158250D02*
D03*
Y1174750D02*
D03*
X1335294Y1222138D02*
D03*
Y1205638D02*
D03*
X1319734Y1222138D02*
D03*
Y1205638D02*
D03*
X1442974Y893064D02*
D03*
Y909564D02*
D03*
X1091880Y1003036D02*
D03*
Y986536D02*
D03*
X1061908Y1003036D02*
D03*
Y986536D02*
D03*
X1076960Y1003036D02*
D03*
Y986536D02*
D03*
X294706Y814382D02*
D03*
Y797883D02*
D03*
X208976Y594291D02*
D03*
Y577791D02*
D03*
X224282Y594614D02*
D03*
Y578114D02*
D03*
X493456Y604706D02*
D03*
Y588205D02*
D03*
X508539Y604609D02*
D03*
Y588109D02*
D03*
X523778Y604609D02*
D03*
Y588109D02*
D03*
X539019Y604609D02*
D03*
Y588109D02*
D03*
X554324Y604609D02*
D03*
Y588109D02*
D03*
X569498Y604609D02*
D03*
Y588109D02*
D03*
X584551Y604609D02*
D03*
Y588109D02*
D03*
X599790Y604609D02*
D03*
Y588109D02*
D03*
X388940Y622877D02*
D03*
Y639376D02*
D03*
X585912Y707956D02*
D03*
Y691457D02*
D03*
X601152D02*
D03*
Y707956D02*
D03*
X502159Y787120D02*
D03*
Y770620D02*
D03*
X1420302Y902393D02*
D03*
Y885893D02*
D03*
X1405062Y902393D02*
D03*
Y885893D02*
D03*
X1531606Y531067D02*
D03*
Y514567D02*
D03*
X1072322Y679391D02*
D03*
Y695891D02*
D03*
X1113978Y676344D02*
D03*
Y692843D02*
D03*
X1150300Y811217D02*
D03*
Y827718D02*
D03*
X1199957Y960051D02*
D03*
Y943551D02*
D03*
X708980Y839792D02*
D03*
Y856292D02*
D03*
X725932Y839978D02*
D03*
Y856478D02*
D03*
X741172Y839978D02*
D03*
Y856478D02*
D03*
X710880Y938716D02*
D03*
Y922215D02*
D03*
X1325626Y958586D02*
D03*
Y942086D02*
D03*
X1341120D02*
D03*
Y958586D02*
D03*
D29*
X244112Y1277356D02*
D03*
X260612D02*
D03*
X1184308Y880125D02*
D03*
X1167808D02*
D03*
X1167783Y895436D02*
D03*
X1184283D02*
D03*
X1238047Y918286D02*
D03*
X1221547D02*
D03*
X1386391Y1097976D02*
D03*
X1369890D02*
D03*
X1369637Y1067308D02*
D03*
X1386136D02*
D03*
Y1082736D02*
D03*
X1369637D02*
D03*
Y1051880D02*
D03*
X1386136D02*
D03*
X1369890Y1121062D02*
D03*
X1386391D02*
D03*
Y1136940D02*
D03*
X1369890D02*
D03*
X568130Y704789D02*
D03*
X551629D02*
D03*
X1534227Y709422D02*
D03*
X1550728D02*
D03*
X1354904Y709168D02*
D03*
X1371404D02*
D03*
X519118Y858840D02*
D03*
X535617D02*
D03*
X616034Y753024D02*
D03*
X599534D02*
D03*
X553788Y777555D02*
D03*
X570289D02*
D03*
Y792927D02*
D03*
X553788D02*
D03*
X841258Y1008126D02*
D03*
X857758D02*
D03*
X1376749Y925256D02*
D03*
X1393248D02*
D03*
X1457892Y568772D02*
D03*
X1441391D02*
D03*
X1189668Y925896D02*
D03*
X1173167D02*
D03*
X840036Y1200338D02*
D03*
X823537D02*
D03*
X889566D02*
D03*
X873066D02*
D03*
X939790D02*
D03*
X923290D02*
D03*
X990590D02*
D03*
X974090D02*
D03*
X1040120D02*
D03*
X1023620D02*
D03*
X1089650D02*
D03*
X1073150D02*
D03*
X1142990D02*
D03*
X1126490D02*
D03*
X1191826D02*
D03*
X1175327D02*
D03*
X1242626D02*
D03*
X1226126D02*
D03*
X1293427D02*
D03*
X1276926D02*
D03*
X1280922Y709422D02*
D03*
X1264422D02*
D03*
X1461573Y693984D02*
D03*
X1445074D02*
D03*
D30*
X1703069Y1214600D02*
D03*
Y1236601D02*
D03*
X224359Y1304014D02*
D03*
Y1282012D02*
D03*
X1219784Y943783D02*
D03*
Y965784D02*
D03*
D31*
X1372870Y1189754D02*
D03*
Y1223754D02*
D03*
X1353262Y1223636D02*
D03*
Y1189636D02*
D03*
X1615186Y1137430D02*
D03*
Y1171430D02*
D03*
D32*
X1190498Y825848D02*
D03*
Y805848D02*
D03*
D33*
X228229Y1024127D02*
D03*
Y1030627D02*
D03*
Y1037127D02*
D03*
Y1043627D02*
D03*
Y1050127D02*
D03*
Y1056627D02*
D03*
Y1063126D02*
D03*
X284231D02*
D03*
Y1056627D02*
D03*
Y1050127D02*
D03*
Y1043627D02*
D03*
Y1037127D02*
D03*
Y1030627D02*
D03*
Y1024127D02*
D03*
D34*
X1219302Y899117D02*
D03*
X1200302D02*
D03*
Y884116D02*
D03*
X1219302D02*
D03*
D35*
X196869Y1222604D02*
D03*
X164167D02*
D03*
D36*
X482854Y827278D02*
D03*
Y887730D02*
D03*
D37*
X185420Y1024636D02*
D03*
Y1053886D02*
D03*
X459715Y968767D02*
D03*
Y998017D02*
D03*
X414892Y923901D02*
D03*
Y894651D02*
D03*
X974742Y539687D02*
D03*
Y510437D02*
D03*
X628904Y1306068D02*
D03*
Y1276818D02*
D03*
D38*
X1650746Y1074420D02*
D03*
X1628745D02*
D03*
D39*
X640588Y1067104D02*
D03*
Y1086104D02*
D03*
X881428Y984650D02*
D03*
Y1003650D02*
D03*
X938990Y1006202D02*
D03*
Y987202D02*
D03*
X440738Y835298D02*
D03*
Y854298D02*
D03*
X548894Y878332D02*
D03*
Y897332D02*
D03*
X157274Y741064D02*
D03*
Y760064D02*
D03*
X218900Y721976D02*
D03*
Y702976D02*
D03*
X420164Y835298D02*
D03*
Y854298D02*
D03*
X762000Y935940D02*
D03*
Y916940D02*
D03*
X846211Y918019D02*
D03*
Y899019D02*
D03*
X1214676Y807358D02*
D03*
Y826358D02*
D03*
X1481280Y912984D02*
D03*
Y893984D02*
D03*
X1460706Y912984D02*
D03*
Y893984D02*
D03*
X1381204Y909416D02*
D03*
Y890416D02*
D03*
X881380Y681532D02*
D03*
Y700532D02*
D03*
X1094280Y675786D02*
D03*
Y694786D02*
D03*
X1135174Y679850D02*
D03*
Y698850D02*
D03*
X1167844Y831196D02*
D03*
Y812196D02*
D03*
X1180846Y941882D02*
D03*
Y960882D02*
D03*
X1331770Y1056278D02*
D03*
Y1075278D02*
D03*
X786130Y1057656D02*
D03*
Y1076656D02*
D03*
X781256Y1182986D02*
D03*
Y1163986D02*
D03*
X1360726Y890416D02*
D03*
Y909416D02*
D03*
D40*
X141188Y965708D02*
D03*
X170688D02*
D03*
X310434Y1004605D02*
D03*
X280934D02*
D03*
X310068Y775876D02*
D03*
X280568D02*
D03*
X430088Y945482D02*
D03*
X459588D02*
D03*
D41*
X1114316Y714502D02*
D03*
X1109314D02*
D03*
X1104316D02*
D03*
X1099314D02*
D03*
X1094316D02*
D03*
X1089315D02*
D03*
X1084316D02*
D03*
X1079315D02*
D03*
X1074316D02*
D03*
X1069315D02*
D03*
X1064316D02*
D03*
X1059315D02*
D03*
X1054316D02*
D03*
X1049315D02*
D03*
X1044316D02*
D03*
X1039315D02*
D03*
X1034316D02*
D03*
X1029315D02*
D03*
X1024316D02*
D03*
X1019315D02*
D03*
X1014316D02*
D03*
X1009315D02*
D03*
X1004316D02*
D03*
X999315D02*
D03*
X994316D02*
D03*
X989315D02*
D03*
X984316D02*
D03*
X979315D02*
D03*
X974316D02*
D03*
X969315D02*
D03*
X964316D02*
D03*
X959315D02*
D03*
X954316D02*
D03*
X949315D02*
D03*
X944316D02*
D03*
X939315D02*
D03*
X934316D02*
D03*
X929315D02*
D03*
X924316D02*
D03*
X919315D02*
D03*
X914316D02*
D03*
X909315D02*
D03*
X904316D02*
D03*
X899315D02*
D03*
Y965500D02*
D03*
X904316D02*
D03*
X909315D02*
D03*
X914316D02*
D03*
X919315D02*
D03*
X924316D02*
D03*
X929315D02*
D03*
X934316D02*
D03*
X939315D02*
D03*
X944316D02*
D03*
X949315D02*
D03*
X954316D02*
D03*
X959315D02*
D03*
X964316D02*
D03*
X969315D02*
D03*
X974316D02*
D03*
X979315D02*
D03*
X984316D02*
D03*
X989315D02*
D03*
X994316D02*
D03*
X999315D02*
D03*
X1004316D02*
D03*
X1009315D02*
D03*
X1014316D02*
D03*
X1019315D02*
D03*
X1024316D02*
D03*
X1029315D02*
D03*
X1034316D02*
D03*
X1039315D02*
D03*
X1044316D02*
D03*
X1049315D02*
D03*
X1054316D02*
D03*
X1059315D02*
D03*
X1064316D02*
D03*
X1069315D02*
D03*
X1074316D02*
D03*
X1079315D02*
D03*
X1084316D02*
D03*
X1089315D02*
D03*
X1094316D02*
D03*
X1099314D02*
D03*
X1104316D02*
D03*
X1109314D02*
D03*
X1114316D02*
D03*
D42*
X881317Y732500D02*
D03*
Y737502D02*
D03*
Y742500D02*
D03*
Y747502D02*
D03*
Y752500D02*
D03*
Y757502D02*
D03*
Y762500D02*
D03*
Y767502D02*
D03*
Y772500D02*
D03*
Y777502D02*
D03*
Y782500D02*
D03*
Y787502D02*
D03*
Y792500D02*
D03*
Y797502D02*
D03*
Y802500D02*
D03*
Y807502D02*
D03*
Y812500D02*
D03*
Y817502D02*
D03*
Y822500D02*
D03*
Y827502D02*
D03*
Y832500D02*
D03*
Y837502D02*
D03*
Y842500D02*
D03*
Y847502D02*
D03*
Y852500D02*
D03*
Y857502D02*
D03*
Y862500D02*
D03*
Y867501D02*
D03*
Y872500D02*
D03*
Y877501D02*
D03*
Y882500D02*
D03*
Y887501D02*
D03*
Y892500D02*
D03*
Y897501D02*
D03*
Y902500D02*
D03*
Y907501D02*
D03*
Y912500D02*
D03*
Y917501D02*
D03*
Y922500D02*
D03*
Y927501D02*
D03*
Y932500D02*
D03*
Y937501D02*
D03*
Y942500D02*
D03*
Y947501D02*
D03*
X1132314D02*
D03*
Y942500D02*
D03*
Y937501D02*
D03*
Y932500D02*
D03*
Y927501D02*
D03*
Y922500D02*
D03*
Y917501D02*
D03*
Y912500D02*
D03*
Y907501D02*
D03*
Y902500D02*
D03*
Y897501D02*
D03*
Y892500D02*
D03*
Y887501D02*
D03*
Y882500D02*
D03*
Y877501D02*
D03*
Y872500D02*
D03*
Y867501D02*
D03*
Y862500D02*
D03*
Y857502D02*
D03*
Y852500D02*
D03*
Y847502D02*
D03*
Y842500D02*
D03*
Y837502D02*
D03*
Y832500D02*
D03*
Y827502D02*
D03*
Y822500D02*
D03*
Y817502D02*
D03*
Y812500D02*
D03*
Y807502D02*
D03*
Y802500D02*
D03*
Y797502D02*
D03*
Y792500D02*
D03*
Y787502D02*
D03*
Y782500D02*
D03*
Y777502D02*
D03*
Y772500D02*
D03*
Y767502D02*
D03*
Y762500D02*
D03*
Y757502D02*
D03*
Y752500D02*
D03*
Y747502D02*
D03*
Y742500D02*
D03*
Y737502D02*
D03*
Y732500D02*
D03*
D43*
X748284Y878840D02*
D03*
X730034D02*
D03*
X124206Y963930D02*
D03*
X105956D02*
D03*
X204052Y1004232D02*
D03*
X222302D02*
D03*
X239250Y1002733D02*
D03*
X257500D02*
D03*
X211728Y818363D02*
D03*
X229978D02*
D03*
X212744Y841019D02*
D03*
X230994D02*
D03*
X765448Y879323D02*
D03*
X783698D02*
D03*
X1634782Y1053846D02*
D03*
X1653032D02*
D03*
X537826Y837667D02*
D03*
X519576D02*
D03*
X519684Y817626D02*
D03*
X537934D02*
D03*
X234487Y740070D02*
D03*
X216237D02*
D03*
X523132Y1061237D02*
D03*
X541382D02*
D03*
X523241Y1041099D02*
D03*
X541491D02*
D03*
X488480Y1041146D02*
D03*
X506730D02*
D03*
X1283970Y1054631D02*
D03*
X1302220D02*
D03*
X1267460D02*
D03*
X1249210D02*
D03*
X1220578D02*
D03*
X1202328D02*
D03*
X1169778D02*
D03*
X1151528D02*
D03*
X1120248D02*
D03*
X1101998D02*
D03*
X1070718D02*
D03*
X1052468D02*
D03*
X1022458D02*
D03*
X1004208D02*
D03*
X937152D02*
D03*
X955402D02*
D03*
X887260D02*
D03*
X905510D02*
D03*
X836460D02*
D03*
X854710D02*
D03*
X1637938Y1224051D02*
D03*
X1656188D02*
D03*
X1695958Y1073150D02*
D03*
X1677708D02*
D03*
D44*
X177775Y776116D02*
D03*
Y794366D02*
D03*
X307055Y1024469D02*
D03*
Y1042719D02*
D03*
X642899Y951884D02*
D03*
Y970134D02*
D03*
X177063Y759568D02*
D03*
Y741318D02*
D03*
X276885Y816972D02*
D03*
Y798722D02*
D03*
X187985Y821328D02*
D03*
Y839578D02*
D03*
X351251Y1052879D02*
D03*
Y1034629D02*
D03*
X436651Y890124D02*
D03*
Y871874D02*
D03*
X436626Y924268D02*
D03*
Y906018D02*
D03*
X456971Y889362D02*
D03*
Y871112D02*
D03*
X400329Y854056D02*
D03*
Y835806D02*
D03*
D45*
X159512Y1144016D02*
D03*
Y1188014D02*
D03*
D46*
X1688592Y826026D02*
D03*
Y526270D02*
D03*
D47*
X598932Y1218904D02*
D03*
Y1308904D02*
D03*
X1006094Y486114D02*
D03*
Y576114D02*
D03*
D48*
X825815Y878332D02*
D03*
X801817D02*
D03*
Y897128D02*
D03*
X825815D02*
D03*
X1736659Y1092454D02*
D03*
X1712661D02*
D03*
D49*
X640842Y1163574D02*
D03*
Y1187572D02*
D03*
X606526Y807449D02*
D03*
Y831447D02*
D03*
X625322D02*
D03*
Y807449D02*
D03*
X1561846Y540705D02*
D03*
Y564703D02*
D03*
D50*
X668437Y930148D02*
D03*
X626364D02*
D03*
D51*
X496569Y969472D02*
D03*
Y927400D02*
D03*
X657351Y862122D02*
D03*
Y904194D02*
D03*
D52*
X1422819Y602886D02*
D03*
Y607885D02*
D03*
Y612886D02*
D03*
X1430069D02*
D03*
Y607885D02*
D03*
Y602886D02*
D03*
D53*
X1282005Y727915D02*
D03*
X1222005D02*
D03*
X1282005Y765415D02*
D03*
X1222005D02*
D03*
X1312005D02*
D03*
X1372005D02*
D03*
X1312005Y727915D02*
D03*
X1372005D02*
D03*
X1462005D02*
D03*
X1402005D02*
D03*
X1462005Y765415D02*
D03*
X1402005D02*
D03*
X1492005D02*
D03*
X1552005D02*
D03*
X1492005Y727915D02*
D03*
X1552005D02*
D03*
X1150071Y702567D02*
D03*
X1173523D02*
D03*
X1148546Y719836D02*
D03*
X1171998D02*
D03*
D54*
X1087328Y548922D02*
D03*
Y488922D02*
D03*
X1049828Y548922D02*
D03*
Y488922D02*
D03*
D55*
X725932Y646887D02*
D03*
Y627888D02*
D03*
X745932Y637388D02*
D03*
X400210Y810006D02*
D03*
X420210Y819506D02*
D03*
Y800506D02*
D03*
D56*
X118209Y713994D02*
D03*
X162207D02*
D03*
D57*
X160433Y594525D02*
D03*
X185437D02*
D03*
X160433Y651174D02*
D03*
X185437D02*
D03*
X134693D02*
D03*
X109689D02*
D03*
X134693Y594525D02*
D03*
X109689D02*
D03*
D58*
X857606Y992485D02*
D03*
X848106D02*
D03*
X838606D02*
D03*
D59*
Y969411D02*
D03*
X857606D02*
D03*
D60*
X1180084Y781855D02*
D03*
Y755353D02*
D03*
D61*
X1350105Y1088767D02*
D03*
X1345104Y1088766D02*
D03*
X1340103Y1088765D02*
D03*
X1335104Y1088766D02*
D03*
X1330105Y1088765D02*
D03*
X1330103Y1135765D02*
D03*
X1335104Y1135766D02*
D03*
X1340105Y1135767D02*
D03*
X1345104Y1135766D02*
D03*
X1350103Y1135765D02*
D03*
D62*
X115278Y923188D02*
D03*
Y932688D02*
D03*
Y942188D02*
D03*
X142278D02*
D03*
Y932688D02*
D03*
Y923188D02*
D03*
D63*
X725830Y912622D02*
D03*
X735330D02*
D03*
X744830D02*
D03*
Y939622D02*
D03*
X735330D02*
D03*
X725830D02*
D03*
X509829Y902284D02*
D03*
X519328D02*
D03*
X528828D02*
D03*
Y875284D02*
D03*
X519328D02*
D03*
X509829D02*
D03*
D64*
X514701Y489011D02*
D03*
X527401D02*
D03*
X540101D02*
D03*
X552800D02*
D03*
X565500D02*
D03*
X578200D02*
D03*
X590900D02*
D03*
X603601D02*
D03*
X514701Y565912D02*
D03*
X527401D02*
D03*
X540101D02*
D03*
X552800D02*
D03*
X565500D02*
D03*
X578200D02*
D03*
X590900D02*
D03*
X603601D02*
D03*
D65*
X135382Y1115314D02*
D03*
D66*
X158382Y1055915D02*
D03*
X135382D02*
D03*
X112382D02*
D03*
D67*
X1501648Y633501D02*
D03*
Y610502D02*
D03*
Y587502D02*
D03*
D68*
X1561047Y610502D02*
D03*
D69*
X1355693Y959714D02*
D03*
Y940714D02*
D03*
X1380395Y950214D02*
D03*
D70*
X192278Y734473D02*
D03*
X201778Y709771D02*
D03*
X182778D02*
D03*
X1620876Y1233075D02*
D03*
X1601876D02*
D03*
X1611376Y1208373D02*
D03*
D71*
X801624Y667385D02*
D03*
X788924D02*
D03*
X776224D02*
D03*
X763524D02*
D03*
X801624Y613283D02*
D03*
X788924D02*
D03*
X776224D02*
D03*
X763524D02*
D03*
D72*
X354076Y626110D02*
D03*
X341376D02*
D03*
X328676D02*
D03*
X315976D02*
D03*
X303276D02*
D03*
X290576D02*
D03*
X277876D02*
D03*
X265176D02*
D03*
Y712470D02*
D03*
X277876D02*
D03*
X290576D02*
D03*
X303276D02*
D03*
X315976D02*
D03*
X328676D02*
D03*
X341376D02*
D03*
X354076D02*
D03*
D73*
X759516Y1062228D02*
D03*
Y1074928D02*
D03*
Y1087628D02*
D03*
Y1100328D02*
D03*
Y1113028D02*
D03*
Y1125728D02*
D03*
Y1138428D02*
D03*
Y1151128D02*
D03*
Y1163828D02*
D03*
Y1176528D02*
D03*
X664916Y1062228D02*
D03*
Y1074928D02*
D03*
Y1087628D02*
D03*
Y1100328D02*
D03*
Y1113028D02*
D03*
Y1125728D02*
D03*
Y1138428D02*
D03*
Y1151128D02*
D03*
Y1163828D02*
D03*
Y1176528D02*
D03*
D74*
X1638554Y1197841D02*
D03*
X1663954D02*
D03*
Y1099843D02*
D03*
X1638554D02*
D03*
X1102360Y1176020D02*
D03*
X1076960D02*
D03*
Y1078021D02*
D03*
X1102360D02*
D03*
X1052830D02*
D03*
X1027430D02*
D03*
Y1176020D02*
D03*
X1052830D02*
D03*
X1300480D02*
D03*
X1275080D02*
D03*
Y1078021D02*
D03*
X1300480D02*
D03*
X1250950D02*
D03*
X1225550D02*
D03*
Y1176020D02*
D03*
X1250950D02*
D03*
X1003300D02*
D03*
X977900D02*
D03*
Y1078021D02*
D03*
X1003300D02*
D03*
X1201420D02*
D03*
X1176020D02*
D03*
Y1176020D02*
D03*
X1201420D02*
D03*
X953770D02*
D03*
X928370D02*
D03*
Y1078021D02*
D03*
X953770D02*
D03*
X1151890D02*
D03*
X1126490D02*
D03*
Y1176020D02*
D03*
X1151890D02*
D03*
X904240D02*
D03*
X878840D02*
D03*
Y1078021D02*
D03*
X904240D02*
D03*
X854710D02*
D03*
X829310D02*
D03*
Y1176020D02*
D03*
X854710D02*
D03*
D75*
X1347781Y638872D02*
D03*
X1236283Y595873D02*
D03*
D76*
X1371281Y487872D02*
D03*
D77*
X1236283Y492373D02*
D03*
D78*
Y533871D02*
D03*
D79*
X1245782Y638872D02*
D03*
X1255282D02*
D03*
X1266283D02*
D03*
X1277281D02*
D03*
X1288282D02*
D03*
X1299282D02*
D03*
X1310283D02*
D03*
X1321281D02*
D03*
X1332282D02*
D03*
D80*
X1725168Y1032002D02*
D03*
X1712468D02*
D03*
X1699768D02*
D03*
X1687068D02*
D03*
X1674368D02*
D03*
X1661668D02*
D03*
X1648968D02*
D03*
X1636268D02*
D03*
X1623568D02*
D03*
X1610868D02*
D03*
X1598168D02*
D03*
X1585468D02*
D03*
X1572768D02*
D03*
X1560068D02*
D03*
Y857001D02*
D03*
X1572768D02*
D03*
X1585468D02*
D03*
X1598168D02*
D03*
X1610868D02*
D03*
X1623568D02*
D03*
X1636268D02*
D03*
X1648968D02*
D03*
X1661668D02*
D03*
X1674368D02*
D03*
X1687068D02*
D03*
X1699768D02*
D03*
X1712468D02*
D03*
X1725168D02*
D03*
D81*
X1547269Y1014352D02*
D03*
Y1001652D02*
D03*
Y988951D02*
D03*
Y976252D02*
D03*
Y963551D02*
D03*
Y950852D02*
D03*
Y938151D02*
D03*
Y925452D02*
D03*
Y912751D02*
D03*
Y900051D02*
D03*
Y887352D02*
D03*
X1547569Y874651D02*
D03*
D82*
X1633967Y945502D02*
D03*
Y959503D02*
D03*
Y973503D02*
D03*
X1661968D02*
D03*
Y959503D02*
D03*
Y945502D02*
D03*
X1647967D02*
D03*
Y973503D02*
D03*
Y959503D02*
D03*
D83*
X356075Y990092D02*
D03*
X429801D02*
D03*
D84*
X859985Y883544D02*
D03*
X844484D02*
D03*
X845247Y868304D02*
D03*
X860747D02*
D03*
X845247Y853064D02*
D03*
X860747D02*
D03*
X119185Y743072D02*
D03*
X134685D02*
D03*
X1510096Y569082D02*
D03*
X1494595D02*
D03*
X1534727Y693984D02*
D03*
X1550228D02*
D03*
X1355403Y693730D02*
D03*
X1370903D02*
D03*
X1071112Y562864D02*
D03*
X1086612D02*
D03*
X1319794Y1190265D02*
D03*
X1335293D02*
D03*
X601283Y736341D02*
D03*
X585784D02*
D03*
X1461073Y709422D02*
D03*
X1445573D02*
D03*
X1195898Y738500D02*
D03*
X1180397D02*
D03*
X1129604Y983356D02*
D03*
X1114103D02*
D03*
X1282992Y653420D02*
D03*
X1298492D02*
D03*
X844993Y933328D02*
D03*
X860492D02*
D03*
X845500Y830204D02*
D03*
X861001D02*
D03*
X860492Y763402D02*
D03*
X844993D02*
D03*
X1280422Y693984D02*
D03*
X1264922D02*
D03*
D85*
X610108Y932942D02*
D03*
X664718Y839216D02*
D03*
X1217168Y846328D02*
D03*
X1711842Y1182253D02*
D03*
X1227328Y708406D02*
D03*
D86*
X363474Y814375D02*
D03*
X377698Y814273D02*
D03*
D87*
X325018Y814718D02*
D03*
X334518Y791718D02*
D03*
X344019Y814718D02*
D03*
D88*
X198750Y801243D02*
D03*
Y794893D02*
D03*
Y788543D02*
D03*
Y782193D02*
D03*
Y775843D02*
D03*
Y769493D02*
D03*
Y763143D02*
D03*
Y756793D02*
D03*
X251846Y801243D02*
D03*
Y794893D02*
D03*
Y788543D02*
D03*
Y782193D02*
D03*
Y775843D02*
D03*
Y769493D02*
D03*
Y763143D02*
D03*
Y756793D02*
D03*
D89*
X244907Y842010D02*
D03*
X244805Y827786D02*
D03*
X309372Y801878D02*
D03*
X309474Y816102D02*
D03*
D90*
X376936Y942368D02*
D03*
Y882368D02*
D03*
D91*
X470792Y1061212D02*
D03*
X506092D02*
D03*
D92*
X325394Y887984D02*
D03*
Y912984D02*
D03*
Y937984D02*
D03*
Y962984D02*
D03*
X193294Y887984D02*
D03*
Y912984D02*
D03*
Y937984D02*
D03*
Y962984D02*
D03*
D93*
X119888Y761073D02*
D03*
Y804075D02*
D03*
D94*
X165953Y680974D02*
D03*
X113955D02*
D03*
X665734Y967232D02*
D03*
X717733D02*
D03*
D95*
X506458Y751769D02*
D03*
Y746770D02*
D03*
Y736770D02*
D03*
Y731769D02*
D03*
X514749Y751769D02*
D03*
Y746770D02*
D03*
Y736770D02*
D03*
Y731769D02*
D03*
D96*
X506458Y741769D02*
D03*
X514749D02*
D03*
D97*
X329636Y1035245D02*
D03*
Y1064745D02*
D03*
D98*
X1696374Y1052995D02*
D03*
X1677374D02*
D03*
X1712118Y1073198D02*
D03*
X1731118D02*
D03*
X1712118Y1052624D02*
D03*
X1731118D02*
D03*
X363366Y855932D02*
D03*
X382366D02*
D03*
X841140Y950928D02*
D03*
X860140D02*
D03*
X1271574Y901700D02*
D03*
X1290574D02*
D03*
X1306214Y901652D02*
D03*
X1325214D02*
D03*
X840594Y633270D02*
D03*
X821594D02*
D03*
X840594Y612696D02*
D03*
X821594D02*
D03*
X1168050Y684070D02*
D03*
X1187050D02*
D03*
X858266Y789178D02*
D03*
X839266D02*
D03*
X1279042Y670962D02*
D03*
X1298042D02*
D03*
D99*
X800862Y918972D02*
D03*
Y970532D02*
D03*
X587502Y904112D02*
D03*
Y852552D02*
D03*
D100*
X1470016Y593264D02*
D03*
X1478012D02*
D03*
Y574765D02*
D03*
X1470016D02*
D03*
D101*
X182212Y687070D02*
D03*
X216060D02*
D03*
D102*
X1382146Y1158750D02*
D03*
Y1174250D02*
D03*
X472131Y786620D02*
D03*
Y771120D02*
D03*
X487117Y786620D02*
D03*
Y771120D02*
D03*
X517173D02*
D03*
Y786620D02*
D03*
X532280D02*
D03*
Y771120D02*
D03*
X1152520Y671765D02*
D03*
Y687264D02*
D03*
X1162436Y956932D02*
D03*
Y941432D02*
D03*
X1342512Y889966D02*
D03*
Y905466D02*
D03*
X1151758Y895285D02*
D03*
Y910785D02*
D03*
X1201241Y766243D02*
D03*
Y781743D02*
D03*
X1152774Y758130D02*
D03*
Y742630D02*
D03*
X1153292Y870269D02*
D03*
Y854770D02*
D03*
X1238103Y899378D02*
D03*
Y883878D02*
D03*
X1146810Y972318D02*
D03*
Y956818D02*
D03*
X1017402Y984564D02*
D03*
Y1000063D02*
D03*
X986160Y992691D02*
D03*
Y1008192D02*
D03*
X914082Y673732D02*
D03*
Y689232D02*
D03*
X898842Y673478D02*
D03*
Y688978D02*
D03*
X1035050Y678180D02*
D03*
Y693680D02*
D03*
X995172Y692918D02*
D03*
Y677418D02*
D03*
X917194Y985520D02*
D03*
Y1001020D02*
D03*
X901954Y985520D02*
D03*
Y1001020D02*
D03*
X864240Y916751D02*
D03*
Y901252D02*
D03*
D103*
X265128Y834644D02*
D03*
Y847344D02*
D03*
X312976D02*
D03*
Y834644D02*
D03*
D104*
X1160526Y923290D02*
D03*
X1150326D02*
D03*
D105*
X1766270Y1095502D02*
D03*
X1772770D02*
D03*
X1779270D02*
D03*
Y1114501D02*
D03*
X1772770D02*
D03*
X1766270D02*
D03*
D106*
X1314282Y861807D02*
D03*
X1321283D02*
D03*
X1328283D02*
D03*
X1335280D02*
D03*
X1342281D02*
D03*
X1349281D02*
D03*
X1356281D02*
D03*
X1363282D02*
D03*
X1370282D02*
D03*
X1384282D02*
D03*
X1391283D02*
D03*
X1377282D02*
D03*
X1398283D02*
D03*
X1405280D02*
D03*
X1412281D02*
D03*
X1419281D02*
D03*
X1426281D02*
D03*
X1433281D02*
D03*
X1440282D02*
D03*
X1447282D02*
D03*
X1454282D02*
D03*
X1461282D02*
D03*
X1468283D02*
D03*
X1475232Y861822D02*
D03*
X1482222Y861832D02*
D03*
X1489212D02*
D03*
X1293282Y861807D02*
D03*
X1300282D02*
D03*
X1307282D02*
D03*
X1286231Y861786D02*
D03*
M02*
