G04*
G04 #@! TF.GenerationSoftware,Altium Limited,Altium Designer,24.8.2 (39)*
G04*
G04 Layer_Color=255*
%FSLAX44Y44*%
%MOMM*%
G71*
G04*
G04 #@! TF.SameCoordinates,39C3E627-9C26-4201-8F53-7C701A0798BB*
G04*
G04*
G04 #@! TF.FilePolarity,Positive*
G04*
G01*
G75*
%ADD85C,1.0000*%
%ADD206C,0.8000*%
%ADD207C,6.4000*%
%ADD236C,1.6000*%
%ADD237C,2.3000*%
%ADD238C,2.5000*%
%ADD239C,1.5240*%
%ADD240R,2.5000X2.5000*%
%ADD241C,1.5748*%
%ADD242C,5.0000*%
%ADD243R,1.5748X1.5748*%
%ADD244C,2.7940*%
%ADD245O,1.0000X1.6000*%
%ADD246C,0.6000*%
%ADD247C,0.9910*%
D85*
X1592580Y941324D02*
D03*
X1610106Y941832D02*
D03*
X1668780Y902970D02*
D03*
X1650746D02*
D03*
X1634236D02*
D03*
X1615948D02*
D03*
X1598676D02*
D03*
X1581658D02*
D03*
X1577340Y1013968D02*
D03*
X1561846D02*
D03*
X1160550Y687264D02*
D03*
X860004Y869842D02*
D03*
X1170940Y933958D02*
D03*
X1162812Y915162D02*
D03*
D206*
X1740538Y511940D02*
D03*
X1747567Y528910D02*
D03*
Y494969D02*
D03*
X1764538Y535940D02*
D03*
Y487940D02*
D03*
X1781509Y528910D02*
D03*
Y494969D02*
D03*
X1788538Y511940D02*
D03*
X104538Y1297940D02*
D03*
X111567Y1314911D02*
D03*
Y1280969D02*
D03*
X128538Y1321940D02*
D03*
Y1273940D02*
D03*
X145508Y1314911D02*
D03*
Y1280969D02*
D03*
X152538Y1297940D02*
D03*
X104538Y511940D02*
D03*
X111567Y528910D02*
D03*
Y494969D02*
D03*
X128538Y535940D02*
D03*
Y487940D02*
D03*
X145508Y528910D02*
D03*
Y494969D02*
D03*
X152538Y511940D02*
D03*
X1788538Y1297940D02*
D03*
X1781509Y1280969D02*
D03*
Y1314911D02*
D03*
X1764538Y1273940D02*
D03*
Y1321940D02*
D03*
X1747567Y1280969D02*
D03*
Y1314911D02*
D03*
X1740538Y1297940D02*
D03*
D207*
X1764538Y511940D02*
D03*
X128538Y1297940D02*
D03*
Y511940D02*
D03*
X1764538Y1297940D02*
D03*
D236*
X481425Y1266419D02*
D03*
X531425D02*
D03*
X558317Y995680D02*
D03*
X593319D02*
D03*
D237*
X196088Y1087627D02*
D03*
X196087Y1189227D02*
D03*
X335788D02*
D03*
X386587D02*
D03*
X500887D02*
D03*
X551688D02*
D03*
Y1087627D02*
D03*
X500887D02*
D03*
X386587D02*
D03*
X335788D02*
D03*
D238*
X233774Y544440D02*
D03*
X396375D02*
D03*
X670127Y1254760D02*
D03*
X720128D02*
D03*
X1436116D02*
D03*
X1486116D02*
D03*
X1330452D02*
D03*
X311658D02*
D03*
X1226490D02*
D03*
X1176490D02*
D03*
X1126490D02*
D03*
X873214D02*
D03*
X1023214D02*
D03*
X973214D02*
D03*
X923214D02*
D03*
X823214D02*
D03*
D239*
X383675Y600140D02*
D03*
X360774D02*
D03*
X269375D02*
D03*
X246474D02*
D03*
X279375Y552040D02*
D03*
X289575Y534240D02*
D03*
X299773Y552040D02*
D03*
X309974Y534240D02*
D03*
X320175Y552040D02*
D03*
X330375Y534240D02*
D03*
X340573Y552040D02*
D03*
X350774Y534240D02*
D03*
D240*
X770127Y1254760D02*
D03*
X1536116D02*
D03*
X1380452D02*
D03*
X361658D02*
D03*
X1276490D02*
D03*
X1073214D02*
D03*
D241*
X804248Y564640D02*
D03*
X831848D02*
D03*
X776648D02*
D03*
X749048D02*
D03*
X845647Y536240D02*
D03*
X818048D02*
D03*
X790448D02*
D03*
X762848D02*
D03*
D242*
X679249Y550441D02*
D03*
X929249D02*
D03*
D243*
X859447Y564640D02*
D03*
D244*
X1440673Y1066241D02*
D03*
X1562675Y1186236D02*
D03*
Y1066236D02*
D03*
X1582675Y1126236D02*
D03*
X1440673Y1186231D02*
D03*
D245*
X1429047Y486547D02*
D03*
X1518849D02*
D03*
X1432649Y530448D02*
D03*
X1515247D02*
D03*
D246*
X1469948Y536448D02*
D03*
X1477950D02*
D03*
X1461950D02*
D03*
X1485948D02*
D03*
X1465948Y529448D02*
D03*
X1481950D02*
D03*
X1457950D02*
D03*
X1489951D02*
D03*
X1449949D02*
D03*
X1497950D02*
D03*
X1501947Y536448D02*
D03*
X1445948D02*
D03*
D247*
X1760474Y1201166D02*
D03*
X1770634Y1150366D02*
D03*
X1750314D02*
D03*
X1121664Y517398D02*
D03*
X1197864Y507248D02*
D03*
Y527548D02*
D03*
M02*
