G04*
G04 #@! TF.GenerationSoftware,Altium Limited,Altium Designer,24.8.2 (39)*
G04*
G04 Layer_Color=128*
%FSLAX44Y44*%
%MOMM*%
G71*
G04*
G04 #@! TF.SameCoordinates,39C3E627-9C26-4201-8F53-7C701A0798BB*
G04*
G04*
G04 #@! TF.FilePolarity,Positive*
G04*
G01*
G75*
%ADD25C,0.1270*%
D25*
X476428Y1266419D02*
X486428D01*
X481428Y1261419D02*
Y1271419D01*
X526428Y1266419D02*
X536428D01*
X531428Y1261419D02*
Y1271419D01*
X189088Y1087628D02*
X203088D01*
X196088Y1080628D02*
Y1094628D01*
X189088Y1189228D02*
X203088D01*
X196088Y1182228D02*
Y1196228D01*
X328788Y1189228D02*
X342788D01*
X335788Y1182228D02*
Y1196228D01*
X379588Y1189228D02*
X393588D01*
X386588Y1182228D02*
Y1196228D01*
X493888Y1189228D02*
X507888D01*
X500888Y1182228D02*
Y1196228D01*
X544688Y1189228D02*
X558688D01*
X551688Y1182228D02*
Y1196228D01*
X544688Y1087628D02*
X558688D01*
X551688Y1080628D02*
Y1094628D01*
X493888Y1087628D02*
X507888D01*
X500888Y1080628D02*
Y1094628D01*
X379588Y1087628D02*
X393588D01*
X386588Y1080628D02*
Y1094628D01*
X328788Y1087628D02*
X342788D01*
X335788Y1080628D02*
Y1094628D01*
X553317Y995680D02*
X563317D01*
X558317Y990680D02*
Y1000680D01*
X588319Y995680D02*
X598319D01*
X593319Y990680D02*
Y1000680D01*
X224274Y544440D02*
X243274D01*
X233774Y534940D02*
Y553940D01*
X386874Y544440D02*
X405874D01*
X396374Y534940D02*
Y553940D01*
X379102Y600140D02*
X388246D01*
X383674Y595568D02*
Y604712D01*
X356202Y600140D02*
X365346D01*
X360774Y595568D02*
Y604712D01*
X264802Y600140D02*
X273946D01*
X269374Y595568D02*
Y604712D01*
X241902Y600140D02*
X251046D01*
X246474Y595568D02*
Y604712D01*
X274802Y552040D02*
X283946D01*
X279374Y547468D02*
Y556612D01*
X285002Y534240D02*
X294146D01*
X289574Y529668D02*
Y538812D01*
X295202Y552040D02*
X304346D01*
X299774Y547468D02*
Y556612D01*
X305402Y534240D02*
X314546D01*
X309974Y529668D02*
Y538812D01*
X315602Y552040D02*
X324746D01*
X320174Y547468D02*
Y556612D01*
X325802Y534240D02*
X334946D01*
X330374Y529668D02*
Y538812D01*
X336002Y552040D02*
X345146D01*
X340574Y547468D02*
Y556612D01*
X346202Y534240D02*
X355346D01*
X350774Y529668D02*
Y538812D01*
X662128Y1254760D02*
X678127D01*
X670127Y1246760D02*
Y1262760D01*
X712128Y1254760D02*
X728128D01*
X720128Y1246760D02*
Y1262760D01*
X762128Y1254760D02*
X778128D01*
X770127Y1246760D02*
Y1262760D01*
X1428116Y1254760D02*
X1444116D01*
X1436116Y1246760D02*
Y1262760D01*
X1478116Y1254760D02*
X1494116D01*
X1486116Y1246760D02*
Y1262760D01*
X1528116Y1254760D02*
X1544116D01*
X1536116Y1246760D02*
Y1262760D01*
X1372452Y1254760D02*
X1388452D01*
X1380452Y1246760D02*
Y1262760D01*
X1322452Y1254760D02*
X1338452D01*
X1330452Y1246760D02*
Y1262760D01*
X353658Y1254760D02*
X369658D01*
X361658Y1246760D02*
Y1262760D01*
X303658Y1254760D02*
X319658D01*
X311658Y1246760D02*
Y1262760D01*
X1268490Y1254760D02*
X1284490D01*
X1276490Y1246760D02*
Y1262760D01*
X1218490Y1254760D02*
X1234490D01*
X1226490Y1246760D02*
Y1262760D01*
X1168490Y1254760D02*
X1184490D01*
X1176490Y1246760D02*
Y1262760D01*
X1118490Y1254760D02*
X1134490D01*
X1126490Y1246760D02*
Y1262760D01*
X865214Y1254760D02*
X881214D01*
X873214Y1246760D02*
Y1262760D01*
X1065214Y1254760D02*
X1081214D01*
X1073214Y1246760D02*
Y1262760D01*
X1015214Y1254760D02*
X1031214D01*
X1023214Y1246760D02*
Y1262760D01*
X965214Y1254760D02*
X981214D01*
X973214Y1246760D02*
Y1262760D01*
X915214Y1254760D02*
X931214D01*
X923214Y1246760D02*
Y1262760D01*
X815214Y1254760D02*
X831214D01*
X823214Y1246760D02*
Y1262760D01*
X799248Y564640D02*
X809248D01*
X804248Y559640D02*
Y569640D01*
X662999Y550441D02*
X695499D01*
X679249Y534191D02*
Y566691D01*
X854447Y564640D02*
X864447D01*
X859447Y559640D02*
Y569640D01*
X826848Y564640D02*
X836847D01*
X831848Y559640D02*
Y569640D01*
X771648Y564640D02*
X781648D01*
X776648Y559640D02*
Y569640D01*
X744048Y564640D02*
X754048D01*
X749048Y559640D02*
Y569640D01*
X840647Y536240D02*
X850647D01*
X845647Y531240D02*
Y541240D01*
X813048Y536240D02*
X823048D01*
X818048Y531240D02*
Y541240D01*
X785448Y536240D02*
X795448D01*
X790448Y531240D02*
Y541240D01*
X757848Y536240D02*
X767848D01*
X762848Y531240D02*
Y541240D01*
X912999Y550441D02*
X945499D01*
X929249Y534191D02*
Y566691D01*
X1433054Y1066241D02*
X1448294D01*
X1440674Y1058621D02*
Y1073861D01*
X1555054Y1186236D02*
X1570294D01*
X1562674Y1178616D02*
Y1193856D01*
X1555054Y1066236D02*
X1570294D01*
X1562674Y1058616D02*
Y1073856D01*
X1575054Y1126236D02*
X1590294D01*
X1582674Y1118616D02*
Y1133856D01*
X1433055Y1186231D02*
X1448295D01*
X1440674Y1178611D02*
Y1193851D01*
X1426047Y486547D02*
X1432047D01*
X1429047Y483547D02*
Y489547D01*
X1515849Y486547D02*
X1521849D01*
X1518849Y483547D02*
Y489547D01*
X1429649Y530448D02*
X1435649D01*
X1432649Y527449D02*
Y533448D01*
X1512247Y530448D02*
X1518247D01*
X1515247Y527449D02*
Y533448D01*
X1467948Y536448D02*
X1471948D01*
X1469948Y534448D02*
Y538448D01*
X1475949Y536449D02*
X1479949D01*
X1477949Y534449D02*
Y538449D01*
X1459950Y536449D02*
X1463950D01*
X1461950Y534449D02*
Y538449D01*
X1483948Y536447D02*
X1487948D01*
X1485948Y534447D02*
Y538447D01*
X1463948Y529447D02*
X1467948D01*
X1465948Y527447D02*
Y531447D01*
X1479950Y529449D02*
X1483950D01*
X1481950Y527449D02*
Y531449D01*
X1455950Y529449D02*
X1459950D01*
X1457950Y527449D02*
Y531449D01*
X1487951Y529449D02*
X1491951D01*
X1489951Y527449D02*
Y531449D01*
X1447949Y529448D02*
X1451949D01*
X1449949Y527448D02*
Y531447D01*
X1495950Y529447D02*
X1499949D01*
X1497950Y527447D02*
Y531447D01*
X1499947Y536448D02*
X1503947D01*
X1501947Y534448D02*
Y538448D01*
X1443948Y536448D02*
X1447948D01*
X1445948Y534448D02*
Y538448D01*
X1755519Y1201166D02*
X1765429D01*
X1760474Y1196211D02*
Y1206121D01*
X1765679Y1150366D02*
X1775589D01*
X1770634Y1145411D02*
Y1155321D01*
X1745359Y1150366D02*
X1755269D01*
X1750314Y1145411D02*
Y1155321D01*
X1116709Y517398D02*
X1126619D01*
X1121664Y512443D02*
Y522353D01*
X1192909Y507248D02*
X1202819D01*
X1197864Y502293D02*
Y512203D01*
X1192909Y527548D02*
X1202819D01*
X1197864Y522593D02*
Y532503D01*
X1738038Y511940D02*
X1743038D01*
X1740538Y509440D02*
Y514440D01*
X1745067Y528910D02*
X1750067D01*
X1747567Y526411D02*
Y531410D01*
X1745067Y494969D02*
X1750067D01*
X1747567Y492469D02*
Y497469D01*
X1762038Y535940D02*
X1767038D01*
X1764538Y533440D02*
Y538440D01*
X1762038Y487940D02*
X1767038D01*
X1764538Y485440D02*
Y490440D01*
X1779009Y528910D02*
X1784008D01*
X1781509Y526411D02*
Y531410D01*
X1779009Y494969D02*
X1784008D01*
X1781509Y492469D02*
Y497469D01*
X1786038Y511940D02*
X1791038D01*
X1788538Y509440D02*
Y514440D01*
X1748538Y511940D02*
X1780538D01*
X1764538Y495940D02*
Y527940D01*
X102038Y1297940D02*
X107038D01*
X104538Y1295440D02*
Y1300440D01*
X109067Y1314911D02*
X114067D01*
X111567Y1312411D02*
Y1317410D01*
X109067Y1280969D02*
X114067D01*
X111567Y1278469D02*
Y1283469D01*
X126038Y1321940D02*
X131038D01*
X128538Y1319440D02*
Y1324440D01*
X126038Y1273940D02*
X131038D01*
X128538Y1271440D02*
Y1276440D01*
X143009Y1314911D02*
X148008D01*
X145508Y1312411D02*
Y1317410D01*
X143009Y1280969D02*
X148008D01*
X145508Y1278469D02*
Y1283469D01*
X150038Y1297940D02*
X155038D01*
X152538Y1295440D02*
Y1300440D01*
X112538Y1297940D02*
X144538D01*
X128538Y1281940D02*
Y1313940D01*
X102038Y511940D02*
X107038D01*
X104538Y509440D02*
Y514440D01*
X109067Y528910D02*
X114067D01*
X111567Y526411D02*
Y531410D01*
X109067Y494969D02*
X114067D01*
X111567Y492469D02*
Y497469D01*
X126038Y535940D02*
X131038D01*
X128538Y533440D02*
Y538440D01*
X126038Y487940D02*
X131038D01*
X128538Y485440D02*
Y490440D01*
X143009Y528910D02*
X148008D01*
X145508Y526411D02*
Y531410D01*
X143009Y494969D02*
X148008D01*
X145508Y492469D02*
Y497469D01*
X150038Y511940D02*
X155038D01*
X152538Y509440D02*
Y514440D01*
X112538Y511940D02*
X144538D01*
X128538Y495940D02*
Y527940D01*
X1786038Y1297940D02*
X1791038D01*
X1788538Y1295440D02*
Y1300440D01*
X1779009Y1280969D02*
X1784008D01*
X1781509Y1278469D02*
Y1283469D01*
X1779009Y1314911D02*
X1784008D01*
X1781509Y1312411D02*
Y1317410D01*
X1762038Y1273940D02*
X1767038D01*
X1764538Y1271440D02*
Y1276440D01*
X1762038Y1321940D02*
X1767038D01*
X1764538Y1319440D02*
Y1324440D01*
X1745067Y1280969D02*
X1750067D01*
X1747567Y1278469D02*
Y1283469D01*
X1745067Y1314911D02*
X1750067D01*
X1747567Y1312411D02*
Y1317410D01*
X1738038Y1297940D02*
X1743038D01*
X1740538Y1295440D02*
Y1300440D01*
X1748538Y1297940D02*
X1780538D01*
X1764538Y1281940D02*
Y1313940D01*
X1735455Y1101656D02*
X1738455D01*
X1736955Y1100156D02*
Y1103156D01*
X1429088Y563798D02*
X1432088D01*
X1430588Y562298D02*
Y565298D01*
X1446810Y580579D02*
X1449810D01*
X1448310Y579079D02*
Y582079D01*
X1516957Y569330D02*
X1519957D01*
X1518457Y567831D02*
Y570830D01*
X1560260Y530905D02*
X1563260D01*
X1561760Y529406D02*
Y532406D01*
X1639365Y972693D02*
X1642365D01*
X1640865Y971193D02*
Y974193D01*
X1653580Y972738D02*
X1656580D01*
X1655080Y971238D02*
Y974239D01*
X1653351Y945611D02*
X1656351D01*
X1654851Y944111D02*
Y947111D01*
X1639254Y958946D02*
X1642254D01*
X1640754Y957446D02*
Y960446D01*
X1653351Y959099D02*
X1656351D01*
X1654851Y957599D02*
Y960599D01*
X1639330Y944773D02*
X1642330D01*
X1640830Y943273D02*
Y946273D01*
X886968Y977956D02*
X889968D01*
X888468Y976456D02*
Y979456D01*
X846063Y981730D02*
X849063D01*
X847563Y980230D02*
Y983230D01*
X835217Y917519D02*
X838217D01*
X836717Y916019D02*
Y919019D01*
X837245Y883793D02*
X840246D01*
X838745Y882293D02*
Y885293D01*
X838008Y868553D02*
X841008D01*
X839508Y867053D02*
Y870053D01*
X838008Y853313D02*
X841008D01*
X839508Y851813D02*
Y854813D01*
X526074Y924326D02*
X529074D01*
X527574Y922826D02*
Y925826D01*
X456782Y863686D02*
X459782D01*
X458282Y862186D02*
Y865186D01*
X324321Y904489D02*
X327321D01*
X325821Y902989D02*
Y905989D01*
X324019Y879809D02*
X327019D01*
X325519Y878308D02*
Y881308D01*
X357987Y883823D02*
X360987D01*
X359487Y882323D02*
Y885323D01*
X353049Y855010D02*
X356049D01*
X354549Y853510D02*
Y856509D01*
X376417Y806216D02*
X379417D01*
X377917Y804716D02*
Y807716D01*
X397753Y803092D02*
X400753D01*
X399253Y801592D02*
Y804592D01*
X445403Y787318D02*
X448403D01*
X446903Y785818D02*
Y788819D01*
X621857Y759734D02*
X624857D01*
X623357Y758234D02*
Y761234D01*
X647536Y791713D02*
X650536D01*
X649036Y790213D02*
Y793213D01*
X699352Y766414D02*
X702352D01*
X700852Y764914D02*
Y767914D01*
X989862Y830580D02*
X992862D01*
X991362Y829080D02*
Y832080D01*
X788819Y765813D02*
X791819D01*
X790319Y764313D02*
Y767313D01*
X788261Y830278D02*
X791261D01*
X789761Y828778D02*
Y831778D01*
X783943Y789257D02*
X786943D01*
X785443Y787757D02*
Y790757D01*
X588364Y758469D02*
X591364D01*
X589864Y756969D02*
Y759969D01*
X534796Y793394D02*
X537796D01*
X536296Y791894D02*
Y794894D01*
X470646Y998109D02*
X473646D01*
X472146Y996609D02*
Y999609D01*
X641501Y1279652D02*
X644501D01*
X643001Y1278152D02*
Y1281152D01*
X1578233Y901143D02*
X1581233D01*
X1579733Y899643D02*
Y902643D01*
X1249645Y881474D02*
X1252645D01*
X1251145Y879974D02*
Y882974D01*
X1244184Y878614D02*
X1247184D01*
X1245684Y877114D02*
Y880114D01*
X1243964Y885139D02*
X1246964D01*
X1245464Y883639D02*
Y886639D01*
X749045Y832968D02*
X752045D01*
X750545Y831468D02*
Y834468D01*
X981918Y631992D02*
X984918D01*
X983418Y630492D02*
Y633492D01*
X1042186Y669036D02*
X1045186D01*
X1043686Y667536D02*
Y670536D01*
X1176196Y966724D02*
X1179196D01*
X1177696Y965224D02*
Y968224D01*
X1198457Y966601D02*
X1201457D01*
X1199957Y965101D02*
Y968102D01*
X1243097Y918286D02*
X1246097D01*
X1244597Y916786D02*
Y919786D01*
X641272Y779221D02*
X644272D01*
X642772Y777721D02*
Y780721D01*
X864266Y787502D02*
X867266D01*
X865766Y786002D02*
Y789002D01*
X902994Y727202D02*
X905994D01*
X904494Y725702D02*
Y728702D01*
X915948Y726948D02*
X918948D01*
X917448Y725448D02*
Y728448D01*
X526007Y727634D02*
X529007D01*
X527507Y726134D02*
Y729134D01*
X605839Y733933D02*
X608839D01*
X607339Y732433D02*
Y735433D01*
X600124Y764337D02*
X603124D01*
X601624Y762837D02*
Y765837D01*
X613967Y772744D02*
X616967D01*
X615467Y771244D02*
Y774244D01*
X1150466Y901624D02*
X1153466D01*
X1151966Y900124D02*
Y903124D01*
X1160699Y895478D02*
X1163699D01*
X1162199Y893978D02*
Y896978D01*
X1155216Y848868D02*
X1158216D01*
X1156716Y847368D02*
Y850368D01*
X1149204Y849068D02*
X1152204D01*
X1150704Y847568D02*
Y850568D01*
X1285010Y839978D02*
X1288010D01*
X1286510Y838478D02*
Y841478D01*
X1217522Y976503D02*
X1220522D01*
X1219022Y975003D02*
Y978003D01*
X1056207Y753796D02*
X1059207D01*
X1057707Y752296D02*
Y755296D01*
X483582Y1059791D02*
X486582D01*
X485083Y1058291D02*
Y1061291D01*
X342340Y1064920D02*
X345340D01*
X343840Y1063420D02*
Y1066420D01*
X529589Y1252982D02*
X532589D01*
X531089Y1251482D02*
Y1254482D01*
X537114Y1252982D02*
X540114D01*
X538614Y1251482D02*
Y1254482D01*
X522494Y1252982D02*
X525494D01*
X523994Y1251482D02*
Y1254482D01*
X531646Y1297280D02*
X534646D01*
X533146Y1295780D02*
Y1298780D01*
X539172Y1297280D02*
X542172D01*
X540672Y1295780D02*
Y1298780D01*
X524552Y1297280D02*
X527551D01*
X526051Y1295780D02*
Y1298780D01*
X531417Y1290091D02*
X534417D01*
X532917Y1288591D02*
Y1291591D01*
X538943Y1290091D02*
X541943D01*
X540443Y1288591D02*
Y1291591D01*
X524323Y1290091D02*
X527323D01*
X525823Y1288591D02*
Y1291591D01*
X183437Y1255547D02*
X186437D01*
X184937Y1254047D02*
Y1257047D01*
X183437Y1248855D02*
X186437D01*
X184937Y1247355D02*
Y1250355D01*
X183437Y1241330D02*
X186437D01*
X184937Y1239830D02*
Y1242830D01*
X189991Y1255624D02*
X192991D01*
X191491Y1254124D02*
Y1257124D01*
X189991Y1248932D02*
X192991D01*
X191491Y1247432D02*
Y1250432D01*
X189991Y1241406D02*
X192991D01*
X191491Y1239906D02*
Y1242906D01*
X206602Y1259764D02*
X209602D01*
X208102Y1258264D02*
Y1261264D01*
X206602Y1247775D02*
X209602D01*
X208102Y1246275D02*
Y1249275D01*
X206602Y1235100D02*
X209602D01*
X208102Y1233600D02*
Y1236600D01*
X154913Y1222604D02*
X157913D01*
X156413Y1221104D02*
Y1224104D01*
X205107Y1222248D02*
X208107D01*
X206607Y1220748D02*
Y1223748D01*
X251611Y1309911D02*
X254611D01*
X253111Y1308411D02*
Y1311411D01*
X1311197Y1193444D02*
X1314197D01*
X1312697Y1191944D02*
Y1194944D01*
X1396516Y1151700D02*
X1399516D01*
X1398016Y1150200D02*
Y1153200D01*
X1380646Y1151700D02*
X1383646D01*
X1382146Y1150200D02*
Y1153200D01*
X1333705Y1227920D02*
X1336705D01*
X1335205Y1226420D02*
Y1229420D01*
X1352018Y1230618D02*
X1355018D01*
X1353517Y1229118D02*
Y1232118D01*
X1371486Y1230826D02*
X1374486D01*
X1372986Y1229325D02*
Y1232326D01*
X1391187Y1082736D02*
X1394187D01*
X1392686Y1081236D02*
Y1084236D01*
X1391440Y1097976D02*
X1394440D01*
X1392941Y1096476D02*
Y1099476D01*
X1391440Y1121062D02*
X1394440D01*
X1392941Y1119562D02*
Y1122562D01*
X1391440Y1136940D02*
X1394440D01*
X1392941Y1135440D02*
Y1138440D01*
X1391187Y1067308D02*
X1394187D01*
X1392686Y1065808D02*
Y1068808D01*
X1199741Y759193D02*
X1202741D01*
X1201241Y757693D02*
Y760693D01*
X1215143Y778764D02*
X1218143D01*
X1216643Y777264D02*
Y780264D01*
X1201448Y738500D02*
X1204447D01*
X1202947Y737000D02*
Y740000D01*
X466202Y1272881D02*
X469202D01*
X467702Y1271381D02*
Y1274381D01*
X410742Y576326D02*
X413742D01*
X412242Y574826D02*
Y577826D01*
X230656Y575818D02*
X233656D01*
X232156Y574318D02*
Y577318D01*
X524297Y1283030D02*
X527298D01*
X525798Y1281530D02*
Y1284530D01*
X141335Y552450D02*
X144335D01*
X142835Y550950D02*
Y553950D01*
X157039Y1254756D02*
X160039D01*
X158539Y1253256D02*
Y1256256D01*
X163981Y1254633D02*
X166981D01*
X165481Y1253133D02*
Y1256133D01*
X171257Y1254771D02*
X174257D01*
X172757Y1253271D02*
Y1256271D01*
X156785Y1248406D02*
X159785D01*
X158285Y1246906D02*
Y1249906D01*
X171003Y1248421D02*
X174003D01*
X172503Y1246921D02*
Y1249921D01*
X156785Y1241802D02*
X159785D01*
X158285Y1240302D02*
Y1243302D01*
X163727Y1241679D02*
X166727D01*
X165227Y1240179D02*
Y1243179D01*
X163727Y1248283D02*
X166727D01*
X165227Y1246783D02*
Y1249783D01*
X171003Y1241817D02*
X174003D01*
X172503Y1240317D02*
Y1243317D01*
X1741194Y1132332D02*
X1744194D01*
X1742694Y1130832D02*
Y1133832D01*
X1733690Y1132044D02*
X1736690D01*
X1735190Y1130544D02*
Y1133544D01*
X1735722Y1072354D02*
X1738722D01*
X1737222Y1070854D02*
Y1073854D01*
X1734960Y1051780D02*
X1737960D01*
X1736460Y1050280D02*
Y1053280D01*
X1669321Y1058411D02*
X1672321D01*
X1670821Y1056911D02*
Y1059911D01*
X1669936Y1051272D02*
X1672936D01*
X1671436Y1049772D02*
Y1052772D01*
X985264Y985930D02*
X988264D01*
X986764Y984430D02*
Y987430D01*
X1016156Y993937D02*
X1019156D01*
X1017656Y992437D02*
Y995437D01*
X985422Y1001581D02*
X988422D01*
X986922Y1000081D02*
Y1003082D01*
X1090700Y1018286D02*
X1093700D01*
X1092200Y1016786D02*
Y1019786D01*
X1075714Y1019302D02*
X1078714D01*
X1077214Y1017802D02*
Y1020802D01*
X1060982Y1018794D02*
X1063982D01*
X1062482Y1017294D02*
Y1020294D01*
X1035836Y1016000D02*
X1038836D01*
X1037336Y1014500D02*
Y1017500D01*
X1035582Y1009142D02*
X1038582D01*
X1037082Y1007642D02*
Y1010642D01*
X241956Y1109117D02*
X244956D01*
X243456Y1107617D02*
Y1110617D01*
X241769Y1116121D02*
X244769D01*
X243269Y1114621D02*
Y1117621D01*
X241769Y1123233D02*
X244769D01*
X243269Y1121733D02*
Y1124733D01*
X248881Y1123487D02*
X251881D01*
X250381Y1121987D02*
Y1124987D01*
X248881Y1116375D02*
X251881D01*
X250381Y1114875D02*
Y1117875D01*
X249068Y1109371D02*
X252068D01*
X250568Y1107871D02*
Y1110871D01*
X99779Y994518D02*
X102779D01*
X101279Y993018D02*
Y996018D01*
X99592Y1001522D02*
X102592D01*
X101092Y1000022D02*
Y1003022D01*
X99592Y1008634D02*
X102592D01*
X101092Y1007134D02*
Y1010134D01*
X106704Y1008888D02*
X109704D01*
X108204Y1007388D02*
Y1010388D01*
X106704Y1001776D02*
X109704D01*
X108204Y1000276D02*
Y1003276D01*
X106891Y994772D02*
X109891D01*
X108391Y993272D02*
Y996272D01*
X724991Y608559D02*
X727991D01*
X726491Y607059D02*
Y610059D01*
X731995Y608745D02*
X734995D01*
X733495Y607245D02*
Y610246D01*
X739107Y608745D02*
X742107D01*
X740607Y607245D02*
Y610246D01*
X739361Y601633D02*
X742361D01*
X740861Y600134D02*
Y603134D01*
X732249Y601633D02*
X735249D01*
X733749Y600134D02*
Y603134D01*
X725245Y601447D02*
X728245D01*
X726745Y599947D02*
Y602947D01*
X734700Y502987D02*
X737700D01*
X736200Y501487D02*
Y504487D01*
X741704Y503174D02*
X744704D01*
X743204Y501674D02*
Y504674D01*
X748816Y503174D02*
X751816D01*
X750316Y501674D02*
Y504674D01*
X749070Y496062D02*
X752070D01*
X750570Y494562D02*
Y497562D01*
X741958Y496062D02*
X744958D01*
X743458Y494562D02*
Y497562D01*
X734954Y495875D02*
X737954D01*
X736454Y494375D02*
Y497375D01*
X473283Y1254192D02*
X476283D01*
X474783Y1252692D02*
Y1255692D01*
X480287Y1254379D02*
X483287D01*
X481787Y1252879D02*
Y1255879D01*
X487399Y1254379D02*
X490399D01*
X488899Y1252879D02*
Y1255879D01*
X487653Y1247267D02*
X490653D01*
X489153Y1245767D02*
Y1248767D01*
X480541Y1247267D02*
X483541D01*
X482041Y1245767D02*
Y1248767D01*
X473537Y1247080D02*
X476537D01*
X475037Y1245580D02*
Y1248580D01*
X827410Y1144337D02*
X830410D01*
X828910Y1142837D02*
Y1145837D01*
X834414Y1144524D02*
X837414D01*
X835914Y1143024D02*
Y1146024D01*
X841526Y1144524D02*
X844526D01*
X843026Y1143024D02*
Y1146024D01*
X841780Y1137412D02*
X844780D01*
X843280Y1135912D02*
Y1138912D01*
X834668Y1137412D02*
X837668D01*
X836168Y1135912D02*
Y1138912D01*
X827664Y1137225D02*
X830664D01*
X829164Y1135725D02*
Y1138725D01*
X1679072Y677231D02*
X1682072D01*
X1680572Y675731D02*
Y678731D01*
X1686076Y677418D02*
X1689076D01*
X1687576Y675918D02*
Y678918D01*
X1693188Y677418D02*
X1696188D01*
X1694688Y675918D02*
Y678918D01*
X1693442Y670306D02*
X1696442D01*
X1694942Y668806D02*
Y671806D01*
X1686330Y670306D02*
X1689330D01*
X1687830Y668806D02*
Y671806D01*
X1679326Y670119D02*
X1682326D01*
X1680826Y668619D02*
Y671619D01*
X1763908Y834457D02*
X1766908D01*
X1765408Y832957D02*
Y835957D01*
X1770912Y834644D02*
X1773912D01*
X1772412Y833144D02*
Y836144D01*
X1778024Y834644D02*
X1781024D01*
X1779524Y833144D02*
Y836144D01*
X1778278Y827532D02*
X1781278D01*
X1779778Y826032D02*
Y829032D01*
X1771166Y827532D02*
X1774166D01*
X1772666Y826032D02*
Y829032D01*
X1764162Y827345D02*
X1767162D01*
X1765662Y825845D02*
Y828845D01*
X1556168Y821330D02*
X1559168D01*
X1557668Y819830D02*
Y822830D01*
X1563172Y821517D02*
X1566172D01*
X1564673Y820017D02*
Y823017D01*
X1570284Y821517D02*
X1573284D01*
X1571785Y820017D02*
Y823017D01*
X1570538Y814405D02*
X1573539D01*
X1572039Y812905D02*
Y815905D01*
X1563427Y814405D02*
X1566427D01*
X1564926Y812905D02*
Y815905D01*
X1556422Y814218D02*
X1559422D01*
X1557922Y812718D02*
Y815718D01*
X1129816Y627137D02*
X1132816D01*
X1131316Y625637D02*
Y628637D01*
X1407179Y595963D02*
X1410179D01*
X1408679Y594463D02*
Y597463D01*
X1413026Y617220D02*
X1416026D01*
X1414526Y615720D02*
Y618720D01*
X846594Y633270D02*
X849594D01*
X848094Y631770D02*
Y634770D01*
X845560Y612532D02*
X848560D01*
X847060Y611032D02*
Y614032D01*
X1148104Y624840D02*
X1151104D01*
X1149604Y623340D02*
Y626340D01*
X1141374Y625648D02*
X1144374D01*
X1142874Y624147D02*
Y627147D01*
X1127418Y619690D02*
X1130417D01*
X1128917Y618190D02*
Y621190D01*
X893850Y607822D02*
X896850D01*
X895350Y606322D02*
Y609322D01*
X1017656Y866969D02*
X1020656D01*
X1019156Y865469D02*
Y868469D01*
X1024660Y867156D02*
X1027660D01*
X1026160Y865656D02*
Y868656D01*
X1031772Y867156D02*
X1034772D01*
X1033272Y865656D02*
Y868656D01*
X1032026Y860044D02*
X1035026D01*
X1033526Y858544D02*
Y861544D01*
X1024914Y860044D02*
X1027914D01*
X1026414Y858544D02*
Y861544D01*
X1017910Y859857D02*
X1020910D01*
X1019410Y858357D02*
Y861357D01*
X894866Y716534D02*
X897866D01*
X896366Y715034D02*
Y718034D01*
X378884Y910269D02*
X381884D01*
X380384Y908769D02*
Y911769D01*
X371880Y910082D02*
X374880D01*
X373380Y908582D02*
Y911582D01*
X364768Y910082D02*
X367768D01*
X366268Y908582D02*
Y911582D01*
X365022Y902970D02*
X368022D01*
X366522Y901470D02*
Y904470D01*
X372134Y902970D02*
X375134D01*
X373634Y901470D02*
Y904470D01*
X379138Y903157D02*
X382138D01*
X380638Y901657D02*
Y904657D01*
X302725Y893934D02*
X305725D01*
X304225Y892434D02*
Y895434D01*
X302538Y900938D02*
X305538D01*
X304038Y899438D02*
Y902438D01*
X302538Y908050D02*
X305538D01*
X304038Y906550D02*
Y909550D01*
X295426Y907796D02*
X298426D01*
X296926Y906296D02*
Y909296D01*
X295426Y900684D02*
X298426D01*
X296926Y899184D02*
Y902184D01*
X295613Y893680D02*
X298613D01*
X297113Y892180D02*
Y895180D01*
X701505Y1158602D02*
X704505D01*
X703005Y1157102D02*
Y1160102D01*
X701318Y1165606D02*
X704318D01*
X702818Y1164106D02*
Y1167106D01*
X701318Y1172718D02*
X704318D01*
X702818Y1171218D02*
Y1174218D01*
X694206Y1172464D02*
X697206D01*
X695706Y1170964D02*
Y1173964D01*
X694206Y1165352D02*
X697206D01*
X695706Y1163852D02*
Y1166852D01*
X694393Y1158348D02*
X697393D01*
X695893Y1156848D02*
Y1159848D01*
X1230508Y1124271D02*
X1233508D01*
X1232008Y1122771D02*
Y1125771D01*
X1237512Y1124458D02*
X1240512D01*
X1239012Y1122958D02*
Y1125958D01*
X1244624Y1124458D02*
X1247624D01*
X1246124Y1122958D02*
Y1125958D01*
X1244370Y1131570D02*
X1247370D01*
X1245870Y1130070D02*
Y1133070D01*
X1237258Y1131570D02*
X1240258D01*
X1238758Y1130070D02*
Y1133070D01*
X1230254Y1131383D02*
X1233254D01*
X1231754Y1129883D02*
Y1132883D01*
X1465458Y1272353D02*
X1468458D01*
X1466958Y1270853D02*
Y1273853D01*
X1472462Y1272540D02*
X1475462D01*
X1473962Y1271040D02*
Y1274040D01*
X1479574Y1272540D02*
X1482574D01*
X1481074Y1271040D02*
Y1274040D01*
X1479320Y1279652D02*
X1482320D01*
X1480820Y1278152D02*
Y1281152D01*
X1472208Y1279652D02*
X1475208D01*
X1473708Y1278152D02*
Y1281152D01*
X1465204Y1279465D02*
X1468204D01*
X1466704Y1277965D02*
Y1280965D01*
X1754002Y1231205D02*
X1757002D01*
X1755502Y1229705D02*
Y1232705D01*
X1761006Y1231392D02*
X1764006D01*
X1762506Y1229892D02*
Y1232892D01*
X1768118Y1231392D02*
X1771118D01*
X1769618Y1229892D02*
Y1232892D01*
X1767864Y1238504D02*
X1770864D01*
X1769364Y1237004D02*
Y1240004D01*
X1760752Y1238504D02*
X1763752D01*
X1762252Y1237004D02*
Y1240004D01*
X1753748Y1238317D02*
X1756748D01*
X1755248Y1236817D02*
Y1239817D01*
X1637416Y991429D02*
X1640416D01*
X1638916Y989929D02*
Y992929D01*
X1644420Y991616D02*
X1647420D01*
X1645920Y990116D02*
Y993116D01*
X1651532Y991616D02*
X1654532D01*
X1653032Y990116D02*
Y993116D01*
X1651278Y998728D02*
X1654278D01*
X1652778Y997228D02*
Y1000228D01*
X1644166Y998728D02*
X1647166D01*
X1645666Y997228D02*
Y1000228D01*
X1637162Y998541D02*
X1640162D01*
X1638662Y997041D02*
Y1000041D01*
X1643766Y526101D02*
X1646766D01*
X1645266Y524601D02*
Y527601D01*
X1650770Y526288D02*
X1653770D01*
X1652270Y524788D02*
Y527788D01*
X1657882Y526288D02*
X1660882D01*
X1659382Y524788D02*
Y527788D01*
X1657628Y533400D02*
X1660628D01*
X1659128Y531900D02*
Y534900D01*
X1650516Y533400D02*
X1653516D01*
X1652016Y531900D02*
Y534900D01*
X1643512Y533213D02*
X1646512D01*
X1645012Y531713D02*
Y534713D01*
X1463426Y485715D02*
X1466426D01*
X1464926Y484215D02*
Y487215D01*
X1470430Y485902D02*
X1473430D01*
X1471930Y484402D02*
Y487402D01*
X1477542Y485902D02*
X1480542D01*
X1479042Y484402D02*
Y487402D01*
X1477288Y493014D02*
X1480288D01*
X1478788Y491514D02*
Y494514D01*
X1470176Y493014D02*
X1473176D01*
X1471676Y491514D02*
Y494514D01*
X1463172Y492827D02*
X1466172D01*
X1464672Y491327D02*
Y494327D01*
X1296294Y498669D02*
X1299294D01*
X1297794Y497169D02*
Y500169D01*
X1303298Y498856D02*
X1306298D01*
X1304798Y497356D02*
Y500356D01*
X1310410Y498856D02*
X1313410D01*
X1311910Y497356D02*
Y500356D01*
X1310664Y491744D02*
X1313664D01*
X1312164Y490244D02*
Y493244D01*
X1303552Y491744D02*
X1306552D01*
X1305052Y490244D02*
Y493244D01*
X1296548Y491557D02*
X1299548D01*
X1298048Y490057D02*
Y493057D01*
X678966Y846836D02*
X681966D01*
X680466Y845336D02*
Y848336D01*
X1304042Y670962D02*
X1307042D01*
X1305542Y669462D02*
Y672462D01*
X613028Y734289D02*
X616028D01*
X614528Y732789D02*
Y735789D01*
X1605812Y1223264D02*
X1608812D01*
X1607312Y1221764D02*
Y1224764D01*
X1771166Y1135380D02*
X1774166D01*
X1772666Y1133880D02*
Y1136880D01*
X1770912Y1163574D02*
X1773912D01*
X1772412Y1162074D02*
Y1165074D01*
X1387457Y911836D02*
X1390457D01*
X1388957Y910336D02*
Y913336D01*
X1232606Y707514D02*
X1235606D01*
X1234106Y706014D02*
Y709014D01*
X508024Y911352D02*
X511024D01*
X509524Y909852D02*
Y912852D01*
X533424Y851916D02*
X536424D01*
X534924Y850416D02*
Y853416D01*
X1144548Y505714D02*
X1147548D01*
X1146048Y504214D02*
Y507214D01*
X1132864Y503428D02*
X1135864D01*
X1134364Y501928D02*
Y504928D01*
X513491Y499897D02*
X516491D01*
X514991Y498397D02*
Y501397D01*
X525982Y500503D02*
X528982D01*
X527482Y499003D02*
Y502003D01*
X538352Y499594D02*
X541352D01*
X539852Y498094D02*
Y501094D01*
X1441165Y552532D02*
X1444164D01*
X1442664Y551032D02*
Y554032D01*
X1434348Y552159D02*
X1437348D01*
X1435848Y550659D02*
Y553659D01*
X1560346Y589280D02*
X1563346D01*
X1561846Y587780D02*
Y590780D01*
X1560346Y582168D02*
X1563346D01*
X1561846Y580668D02*
Y583668D01*
X1560346Y575310D02*
X1563346D01*
X1561846Y573810D02*
Y576810D01*
X1645944Y1115060D02*
X1648944D01*
X1647444Y1113560D02*
Y1116560D01*
X1639594Y1115060D02*
X1642594D01*
X1641094Y1113560D02*
Y1116560D01*
X1633244Y1114806D02*
X1636244D01*
X1634744Y1113306D02*
Y1116306D01*
X455471Y897037D02*
X458471D01*
X456971Y895537D02*
Y898537D01*
X426490Y800354D02*
X429490D01*
X427990Y798854D02*
Y801854D01*
X644676Y977138D02*
X647676D01*
X646176Y975638D02*
Y978638D01*
X637818Y976884D02*
X640818D01*
X639318Y975384D02*
Y978384D01*
X334796Y1129284D02*
X337796D01*
X336296Y1127784D02*
Y1130784D01*
X334796Y1136904D02*
X337796D01*
X336296Y1135404D02*
Y1138404D01*
X334796Y1143181D02*
X337796D01*
X336296Y1141681D02*
Y1144681D01*
X334796Y1149858D02*
X337796D01*
X336296Y1148358D02*
Y1151358D01*
X327938Y1129284D02*
X330938D01*
X329438Y1127784D02*
Y1130784D01*
X327938Y1136904D02*
X330938D01*
X329438Y1135404D02*
Y1138404D01*
X327938Y1143181D02*
X330938D01*
X329438Y1141681D02*
Y1144681D01*
X327938Y1149858D02*
X330938D01*
X329438Y1148358D02*
Y1151358D01*
X505657Y1123567D02*
X508657D01*
X507157Y1122067D02*
Y1125067D01*
X505657Y1131187D02*
X508657D01*
X507157Y1129687D02*
Y1132687D01*
X505657Y1137463D02*
X508657D01*
X507157Y1135963D02*
Y1138963D01*
X505657Y1144141D02*
X508657D01*
X507157Y1142641D02*
Y1145641D01*
X498118Y1144524D02*
X501118D01*
X499618Y1143024D02*
Y1146024D01*
X498118Y1137847D02*
X501118D01*
X499618Y1136347D02*
Y1139347D01*
X498118Y1131570D02*
X501118D01*
X499618Y1130070D02*
Y1133070D01*
X498118Y1123950D02*
X501118D01*
X499618Y1122450D02*
Y1125450D01*
X369594Y996950D02*
X372594D01*
X371094Y995450D02*
Y998450D01*
X244372Y753138D02*
X247372D01*
X245872Y751638D02*
Y754638D01*
X250214Y753138D02*
X253214D01*
X251714Y751638D02*
Y754638D01*
X210082Y769366D02*
X213082D01*
X211582Y767866D02*
Y770866D01*
X221512Y817880D02*
X224512D01*
X223012Y816380D02*
Y819380D01*
X348512Y814324D02*
X351512D01*
X350012Y812824D02*
Y815824D01*
X262660Y763016D02*
X265660D01*
X264160Y761516D02*
Y764516D01*
X311733Y802387D02*
X314733D01*
X313233Y800887D02*
Y803887D01*
X200176Y702929D02*
X203176D01*
X201676Y701429D02*
Y704429D01*
X286536Y778002D02*
X289536D01*
X288036Y776502D02*
Y779502D01*
X286790Y771398D02*
X289790D01*
X288290Y769898D02*
Y772898D01*
X133960Y911606D02*
X136960D01*
X135460Y910106D02*
Y913106D01*
X146328Y803910D02*
X149328D01*
X147828Y802410D02*
Y805410D01*
X152932Y803910D02*
X155932D01*
X154432Y802410D02*
Y805410D01*
X139978Y803910D02*
X142978D01*
X141478Y802410D02*
Y805410D01*
X193318Y971550D02*
X196318D01*
X194818Y970050D02*
Y973050D01*
X187402Y971489D02*
X190401D01*
X188902Y969989D02*
Y972989D01*
X180618Y971296D02*
X183618D01*
X182118Y969796D02*
Y972796D01*
X155774Y733564D02*
X158774D01*
X157274Y732064D02*
Y735064D01*
X215980Y695476D02*
X218980D01*
X217480Y693976D02*
Y696976D01*
X257580Y847344D02*
X260580D01*
X259080Y845844D02*
Y848844D01*
X269772Y847090D02*
X272772D01*
X271272Y845590D02*
Y848590D01*
X200684Y717042D02*
X203684D01*
X202184Y715542D02*
Y718542D01*
X208484Y721978D02*
X211484D01*
X209984Y720478D02*
Y723478D01*
X267232Y798576D02*
X270232D01*
X268732Y797076D02*
Y800076D01*
X242848Y822960D02*
X245848D01*
X244348Y821460D02*
Y824460D01*
X247168Y827786D02*
X250168D01*
X248668Y826286D02*
Y829286D01*
X178840Y801370D02*
X181840D01*
X180340Y799870D02*
Y802870D01*
X171982Y801370D02*
X174982D01*
X173482Y799870D02*
Y802870D01*
X203224Y752856D02*
X206224D01*
X204724Y751356D02*
Y754356D01*
X196620Y753110D02*
X199620D01*
X198120Y751610D02*
Y754610D01*
X202747Y879328D02*
X205747D01*
X204247Y877828D02*
Y880828D01*
X196770Y879507D02*
X199770D01*
X198270Y878007D02*
Y881007D01*
X187463Y879540D02*
X190463D01*
X188964Y878040D02*
Y881040D01*
X181706Y879846D02*
X184706D01*
X183206Y878346D02*
Y881346D01*
X118038Y835050D02*
X121038D01*
X119538Y833550D02*
Y836550D01*
X110567Y834949D02*
X113567D01*
X112067Y833448D02*
Y836449D01*
X103452Y834949D02*
X106452D01*
X104952Y833448D02*
Y836449D01*
X163205Y835244D02*
X166205D01*
X164705Y833744D02*
Y836744D01*
X156509Y835521D02*
X159509D01*
X158009Y834021D02*
Y837021D01*
X150599Y835706D02*
X153599D01*
X152099Y834206D02*
Y837206D01*
X143280Y835406D02*
X146280D01*
X144780Y833906D02*
Y836906D01*
X193318Y804926D02*
X196318D01*
X194818Y803426D02*
Y806426D01*
X189254Y798068D02*
X192254D01*
X190754Y796568D02*
Y799568D01*
X255437Y804628D02*
X258437D01*
X256937Y803128D02*
Y806128D01*
X248866Y804584D02*
X251866D01*
X250366Y803084D02*
Y806084D01*
X261390Y775970D02*
X264390D01*
X262890Y774470D02*
Y777470D01*
X285906Y798302D02*
X288906D01*
X287406Y796802D02*
Y799802D01*
X234720Y770636D02*
X237720D01*
X236220Y769136D02*
Y772136D01*
X1673015Y902807D02*
X1676015D01*
X1674515Y901307D02*
Y904307D01*
X481608Y761238D02*
X484608D01*
X483108Y759738D02*
Y762738D01*
X481608Y721360D02*
X484608D01*
X483108Y719860D02*
Y722860D01*
X110006Y578612D02*
X113006D01*
X111506Y577112D02*
Y580112D01*
X301776Y1006094D02*
X304776D01*
X303276Y1004594D02*
Y1007594D01*
X313968Y1022858D02*
X316968D01*
X315468Y1021358D02*
Y1024358D01*
X347496Y1028192D02*
X350496D01*
X348996Y1026692D02*
Y1029692D01*
X329970Y1028446D02*
X332970D01*
X331470Y1026946D02*
Y1029946D01*
X141756Y651002D02*
X144756D01*
X143256Y649502D02*
Y652502D01*
X175284Y651002D02*
X178284D01*
X176784Y649502D02*
Y652502D01*
X183412Y811417D02*
X186412D01*
X184912Y809917D02*
Y812917D01*
X1069110Y936244D02*
X1072110D01*
X1070610Y934744D02*
Y937744D01*
X498009Y742023D02*
X501009D01*
X499509Y740523D02*
Y743523D01*
X216611Y1063663D02*
X219611D01*
X218111Y1062163D02*
Y1065163D01*
X238963Y1011532D02*
X241963D01*
X240463Y1010032D02*
Y1013032D01*
X221710Y1012639D02*
X224710D01*
X223210Y1011139D02*
Y1014139D01*
X1146072Y549656D02*
X1149072D01*
X1147572Y548156D02*
Y551156D01*
X1183664Y530606D02*
X1186664D01*
X1185164Y529106D02*
Y532106D01*
X905026Y756412D02*
X908026D01*
X906526Y754912D02*
Y757912D01*
X917472Y751586D02*
X920472D01*
X918972Y750086D02*
Y753086D01*
X1174774Y596392D02*
X1177774D01*
X1176274Y594892D02*
Y597892D01*
X1172234Y585216D02*
X1175234D01*
X1173734Y583716D02*
Y586716D01*
X1558568Y1019556D02*
X1561568D01*
X1560068Y1018056D02*
Y1021056D01*
X1573046Y1017016D02*
X1576046D01*
X1574546Y1015516D02*
Y1018516D01*
X1662962Y877316D02*
X1665962D01*
X1664462Y875816D02*
Y878816D01*
X1559838Y868172D02*
X1562838D01*
X1561338Y866672D02*
Y869672D01*
X1650262Y932688D02*
X1653262D01*
X1651762Y931188D02*
Y934188D01*
X1632990Y911860D02*
X1635990D01*
X1634490Y910360D02*
Y913360D01*
X1697760Y926338D02*
X1700760D01*
X1699260Y924838D02*
Y927838D01*
X1697760Y938784D02*
X1700760D01*
X1699260Y937284D02*
Y940284D01*
X1754656Y1081631D02*
X1757656D01*
X1756156Y1080131D02*
Y1083131D01*
X1755164Y1088390D02*
X1758164D01*
X1756664Y1086890D02*
Y1089890D01*
X1755672Y1095502D02*
X1758672D01*
X1757172Y1094002D02*
Y1097002D01*
X1698014Y1021334D02*
X1701014D01*
X1699514Y1019834D02*
Y1022834D01*
X1758212Y1115060D02*
X1761212D01*
X1759712Y1113560D02*
Y1116560D01*
X1774722Y1182878D02*
X1777722D01*
X1776222Y1181378D02*
Y1184378D01*
X1731542Y1176274D02*
X1734542D01*
X1733042Y1174774D02*
Y1177774D01*
X1666264Y885698D02*
X1669264D01*
X1667764Y884198D02*
Y887198D01*
X799108Y654304D02*
X802108D01*
X800608Y652804D02*
Y655804D01*
X919504Y737108D02*
X922504D01*
X921004Y735608D02*
Y738608D01*
X763548Y654050D02*
X766548D01*
X765048Y652550D02*
Y655550D01*
X918742Y743966D02*
X921742D01*
X920242Y742466D02*
Y745466D01*
X781074Y667385D02*
X784074D01*
X782574Y665885D02*
Y668885D01*
X865910Y794004D02*
X868910D01*
X867410Y792504D02*
Y795504D01*
X564001Y500812D02*
X567001D01*
X565500Y499311D02*
Y502312D01*
X601987Y499624D02*
X604986D01*
X603487Y498124D02*
Y501124D01*
X589400Y500812D02*
X592401D01*
X590900Y499311D02*
Y502312D01*
X576701Y500812D02*
X579701D01*
X578200Y499311D02*
Y502312D01*
X1386102Y846582D02*
X1389102D01*
X1387602Y845082D02*
Y848082D01*
X1449348Y846836D02*
X1452348D01*
X1450848Y845336D02*
Y848336D01*
X1435378Y846074D02*
X1438378D01*
X1436878Y844574D02*
Y847574D01*
X1213128Y765415D02*
X1216128D01*
X1214628Y763915D02*
Y766915D01*
X1288058Y765556D02*
X1291058D01*
X1289558Y764056D02*
Y767056D01*
X1301520Y765556D02*
X1304520D01*
X1303020Y764056D02*
Y767056D01*
X1378522Y765541D02*
X1381523D01*
X1380022Y764041D02*
Y767041D01*
X1391182Y765556D02*
X1394182D01*
X1392682Y764056D02*
Y767056D01*
X1468144Y765556D02*
X1471144D01*
X1469644Y764056D02*
Y767056D01*
X1489480Y771652D02*
X1492480D01*
X1490980Y770152D02*
Y773152D01*
X1550440Y771398D02*
X1553440D01*
X1551940Y769898D02*
Y772898D01*
X1256372Y693984D02*
X1259372D01*
X1257872Y692484D02*
Y695484D01*
X1526178Y709422D02*
X1529178D01*
X1527677Y707922D02*
Y710922D01*
X1526178Y693984D02*
X1529178D01*
X1527677Y692484D02*
Y695484D01*
X1437023Y693984D02*
X1440023D01*
X1438524Y692484D02*
Y695484D01*
X1360194Y694690D02*
X1363194D01*
X1361694Y693190D02*
Y696190D01*
X1346853Y709168D02*
X1349854D01*
X1348353Y707668D02*
Y710668D01*
X754658Y637540D02*
X757658D01*
X756158Y636040D02*
Y639040D01*
X912749Y510437D02*
X915749D01*
X914249Y508937D02*
Y511937D01*
X1161820Y528066D02*
X1164820D01*
X1163320Y526566D02*
Y529566D01*
X1170964Y505206D02*
X1173964D01*
X1172464Y503706D02*
Y506706D01*
X1139976Y531114D02*
X1142976D01*
X1141476Y529614D02*
Y532614D01*
X900200Y604497D02*
X903200D01*
X901700Y602997D02*
Y605997D01*
X900200Y611275D02*
X903200D01*
X901700Y609775D02*
Y612775D01*
X1405152Y604497D02*
X1408152D01*
X1406652Y602997D02*
Y605997D01*
X1405152Y611275D02*
X1408152D01*
X1406652Y609775D02*
Y612775D01*
X1049298Y683006D02*
X1052298D01*
X1050798Y681506D02*
Y684506D01*
X1237004Y588518D02*
X1240004D01*
X1238504Y587018D02*
Y590018D01*
X1239036Y636270D02*
X1242036D01*
X1240536Y634770D02*
Y637770D01*
X1723922Y846328D02*
X1726922D01*
X1725422Y844828D02*
Y847828D01*
X1334032Y748284D02*
X1337032D01*
X1335532Y746784D02*
Y749784D01*
X1327682Y751586D02*
X1330682D01*
X1329182Y750086D02*
Y753086D01*
X1319554Y753618D02*
X1322554D01*
X1321054Y752118D02*
Y755118D01*
X1311172Y754888D02*
X1314172D01*
X1312672Y753388D02*
Y756388D01*
X493015Y798918D02*
X496015D01*
X494515Y797418D02*
Y800418D01*
X678763Y840784D02*
X681763D01*
X680263Y839284D02*
Y842284D01*
X1144294Y791718D02*
X1147294D01*
X1145794Y790218D02*
Y793218D01*
X1441474Y918210D02*
X1444474D01*
X1442974Y916710D02*
Y919710D01*
X744498Y1177290D02*
X747498D01*
X745998Y1175790D02*
Y1178790D01*
X744940Y1163138D02*
X747940D01*
X746440Y1161638D02*
Y1164638D01*
X744278Y1075209D02*
X747278D01*
X745778Y1073709D02*
Y1076709D01*
X744035Y1062298D02*
X747035D01*
X745535Y1060798D02*
Y1063798D01*
X744243Y1099819D02*
X747243D01*
X745743Y1098319D02*
Y1101319D01*
X744243Y1125747D02*
X747243D01*
X745743Y1124247D02*
Y1127247D01*
X1256923Y709111D02*
X1259923D01*
X1258423Y707611D02*
Y710611D01*
X1303384Y657813D02*
X1306384D01*
X1304884Y656313D02*
Y659313D01*
X1303537Y665236D02*
X1306537D01*
X1305038Y663736D02*
Y666736D01*
X912063Y979668D02*
X915063D01*
X913563Y978168D02*
Y981168D01*
X894866Y709676D02*
X897866D01*
X896366Y708176D02*
Y711176D01*
X1127022Y705104D02*
X1130022D01*
X1128522Y703604D02*
Y706604D01*
X1117624Y761492D02*
X1120624D01*
X1119124Y759992D02*
Y762992D01*
X1106448Y728726D02*
X1109448D01*
X1107948Y727226D02*
Y730226D01*
X1164340Y934350D02*
X1167340D01*
X1165840Y932850D02*
Y935850D01*
X1156812Y684876D02*
X1159812D01*
X1158312Y683376D02*
Y686376D01*
X1216519Y835271D02*
X1219519D01*
X1218019Y833771D02*
Y836771D01*
X1210467Y835523D02*
X1213466D01*
X1211966Y834023D02*
Y837023D01*
X1191969Y683708D02*
X1194969D01*
X1193469Y682208D02*
Y685208D01*
X1185495Y674887D02*
X1188495D01*
X1186995Y673387D02*
Y676387D01*
X1157756Y669798D02*
X1160756D01*
X1159256Y668298D02*
Y671298D01*
X1189252Y724408D02*
X1192252D01*
X1190752Y722908D02*
Y725908D01*
X694367Y890733D02*
X697367D01*
X695867Y889233D02*
Y892233D01*
X694314Y874232D02*
X697315D01*
X695815Y872732D02*
Y875732D01*
X1503508Y553517D02*
X1506508D01*
X1505007Y552016D02*
Y555017D01*
X629690Y897382D02*
X632690D01*
X631190Y895882D02*
Y898882D01*
X629944Y909574D02*
X632944D01*
X631444Y908074D02*
Y911074D01*
X629690Y903478D02*
X632690D01*
X631190Y901978D02*
Y904978D01*
X705012Y960152D02*
X708011D01*
X706512Y958652D02*
Y961652D01*
X705057Y966029D02*
X708057D01*
X706557Y964529D02*
Y967529D01*
X705727Y972248D02*
X708727D01*
X707227Y970748D02*
Y973748D01*
X677026Y935418D02*
X680025D01*
X678525Y933918D02*
Y936918D01*
X676677Y929817D02*
X679678D01*
X678177Y928317D02*
Y931317D01*
X676771Y924242D02*
X679771D01*
X678271Y922742D02*
Y925742D01*
X743482Y946658D02*
X746482D01*
X744982Y945158D02*
Y948158D01*
X543552Y749578D02*
X546552D01*
X545052Y748078D02*
Y751078D01*
X543576Y734887D02*
X546576D01*
X545076Y733387D02*
Y736387D01*
X558316Y734949D02*
X561316D01*
X559816Y733449D02*
Y736449D01*
X558316Y749427D02*
X561316D01*
X559816Y747927D02*
Y750927D01*
X540536Y762381D02*
X543536D01*
X542036Y760881D02*
Y763881D01*
X863132Y1003902D02*
X866133D01*
X864632Y1002402D02*
Y1005402D01*
X864979Y852040D02*
X867979D01*
X866479Y850540D02*
Y853540D01*
X868450Y898144D02*
X871450D01*
X869950Y896644D02*
Y899644D01*
X855750Y917448D02*
X858750D01*
X857250Y915948D02*
Y918948D01*
X825016Y870458D02*
X828016D01*
X826516Y868958D02*
Y871958D01*
X864132Y1010229D02*
X867132D01*
X865632Y1008729D02*
Y1011729D01*
X864046Y997710D02*
X867046D01*
X865546Y996209D02*
Y999210D01*
X863695Y947672D02*
X866694D01*
X865194Y946172D02*
Y949172D01*
X865280Y871011D02*
X868280D01*
X866780Y869511D02*
Y872511D01*
X863624Y954024D02*
X866624D01*
X865124Y952524D02*
Y955524D01*
X856106Y959966D02*
X859106D01*
X857606Y958466D02*
Y961466D01*
X538918Y1283030D02*
X541918D01*
X540418Y1281530D02*
Y1284530D01*
X531392Y1283030D02*
X534392D01*
X532892Y1281530D02*
Y1284530D01*
X196493Y1241533D02*
X199493D01*
X197993Y1240033D02*
Y1243033D01*
X196493Y1249059D02*
X199493D01*
X197993Y1247559D02*
Y1250559D01*
X196493Y1255751D02*
X199493D01*
X197993Y1254251D02*
Y1257251D01*
X466387Y1259561D02*
X469388D01*
X467887Y1258062D02*
Y1261061D01*
X459696Y1259601D02*
X462696D01*
X461195Y1258101D02*
Y1261101D01*
X466202Y1266277D02*
X469202D01*
X467702Y1264777D02*
Y1267777D01*
X459510Y1266317D02*
X462510D01*
X461010Y1264817D02*
Y1267817D01*
X459510Y1272921D02*
X462510D01*
X461010Y1271421D02*
Y1274421D01*
X522315Y787697D02*
X525315D01*
X523815Y786197D02*
Y789197D01*
X566880Y799620D02*
X569880D01*
X568380Y798120D02*
Y801120D01*
X500725Y781093D02*
X503725D01*
X502225Y779593D02*
Y782593D01*
X722888Y834189D02*
X725889D01*
X724389Y832689D02*
Y835689D01*
X713849Y836865D02*
X716849D01*
X715349Y835365D02*
Y838365D01*
X734624Y834826D02*
X737624D01*
X736124Y833326D02*
Y836326D01*
X578636Y733933D02*
X581636D01*
X580136Y732433D02*
Y735433D01*
X544346Y768223D02*
X547346D01*
X545846Y766723D02*
Y769723D01*
X558316Y767715D02*
X561316D01*
X559816Y766215D02*
Y769215D01*
X1484654Y846582D02*
X1487654D01*
X1486154Y845082D02*
Y848082D01*
X1365020Y846582D02*
X1368020D01*
X1366520Y845082D02*
Y848082D01*
X1329695Y1049162D02*
X1332695D01*
X1331195Y1047662D02*
Y1050662D01*
X829493Y1161322D02*
X832494D01*
X830993Y1159822D02*
Y1162822D01*
X876298Y1161234D02*
X879297D01*
X877797Y1159734D02*
Y1162734D01*
X927171Y1161499D02*
X930171D01*
X928671Y1159999D02*
Y1162999D01*
X976275Y1161499D02*
X979276D01*
X977775Y1159999D02*
Y1162999D01*
X1025734Y1161676D02*
X1028734D01*
X1027234Y1160176D02*
Y1163176D01*
X1075900Y1161322D02*
X1078900D01*
X1077400Y1159822D02*
Y1162822D01*
X1124209Y1161411D02*
X1127208D01*
X1125708Y1159911D02*
Y1162911D01*
X1174817Y1161588D02*
X1177817D01*
X1176317Y1160088D02*
Y1163088D01*
X1223288Y1161288D02*
X1226288D01*
X1224788Y1159788D02*
Y1162788D01*
X1272056Y1161542D02*
X1275056D01*
X1273556Y1160042D02*
Y1163042D01*
X1273987Y1092503D02*
X1276987D01*
X1275487Y1091003D02*
Y1094003D01*
X1224555Y1092579D02*
X1227555D01*
X1226055Y1091079D02*
Y1094079D01*
X1172776Y1092881D02*
X1175777D01*
X1174277Y1091381D02*
Y1094381D01*
X1124253Y1092806D02*
X1127253D01*
X1125753Y1091306D02*
Y1094306D01*
X1073687Y1092881D02*
X1076686D01*
X1075186Y1091381D02*
Y1094381D01*
X1026072Y1092806D02*
X1029072D01*
X1027572Y1091306D02*
Y1094306D01*
X976489Y1092352D02*
X979489D01*
X977989Y1090852D02*
Y1093851D01*
X926527Y1092427D02*
X929527D01*
X928027Y1090927D02*
Y1093927D01*
X876944Y1092579D02*
X879944D01*
X878444Y1091079D02*
Y1094079D01*
X826831Y1092805D02*
X829831D01*
X828331Y1091305D02*
Y1094305D01*
X639088Y1197102D02*
X642088D01*
X640588Y1195602D02*
Y1198602D01*
X648740Y1187450D02*
X651740D01*
X650240Y1185950D02*
Y1188950D01*
X679220Y1176782D02*
X682220D01*
X680720Y1175282D02*
Y1178282D01*
X678863Y1150977D02*
X681863D01*
X680363Y1149477D02*
Y1152477D01*
X647724Y1074166D02*
X650724D01*
X649224Y1072666D02*
Y1075666D01*
X660170Y1056894D02*
X663170D01*
X661670Y1055394D02*
Y1058394D01*
X639088Y1059604D02*
X642088D01*
X640588Y1058104D02*
Y1061104D01*
X1659680Y481674D02*
X1662680D01*
X1661180Y480174D02*
Y483174D01*
X1649275Y481674D02*
X1652275D01*
X1650775Y480174D02*
Y483174D01*
X1638940Y481534D02*
X1641940D01*
X1640439Y480034D02*
Y483034D01*
X1536964Y531585D02*
X1539964D01*
X1538464Y530085D02*
Y533085D01*
X1205475Y634232D02*
X1208475D01*
X1206975Y632732D02*
Y635732D01*
X1242084Y596646D02*
X1245084D01*
X1243584Y595146D02*
Y598146D01*
X1270042Y670962D02*
X1273042D01*
X1271542Y669462D02*
Y672462D01*
X1274822Y653696D02*
X1277822D01*
X1276322Y652196D02*
Y655196D01*
X1275612Y630682D02*
X1278612D01*
X1277112Y629182D02*
Y632182D01*
X1345716Y647192D02*
X1348716D01*
X1347216Y645692D02*
Y648692D01*
X1344954Y630682D02*
X1347954D01*
X1346454Y629182D02*
Y632182D01*
X1074952Y562864D02*
X1077952D01*
X1076452Y561364D02*
Y564364D01*
X879880Y674032D02*
X882880D01*
X881380Y672532D02*
Y675532D01*
X598290Y611159D02*
X601291D01*
X599790Y609659D02*
Y612659D01*
X583050Y611159D02*
X586050D01*
X584551Y609659D02*
Y612659D01*
X567999Y611159D02*
X570998D01*
X569498Y609659D02*
Y612659D01*
X552825Y611159D02*
X555825D01*
X554324Y609659D02*
Y612659D01*
X537519Y611159D02*
X540518D01*
X539019Y609659D02*
Y612659D01*
X522279Y611159D02*
X525279D01*
X523778Y609659D02*
Y612659D01*
X507038Y611159D02*
X510038D01*
X508539Y609659D02*
Y612659D01*
X477513Y587430D02*
X480513D01*
X479013Y585930D02*
Y588930D01*
X466704Y587482D02*
X469704D01*
X468204Y585982D02*
Y588982D01*
X455728Y587356D02*
X458728D01*
X457228Y585856D02*
Y588856D01*
X431316Y587572D02*
X434316D01*
X432816Y586072D02*
Y589072D01*
X424204Y587318D02*
X427204D01*
X425704Y585818D02*
Y588818D01*
X577471Y621054D02*
X580471D01*
X578971Y619554D02*
Y622554D01*
X528882Y611985D02*
X531883D01*
X530382Y610485D02*
Y613485D01*
X597072Y620069D02*
X600072D01*
X598572Y618569D02*
Y621569D01*
X573180Y704789D02*
X576180D01*
X574679Y703289D02*
Y706289D01*
X531646Y741807D02*
X534646D01*
X533146Y740307D02*
Y743307D01*
X599652Y684906D02*
X602652D01*
X601152Y683407D02*
Y686406D01*
X1168028Y825432D02*
X1171028D01*
X1169528Y823932D02*
Y826932D01*
X1154454Y823722D02*
X1157454D01*
X1155954Y822222D02*
Y825222D01*
X1148742Y822566D02*
X1151742D01*
X1150242Y821066D02*
Y824066D01*
X907312Y772668D02*
X910312D01*
X908812Y771168D02*
Y774168D01*
X519418Y604619D02*
X522419D01*
X520919Y603119D02*
Y606119D01*
X551301Y500812D02*
X554300D01*
X552800Y499311D02*
Y502312D01*
X673378Y957326D02*
X676378D01*
X674878Y955826D02*
Y958826D01*
X673378Y963168D02*
X676378D01*
X674878Y961668D02*
Y964668D01*
X743990Y926592D02*
X746990D01*
X745490Y925092D02*
Y928092D01*
X743736Y932942D02*
X746736D01*
X745236Y931442D02*
Y934442D01*
X825016Y905002D02*
X828016D01*
X826516Y903502D02*
Y906502D01*
X828437Y1054640D02*
X831436D01*
X829937Y1053140D02*
Y1056140D01*
X879324Y1056740D02*
X882324D01*
X880824Y1055240D02*
Y1058240D01*
X929095Y1054662D02*
X932095D01*
X930595Y1053162D02*
Y1056162D01*
X1027402Y1054688D02*
X1030402D01*
X1028902Y1053187D02*
Y1056187D01*
X1075716Y1054262D02*
X1078716D01*
X1077216Y1052762D02*
Y1055762D01*
X1125448Y1054333D02*
X1128448D01*
X1126948Y1052833D02*
Y1055833D01*
X1175166Y1054361D02*
X1178166D01*
X1176666Y1052860D02*
Y1055861D01*
X1225774Y1054434D02*
X1228774D01*
X1227274Y1052934D02*
Y1055934D01*
X1272861Y1053173D02*
X1275861D01*
X1274361Y1051673D02*
Y1054673D01*
X1281391Y1045993D02*
X1284391D01*
X1282891Y1044493D02*
Y1047493D01*
X1392087Y1052103D02*
X1395087D01*
X1393587Y1050603D02*
Y1053603D01*
X1193824Y930402D02*
X1196824D01*
X1195324Y928902D02*
Y931902D01*
X1193824Y922020D02*
X1196824D01*
X1195324Y920520D02*
Y923520D01*
X782998Y855472D02*
X785998D01*
X784498Y853972D02*
Y856972D01*
X791488Y855472D02*
X794488D01*
X792988Y853972D02*
Y856972D01*
X800708Y855472D02*
X803708D01*
X802208Y853972D02*
Y856972D01*
X808582Y855472D02*
X811582D01*
X810082Y853972D02*
Y856972D01*
X808252Y863315D02*
X811252D01*
X809752Y861815D02*
Y864815D01*
X800378Y863315D02*
X803378D01*
X801878Y861815D02*
Y864815D01*
X791158Y863315D02*
X794158D01*
X792658Y861815D02*
Y864815D01*
X782669Y863315D02*
X785669D01*
X784169Y861815D02*
Y864815D01*
X1108480Y811530D02*
X1111480D01*
X1109980Y810030D02*
Y813030D01*
X1154200Y876300D02*
X1157200D01*
X1155700Y874800D02*
Y877800D01*
X1323060Y936720D02*
X1326060D01*
X1324560Y935220D02*
Y938220D01*
X937030Y999744D02*
X940030D01*
X938530Y998244D02*
Y1001244D01*
X1102638Y940816D02*
X1105638D01*
X1104138Y939316D02*
Y942316D01*
X1107972Y1013460D02*
X1110972D01*
X1109472Y1011960D02*
Y1014960D01*
X1102384Y1018453D02*
X1105384D01*
X1103884Y1016953D02*
Y1019953D01*
X1118386Y989076D02*
X1121386D01*
X1119886Y987576D02*
Y990576D01*
X1337080Y1078230D02*
X1340080D01*
X1338580Y1076730D02*
Y1079730D01*
X1129308Y975614D02*
X1132308D01*
X1130808Y974114D02*
Y977114D01*
X913916Y767588D02*
X916916D01*
X915416Y766088D02*
Y769088D01*
X1113052Y831850D02*
X1116052D01*
X1114552Y830350D02*
Y833350D01*
X903459Y976742D02*
X906459D01*
X904959Y975242D02*
Y978242D01*
X896390Y976122D02*
X899390D01*
X897890Y974622D02*
Y977622D01*
X786154Y1012698D02*
X789154D01*
X787654Y1011198D02*
Y1014198D01*
X761516Y1006348D02*
X764516D01*
X763016Y1004848D02*
Y1007848D01*
X763040Y998220D02*
X766040D01*
X764540Y996720D02*
Y999720D01*
X973098Y849884D02*
X976098D01*
X974598Y848384D02*
Y851384D01*
X978432Y840232D02*
X981432D01*
X979932Y838732D02*
Y841732D01*
X967510Y840486D02*
X970510D01*
X969010Y838986D02*
Y841986D01*
X990116Y803148D02*
X993116D01*
X991616Y801648D02*
Y804648D01*
X990370Y820166D02*
X993370D01*
X991870Y818666D02*
Y821666D01*
X990370Y812800D02*
X993370D01*
X991870Y811300D02*
Y814300D01*
X1368698Y925256D02*
X1371698D01*
X1370199Y923756D02*
Y926756D01*
X1112290Y863854D02*
X1115290D01*
X1113790Y862354D02*
Y865354D01*
X1366544Y889254D02*
X1369544D01*
X1368044Y887754D02*
Y890754D01*
X1362480Y882396D02*
X1365480D01*
X1363980Y880896D02*
Y883896D01*
X1477755Y919354D02*
X1480755D01*
X1479254Y917854D02*
Y920854D01*
X1457716Y919595D02*
X1460716D01*
X1459216Y918095D02*
Y921095D01*
X1340697Y911566D02*
X1343697D01*
X1342197Y910066D02*
Y913066D01*
X1360494Y915486D02*
X1363494D01*
X1361994Y913986D02*
Y916986D01*
X1340381Y936548D02*
X1343381D01*
X1341881Y935048D02*
Y938048D01*
X1353082Y933958D02*
X1356082D01*
X1354582Y932458D02*
Y935458D01*
X639596Y1153668D02*
X642596D01*
X641096Y1152168D02*
Y1155168D01*
X639088Y1093604D02*
X642088D01*
X640588Y1092104D02*
Y1095104D01*
X1246656Y797560D02*
X1249656D01*
X1248156Y796060D02*
Y799060D01*
X1246148Y804418D02*
X1249148D01*
X1247648Y802918D02*
Y805918D01*
X1211604Y813562D02*
X1214604D01*
X1213104Y812062D02*
Y815062D01*
X1222272Y808736D02*
X1225272D01*
X1223772Y807236D02*
Y810236D01*
X1117370Y794766D02*
X1120370D01*
X1118870Y793266D02*
Y796266D01*
X1157502Y909320D02*
X1160502D01*
X1159002Y907820D02*
Y910820D01*
X1116015Y877689D02*
X1119015D01*
X1117515Y876189D02*
Y879189D01*
X1114922Y870999D02*
X1117922D01*
X1116422Y869499D02*
Y872499D01*
X1116354Y855980D02*
X1119354D01*
X1117854Y854480D02*
Y857480D01*
X809522Y616966D02*
X812522D01*
X811022Y615466D02*
Y618466D01*
X809522Y624078D02*
X812522D01*
X811022Y622578D02*
Y625578D01*
X809522Y609600D02*
X812522D01*
X811022Y608100D02*
Y611100D01*
X1418245Y908319D02*
X1421245D01*
X1419745Y906819D02*
Y909819D01*
X1403228Y907790D02*
X1406228D01*
X1404729Y906290D02*
Y909290D01*
X1368068Y882904D02*
X1371068D01*
X1369568Y881404D02*
Y884404D01*
X864977Y762437D02*
X867977D01*
X866477Y760937D02*
Y763937D01*
X1125244Y698754D02*
X1128244D01*
X1126744Y697254D02*
Y700254D01*
X1032553Y699785D02*
X1035554D01*
X1034053Y698285D02*
Y701285D01*
X993368Y698965D02*
X996368D01*
X994868Y697465D02*
Y700465D01*
X913053Y694959D02*
X916053D01*
X914553Y693459D02*
Y696459D01*
X865118Y827373D02*
X868118D01*
X866618Y825873D02*
Y828873D01*
X864900Y932907D02*
X867900D01*
X866400Y931407D02*
Y934408D01*
X917906Y979428D02*
X920906D01*
X919406Y977928D02*
Y980928D01*
X1015515Y978517D02*
X1018515D01*
X1017015Y977017D02*
Y980017D01*
X1146072Y952246D02*
X1149072D01*
X1147572Y950746D02*
Y953746D01*
X1139214Y955548D02*
X1142214D01*
X1140714Y954048D02*
Y957048D01*
X1145118Y761643D02*
X1148118D01*
X1146618Y760143D02*
Y763143D01*
X1149120Y937006D02*
X1152120D01*
X1150620Y935506D02*
Y938506D01*
X927886Y977900D02*
X930886D01*
X929386Y976400D02*
Y979400D01*
X937971Y980569D02*
X940971D01*
X939471Y979069D02*
Y982069D01*
X1092986Y700278D02*
X1095986D01*
X1094486Y698778D02*
Y701778D01*
X1204238Y835406D02*
X1207238D01*
X1205738Y833906D02*
Y836906D01*
X1119402Y811784D02*
X1122402D01*
X1120902Y810284D02*
Y813284D01*
X1113814Y822960D02*
X1116814D01*
X1115314Y821460D02*
Y824460D01*
X959128Y682498D02*
X962128D01*
X960628Y680998D02*
Y683998D01*
X946682Y666496D02*
X949682D01*
X948182Y664996D02*
Y667996D01*
X948079Y688213D02*
X951079D01*
X949579Y686713D02*
Y689713D01*
X1468638Y563335D02*
X1471638D01*
X1470138Y561835D02*
Y564835D01*
X1199294Y596086D02*
X1202294D01*
X1200794Y594586D02*
Y597586D01*
X1205730Y590290D02*
X1208729D01*
X1207230Y588790D02*
Y591790D01*
X1416330Y607701D02*
X1419330D01*
X1417830Y606201D02*
Y609201D01*
X1433902Y607885D02*
X1436902D01*
X1435403Y606385D02*
Y609385D01*
X976654Y691388D02*
X979654D01*
X978154Y689888D02*
Y692888D01*
X967510Y674370D02*
X970510D01*
X969010Y672870D02*
Y675870D01*
X1338604Y1123442D02*
X1341604D01*
X1340104Y1121942D02*
Y1124942D01*
X1593620Y951484D02*
X1596620D01*
X1595120Y949984D02*
Y952984D01*
X1607590Y953516D02*
X1610590D01*
X1609090Y952016D02*
Y955016D01*
X1118640Y918718D02*
X1121640D01*
X1120140Y917218D02*
Y920218D01*
X1115084Y954278D02*
X1118084D01*
X1116584Y952778D02*
Y955778D01*
X1102384Y678942D02*
X1105384D01*
X1103884Y677442D02*
Y680442D01*
X1099844Y726948D02*
X1102844D01*
X1101344Y725448D02*
Y728448D01*
X843812Y789432D02*
X846812D01*
X845312Y787932D02*
Y790932D01*
X1144548Y984250D02*
X1147548D01*
X1146048Y982750D02*
Y985750D01*
X1118386Y787400D02*
X1121386D01*
X1119886Y785900D02*
Y788900D01*
X1151914Y736346D02*
X1154914D01*
X1153414Y734846D02*
Y737846D01*
X1133372Y672846D02*
X1136372D01*
X1134872Y671346D02*
Y674346D01*
X1033550Y671576D02*
X1036550D01*
X1035050Y670076D02*
Y673076D01*
X993672Y671068D02*
X996672D01*
X995172Y669568D02*
Y672568D01*
X912460Y667448D02*
X915460D01*
X913960Y665947D02*
Y668948D01*
X896966Y667194D02*
X899966D01*
X898466Y665694D02*
Y668693D01*
X836700Y763016D02*
X839700D01*
X838200Y761516D02*
Y764516D01*
X836954Y828040D02*
X839954D01*
X838454Y826540D02*
Y829540D01*
X836640Y933582D02*
X839641D01*
X838140Y932082D02*
Y935082D01*
X916202Y994664D02*
X919202D01*
X917702Y993164D02*
Y996164D01*
X1027454Y727456D02*
X1030454D01*
X1028954Y725956D02*
Y728956D01*
X987830Y727456D02*
X990830D01*
X989330Y725956D02*
Y728956D01*
X892580Y797306D02*
X895580D01*
X894080Y795806D02*
Y798806D01*
X893088Y832612D02*
X896088D01*
X894588Y831112D02*
Y834112D01*
X892834Y847852D02*
X895834D01*
X894334Y846352D02*
Y849352D01*
X892580Y867664D02*
X895580D01*
X894080Y866164D02*
Y869164D01*
X892580Y892556D02*
X895580D01*
X894080Y891056D02*
Y894056D01*
X892834Y927354D02*
X895834D01*
X894334Y925854D02*
Y928854D01*
X922806Y953008D02*
X925806D01*
X924306Y951508D02*
Y954508D01*
X932712Y952754D02*
X935712D01*
X934212Y951254D02*
Y954254D01*
X987830Y953770D02*
X990830D01*
X989330Y952270D02*
Y955270D01*
X1017802Y953262D02*
X1020802D01*
X1019302Y951762D02*
Y954762D01*
X1118640Y847344D02*
X1121640D01*
X1120140Y845844D02*
Y848844D01*
X1403628Y880110D02*
X1406628D01*
X1405128Y878610D02*
Y881610D01*
X1418106Y880618D02*
X1421106D01*
X1419606Y879118D02*
Y882118D01*
M02*
