G04*
G04 #@! TF.GenerationSoftware,Altium Limited,Altium Designer,24.8.2 (39)*
G04*
G04 Layer_Physical_Order=2*
G04 Layer_Color=36540*
%FSLAX44Y44*%
%MOMM*%
G71*
G04*
G04 #@! TF.SameCoordinates,39C3E627-9C26-4201-8F53-7C701A0798BB*
G04*
G04*
G04 #@! TF.FilePolarity,Positive*
G04*
G01*
G75*
%ADD27C,0.2032*%
%ADD206C,0.8000*%
%ADD207C,6.4000*%
%ADD208C,0.1778*%
%ADD236C,1.6000*%
%ADD237C,2.3000*%
%ADD238C,2.5000*%
%ADD239C,1.5240*%
%ADD240R,2.5000X2.5000*%
%ADD241C,1.5748*%
%ADD242C,5.0000*%
%ADD243R,1.5748X1.5748*%
%ADD244C,2.7940*%
%ADD245O,1.0000X1.6000*%
%ADD246C,0.6000*%
%ADD247C,0.9910*%
%ADD248C,0.5000*%
G36*
X1769995Y1332396D02*
X1775318Y1331118D01*
X1780376Y1329023D01*
X1785043Y1326163D01*
X1789205Y1322608D01*
X1792761Y1318445D01*
X1795621Y1313777D01*
X1797716Y1308720D01*
X1798994Y1303397D01*
X1799417Y1298018D01*
X1799402Y1297940D01*
X1799402Y1037076D01*
X1731538D01*
X1730720Y1036914D01*
X1730027Y1036451D01*
X1729564Y1035758D01*
X1729402Y1034940D01*
Y854940D01*
X1729564Y854122D01*
X1730027Y853429D01*
X1730720Y852966D01*
X1731538Y852803D01*
X1799402D01*
X1799402Y511940D01*
X1799417Y511862D01*
X1798994Y506483D01*
X1797716Y501160D01*
X1795621Y496102D01*
X1792761Y491435D01*
X1789205Y487272D01*
X1785043Y483717D01*
X1780376Y480857D01*
X1775318Y478762D01*
X1769995Y477484D01*
X1764616Y477061D01*
X1764538Y477076D01*
X494804D01*
X494080Y477800D01*
X493268Y479761D01*
X493268Y480822D01*
X493268Y559308D01*
X493170Y560299D01*
X492412Y562130D01*
X491010Y563532D01*
X489179Y564290D01*
X488188Y564388D01*
X407416Y564388D01*
X407113Y564388D01*
X406553Y564620D01*
X406124Y565049D01*
X405892Y565609D01*
X405892Y565912D01*
X405892Y615442D01*
X405836Y616011D01*
X405401Y617062D01*
X404596Y617867D01*
X403545Y618302D01*
X402976Y618358D01*
X402976Y618358D01*
X402976Y618358D01*
X402976Y618358D01*
X392430Y618358D01*
X318770Y618358D01*
X316268D01*
X311361Y619334D01*
X306739Y621249D01*
X302578Y624029D01*
X299041Y627566D01*
X296261Y631726D01*
X294346Y636349D01*
X293370Y641256D01*
Y643758D01*
X293370D01*
X293370Y643758D01*
X293464Y708152D01*
X293464Y762657D01*
X293501Y762859D01*
X293561Y763264D01*
X293601Y763672D01*
X293622Y764081D01*
X293624Y764286D01*
X293624Y764286D01*
Y964692D01*
X293532Y966559D01*
X292804Y970222D01*
X291375Y973672D01*
X289300Y976777D01*
X286659Y979418D01*
X283554Y981493D01*
X280104Y982922D01*
X276441Y983650D01*
X274574Y983742D01*
X99568Y983742D01*
X98855Y983729D01*
X97451Y983983D01*
X96125Y984506D01*
X94925Y985277D01*
X93899Y986268D01*
X93674Y986591D01*
Y1297940D01*
X93659Y1298018D01*
X94082Y1303397D01*
X95360Y1308720D01*
X97455Y1313777D01*
X100315Y1318445D01*
X103870Y1322608D01*
X108033Y1326163D01*
X112701Y1329023D01*
X117758Y1331118D01*
X123081Y1332396D01*
X128460Y1332819D01*
X128538Y1332803D01*
X1764538D01*
X1764616Y1332819D01*
X1769995Y1332396D01*
D02*
G37*
G36*
X279146Y901700D02*
X280372D01*
X282776Y901222D01*
X285041Y900284D01*
X287080Y898921D01*
X288813Y897188D01*
X290175Y895149D01*
X291114Y892884D01*
X291552Y890680D01*
Y802720D01*
X290028Y802089D01*
X289973Y802144D01*
X288307Y802834D01*
X286504D01*
X284839Y802144D01*
X283564Y800869D01*
X282874Y799204D01*
Y797401D01*
X283564Y795735D01*
X284839Y794460D01*
X286504Y793770D01*
X288307D01*
X289973Y794460D01*
X290028Y794515D01*
X291552Y793884D01*
Y770190D01*
X290741Y768233D01*
X289169Y766661D01*
X287115Y765810D01*
X276860Y765810D01*
X274719Y765705D01*
X270519Y764869D01*
X269619Y764496D01*
X268211Y765080D01*
X268002Y765583D01*
X266727Y766858D01*
X265061Y767548D01*
X263258D01*
X261593Y766858D01*
X260318Y765583D01*
X259628Y763917D01*
Y762114D01*
X260318Y760449D01*
X261459Y759308D01*
X259974Y757824D01*
X257595Y754263D01*
X255957Y750307D01*
X255121Y746107D01*
X255016Y743966D01*
Y739394D01*
X255016D01*
Y738636D01*
X254436Y737236D01*
X253364Y736164D01*
X251964Y735584D01*
X251206D01*
X161343Y735584D01*
X161117Y736131D01*
X159842Y737406D01*
X158176Y738096D01*
X156373D01*
X154707Y737406D01*
X153432Y736131D01*
X153206Y735584D01*
X100584D01*
X99846Y735596D01*
X98403Y735909D01*
X97049Y736497D01*
X95836Y737338D01*
X94810Y738399D01*
X94011Y739640D01*
X93674Y740492D01*
Y898936D01*
X93953Y899608D01*
X95310Y900965D01*
X97084Y901700D01*
X279146D01*
Y901700D01*
D02*
G37*
G36*
X388003Y611686D02*
X390154Y610795D01*
X392090Y609502D01*
X393736Y607855D01*
X395029Y605920D01*
X395920Y603769D01*
X396374Y601486D01*
Y575818D01*
X396455Y574175D01*
X397096Y570952D01*
X398354Y567915D01*
X400179Y565183D01*
X402503Y562859D01*
X405236Y561033D01*
X408272Y559776D01*
X411495Y559135D01*
X413138Y559054D01*
X476504D01*
X476504Y559054D01*
X476504Y559054D01*
X476504D01*
X477908Y558949D01*
X479097Y558712D01*
X480715Y558042D01*
X482171Y557069D01*
X483409Y555831D01*
X484382Y554375D01*
X485052Y552757D01*
X485394Y551040D01*
X485394Y550164D01*
X485394Y478028D01*
X357233Y477076D01*
X128538D01*
X128460Y477061D01*
X123081Y477484D01*
X117758Y478762D01*
X112701Y480857D01*
X108033Y483717D01*
X103870Y487272D01*
X100315Y491435D01*
X97455Y496102D01*
X95360Y501160D01*
X94082Y506483D01*
X93659Y511862D01*
X93674Y511940D01*
Y607292D01*
X94330Y608272D01*
X95815Y609758D01*
X97563Y610926D01*
X99504Y611730D01*
X101565Y612140D01*
X102616Y612140D01*
X384556Y612140D01*
X385720D01*
X388003Y611686D01*
D02*
G37*
%LPC*%
G36*
X254013Y1314443D02*
X252209D01*
X250544Y1313753D01*
X249269Y1312478D01*
X248579Y1310813D01*
Y1309010D01*
X249269Y1307344D01*
X250544Y1306069D01*
X252209Y1305379D01*
X254013D01*
X255678Y1306069D01*
X256953Y1307344D01*
X257643Y1309010D01*
Y1310813D01*
X256953Y1312478D01*
X255678Y1313753D01*
X254013Y1314443D01*
D02*
G37*
G36*
X541573Y1301812D02*
X539770D01*
X538105Y1301122D01*
X536909Y1299926D01*
X535713Y1301122D01*
X534048Y1301812D01*
X532244D01*
X530579Y1301122D01*
X529599Y1300142D01*
X528619Y1301122D01*
X526953Y1301812D01*
X525150D01*
X523484Y1301122D01*
X522209Y1299847D01*
X521520Y1298181D01*
Y1296378D01*
X522209Y1294712D01*
X523122Y1293800D01*
X521981Y1292659D01*
X521291Y1290993D01*
Y1289190D01*
X521981Y1287524D01*
X522932Y1286573D01*
X521955Y1285597D01*
X521265Y1283932D01*
Y1282129D01*
X521955Y1280463D01*
X523230Y1279188D01*
X524896Y1278498D01*
X526699D01*
X528365Y1279188D01*
X529345Y1280168D01*
X530325Y1279188D01*
X531991Y1278498D01*
X533793D01*
X535459Y1279188D01*
X536655Y1280384D01*
X537851Y1279188D01*
X539516Y1278498D01*
X541319D01*
X542985Y1279188D01*
X544260Y1280463D01*
X544950Y1282129D01*
Y1283932D01*
X544260Y1285597D01*
X543309Y1286548D01*
X544285Y1287524D01*
X544975Y1289190D01*
Y1290993D01*
X544285Y1292659D01*
X543373Y1293571D01*
X544514Y1294712D01*
X545204Y1296378D01*
Y1298181D01*
X544514Y1299847D01*
X543239Y1301122D01*
X541573Y1301812D01*
D02*
G37*
G36*
X643903Y1284184D02*
X642100D01*
X640434Y1283494D01*
X639159Y1282219D01*
X638469Y1280553D01*
Y1278751D01*
X639159Y1277085D01*
X640434Y1275810D01*
X642100Y1275120D01*
X643903D01*
X645568Y1275810D01*
X646843Y1277085D01*
X647533Y1278751D01*
Y1280553D01*
X646843Y1282219D01*
X645568Y1283494D01*
X643903Y1284184D01*
D02*
G37*
G36*
X532646Y1275689D02*
X530205D01*
X527847Y1275057D01*
X525733Y1273836D01*
X524007Y1272111D01*
X522787Y1269997D01*
X522155Y1267639D01*
Y1265198D01*
X522787Y1262840D01*
X524007Y1260727D01*
X525733Y1259001D01*
X526862Y1258349D01*
X526187Y1256979D01*
X524896Y1257514D01*
X523093D01*
X521427Y1256824D01*
X520152Y1255549D01*
X519462Y1253884D01*
Y1252081D01*
X520152Y1250415D01*
X521427Y1249140D01*
X523093Y1248450D01*
X524896D01*
X526561Y1249140D01*
X527541Y1250120D01*
X528521Y1249140D01*
X530187Y1248450D01*
X531990D01*
X533656Y1249140D01*
X534851Y1250336D01*
X536047Y1249140D01*
X537713Y1248450D01*
X539516D01*
X541182Y1249140D01*
X542457Y1250415D01*
X543146Y1252081D01*
Y1253884D01*
X542457Y1255549D01*
X541182Y1256824D01*
X539516Y1257514D01*
X537713D01*
X537277Y1257334D01*
X536602Y1258703D01*
X537117Y1259001D01*
X538843Y1260727D01*
X540063Y1262840D01*
X540695Y1265198D01*
Y1267639D01*
X540063Y1269997D01*
X538843Y1272111D01*
X537117Y1273836D01*
X535003Y1275057D01*
X532646Y1275689D01*
D02*
G37*
G36*
X1549886Y1268530D02*
X1522346D01*
Y1240990D01*
X1549886D01*
Y1268530D01*
D02*
G37*
G36*
X1487929D02*
X1484303D01*
X1480801Y1267592D01*
X1477661Y1265779D01*
X1475097Y1263215D01*
X1473285Y1260075D01*
X1472346Y1256573D01*
Y1252947D01*
X1473285Y1249445D01*
X1475097Y1246305D01*
X1477661Y1243741D01*
X1480801Y1241928D01*
X1484303Y1240990D01*
X1487929D01*
X1491431Y1241928D01*
X1494571Y1243741D01*
X1497135Y1246305D01*
X1498948Y1249445D01*
X1499886Y1252947D01*
Y1256573D01*
X1498948Y1260075D01*
X1497135Y1263215D01*
X1494571Y1265779D01*
X1491431Y1267592D01*
X1487929Y1268530D01*
D02*
G37*
G36*
X1437929D02*
X1434303D01*
X1430801Y1267592D01*
X1427661Y1265779D01*
X1425097Y1263215D01*
X1423284Y1260075D01*
X1422346Y1256573D01*
Y1252947D01*
X1423284Y1249445D01*
X1425097Y1246305D01*
X1427661Y1243741D01*
X1430801Y1241928D01*
X1434303Y1240990D01*
X1437929D01*
X1441431Y1241928D01*
X1444571Y1243741D01*
X1447135Y1246305D01*
X1448948Y1249445D01*
X1449886Y1252947D01*
Y1256573D01*
X1448948Y1260075D01*
X1447135Y1263215D01*
X1444571Y1265779D01*
X1441431Y1267592D01*
X1437929Y1268530D01*
D02*
G37*
G36*
X1394222D02*
X1366682D01*
Y1240990D01*
X1394222D01*
Y1268530D01*
D02*
G37*
G36*
X1332265D02*
X1328639D01*
X1325137Y1267592D01*
X1321997Y1265779D01*
X1319433Y1263215D01*
X1317620Y1260075D01*
X1316682Y1256573D01*
Y1252947D01*
X1317620Y1249445D01*
X1319433Y1246305D01*
X1321997Y1243741D01*
X1325137Y1241928D01*
X1328639Y1240990D01*
X1332265D01*
X1335767Y1241928D01*
X1338907Y1243741D01*
X1341471Y1246305D01*
X1343284Y1249445D01*
X1344222Y1252947D01*
Y1256573D01*
X1343284Y1260075D01*
X1341471Y1263215D01*
X1338907Y1265779D01*
X1335767Y1267592D01*
X1332265Y1268530D01*
D02*
G37*
G36*
X1290260D02*
X1262720D01*
Y1240990D01*
X1290260D01*
Y1268530D01*
D02*
G37*
G36*
X1228303D02*
X1224677D01*
X1221175Y1267592D01*
X1218035Y1265779D01*
X1215471Y1263215D01*
X1213659Y1260075D01*
X1212720Y1256573D01*
Y1252947D01*
X1213659Y1249445D01*
X1215471Y1246305D01*
X1218035Y1243741D01*
X1221175Y1241928D01*
X1224677Y1240990D01*
X1228303D01*
X1231805Y1241928D01*
X1234945Y1243741D01*
X1237509Y1246305D01*
X1239322Y1249445D01*
X1240260Y1252947D01*
Y1256573D01*
X1239322Y1260075D01*
X1237509Y1263215D01*
X1234945Y1265779D01*
X1231805Y1267592D01*
X1228303Y1268530D01*
D02*
G37*
G36*
X1178303D02*
X1174677D01*
X1171175Y1267592D01*
X1168035Y1265779D01*
X1165471Y1263215D01*
X1163658Y1260075D01*
X1162720Y1256573D01*
Y1252947D01*
X1163658Y1249445D01*
X1165471Y1246305D01*
X1168035Y1243741D01*
X1171175Y1241928D01*
X1174677Y1240990D01*
X1178303D01*
X1181805Y1241928D01*
X1184945Y1243741D01*
X1187509Y1246305D01*
X1189322Y1249445D01*
X1190260Y1252947D01*
Y1256573D01*
X1189322Y1260075D01*
X1187509Y1263215D01*
X1184945Y1265779D01*
X1181805Y1267592D01*
X1178303Y1268530D01*
D02*
G37*
G36*
X1128303D02*
X1124677D01*
X1121175Y1267592D01*
X1118035Y1265779D01*
X1115471Y1263215D01*
X1113658Y1260075D01*
X1112720Y1256573D01*
Y1252947D01*
X1113658Y1249445D01*
X1115471Y1246305D01*
X1118035Y1243741D01*
X1121175Y1241928D01*
X1124677Y1240990D01*
X1128303D01*
X1131805Y1241928D01*
X1134945Y1243741D01*
X1137509Y1246305D01*
X1139322Y1249445D01*
X1140260Y1252947D01*
Y1256573D01*
X1139322Y1260075D01*
X1137509Y1263215D01*
X1134945Y1265779D01*
X1131805Y1267592D01*
X1128303Y1268530D01*
D02*
G37*
G36*
X1086984D02*
X1059444D01*
Y1240990D01*
X1086984D01*
Y1268530D01*
D02*
G37*
G36*
X1025027D02*
X1021401D01*
X1017899Y1267592D01*
X1014759Y1265779D01*
X1012195Y1263215D01*
X1010383Y1260075D01*
X1009444Y1256573D01*
Y1252947D01*
X1010383Y1249445D01*
X1012195Y1246305D01*
X1014759Y1243741D01*
X1017899Y1241928D01*
X1021401Y1240990D01*
X1025027D01*
X1028529Y1241928D01*
X1031669Y1243741D01*
X1034233Y1246305D01*
X1036046Y1249445D01*
X1036984Y1252947D01*
Y1256573D01*
X1036046Y1260075D01*
X1034233Y1263215D01*
X1031669Y1265779D01*
X1028529Y1267592D01*
X1025027Y1268530D01*
D02*
G37*
G36*
X975027D02*
X971401D01*
X967899Y1267592D01*
X964759Y1265779D01*
X962195Y1263215D01*
X960382Y1260075D01*
X959444Y1256573D01*
Y1252947D01*
X960382Y1249445D01*
X962195Y1246305D01*
X964759Y1243741D01*
X967899Y1241928D01*
X971401Y1240990D01*
X975027D01*
X978529Y1241928D01*
X981669Y1243741D01*
X984233Y1246305D01*
X986046Y1249445D01*
X986984Y1252947D01*
Y1256573D01*
X986046Y1260075D01*
X984233Y1263215D01*
X981669Y1265779D01*
X978529Y1267592D01*
X975027Y1268530D01*
D02*
G37*
G36*
X925027D02*
X921401D01*
X917899Y1267592D01*
X914759Y1265779D01*
X912195Y1263215D01*
X910383Y1260075D01*
X909444Y1256573D01*
Y1252947D01*
X910383Y1249445D01*
X912195Y1246305D01*
X914759Y1243741D01*
X917899Y1241928D01*
X921401Y1240990D01*
X925027D01*
X928529Y1241928D01*
X931669Y1243741D01*
X934233Y1246305D01*
X936046Y1249445D01*
X936984Y1252947D01*
Y1256573D01*
X936046Y1260075D01*
X934233Y1263215D01*
X931669Y1265779D01*
X928529Y1267592D01*
X925027Y1268530D01*
D02*
G37*
G36*
X875027D02*
X871401D01*
X867899Y1267592D01*
X864759Y1265779D01*
X862195Y1263215D01*
X860382Y1260075D01*
X859444Y1256573D01*
Y1252947D01*
X860382Y1249445D01*
X862195Y1246305D01*
X864759Y1243741D01*
X867899Y1241928D01*
X871401Y1240990D01*
X875027D01*
X878529Y1241928D01*
X881669Y1243741D01*
X884233Y1246305D01*
X886046Y1249445D01*
X886984Y1252947D01*
Y1256573D01*
X886046Y1260075D01*
X884233Y1263215D01*
X881669Y1265779D01*
X878529Y1267592D01*
X875027Y1268530D01*
D02*
G37*
G36*
X825027D02*
X821401D01*
X817899Y1267592D01*
X814759Y1265779D01*
X812195Y1263215D01*
X810382Y1260075D01*
X809444Y1256573D01*
Y1252947D01*
X810382Y1249445D01*
X812195Y1246305D01*
X814759Y1243741D01*
X817899Y1241928D01*
X821401Y1240990D01*
X825027D01*
X828529Y1241928D01*
X831669Y1243741D01*
X834233Y1246305D01*
X836046Y1249445D01*
X836984Y1252947D01*
Y1256573D01*
X836046Y1260075D01*
X834233Y1263215D01*
X831669Y1265779D01*
X828529Y1267592D01*
X825027Y1268530D01*
D02*
G37*
G36*
X783897D02*
X756357D01*
Y1240990D01*
X783897D01*
Y1268530D01*
D02*
G37*
G36*
X721940D02*
X718315D01*
X714813Y1267592D01*
X711673Y1265779D01*
X709109Y1263215D01*
X707296Y1260075D01*
X706358Y1256573D01*
Y1252947D01*
X707296Y1249445D01*
X709109Y1246305D01*
X711673Y1243741D01*
X714813Y1241928D01*
X718315Y1240990D01*
X721940D01*
X725443Y1241928D01*
X728583Y1243741D01*
X731146Y1246305D01*
X732959Y1249445D01*
X733898Y1252947D01*
Y1256573D01*
X732959Y1260075D01*
X731146Y1263215D01*
X728583Y1265779D01*
X725443Y1267592D01*
X721940Y1268530D01*
D02*
G37*
G36*
X671940D02*
X668315D01*
X664812Y1267592D01*
X661673Y1265779D01*
X659109Y1263215D01*
X657296Y1260075D01*
X656357Y1256573D01*
Y1252947D01*
X657296Y1249445D01*
X659109Y1246305D01*
X661673Y1243741D01*
X664812Y1241928D01*
X668315Y1240990D01*
X671940D01*
X675442Y1241928D01*
X678582Y1243741D01*
X681146Y1246305D01*
X682959Y1249445D01*
X683897Y1252947D01*
Y1256573D01*
X682959Y1260075D01*
X681146Y1263215D01*
X678582Y1265779D01*
X675442Y1267592D01*
X671940Y1268530D01*
D02*
G37*
G36*
X375428D02*
X347888D01*
Y1240990D01*
X375428D01*
Y1268530D01*
D02*
G37*
G36*
X313471D02*
X309845D01*
X306343Y1267592D01*
X303203Y1265779D01*
X300639Y1263215D01*
X298826Y1260075D01*
X297888Y1256573D01*
Y1252947D01*
X298826Y1249445D01*
X300639Y1246305D01*
X303203Y1243741D01*
X306343Y1241928D01*
X309845Y1240990D01*
X313471D01*
X316973Y1241928D01*
X320113Y1243741D01*
X322677Y1246305D01*
X324490Y1249445D01*
X325428Y1252947D01*
Y1256573D01*
X324490Y1260075D01*
X322677Y1263215D01*
X320113Y1265779D01*
X316973Y1267592D01*
X313471Y1268530D01*
D02*
G37*
G36*
X207509Y1226780D02*
X205706D01*
X204040Y1226090D01*
X202765Y1224815D01*
X202075Y1223149D01*
Y1221347D01*
X202765Y1219681D01*
X204040Y1218406D01*
X205706Y1217716D01*
X207509D01*
X209175Y1218406D01*
X210450Y1219681D01*
X211139Y1221347D01*
Y1223149D01*
X210450Y1224815D01*
X209175Y1226090D01*
X207509Y1226780D01*
D02*
G37*
G36*
X1761360Y1207899D02*
X1759588D01*
X1757875Y1207440D01*
X1756340Y1206554D01*
X1755086Y1205300D01*
X1754200Y1203765D01*
X1753741Y1202052D01*
Y1200280D01*
X1754200Y1198567D01*
X1755086Y1197032D01*
X1756340Y1195778D01*
X1757875Y1194892D01*
X1759588Y1194433D01*
X1761360D01*
X1763073Y1194892D01*
X1764608Y1195778D01*
X1765862Y1197032D01*
X1766748Y1198567D01*
X1767207Y1200280D01*
Y1202052D01*
X1766748Y1203765D01*
X1765862Y1205300D01*
X1764608Y1206554D01*
X1763073Y1207440D01*
X1761360Y1207899D01*
D02*
G37*
G36*
X1777124Y1187410D02*
X1775320D01*
X1773655Y1186720D01*
X1772380Y1185445D01*
X1771690Y1183780D01*
Y1181976D01*
X1772380Y1180311D01*
X1773655Y1179036D01*
X1775320Y1178346D01*
X1777124D01*
X1778789Y1179036D01*
X1780064Y1180311D01*
X1780754Y1181976D01*
Y1183780D01*
X1780064Y1185445D01*
X1778789Y1186720D01*
X1777124Y1187410D01*
D02*
G37*
G36*
X553369Y1201997D02*
X550006D01*
X546758Y1201127D01*
X543847Y1199445D01*
X541469Y1197068D01*
X539788Y1194156D01*
X538918Y1190908D01*
Y1187546D01*
X539788Y1184298D01*
X541469Y1181386D01*
X543847Y1179008D01*
X546758Y1177327D01*
X550006Y1176457D01*
X553369D01*
X556617Y1177327D01*
X559528Y1179008D01*
X561906Y1181386D01*
X563587Y1184298D01*
X564458Y1187546D01*
Y1190908D01*
X563587Y1194156D01*
X561906Y1197068D01*
X559528Y1199445D01*
X556617Y1201127D01*
X553369Y1201997D01*
D02*
G37*
G36*
X502569D02*
X499206D01*
X495959Y1201127D01*
X493046Y1199445D01*
X490669Y1197068D01*
X488988Y1194156D01*
X488117Y1190908D01*
Y1187546D01*
X488988Y1184298D01*
X490669Y1181386D01*
X493046Y1179008D01*
X495959Y1177327D01*
X499206Y1176457D01*
X502569D01*
X505816Y1177327D01*
X508728Y1179008D01*
X511106Y1181386D01*
X512787Y1184298D01*
X513657Y1187546D01*
Y1190908D01*
X512787Y1194156D01*
X511106Y1197068D01*
X508728Y1199445D01*
X505816Y1201127D01*
X502569Y1201997D01*
D02*
G37*
G36*
X388269D02*
X384906D01*
X381659Y1201127D01*
X378746Y1199445D01*
X376369Y1197068D01*
X374688Y1194156D01*
X373817Y1190908D01*
Y1187546D01*
X374688Y1184298D01*
X376369Y1181386D01*
X378746Y1179008D01*
X381659Y1177327D01*
X384906Y1176457D01*
X388269D01*
X391516Y1177327D01*
X394428Y1179008D01*
X396806Y1181386D01*
X398487Y1184298D01*
X399357Y1187546D01*
Y1190908D01*
X398487Y1194156D01*
X396806Y1197068D01*
X394428Y1199445D01*
X391516Y1201127D01*
X388269Y1201997D01*
D02*
G37*
G36*
X337469D02*
X334106D01*
X330858Y1201127D01*
X327947Y1199445D01*
X325569Y1197068D01*
X323888Y1194156D01*
X323018Y1190908D01*
Y1187546D01*
X323888Y1184298D01*
X325569Y1181386D01*
X327947Y1179008D01*
X330858Y1177327D01*
X334106Y1176457D01*
X337469D01*
X340717Y1177327D01*
X343628Y1179008D01*
X346006Y1181386D01*
X347687Y1184298D01*
X348558Y1187546D01*
Y1190908D01*
X347687Y1194156D01*
X346006Y1197068D01*
X343628Y1199445D01*
X340717Y1201127D01*
X337469Y1201997D01*
D02*
G37*
G36*
X197769D02*
X194406D01*
X191159Y1201127D01*
X188246Y1199445D01*
X185869Y1197068D01*
X184188Y1194156D01*
X183318Y1190908D01*
Y1187546D01*
X184188Y1184298D01*
X185869Y1181386D01*
X188246Y1179008D01*
X191159Y1177327D01*
X194406Y1176457D01*
X197769D01*
X201017Y1177327D01*
X203928Y1179008D01*
X206306Y1181386D01*
X207987Y1184298D01*
X208857Y1187546D01*
Y1190908D01*
X207987Y1194156D01*
X206306Y1197068D01*
X203928Y1199445D01*
X201017Y1201127D01*
X197769Y1201997D01*
D02*
G37*
G36*
X746899Y1181822D02*
X745097D01*
X743431Y1181132D01*
X742156Y1179857D01*
X741466Y1178192D01*
Y1176388D01*
X742156Y1174723D01*
X743431Y1173448D01*
X745097Y1172758D01*
X746899D01*
X748565Y1173448D01*
X749840Y1174723D01*
X750530Y1176388D01*
Y1178192D01*
X749840Y1179857D01*
X748565Y1181132D01*
X746899Y1181822D01*
D02*
G37*
G36*
X1733943Y1180806D02*
X1732141D01*
X1730475Y1180116D01*
X1729200Y1178841D01*
X1728510Y1177176D01*
Y1175372D01*
X1729200Y1173707D01*
X1730475Y1172432D01*
X1732141Y1171742D01*
X1733943D01*
X1735609Y1172432D01*
X1736884Y1173707D01*
X1737574Y1175372D01*
Y1177176D01*
X1736884Y1178841D01*
X1735609Y1180116D01*
X1733943Y1180806D01*
D02*
G37*
G36*
X1564176Y1201476D02*
X1561174D01*
X1558229Y1200890D01*
X1555456Y1199741D01*
X1552960Y1198074D01*
X1550837Y1195951D01*
X1549169Y1193455D01*
X1548020Y1190681D01*
X1547435Y1187737D01*
Y1184735D01*
X1548020Y1181790D01*
X1549169Y1179017D01*
X1550837Y1176521D01*
X1552960Y1174398D01*
X1555456Y1172730D01*
X1558229Y1171582D01*
X1561174Y1170996D01*
X1564176D01*
X1567120Y1171582D01*
X1569893Y1172730D01*
X1572390Y1174398D01*
X1574512Y1176521D01*
X1576180Y1179017D01*
X1577329Y1181790D01*
X1577914Y1184735D01*
Y1187737D01*
X1577329Y1190681D01*
X1576180Y1193455D01*
X1574512Y1195951D01*
X1572390Y1198074D01*
X1569893Y1199741D01*
X1567120Y1200890D01*
X1564176Y1201476D01*
D02*
G37*
G36*
X1442174Y1201471D02*
X1439172D01*
X1436228Y1200885D01*
X1433454Y1199736D01*
X1430958Y1198068D01*
X1428836Y1195946D01*
X1427168Y1193450D01*
X1426019Y1190676D01*
X1425433Y1187732D01*
Y1184730D01*
X1426019Y1181785D01*
X1427168Y1179012D01*
X1428836Y1176516D01*
X1430958Y1174393D01*
X1433454Y1172725D01*
X1436228Y1171577D01*
X1439172Y1170991D01*
X1442174D01*
X1445119Y1171577D01*
X1447892Y1172725D01*
X1450388Y1174393D01*
X1452511Y1176516D01*
X1454179Y1179012D01*
X1455328Y1181785D01*
X1455913Y1184730D01*
Y1187732D01*
X1455328Y1190676D01*
X1454179Y1193450D01*
X1452511Y1195946D01*
X1450388Y1198068D01*
X1447892Y1199736D01*
X1445119Y1200885D01*
X1442174Y1201471D01*
D02*
G37*
G36*
X747341Y1167670D02*
X745538D01*
X743872Y1166980D01*
X742598Y1165705D01*
X741908Y1164039D01*
Y1162236D01*
X742598Y1160571D01*
X743872Y1159296D01*
X745538Y1158606D01*
X747341D01*
X749007Y1159296D01*
X750282Y1160571D01*
X750972Y1162236D01*
Y1164039D01*
X750282Y1165705D01*
X749007Y1166980D01*
X747341Y1167670D01*
D02*
G37*
G36*
X337197Y1154390D02*
X335395D01*
X333729Y1153700D01*
X332867Y1152838D01*
X332005Y1153700D01*
X330340Y1154390D01*
X328536D01*
X326871Y1153700D01*
X325596Y1152425D01*
X324906Y1150760D01*
Y1148957D01*
X325596Y1147291D01*
X326367Y1146519D01*
X325596Y1145748D01*
X324906Y1144082D01*
Y1142279D01*
X325596Y1140613D01*
X326167Y1140042D01*
X325596Y1139471D01*
X324906Y1137805D01*
Y1136003D01*
X325596Y1134337D01*
X326839Y1133094D01*
X325596Y1131851D01*
X324906Y1130185D01*
Y1128382D01*
X325596Y1126717D01*
X326871Y1125442D01*
X328536Y1124752D01*
X330340D01*
X332005Y1125442D01*
X332867Y1126304D01*
X333729Y1125442D01*
X335395Y1124752D01*
X337197D01*
X338863Y1125442D01*
X340138Y1126717D01*
X340828Y1128382D01*
Y1130185D01*
X340138Y1131851D01*
X338895Y1133094D01*
X340138Y1134337D01*
X340828Y1136003D01*
Y1137805D01*
X340138Y1139471D01*
X339567Y1140042D01*
X340138Y1140613D01*
X340828Y1142279D01*
Y1144082D01*
X340138Y1145748D01*
X339367Y1146519D01*
X340138Y1147291D01*
X340828Y1148957D01*
Y1150760D01*
X340138Y1152425D01*
X338863Y1153700D01*
X337197Y1154390D01*
D02*
G37*
G36*
X641998Y1158200D02*
X640194D01*
X638529Y1157510D01*
X637254Y1156235D01*
X636564Y1154569D01*
Y1152766D01*
X637254Y1151101D01*
X638529Y1149826D01*
X640194Y1149136D01*
X641998D01*
X643663Y1149826D01*
X644938Y1151101D01*
X645628Y1152766D01*
Y1154569D01*
X644938Y1156235D01*
X643663Y1157510D01*
X641998Y1158200D01*
D02*
G37*
G36*
X1771520Y1157099D02*
X1769748D01*
X1768035Y1156640D01*
X1766500Y1155754D01*
X1765246Y1154500D01*
X1764360Y1152965D01*
X1763901Y1151252D01*
Y1149480D01*
X1764360Y1147767D01*
X1765246Y1146232D01*
X1766500Y1144978D01*
X1768035Y1144092D01*
X1769748Y1143633D01*
X1771520D01*
X1773233Y1144092D01*
X1774768Y1144978D01*
X1776022Y1146232D01*
X1776908Y1147767D01*
X1777367Y1149480D01*
Y1151252D01*
X1776908Y1152965D01*
X1776022Y1154500D01*
X1774768Y1155754D01*
X1773233Y1156640D01*
X1771520Y1157099D01*
D02*
G37*
G36*
X1751200D02*
X1749428D01*
X1747715Y1156640D01*
X1746180Y1155754D01*
X1744926Y1154500D01*
X1744040Y1152965D01*
X1743581Y1151252D01*
Y1149480D01*
X1744040Y1147767D01*
X1744926Y1146232D01*
X1746180Y1144978D01*
X1747715Y1144092D01*
X1749428Y1143633D01*
X1751200D01*
X1752913Y1144092D01*
X1754448Y1144978D01*
X1755702Y1146232D01*
X1756588Y1147767D01*
X1757047Y1149480D01*
Y1151252D01*
X1756588Y1152965D01*
X1755702Y1154500D01*
X1754448Y1155754D01*
X1752913Y1156640D01*
X1751200Y1157099D01*
D02*
G37*
G36*
X1393842Y1141472D02*
X1392039D01*
X1390373Y1140782D01*
X1389098Y1139507D01*
X1388409Y1137841D01*
Y1136038D01*
X1389098Y1134372D01*
X1390373Y1133098D01*
X1392039Y1132408D01*
X1393842D01*
X1395508Y1133098D01*
X1396783Y1134372D01*
X1397473Y1136038D01*
Y1137841D01*
X1396783Y1139507D01*
X1395508Y1140782D01*
X1393842Y1141472D01*
D02*
G37*
G36*
X746645Y1130279D02*
X744842D01*
X743176Y1129589D01*
X741901Y1128314D01*
X741211Y1126648D01*
Y1124845D01*
X741901Y1123179D01*
X743176Y1121905D01*
X744842Y1121215D01*
X746645D01*
X748310Y1121905D01*
X749585Y1123179D01*
X750275Y1124845D01*
Y1126648D01*
X749585Y1128314D01*
X748310Y1129589D01*
X746645Y1130279D01*
D02*
G37*
G36*
X500519Y1149056D02*
X498717D01*
X497051Y1148366D01*
X495776Y1147091D01*
X495086Y1145425D01*
Y1143623D01*
X495776Y1141957D01*
X496547Y1141185D01*
X495776Y1140414D01*
X495086Y1138748D01*
Y1136945D01*
X495776Y1135279D01*
X496347Y1134708D01*
X495776Y1134137D01*
X495086Y1132471D01*
Y1130668D01*
X495776Y1129003D01*
X497019Y1127760D01*
X495776Y1126517D01*
X495086Y1124852D01*
Y1123048D01*
X495776Y1121383D01*
X497051Y1120108D01*
X498717Y1119418D01*
X500519D01*
X502185Y1120108D01*
X504273Y1120041D01*
X504590Y1119725D01*
X506255Y1119035D01*
X508058D01*
X509724Y1119725D01*
X510999Y1121000D01*
X511689Y1122665D01*
Y1124468D01*
X510999Y1126134D01*
X509756Y1127377D01*
X510999Y1128620D01*
X511689Y1130285D01*
Y1132088D01*
X510999Y1133754D01*
X510428Y1134325D01*
X510999Y1134896D01*
X511689Y1136562D01*
Y1138365D01*
X510999Y1140031D01*
X510227Y1140802D01*
X510999Y1141574D01*
X511689Y1143239D01*
Y1145042D01*
X510999Y1146708D01*
X509724Y1147983D01*
X508058Y1148673D01*
X506255D01*
X504590Y1147983D01*
X502501Y1148050D01*
X502185Y1148366D01*
X500519Y1149056D01*
D02*
G37*
G36*
X1648345Y1119592D02*
X1646543D01*
X1644877Y1118902D01*
X1644269Y1118294D01*
X1643661Y1118902D01*
X1641996Y1119592D01*
X1640193D01*
X1638527Y1118902D01*
X1637792Y1118167D01*
X1637311Y1118648D01*
X1635645Y1119338D01*
X1633842D01*
X1632177Y1118648D01*
X1630902Y1117373D01*
X1630212Y1115707D01*
Y1113904D01*
X1630902Y1112239D01*
X1632177Y1110964D01*
X1633842Y1110274D01*
X1635645D01*
X1637311Y1110964D01*
X1638046Y1111699D01*
X1638527Y1111218D01*
X1640193Y1110528D01*
X1641996D01*
X1643661Y1111218D01*
X1644269Y1111826D01*
X1644877Y1111218D01*
X1646543Y1110528D01*
X1648345D01*
X1650011Y1111218D01*
X1651286Y1112493D01*
X1651976Y1114158D01*
Y1115962D01*
X1651286Y1117627D01*
X1650011Y1118902D01*
X1648345Y1119592D01*
D02*
G37*
G36*
X1584176Y1141476D02*
X1581174D01*
X1578229Y1140890D01*
X1575456Y1139742D01*
X1572960Y1138074D01*
X1570837Y1135951D01*
X1569169Y1133455D01*
X1568020Y1130681D01*
X1567435Y1127737D01*
Y1124735D01*
X1568020Y1121791D01*
X1569169Y1119017D01*
X1570837Y1116521D01*
X1572960Y1114398D01*
X1575456Y1112730D01*
X1578229Y1111582D01*
X1581174Y1110996D01*
X1584176D01*
X1587120Y1111582D01*
X1589893Y1112730D01*
X1592389Y1114398D01*
X1594512Y1116521D01*
X1596180Y1119017D01*
X1597329Y1121791D01*
X1597914Y1124735D01*
Y1127737D01*
X1597329Y1130681D01*
X1596180Y1133455D01*
X1594512Y1135951D01*
X1592389Y1138074D01*
X1589893Y1139742D01*
X1587120Y1140890D01*
X1584176Y1141476D01*
D02*
G37*
G36*
X1760614Y1119592D02*
X1758810D01*
X1757145Y1118902D01*
X1755870Y1117627D01*
X1755180Y1115962D01*
Y1114158D01*
X1755870Y1112493D01*
X1757145Y1111218D01*
X1758810Y1110528D01*
X1760614D01*
X1762279Y1111218D01*
X1763554Y1112493D01*
X1764244Y1114158D01*
Y1115962D01*
X1763554Y1117627D01*
X1762279Y1118902D01*
X1760614Y1119592D01*
D02*
G37*
G36*
X746645Y1104351D02*
X744842D01*
X743176Y1103661D01*
X741901Y1102386D01*
X741211Y1100721D01*
Y1098918D01*
X741901Y1097252D01*
X743176Y1095977D01*
X744842Y1095287D01*
X746645D01*
X748310Y1095977D01*
X749585Y1097252D01*
X750275Y1098918D01*
Y1100721D01*
X749585Y1102386D01*
X748310Y1103661D01*
X746645Y1104351D01*
D02*
G37*
G36*
X641489Y1098136D02*
X639687D01*
X638021Y1097446D01*
X636746Y1096171D01*
X636056Y1094505D01*
Y1092702D01*
X636746Y1091037D01*
X638021Y1089762D01*
X639687Y1089072D01*
X641489D01*
X643155Y1089762D01*
X644430Y1091037D01*
X645120Y1092702D01*
Y1094505D01*
X644430Y1096171D01*
X643155Y1097446D01*
X641489Y1098136D01*
D02*
G37*
G36*
X1758073Y1100034D02*
X1756270D01*
X1754605Y1099344D01*
X1753330Y1098069D01*
X1752640Y1096404D01*
Y1094601D01*
X1753330Y1092935D01*
X1754065Y1092200D01*
X1752822Y1090957D01*
X1752132Y1089292D01*
Y1087488D01*
X1752822Y1085823D01*
X1753380Y1085265D01*
X1752314Y1084198D01*
X1751624Y1082533D01*
Y1080730D01*
X1752314Y1079064D01*
X1753589Y1077789D01*
X1755255Y1077099D01*
X1757057D01*
X1758723Y1077789D01*
X1759998Y1079064D01*
X1760688Y1080730D01*
Y1082533D01*
X1759998Y1084198D01*
X1759440Y1084756D01*
X1760506Y1085823D01*
X1761196Y1087488D01*
Y1089292D01*
X1760506Y1090957D01*
X1759771Y1091692D01*
X1761014Y1092935D01*
X1761704Y1094601D01*
Y1096404D01*
X1761014Y1098069D01*
X1759739Y1099344D01*
X1758073Y1100034D01*
D02*
G37*
G36*
X553369Y1100397D02*
X550006D01*
X546758Y1099527D01*
X543847Y1097846D01*
X541469Y1095468D01*
X539788Y1092556D01*
X538918Y1089308D01*
Y1085946D01*
X539788Y1082698D01*
X541469Y1079786D01*
X543847Y1077409D01*
X546758Y1075727D01*
X550006Y1074857D01*
X553369D01*
X556617Y1075727D01*
X559528Y1077409D01*
X561906Y1079786D01*
X563587Y1082698D01*
X564458Y1085946D01*
Y1089308D01*
X563587Y1092556D01*
X561906Y1095468D01*
X559528Y1097846D01*
X556617Y1099527D01*
X553369Y1100397D01*
D02*
G37*
G36*
X502569D02*
X499206D01*
X495959Y1099527D01*
X493046Y1097846D01*
X490669Y1095468D01*
X488988Y1092556D01*
X488117Y1089308D01*
Y1085946D01*
X488988Y1082698D01*
X490669Y1079786D01*
X493046Y1077409D01*
X495959Y1075727D01*
X499206Y1074857D01*
X502569D01*
X505816Y1075727D01*
X508728Y1077409D01*
X511106Y1079786D01*
X512787Y1082698D01*
X513657Y1085946D01*
Y1089308D01*
X512787Y1092556D01*
X511106Y1095468D01*
X508728Y1097846D01*
X505816Y1099527D01*
X502569Y1100397D01*
D02*
G37*
G36*
X388269D02*
X384906D01*
X381659Y1099527D01*
X378746Y1097846D01*
X376369Y1095468D01*
X374688Y1092556D01*
X373817Y1089308D01*
Y1085946D01*
X374688Y1082698D01*
X376369Y1079786D01*
X378746Y1077409D01*
X381659Y1075727D01*
X384906Y1074857D01*
X388269D01*
X391516Y1075727D01*
X394428Y1077409D01*
X396806Y1079786D01*
X398487Y1082698D01*
X399357Y1085946D01*
Y1089308D01*
X398487Y1092556D01*
X396806Y1095468D01*
X394428Y1097846D01*
X391516Y1099527D01*
X388269Y1100397D01*
D02*
G37*
G36*
X337469D02*
X334106D01*
X330858Y1099527D01*
X327947Y1097846D01*
X325569Y1095468D01*
X323888Y1092556D01*
X323018Y1089308D01*
Y1085946D01*
X323888Y1082698D01*
X325569Y1079786D01*
X327947Y1077409D01*
X330858Y1075727D01*
X334106Y1074857D01*
X337469D01*
X340717Y1075727D01*
X343628Y1077409D01*
X346006Y1079786D01*
X347687Y1082698D01*
X348558Y1085946D01*
Y1089308D01*
X347687Y1092556D01*
X346006Y1095468D01*
X343628Y1097846D01*
X340717Y1099527D01*
X337469Y1100397D01*
D02*
G37*
G36*
X197769D02*
X194407D01*
X191159Y1099527D01*
X188247Y1097846D01*
X185869Y1095468D01*
X184188Y1092556D01*
X183318Y1089308D01*
Y1085946D01*
X184188Y1082698D01*
X185869Y1079786D01*
X188247Y1077409D01*
X191159Y1075727D01*
X194407Y1074857D01*
X197769D01*
X201017Y1075727D01*
X203929Y1077409D01*
X206306Y1079786D01*
X207987Y1082698D01*
X208858Y1085946D01*
Y1089308D01*
X207987Y1092556D01*
X206306Y1095468D01*
X203929Y1097846D01*
X201017Y1099527D01*
X197769Y1100397D01*
D02*
G37*
G36*
X1339482Y1082762D02*
X1337679D01*
X1336013Y1082072D01*
X1334738Y1080797D01*
X1334048Y1079131D01*
Y1077328D01*
X1334738Y1075663D01*
X1336013Y1074388D01*
X1337679Y1073698D01*
X1339482D01*
X1341147Y1074388D01*
X1342422Y1075663D01*
X1343112Y1077328D01*
Y1079131D01*
X1342422Y1080797D01*
X1341147Y1082072D01*
X1339482Y1082762D01*
D02*
G37*
G36*
X746679Y1079741D02*
X744876D01*
X743211Y1079051D01*
X741936Y1077776D01*
X741246Y1076110D01*
Y1074307D01*
X741936Y1072641D01*
X743211Y1071367D01*
X744876Y1070677D01*
X746679D01*
X748345Y1071367D01*
X749620Y1072641D01*
X750310Y1074307D01*
Y1076110D01*
X749620Y1077776D01*
X748345Y1079051D01*
X746679Y1079741D01*
D02*
G37*
G36*
X1393588Y1071840D02*
X1391785D01*
X1390119Y1071150D01*
X1388844Y1069875D01*
X1388154Y1068210D01*
Y1066406D01*
X1388844Y1064741D01*
X1390119Y1063466D01*
X1391785Y1062776D01*
X1393588D01*
X1395254Y1063466D01*
X1396529Y1064741D01*
X1397218Y1066406D01*
Y1068210D01*
X1396529Y1069875D01*
X1395254Y1071150D01*
X1393588Y1071840D01*
D02*
G37*
G36*
X344741Y1069452D02*
X342938D01*
X341273Y1068763D01*
X339998Y1067488D01*
X339308Y1065822D01*
Y1064019D01*
X339998Y1062353D01*
X341273Y1061078D01*
X342938Y1060388D01*
X344741D01*
X346407Y1061078D01*
X347682Y1062353D01*
X348372Y1064019D01*
Y1065822D01*
X347682Y1067488D01*
X346407Y1068763D01*
X344741Y1069452D01*
D02*
G37*
G36*
X746437Y1066830D02*
X744634D01*
X742968Y1066141D01*
X741693Y1064866D01*
X741003Y1063200D01*
Y1061397D01*
X741693Y1059731D01*
X742968Y1058456D01*
X744634Y1057766D01*
X746437D01*
X748102Y1058456D01*
X749377Y1059731D01*
X750067Y1061397D01*
Y1063200D01*
X749377Y1064866D01*
X748102Y1066141D01*
X746437Y1066830D01*
D02*
G37*
G36*
X485984Y1064323D02*
X484181D01*
X482515Y1063633D01*
X481241Y1062358D01*
X480551Y1060693D01*
Y1058890D01*
X481241Y1057224D01*
X482515Y1055949D01*
X484181Y1055259D01*
X485984D01*
X487650Y1055949D01*
X488925Y1057224D01*
X489614Y1058890D01*
Y1060693D01*
X488925Y1062358D01*
X487650Y1063633D01*
X485984Y1064323D01*
D02*
G37*
G36*
X881725Y1061272D02*
X879922D01*
X878256Y1060582D01*
X876982Y1059308D01*
X876292Y1057642D01*
Y1055839D01*
X876982Y1054173D01*
X878256Y1052898D01*
X879922Y1052208D01*
X881725D01*
X883391Y1052898D01*
X884666Y1054173D01*
X885356Y1055839D01*
Y1057642D01*
X884666Y1059308D01*
X883391Y1060582D01*
X881725Y1061272D01*
D02*
G37*
G36*
X1442174Y1081481D02*
X1439172D01*
X1436228Y1080895D01*
X1433454Y1079747D01*
X1430958Y1078079D01*
X1428836Y1075956D01*
X1427168Y1073460D01*
X1426019Y1070687D01*
X1425433Y1067742D01*
Y1064740D01*
X1426019Y1061796D01*
X1427168Y1059022D01*
X1428836Y1056526D01*
X1430958Y1054404D01*
X1433454Y1052736D01*
X1436228Y1051587D01*
X1439172Y1051001D01*
X1442174D01*
X1445119Y1051587D01*
X1447892Y1052736D01*
X1450388Y1054404D01*
X1452511Y1056526D01*
X1454179Y1059022D01*
X1455328Y1061796D01*
X1455913Y1064740D01*
Y1067742D01*
X1455328Y1070687D01*
X1454179Y1073460D01*
X1452511Y1075956D01*
X1450388Y1078079D01*
X1447892Y1079747D01*
X1445119Y1080895D01*
X1442174Y1081481D01*
D02*
G37*
G36*
X1564176Y1081476D02*
X1561174D01*
X1558229Y1080890D01*
X1555456Y1079742D01*
X1552960Y1078074D01*
X1550837Y1075951D01*
X1549169Y1073455D01*
X1548020Y1070682D01*
X1547435Y1067737D01*
Y1064735D01*
X1548020Y1061791D01*
X1549169Y1059017D01*
X1550837Y1056521D01*
X1552960Y1054398D01*
X1555456Y1052731D01*
X1558229Y1051582D01*
X1561174Y1050996D01*
X1564176D01*
X1567120Y1051582D01*
X1569893Y1052731D01*
X1572390Y1054398D01*
X1574512Y1056521D01*
X1576180Y1059017D01*
X1577329Y1061791D01*
X1577914Y1064735D01*
Y1067737D01*
X1577329Y1070682D01*
X1576180Y1073455D01*
X1574512Y1075951D01*
X1572390Y1078074D01*
X1569893Y1079742D01*
X1567120Y1080890D01*
X1564176Y1081476D01*
D02*
G37*
G36*
X1029803Y1059219D02*
X1028000D01*
X1026335Y1058530D01*
X1025060Y1057255D01*
X1024370Y1055589D01*
Y1053786D01*
X1025060Y1052120D01*
X1026335Y1050845D01*
X1028000Y1050155D01*
X1029803D01*
X1031469Y1050845D01*
X1032744Y1052120D01*
X1033434Y1053786D01*
Y1055589D01*
X1032744Y1057255D01*
X1031469Y1058530D01*
X1029803Y1059219D01*
D02*
G37*
G36*
X931497Y1059194D02*
X929694D01*
X928028Y1058504D01*
X926753Y1057229D01*
X926064Y1055563D01*
Y1053760D01*
X926753Y1052095D01*
X928028Y1050820D01*
X929694Y1050130D01*
X931497D01*
X933163Y1050820D01*
X934437Y1052095D01*
X935127Y1053760D01*
Y1055563D01*
X934437Y1057229D01*
X933163Y1058504D01*
X931497Y1059194D01*
D02*
G37*
G36*
X830838Y1059172D02*
X829035D01*
X827369Y1058482D01*
X826095Y1057207D01*
X825405Y1055541D01*
Y1053738D01*
X826095Y1052073D01*
X827369Y1050798D01*
X829035Y1050108D01*
X830838D01*
X832504Y1050798D01*
X833779Y1052073D01*
X834469Y1053738D01*
Y1055541D01*
X833779Y1057207D01*
X832504Y1058482D01*
X830838Y1059172D01*
D02*
G37*
G36*
X1228175Y1058966D02*
X1226372D01*
X1224707Y1058276D01*
X1223432Y1057001D01*
X1222742Y1055336D01*
Y1053533D01*
X1223432Y1051867D01*
X1224707Y1050592D01*
X1226372Y1049902D01*
X1228175D01*
X1229841Y1050592D01*
X1231116Y1051867D01*
X1231806Y1053533D01*
Y1055336D01*
X1231116Y1057001D01*
X1229841Y1058276D01*
X1228175Y1058966D01*
D02*
G37*
G36*
X1177568Y1058893D02*
X1175765D01*
X1174099Y1058203D01*
X1172824Y1056928D01*
X1172134Y1055262D01*
Y1053459D01*
X1172824Y1051793D01*
X1174099Y1050518D01*
X1175765Y1049828D01*
X1177568D01*
X1179233Y1050518D01*
X1180508Y1051793D01*
X1181198Y1053459D01*
Y1055262D01*
X1180508Y1056928D01*
X1179233Y1058203D01*
X1177568Y1058893D01*
D02*
G37*
G36*
X1127850Y1058865D02*
X1126047D01*
X1124381Y1058175D01*
X1123106Y1056900D01*
X1122416Y1055234D01*
Y1053431D01*
X1123106Y1051766D01*
X1124381Y1050491D01*
X1126047Y1049801D01*
X1127850D01*
X1129516Y1050491D01*
X1130790Y1051766D01*
X1131480Y1053431D01*
Y1055234D01*
X1130790Y1056900D01*
X1129516Y1058175D01*
X1127850Y1058865D01*
D02*
G37*
G36*
X1078118Y1058794D02*
X1076315D01*
X1074649Y1058104D01*
X1073374Y1056829D01*
X1072684Y1055164D01*
Y1053361D01*
X1073374Y1051695D01*
X1074649Y1050420D01*
X1076315Y1049730D01*
X1078118D01*
X1079783Y1050420D01*
X1081058Y1051695D01*
X1081748Y1053361D01*
Y1055164D01*
X1081058Y1056829D01*
X1079783Y1058104D01*
X1078118Y1058794D01*
D02*
G37*
G36*
X1275263Y1057705D02*
X1273460D01*
X1271794Y1057015D01*
X1270519Y1055740D01*
X1269829Y1054075D01*
Y1052272D01*
X1270519Y1050606D01*
X1271794Y1049331D01*
X1273460Y1048641D01*
X1275263D01*
X1276928Y1049331D01*
X1278203Y1050606D01*
X1278893Y1052272D01*
Y1054075D01*
X1278203Y1055740D01*
X1276928Y1057015D01*
X1275263Y1057705D01*
D02*
G37*
G36*
X1394489Y1056635D02*
X1392686D01*
X1391020Y1055945D01*
X1389745Y1054670D01*
X1389055Y1053004D01*
Y1051201D01*
X1389745Y1049536D01*
X1391020Y1048261D01*
X1392686Y1047571D01*
X1394489D01*
X1396154Y1048261D01*
X1397429Y1049536D01*
X1398119Y1051201D01*
Y1053004D01*
X1397429Y1054670D01*
X1396154Y1055945D01*
X1394489Y1056635D01*
D02*
G37*
G36*
X1283793Y1050525D02*
X1281990D01*
X1280324Y1049835D01*
X1279049Y1048560D01*
X1278359Y1046894D01*
Y1045091D01*
X1279049Y1043425D01*
X1280324Y1042151D01*
X1281990Y1041461D01*
X1283793D01*
X1285459Y1042151D01*
X1286734Y1043425D01*
X1287423Y1045091D01*
Y1046894D01*
X1286734Y1048560D01*
X1285459Y1049835D01*
X1283793Y1050525D01*
D02*
G37*
G36*
X1700415Y1025866D02*
X1698613D01*
X1696947Y1025176D01*
X1695672Y1023901D01*
X1694982Y1022235D01*
Y1020433D01*
X1695672Y1018767D01*
X1696947Y1017492D01*
X1698613Y1016802D01*
X1700415D01*
X1702081Y1017492D01*
X1703356Y1018767D01*
X1704046Y1020433D01*
Y1022235D01*
X1703356Y1023901D01*
X1702081Y1025176D01*
X1700415Y1025866D01*
D02*
G37*
G36*
X1560970Y1024088D02*
X1559167D01*
X1557501Y1023398D01*
X1556226Y1022123D01*
X1555536Y1020458D01*
Y1018654D01*
X1556226Y1016989D01*
X1557501Y1015714D01*
X1559167Y1015024D01*
X1560970D01*
X1561300Y1015161D01*
X1561338Y1015153D01*
Y1015177D01*
X1561346Y1015180D01*
X1562527Y1015415D01*
X1563535Y1016088D01*
X1564209Y1017097D01*
X1564444Y1018278D01*
X1564600Y1018654D01*
Y1020458D01*
X1563910Y1022123D01*
X1562635Y1023398D01*
X1560970Y1024088D01*
D02*
G37*
G36*
X1078115Y1023834D02*
X1076312D01*
X1074647Y1023144D01*
X1073372Y1021869D01*
X1072682Y1020203D01*
Y1018400D01*
X1073372Y1016735D01*
X1074647Y1015460D01*
X1076312Y1014770D01*
X1078115D01*
X1079781Y1015460D01*
X1081056Y1016735D01*
X1081746Y1018400D01*
Y1020203D01*
X1081056Y1021869D01*
X1079781Y1023144D01*
X1078115Y1023834D01*
D02*
G37*
G36*
X1063383Y1023326D02*
X1061581D01*
X1059915Y1022636D01*
X1058640Y1021361D01*
X1057950Y1019696D01*
Y1017893D01*
X1058640Y1016227D01*
X1059915Y1014952D01*
X1061581Y1014262D01*
X1063383D01*
X1065049Y1014952D01*
X1066324Y1016227D01*
X1067014Y1017893D01*
Y1019696D01*
X1066324Y1021361D01*
X1065049Y1022636D01*
X1063383Y1023326D01*
D02*
G37*
G36*
X1093102Y1022818D02*
X1091299D01*
X1089633Y1022128D01*
X1088358Y1020853D01*
X1087668Y1019187D01*
Y1017384D01*
X1088358Y1015719D01*
X1089633Y1014444D01*
X1091299Y1013754D01*
X1093102D01*
X1094767Y1014444D01*
X1096042Y1015719D01*
X1096732Y1017384D01*
Y1019187D01*
X1096042Y1020853D01*
X1094767Y1022128D01*
X1093102Y1022818D01*
D02*
G37*
G36*
X1575448Y1021548D02*
X1573645D01*
X1571979Y1020858D01*
X1570704Y1019583D01*
X1570014Y1017917D01*
Y1016115D01*
X1570704Y1014449D01*
X1571979Y1013174D01*
X1573645Y1012484D01*
X1575448D01*
X1577113Y1013174D01*
X1578388Y1014449D01*
X1579078Y1016115D01*
Y1017917D01*
X1578388Y1019583D01*
X1577113Y1020858D01*
X1575448Y1021548D01*
D02*
G37*
G36*
X1104786Y1022985D02*
X1102982D01*
X1101317Y1022295D01*
X1100042Y1021020D01*
X1099352Y1019354D01*
Y1017551D01*
X1100042Y1015886D01*
X1101317Y1014611D01*
X1102982Y1013921D01*
X1104785D01*
X1104940Y1013818D01*
Y1012559D01*
X1105630Y1010893D01*
X1106905Y1009618D01*
X1108570Y1008928D01*
X1110374D01*
X1112039Y1009618D01*
X1113314Y1010893D01*
X1114004Y1012559D01*
Y1014361D01*
X1113314Y1016027D01*
X1112039Y1017302D01*
X1110374Y1017992D01*
X1108571D01*
X1108416Y1018095D01*
Y1019354D01*
X1107726Y1021020D01*
X1106451Y1022295D01*
X1104786Y1022985D01*
D02*
G37*
G36*
X788556Y1017230D02*
X786752D01*
X785087Y1016540D01*
X783812Y1015265D01*
X783122Y1013599D01*
Y1011796D01*
X783812Y1010131D01*
X785087Y1008856D01*
X786752Y1008166D01*
X788556D01*
X790221Y1008856D01*
X791496Y1010131D01*
X792186Y1011796D01*
Y1013599D01*
X791496Y1015265D01*
X790221Y1016540D01*
X788556Y1017230D01*
D02*
G37*
G36*
X224112Y1017171D02*
X222309D01*
X220643Y1016481D01*
X219368Y1015206D01*
X218678Y1013540D01*
Y1011737D01*
X219368Y1010072D01*
X220643Y1008797D01*
X222309Y1008107D01*
X224112D01*
X225777Y1008797D01*
X227052Y1010072D01*
X227742Y1011737D01*
Y1013540D01*
X227052Y1015206D01*
X225777Y1016481D01*
X224112Y1017171D01*
D02*
G37*
G36*
X1038238Y1020532D02*
X1036434D01*
X1034769Y1019842D01*
X1033494Y1018567D01*
X1032804Y1016901D01*
Y1015098D01*
X1033494Y1013433D01*
X1034229Y1012698D01*
X1033240Y1011709D01*
X1032550Y1010043D01*
Y1008241D01*
X1033240Y1006575D01*
X1034515Y1005300D01*
X1036180Y1004610D01*
X1037983D01*
X1039649Y1005300D01*
X1040924Y1006575D01*
X1041614Y1008241D01*
Y1010043D01*
X1040924Y1011709D01*
X1040189Y1012444D01*
X1041178Y1013433D01*
X1041868Y1015098D01*
Y1016901D01*
X1041178Y1018567D01*
X1039903Y1019842D01*
X1038238Y1020532D01*
D02*
G37*
G36*
X763917Y1010880D02*
X762114D01*
X760449Y1010190D01*
X759174Y1008915D01*
X758484Y1007250D01*
Y1005446D01*
X759174Y1003781D01*
X760449Y1002506D01*
X760573Y1002454D01*
X760871Y1000960D01*
X760698Y1000787D01*
X760008Y999121D01*
Y997318D01*
X760698Y995653D01*
X761973Y994378D01*
X763639Y993688D01*
X765442D01*
X767107Y994378D01*
X768382Y995653D01*
X769072Y997318D01*
Y999121D01*
X768382Y1000787D01*
X767107Y1002062D01*
X766983Y1002114D01*
X766685Y1003608D01*
X766858Y1003781D01*
X767548Y1005446D01*
Y1007250D01*
X766858Y1008915D01*
X765583Y1010190D01*
X763917Y1010880D01*
D02*
G37*
G36*
X473047Y1002641D02*
X471245D01*
X469579Y1001951D01*
X468304Y1000676D01*
X467614Y999011D01*
Y997208D01*
X468304Y995542D01*
X469579Y994267D01*
X471245Y993577D01*
X473047D01*
X474713Y994267D01*
X475988Y995542D01*
X476678Y997208D01*
Y999011D01*
X475988Y1000676D01*
X474713Y1001951D01*
X473047Y1002641D01*
D02*
G37*
G36*
X866534Y1014761D02*
X864731D01*
X863065Y1014072D01*
X861790Y1012797D01*
X861100Y1011131D01*
Y1009328D01*
X861790Y1007662D01*
X861887Y1007566D01*
X860790Y1006469D01*
X860100Y1004804D01*
Y1003001D01*
X860790Y1001335D01*
X861776Y1000349D01*
X861704Y1000277D01*
X861014Y998611D01*
Y996808D01*
X861704Y995142D01*
X862979Y993867D01*
X864644Y993177D01*
X866447D01*
X868113Y993867D01*
X869388Y995142D01*
X870078Y996808D01*
Y998611D01*
X869388Y1000277D01*
X868402Y1001263D01*
X868475Y1001335D01*
X869165Y1003001D01*
Y1004804D01*
X868475Y1006469D01*
X868378Y1006566D01*
X869474Y1007662D01*
X870164Y1009328D01*
Y1011131D01*
X869474Y1012797D01*
X868199Y1014072D01*
X866534Y1014761D01*
D02*
G37*
G36*
X371996Y1001482D02*
X370192D01*
X368527Y1000792D01*
X367252Y999517D01*
X366562Y997851D01*
Y996049D01*
X367252Y994383D01*
X368527Y993108D01*
X370192Y992418D01*
X371996D01*
X373661Y993108D01*
X374936Y994383D01*
X375626Y996049D01*
Y997851D01*
X374936Y999517D01*
X373661Y1000792D01*
X371996Y1001482D01*
D02*
G37*
G36*
X594539Y1004950D02*
X592098D01*
X589740Y1004318D01*
X587627Y1003098D01*
X585901Y1001372D01*
X584680Y999258D01*
X584049Y996900D01*
Y994460D01*
X584680Y992102D01*
X585901Y989988D01*
X587627Y988262D01*
X589740Y987042D01*
X592098Y986410D01*
X594539D01*
X596897Y987042D01*
X599011Y988262D01*
X600736Y989988D01*
X601957Y992102D01*
X602589Y994460D01*
Y996900D01*
X601957Y999258D01*
X600736Y1001372D01*
X599011Y1003098D01*
X596897Y1004318D01*
X594539Y1004950D01*
D02*
G37*
G36*
X1120788Y993608D02*
X1118985D01*
X1117319Y992918D01*
X1116044Y991643D01*
X1115354Y989977D01*
Y988175D01*
X1116044Y986509D01*
X1117319Y985234D01*
X1118985Y984544D01*
X1120788D01*
X1122453Y985234D01*
X1123728Y986509D01*
X1124418Y988175D01*
Y989977D01*
X1123728Y991643D01*
X1122453Y992918D01*
X1120788Y993608D01*
D02*
G37*
G36*
X987665Y990462D02*
X985863D01*
X984197Y989772D01*
X982922Y988498D01*
X982232Y986832D01*
Y985029D01*
X982922Y983363D01*
X984197Y982088D01*
X985863Y981398D01*
X987665D01*
X989331Y982088D01*
X990606Y983363D01*
X991296Y985029D01*
Y986832D01*
X990606Y988498D01*
X989331Y989772D01*
X987665Y990462D01*
D02*
G37*
G36*
X940372Y985101D02*
X938569D01*
X936904Y984411D01*
X935629Y983136D01*
X934939Y981470D01*
Y980320D01*
X933415Y980016D01*
X933228Y980467D01*
X931953Y981742D01*
X930287Y982432D01*
X928484D01*
X926819Y981742D01*
X925544Y980467D01*
X925462Y980269D01*
X924319Y980314D01*
X923888Y980451D01*
X923248Y981995D01*
X921973Y983270D01*
X920307Y983960D01*
X918505D01*
X916839Y983270D01*
X916605Y983035D01*
X916130Y983510D01*
X914464Y984200D01*
X912661D01*
X910995Y983510D01*
X909721Y982235D01*
X909225Y981040D01*
X907892Y980581D01*
X907526Y980584D01*
X905861Y981274D01*
X904058D01*
X902392Y980584D01*
X901117Y979309D01*
X901113Y979308D01*
X900457Y979964D01*
X898792Y980654D01*
X896989D01*
X895323Y979964D01*
X894048Y978689D01*
X893358Y977023D01*
Y975220D01*
X894048Y973555D01*
X895323Y972280D01*
X896989Y971590D01*
X898792D01*
X900457Y972280D01*
X901732Y973555D01*
X901736Y973556D01*
X902392Y972900D01*
X904058Y972210D01*
X905861D01*
X907526Y972900D01*
X908801Y974175D01*
X909296Y975370D01*
X910630Y975829D01*
X910995Y975826D01*
X912661Y975136D01*
X914464D01*
X916130Y975826D01*
X916364Y976060D01*
X916839Y975586D01*
X918505Y974896D01*
X920307D01*
X921973Y975586D01*
X923248Y976861D01*
X923330Y977058D01*
X924473Y977013D01*
X924904Y976877D01*
X925544Y975333D01*
X926819Y974058D01*
X928484Y973368D01*
X930287D01*
X931953Y974058D01*
X933228Y975333D01*
X933918Y976999D01*
Y978149D01*
X935442Y978452D01*
X935629Y978001D01*
X936904Y976727D01*
X938569Y976037D01*
X940372D01*
X942038Y976727D01*
X943313Y978001D01*
X944003Y979667D01*
Y981470D01*
X943313Y983136D01*
X942038Y984411D01*
X940372Y985101D01*
D02*
G37*
G36*
X647077Y981670D02*
X645275D01*
X643609Y980980D01*
X642620Y979991D01*
X641885Y980726D01*
X640219Y981416D01*
X638416D01*
X636751Y980726D01*
X635476Y979451D01*
X634786Y977785D01*
Y975983D01*
X635476Y974317D01*
X636751Y973042D01*
X638416Y972352D01*
X640219D01*
X641885Y973042D01*
X642874Y974031D01*
X643609Y973296D01*
X645275Y972606D01*
X647077D01*
X648743Y973296D01*
X650018Y974571D01*
X650708Y976236D01*
Y978039D01*
X650018Y979705D01*
X648743Y980980D01*
X647077Y981670D01*
D02*
G37*
G36*
X1017916Y983049D02*
X1016113D01*
X1014447Y982359D01*
X1013173Y981084D01*
X1012483Y979418D01*
Y977615D01*
X1013173Y975949D01*
X1014447Y974675D01*
X1016113Y973985D01*
X1017916D01*
X1019582Y974675D01*
X1020857Y975949D01*
X1021547Y977615D01*
Y979418D01*
X1020857Y981084D01*
X1019582Y982359D01*
X1017916Y983049D01*
D02*
G37*
G36*
X1200859Y971133D02*
X1199055D01*
X1197390Y970444D01*
X1196115Y969169D01*
X1195425Y967503D01*
Y965700D01*
X1196115Y964034D01*
X1197390Y962759D01*
X1199055Y962069D01*
X1200859D01*
X1202524Y962759D01*
X1203799Y964034D01*
X1204489Y965700D01*
Y967503D01*
X1203799Y969169D01*
X1202524Y970444D01*
X1200859Y971133D01*
D02*
G37*
G36*
X708129Y976780D02*
X706326D01*
X704660Y976090D01*
X703385Y974816D01*
X702695Y973150D01*
Y971347D01*
X703385Y969681D01*
X703593Y969474D01*
X702715Y968596D01*
X702025Y966931D01*
Y965128D01*
X702715Y963462D01*
X703064Y963113D01*
X702669Y962719D01*
X701980Y961053D01*
Y959250D01*
X702669Y957585D01*
X703944Y956310D01*
X705610Y955620D01*
X707413D01*
X709079Y956310D01*
X710353Y957585D01*
X711043Y959250D01*
Y961053D01*
X710353Y962719D01*
X710005Y963068D01*
X710399Y963462D01*
X711089Y965128D01*
Y966931D01*
X710399Y968596D01*
X710192Y968804D01*
X711070Y969681D01*
X711759Y971347D01*
Y973150D01*
X711070Y974816D01*
X709795Y976090D01*
X708129Y976780D01*
D02*
G37*
G36*
X1609991Y958048D02*
X1608188D01*
X1606523Y957358D01*
X1605248Y956083D01*
X1604558Y954417D01*
Y952615D01*
X1605248Y950949D01*
X1606523Y949674D01*
X1608188Y948984D01*
X1609991D01*
X1611657Y949674D01*
X1612932Y950949D01*
X1613622Y952615D01*
Y954417D01*
X1612932Y956083D01*
X1611657Y957358D01*
X1609991Y958048D01*
D02*
G37*
G36*
X1141616Y960080D02*
X1139812D01*
X1138147Y959390D01*
X1136872Y958115D01*
X1136182Y956450D01*
Y954647D01*
X1136872Y952981D01*
X1138147Y951706D01*
X1139812Y951016D01*
X1141616D01*
X1142798Y951506D01*
X1143040Y951345D01*
X1143730Y949679D01*
X1145005Y948404D01*
X1146671Y947714D01*
X1148474D01*
X1150139Y948404D01*
X1151414Y949679D01*
X1152104Y951345D01*
Y953148D01*
X1151414Y954813D01*
X1150139Y956088D01*
X1148474Y956778D01*
X1146671D01*
X1145488Y956288D01*
X1145246Y956450D01*
X1144556Y958115D01*
X1143281Y959390D01*
X1141616Y960080D01*
D02*
G37*
G36*
X1596022Y956016D02*
X1594218D01*
X1592553Y955326D01*
X1591278Y954051D01*
X1590588Y952385D01*
Y950583D01*
X1591278Y948917D01*
X1592553Y947642D01*
X1594218Y946952D01*
X1596022D01*
X1597687Y947642D01*
X1598962Y948917D01*
X1599652Y950583D01*
Y952385D01*
X1598962Y954051D01*
X1597687Y955326D01*
X1596022Y956016D01*
D02*
G37*
G36*
X858507Y964498D02*
X856704D01*
X855038Y963808D01*
X853764Y962533D01*
X853074Y960867D01*
Y959064D01*
X853764Y957398D01*
X855038Y956124D01*
X856704Y955434D01*
X858507D01*
X859287Y955757D01*
X859859Y955392D01*
X860592Y954648D01*
Y953122D01*
X861282Y951457D01*
X861926Y950813D01*
X861352Y950239D01*
X860663Y948574D01*
Y946771D01*
X861352Y945105D01*
X862627Y943830D01*
X864293Y943140D01*
X866096D01*
X867762Y943830D01*
X869037Y945105D01*
X869726Y946771D01*
Y948574D01*
X869037Y950239D01*
X868393Y950883D01*
X868966Y951457D01*
X869656Y953122D01*
Y954926D01*
X868966Y956591D01*
X867691Y957866D01*
X866025Y958556D01*
X864222D01*
X863443Y958233D01*
X862871Y958597D01*
X862138Y959342D01*
Y960867D01*
X861448Y962533D01*
X860173Y963808D01*
X858507Y964498D01*
D02*
G37*
G36*
X1700161Y943316D02*
X1698358D01*
X1696693Y942626D01*
X1695418Y941351D01*
X1694728Y939686D01*
Y937883D01*
X1695418Y936217D01*
X1696693Y934942D01*
X1698358Y934252D01*
X1700161D01*
X1701827Y934942D01*
X1703102Y936217D01*
X1703792Y937883D01*
Y939686D01*
X1703102Y941351D01*
X1701827Y942626D01*
X1700161Y943316D01*
D02*
G37*
G36*
X1151522Y941538D02*
X1149718D01*
X1148053Y940848D01*
X1146778Y939573D01*
X1146088Y937907D01*
Y936105D01*
X1146778Y934439D01*
X1148053Y933164D01*
X1149718Y932474D01*
X1151522D01*
X1153187Y933164D01*
X1154462Y934439D01*
X1155152Y936105D01*
Y937907D01*
X1154462Y939573D01*
X1153187Y940848D01*
X1151522Y941538D01*
D02*
G37*
G36*
X1325462Y941252D02*
X1323659D01*
X1321993Y940562D01*
X1320718Y939287D01*
X1320028Y937622D01*
Y935818D01*
X1320718Y934153D01*
X1321993Y932878D01*
X1323659Y932188D01*
X1325462D01*
X1327128Y932878D01*
X1328402Y934153D01*
X1329092Y935818D01*
Y937622D01*
X1328402Y939287D01*
X1327128Y940562D01*
X1325462Y941252D01*
D02*
G37*
G36*
X1071512Y940776D02*
X1069708D01*
X1068043Y940086D01*
X1066768Y938811D01*
X1066078Y937145D01*
Y935342D01*
X1066768Y933677D01*
X1068043Y932402D01*
X1069708Y931712D01*
X1071512D01*
X1073177Y932402D01*
X1074452Y933677D01*
X1075142Y935342D01*
Y937145D01*
X1074452Y938811D01*
X1073177Y940086D01*
X1071512Y940776D01*
D02*
G37*
G36*
X1166741Y938882D02*
X1164938D01*
X1163273Y938192D01*
X1161998Y936917D01*
X1161308Y935251D01*
Y933448D01*
X1161998Y931782D01*
X1163273Y930508D01*
X1164938Y929818D01*
X1166741D01*
X1168407Y930508D01*
X1169682Y931782D01*
X1170372Y933448D01*
Y935251D01*
X1169682Y936917D01*
X1168407Y938192D01*
X1166741Y938882D01*
D02*
G37*
G36*
X867301Y937439D02*
X865498D01*
X863832Y936750D01*
X862558Y935475D01*
X861868Y933809D01*
Y932006D01*
X862558Y930340D01*
X863832Y929065D01*
X865498Y928375D01*
X867301D01*
X868967Y929065D01*
X870242Y930340D01*
X870932Y932006D01*
Y933809D01*
X870242Y935475D01*
X868967Y936750D01*
X867301Y937439D01*
D02*
G37*
G36*
X1652664Y937220D02*
X1650860D01*
X1649195Y936530D01*
X1647920Y935255D01*
X1647230Y933589D01*
Y931786D01*
X1647920Y930121D01*
X1649195Y928846D01*
X1650860Y928156D01*
X1652664D01*
X1654329Y928846D01*
X1655604Y930121D01*
X1656294Y931786D01*
Y933589D01*
X1655604Y935255D01*
X1654329Y936530D01*
X1652664Y937220D01*
D02*
G37*
G36*
X1700161Y930870D02*
X1698358D01*
X1696693Y930180D01*
X1695418Y928905D01*
X1694728Y927240D01*
Y925436D01*
X1695418Y923771D01*
X1696693Y922496D01*
X1698358Y921806D01*
X1700161D01*
X1701827Y922496D01*
X1703102Y923771D01*
X1703792Y925436D01*
Y927240D01*
X1703102Y928905D01*
X1701827Y930180D01*
X1700161Y930870D01*
D02*
G37*
G36*
X1371100Y929788D02*
X1369297D01*
X1367631Y929098D01*
X1366356Y927823D01*
X1365667Y926158D01*
Y924354D01*
X1366356Y922689D01*
X1367631Y921414D01*
X1369297Y920724D01*
X1371100D01*
X1372766Y921414D01*
X1374041Y922689D01*
X1374731Y924354D01*
Y926158D01*
X1374041Y927823D01*
X1372766Y929098D01*
X1371100Y929788D01*
D02*
G37*
G36*
X679427Y939950D02*
X677624D01*
X675958Y939260D01*
X674684Y937986D01*
X673994Y936320D01*
Y934517D01*
X674684Y932851D01*
X674743Y932792D01*
X674335Y932384D01*
X673645Y930719D01*
Y928916D01*
X674335Y927250D01*
X674603Y926983D01*
X674429Y926810D01*
X673739Y925144D01*
Y923341D01*
X674429Y921675D01*
X675704Y920400D01*
X677370Y919710D01*
X679173D01*
X680839Y920400D01*
X682114Y921675D01*
X682803Y923341D01*
Y925144D01*
X682114Y926810D01*
X681846Y927077D01*
X682020Y927250D01*
X682710Y928916D01*
Y930719D01*
X682020Y932384D01*
X681960Y932444D01*
X682368Y932851D01*
X683057Y934517D01*
Y936320D01*
X682368Y937986D01*
X681093Y939260D01*
X679427Y939950D01*
D02*
G37*
G36*
X1196226Y934934D02*
X1194423D01*
X1192757Y934244D01*
X1191482Y932969D01*
X1190792Y931303D01*
Y929501D01*
X1191482Y927835D01*
X1192110Y927207D01*
X1192589Y926211D01*
X1192110Y925215D01*
X1191482Y924587D01*
X1190792Y922922D01*
Y921118D01*
X1191482Y919453D01*
X1192757Y918178D01*
X1194423Y917488D01*
X1196226D01*
X1197891Y918178D01*
X1199166Y919453D01*
X1199856Y921118D01*
Y922922D01*
X1199166Y924587D01*
X1198538Y925215D01*
X1198059Y926211D01*
X1198538Y927207D01*
X1199166Y927835D01*
X1199856Y929501D01*
Y931303D01*
X1199166Y932969D01*
X1197891Y934244D01*
X1196226Y934934D01*
D02*
G37*
G36*
X1245498Y922818D02*
X1243695D01*
X1242030Y922128D01*
X1240755Y920853D01*
X1240065Y919188D01*
Y917385D01*
X1240755Y915719D01*
X1242030Y914444D01*
X1243695Y913754D01*
X1245498D01*
X1247164Y914444D01*
X1248439Y915719D01*
X1249129Y917385D01*
Y919188D01*
X1248439Y920853D01*
X1247164Y922128D01*
X1245498Y922818D01*
D02*
G37*
G36*
X1635392Y916392D02*
X1633589D01*
X1631923Y915702D01*
X1630648Y914427D01*
X1629958Y912762D01*
Y910958D01*
X1630648Y909293D01*
X1631923Y908018D01*
X1633589Y907328D01*
X1635392D01*
X1637057Y908018D01*
X1638332Y909293D01*
X1639022Y910958D01*
Y912762D01*
X1638332Y914427D01*
X1637057Y915702D01*
X1635392Y916392D01*
D02*
G37*
G36*
X510425Y915884D02*
X508623D01*
X506957Y915194D01*
X505682Y913919D01*
X504992Y912253D01*
Y910451D01*
X505682Y908785D01*
X506957Y907510D01*
X508623Y906820D01*
X510425D01*
X512091Y907510D01*
X513366Y908785D01*
X514056Y910451D01*
Y912253D01*
X513366Y913919D01*
X512091Y915194D01*
X510425Y915884D01*
D02*
G37*
G36*
X1159903Y913852D02*
X1158101D01*
X1156435Y913162D01*
X1155160Y911887D01*
X1154470Y910221D01*
Y908419D01*
X1155160Y906753D01*
X1156435Y905478D01*
X1158101Y904788D01*
X1159903D01*
X1161569Y905478D01*
X1162844Y906753D01*
X1163534Y908419D01*
Y910221D01*
X1162844Y911887D01*
X1161569Y913162D01*
X1159903Y913852D01*
D02*
G37*
G36*
X1420647Y912851D02*
X1418844D01*
X1417178Y912161D01*
X1415903Y910886D01*
X1415213Y909221D01*
Y907418D01*
X1415903Y905752D01*
X1417178Y904477D01*
X1418844Y903787D01*
X1420647D01*
X1422313Y904477D01*
X1423587Y905752D01*
X1424277Y907418D01*
Y909221D01*
X1423587Y910886D01*
X1422313Y912161D01*
X1420647Y912851D01*
D02*
G37*
G36*
X1405630Y912322D02*
X1403827D01*
X1402161Y911632D01*
X1400887Y910357D01*
X1400197Y908691D01*
Y906888D01*
X1400887Y905223D01*
X1402161Y903948D01*
X1403827Y903258D01*
X1405630D01*
X1407296Y903948D01*
X1408571Y905223D01*
X1409261Y906888D01*
Y908691D01*
X1408571Y910357D01*
X1407296Y911632D01*
X1405630Y912322D01*
D02*
G37*
G36*
X1580634Y905675D02*
X1578831D01*
X1577166Y904985D01*
X1575891Y903710D01*
X1575201Y902045D01*
Y900242D01*
X1575891Y898576D01*
X1577166Y897301D01*
X1578831Y896611D01*
X1580634D01*
X1582300Y897301D01*
X1583575Y898576D01*
X1584265Y900242D01*
Y902045D01*
X1583575Y903710D01*
X1582300Y904985D01*
X1580634Y905675D01*
D02*
G37*
G36*
X870852Y902676D02*
X869048D01*
X867383Y901986D01*
X866108Y900711D01*
X865418Y899045D01*
Y897243D01*
X866108Y895577D01*
X867383Y894302D01*
X869048Y893612D01*
X870852D01*
X872517Y894302D01*
X873792Y895577D01*
X874482Y897243D01*
Y899045D01*
X873792Y900711D01*
X872517Y901986D01*
X870852Y902676D01*
D02*
G37*
G36*
X632346Y914106D02*
X630542D01*
X628877Y913416D01*
X627602Y912141D01*
X626912Y910475D01*
Y908672D01*
X627602Y907007D01*
X627956Y906653D01*
X627348Y906045D01*
X626658Y904380D01*
Y902577D01*
X627348Y900911D01*
X627829Y900430D01*
X627348Y899949D01*
X626658Y898283D01*
Y896480D01*
X627348Y894815D01*
X628623Y893540D01*
X630289Y892850D01*
X632091D01*
X633757Y893540D01*
X635032Y894815D01*
X635722Y896480D01*
Y898283D01*
X635032Y899949D01*
X634551Y900430D01*
X635032Y900911D01*
X635722Y902577D01*
Y904380D01*
X635032Y906045D01*
X634678Y906399D01*
X635286Y907007D01*
X635976Y908672D01*
Y910475D01*
X635286Y912141D01*
X634011Y913416D01*
X632346Y914106D01*
D02*
G37*
G36*
X457873Y901569D02*
X456069D01*
X454404Y900879D01*
X453129Y899604D01*
X452439Y897939D01*
Y896135D01*
X453129Y894470D01*
X454404Y893195D01*
X456069Y892505D01*
X457873D01*
X459538Y893195D01*
X460813Y894470D01*
X461503Y896135D01*
Y897939D01*
X460813Y899604D01*
X459538Y900879D01*
X457873Y901569D01*
D02*
G37*
G36*
X1163101Y900010D02*
X1161298D01*
X1159632Y899320D01*
X1158357Y898045D01*
X1157667Y896380D01*
Y894577D01*
X1158357Y892911D01*
X1159632Y891636D01*
X1161298Y890946D01*
X1163101D01*
X1164766Y891636D01*
X1166041Y892911D01*
X1166731Y894577D01*
Y896380D01*
X1166041Y898045D01*
X1164766Y899320D01*
X1163101Y900010D01*
D02*
G37*
G36*
X1368945Y893786D02*
X1367142D01*
X1365477Y893096D01*
X1364202Y891821D01*
X1363512Y890155D01*
Y888353D01*
X1363519Y888336D01*
X1362786Y886807D01*
X1361413Y886238D01*
X1360138Y884963D01*
X1359448Y883298D01*
Y881495D01*
X1360138Y879829D01*
X1361413Y878554D01*
X1363078Y877864D01*
X1364881D01*
X1366547Y878554D01*
X1367039Y879046D01*
X1368667Y878372D01*
X1370470D01*
X1372135Y879062D01*
X1373410Y880337D01*
X1374100Y882002D01*
Y883805D01*
X1373410Y885471D01*
X1372135Y886746D01*
X1371944Y886825D01*
X1372576Y888353D01*
Y890155D01*
X1371886Y891821D01*
X1370611Y893096D01*
X1368945Y893786D01*
D02*
G37*
G36*
X1246365Y889671D02*
X1244562D01*
X1242896Y888981D01*
X1241621Y887706D01*
X1240932Y886041D01*
Y884238D01*
X1241621Y882572D01*
X1242427Y881767D01*
X1241842Y881182D01*
X1241152Y879516D01*
Y877713D01*
X1241842Y876047D01*
X1243116Y874772D01*
X1244782Y874082D01*
X1246585D01*
X1248251Y874772D01*
X1249526Y876047D01*
X1249947Y877065D01*
X1250244Y876942D01*
X1252047D01*
X1253712Y877632D01*
X1254987Y878906D01*
X1255677Y880572D01*
Y882375D01*
X1254987Y884041D01*
X1253712Y885316D01*
X1252047Y886006D01*
X1250244D01*
X1249475Y887298D01*
X1249306Y887706D01*
X1248031Y888981D01*
X1246365Y889671D01*
D02*
G37*
G36*
X1420508Y885150D02*
X1418705D01*
X1417039Y884460D01*
X1415764Y883185D01*
X1415074Y881519D01*
Y879716D01*
X1415764Y878051D01*
X1417039Y876776D01*
X1418705Y876086D01*
X1420508D01*
X1422173Y876776D01*
X1423448Y878051D01*
X1424138Y879716D01*
Y881519D01*
X1423448Y883185D01*
X1422173Y884460D01*
X1420508Y885150D01*
D02*
G37*
G36*
X1406030Y884642D02*
X1404227D01*
X1402561Y883952D01*
X1401286Y882677D01*
X1400596Y881012D01*
Y879209D01*
X1401286Y877543D01*
X1402561Y876268D01*
X1404227Y875578D01*
X1406030D01*
X1407695Y876268D01*
X1408970Y877543D01*
X1409660Y879209D01*
Y881012D01*
X1408970Y882677D01*
X1407695Y883952D01*
X1406030Y884642D01*
D02*
G37*
G36*
X1668665Y890230D02*
X1666862D01*
X1665197Y889540D01*
X1663922Y888265D01*
X1663232Y886600D01*
Y884797D01*
X1663822Y883372D01*
X1663708Y882707D01*
X1663199Y881698D01*
X1661895Y881158D01*
X1660620Y879883D01*
X1659930Y878217D01*
Y876414D01*
X1660620Y874749D01*
X1661895Y873474D01*
X1663560Y872784D01*
X1665363D01*
X1667029Y873474D01*
X1668304Y874749D01*
X1668994Y876414D01*
Y878217D01*
X1668404Y879642D01*
X1668518Y880307D01*
X1669027Y881316D01*
X1670331Y881856D01*
X1671606Y883131D01*
X1672296Y884797D01*
Y886600D01*
X1671606Y888265D01*
X1670331Y889540D01*
X1668665Y890230D01*
D02*
G37*
G36*
X867682Y875543D02*
X865879D01*
X864213Y874853D01*
X862938Y873578D01*
X862248Y871912D01*
Y870109D01*
X862938Y868444D01*
X864213Y867169D01*
X865879Y866479D01*
X867682D01*
X869348Y867169D01*
X870622Y868444D01*
X871312Y870109D01*
Y871912D01*
X870622Y873578D01*
X869348Y874853D01*
X867682Y875543D01*
D02*
G37*
G36*
X810654Y867847D02*
X808850D01*
X807185Y867157D01*
X806811Y866783D01*
X805815Y865961D01*
X804819Y866783D01*
X804445Y867157D01*
X802779Y867847D01*
X800976D01*
X799311Y867157D01*
X798036Y865882D01*
X796500D01*
X795226Y867157D01*
X793560Y867847D01*
X791757D01*
X790091Y867157D01*
X789409Y866475D01*
X788413Y866053D01*
X787418Y866475D01*
X786736Y867157D01*
X785070Y867847D01*
X783267D01*
X781601Y867157D01*
X780327Y865882D01*
X779637Y864217D01*
Y862414D01*
X780327Y860748D01*
X781601Y859473D01*
X780850Y858233D01*
X780656Y858039D01*
X779966Y856374D01*
Y854570D01*
X780656Y852905D01*
X781931Y851630D01*
X783597Y850940D01*
X785400D01*
X787066Y851630D01*
X787748Y852312D01*
X788743Y852734D01*
X789739Y852312D01*
X790421Y851630D01*
X792086Y850940D01*
X793889D01*
X795555Y851630D01*
X796830Y852905D01*
X798366D01*
X799641Y851630D01*
X801306Y850940D01*
X803109D01*
X804775Y851630D01*
X805149Y852004D01*
X806145Y852826D01*
X807140Y852004D01*
X807514Y851630D01*
X809180Y850940D01*
X810983D01*
X812649Y851630D01*
X813924Y852905D01*
X814614Y854570D01*
Y856374D01*
X813924Y858039D01*
X812649Y859314D01*
X813400Y860554D01*
X813594Y860748D01*
X814284Y862414D01*
Y864217D01*
X813594Y865882D01*
X812319Y867157D01*
X810654Y867847D01*
D02*
G37*
G36*
X1562240Y872704D02*
X1560437D01*
X1558771Y872014D01*
X1557496Y870739D01*
X1556806Y869073D01*
Y867271D01*
X1557496Y865605D01*
X1558771Y864330D01*
X1560437Y863640D01*
X1562240D01*
X1563905Y864330D01*
X1565180Y865605D01*
X1565870Y867271D01*
Y869073D01*
X1565180Y870739D01*
X1563905Y872014D01*
X1562240Y872704D01*
D02*
G37*
G36*
X1118416Y882221D02*
X1116613D01*
X1114948Y881531D01*
X1113673Y880256D01*
X1112983Y878590D01*
Y876787D01*
X1113673Y875121D01*
X1113871Y874923D01*
X1113855Y874841D01*
X1112580Y873566D01*
X1111890Y871901D01*
Y870098D01*
X1112580Y868432D01*
X1112542Y868242D01*
X1111223Y867696D01*
X1109948Y866421D01*
X1109258Y864755D01*
Y862952D01*
X1109948Y861287D01*
X1111223Y860012D01*
X1112821Y859350D01*
X1112903Y859294D01*
X1113702Y857798D01*
X1113322Y856881D01*
Y855079D01*
X1114012Y853413D01*
X1115287Y852138D01*
X1116953Y851448D01*
X1118755D01*
X1120421Y852138D01*
X1121696Y853413D01*
X1122386Y855079D01*
Y856881D01*
X1121696Y858547D01*
X1120421Y859822D01*
X1118823Y860484D01*
X1118741Y860540D01*
X1117942Y862036D01*
X1118322Y862952D01*
Y864755D01*
X1117632Y866421D01*
X1117670Y866611D01*
X1118989Y867157D01*
X1120264Y868432D01*
X1120954Y870098D01*
Y871901D01*
X1120264Y873566D01*
X1120066Y873765D01*
X1120082Y873846D01*
X1121357Y875121D01*
X1122047Y876787D01*
Y878590D01*
X1121357Y880256D01*
X1120082Y881531D01*
X1118416Y882221D01*
D02*
G37*
G36*
X867380Y856572D02*
X865577D01*
X863912Y855882D01*
X862637Y854607D01*
X861947Y852941D01*
Y851138D01*
X862637Y849473D01*
X863912Y848198D01*
X865577Y847508D01*
X867380D01*
X869046Y848198D01*
X870321Y849473D01*
X871011Y851138D01*
Y852941D01*
X870321Y854607D01*
X869046Y855882D01*
X867380Y856572D01*
D02*
G37*
G36*
X535826Y856448D02*
X534022D01*
X532357Y855758D01*
X531082Y854483D01*
X530392Y852818D01*
Y851014D01*
X531082Y849349D01*
X532357Y848074D01*
X534022Y847384D01*
X535826D01*
X537491Y848074D01*
X538766Y849349D01*
X539456Y851014D01*
Y852818D01*
X538766Y854483D01*
X537491Y855758D01*
X535826Y856448D01*
D02*
G37*
G36*
X975499Y854416D02*
X973697D01*
X972031Y853726D01*
X970756Y852451D01*
X970066Y850786D01*
Y848982D01*
X970756Y847317D01*
X972031Y846042D01*
X973697Y845352D01*
X975499D01*
X977165Y846042D01*
X978440Y847317D01*
X979130Y848982D01*
Y850786D01*
X978440Y852451D01*
X977165Y853726D01*
X975499Y854416D01*
D02*
G37*
G36*
X1151606Y853600D02*
X1149803D01*
X1148137Y852910D01*
X1146862Y851635D01*
X1146172Y849970D01*
Y848167D01*
X1146862Y846501D01*
X1148137Y845226D01*
X1149803Y844536D01*
X1151606D01*
X1153271Y845226D01*
X1153610Y845565D01*
X1154149Y845026D01*
X1155815Y844336D01*
X1157617D01*
X1159283Y845026D01*
X1160558Y846301D01*
X1161248Y847967D01*
Y849770D01*
X1160558Y851435D01*
X1159283Y852710D01*
X1157617Y853400D01*
X1155815D01*
X1154149Y852710D01*
X1153810Y852372D01*
X1153271Y852910D01*
X1151606Y853600D01*
D02*
G37*
G36*
X1212868Y840055D02*
X1211065D01*
X1209399Y839365D01*
X1208794Y838760D01*
X1208305Y839248D01*
X1206639Y839938D01*
X1204837D01*
X1203171Y839248D01*
X1201896Y837973D01*
X1201206Y836308D01*
Y834504D01*
X1201896Y832839D01*
X1203171Y831564D01*
X1204837Y830874D01*
X1206639D01*
X1208305Y831564D01*
X1208911Y832169D01*
X1209399Y831681D01*
X1211065Y830991D01*
X1212868D01*
X1214534Y831681D01*
X1214866Y832014D01*
X1215451Y831429D01*
X1217117Y830739D01*
X1218920D01*
X1220586Y831429D01*
X1221861Y832704D01*
X1222551Y834369D01*
Y836172D01*
X1221861Y837838D01*
X1220586Y839113D01*
X1218920Y839803D01*
X1217117D01*
X1215451Y839113D01*
X1215119Y838780D01*
X1214534Y839365D01*
X1212868Y840055D01*
D02*
G37*
G36*
X681367Y851368D02*
X679565D01*
X677899Y850678D01*
X676624Y849403D01*
X675934Y847738D01*
Y845935D01*
X676624Y844269D01*
X676981Y843912D01*
X676421Y843352D01*
X675731Y841686D01*
Y839883D01*
X676421Y838217D01*
X677696Y836942D01*
X679361Y836252D01*
X681164D01*
X682830Y836942D01*
X684105Y838217D01*
X684795Y839883D01*
Y841686D01*
X684105Y843352D01*
X683748Y843708D01*
X684308Y844269D01*
X684998Y845935D01*
Y847738D01*
X684308Y849403D01*
X683033Y850678D01*
X681367Y851368D01*
D02*
G37*
G36*
X969911Y845018D02*
X968109D01*
X966443Y844328D01*
X965168Y843053D01*
X964478Y841387D01*
Y839585D01*
X965168Y837919D01*
X966443Y836644D01*
X968109Y835954D01*
X969911D01*
X971577Y836644D01*
X972852Y837919D01*
X973542Y839585D01*
Y841387D01*
X972852Y843053D01*
X971577Y844328D01*
X969911Y845018D01*
D02*
G37*
G36*
X980834Y844764D02*
X979031D01*
X977365Y844074D01*
X976090Y842799D01*
X975400Y841133D01*
Y839331D01*
X976090Y837665D01*
X977365Y836390D01*
X979031Y835700D01*
X980834D01*
X982499Y836390D01*
X983774Y837665D01*
X984464Y839331D01*
Y841133D01*
X983774Y842799D01*
X982499Y844074D01*
X980834Y844764D01*
D02*
G37*
G36*
X737025Y839358D02*
X735222D01*
X733556Y838668D01*
X732281Y837393D01*
X731592Y835727D01*
Y833924D01*
X732281Y832259D01*
X733556Y830984D01*
X735222Y830294D01*
X737025D01*
X738691Y830984D01*
X739966Y832259D01*
X740656Y833924D01*
Y835727D01*
X739966Y837393D01*
X738691Y838668D01*
X737025Y839358D01*
D02*
G37*
G36*
X716251Y841397D02*
X714448D01*
X712782Y840707D01*
X711507Y839432D01*
X710817Y837766D01*
Y835964D01*
X711507Y834298D01*
X712782Y833023D01*
X714448Y832333D01*
X716251D01*
X717917Y833023D01*
X718333Y833439D01*
X718885Y833384D01*
X719997Y832948D01*
X720546Y831622D01*
X721821Y830347D01*
X723487Y829657D01*
X725290D01*
X726956Y830347D01*
X728231Y831622D01*
X728921Y833287D01*
Y835090D01*
X728231Y836756D01*
X726956Y838031D01*
X725290Y838721D01*
X723487D01*
X721821Y838031D01*
X721405Y837615D01*
X720853Y837670D01*
X719741Y838106D01*
X719192Y839432D01*
X717917Y840707D01*
X716251Y841397D01*
D02*
G37*
G36*
X751446Y837500D02*
X749643D01*
X747977Y836810D01*
X746702Y835535D01*
X746013Y833869D01*
Y832066D01*
X746702Y830400D01*
X747977Y829126D01*
X749643Y828436D01*
X751446D01*
X753112Y829126D01*
X754387Y830400D01*
X755077Y832066D01*
Y833869D01*
X754387Y835535D01*
X753112Y836810D01*
X751446Y837500D01*
D02*
G37*
G36*
X1156855Y828254D02*
X1155052D01*
X1153387Y827564D01*
X1152400Y826577D01*
X1151143Y827098D01*
X1149340D01*
X1147674Y826408D01*
X1146400Y825133D01*
X1145710Y823467D01*
Y821665D01*
X1146400Y819999D01*
X1147674Y818724D01*
X1149340Y818034D01*
X1151143D01*
X1152809Y818724D01*
X1153795Y819711D01*
X1155052Y819190D01*
X1156855D01*
X1158521Y819880D01*
X1159796Y821155D01*
X1160486Y822821D01*
Y824623D01*
X1159796Y826289D01*
X1158521Y827564D01*
X1156855Y828254D01*
D02*
G37*
G36*
X867519Y831905D02*
X865716D01*
X864051Y831216D01*
X862776Y829941D01*
X862086Y828275D01*
Y826472D01*
X862776Y824806D01*
X864051Y823531D01*
X865716Y822841D01*
X867519D01*
X869185Y823531D01*
X870460Y824806D01*
X871150Y826472D01*
Y828275D01*
X870460Y829941D01*
X869185Y831216D01*
X867519Y831905D01*
D02*
G37*
G36*
X1115453Y836382D02*
X1113651D01*
X1111985Y835692D01*
X1110710Y834417D01*
X1110020Y832751D01*
Y830948D01*
X1110710Y829283D01*
X1111973Y828020D01*
X1111986Y828000D01*
X1112210Y826265D01*
X1111472Y825527D01*
X1110782Y823861D01*
Y822058D01*
X1111472Y820393D01*
X1112747Y819118D01*
X1114413Y818428D01*
X1116216D01*
X1117881Y819118D01*
X1119156Y820393D01*
X1119846Y822058D01*
Y823861D01*
X1119156Y825527D01*
X1117893Y826790D01*
X1117880Y826810D01*
X1117656Y828545D01*
X1118394Y829283D01*
X1119084Y830948D01*
Y832751D01*
X1118394Y834417D01*
X1117119Y835692D01*
X1115453Y836382D01*
D02*
G37*
G36*
X350914Y818856D02*
X349110D01*
X347445Y818166D01*
X346170Y816891D01*
X345480Y815226D01*
Y813422D01*
X346170Y811757D01*
X347445Y810482D01*
X349110Y809792D01*
X350914D01*
X352579Y810482D01*
X353854Y811757D01*
X354544Y813422D01*
Y815226D01*
X353854Y816891D01*
X352579Y818166D01*
X350914Y818856D01*
D02*
G37*
G36*
X1121804Y816316D02*
X1120001D01*
X1118335Y815626D01*
X1117060Y814351D01*
X1116370Y812685D01*
Y810882D01*
X1117060Y809217D01*
X1118335Y807942D01*
X1120001Y807252D01*
X1121804D01*
X1123469Y807942D01*
X1124744Y809217D01*
X1125434Y810882D01*
Y812685D01*
X1124744Y814351D01*
X1123469Y815626D01*
X1121804Y816316D01*
D02*
G37*
G36*
X1110882Y816062D02*
X1109079D01*
X1107413Y815372D01*
X1106138Y814097D01*
X1105448Y812431D01*
Y810629D01*
X1106138Y808963D01*
X1107413Y807688D01*
X1109079Y806998D01*
X1110882D01*
X1112547Y807688D01*
X1113822Y808963D01*
X1114512Y810629D01*
Y812431D01*
X1113822Y814097D01*
X1112547Y815372D01*
X1110882Y816062D01*
D02*
G37*
G36*
X992263Y835112D02*
X990461D01*
X988795Y834422D01*
X987520Y833147D01*
X986830Y831481D01*
Y829678D01*
X987520Y828013D01*
X988795Y826738D01*
X990353Y826093D01*
X990480Y825703D01*
X990548Y824524D01*
X989303Y824008D01*
X988028Y822733D01*
X987338Y821068D01*
Y819265D01*
X988028Y817599D01*
X989144Y816483D01*
X988028Y815367D01*
X987338Y813701D01*
Y811898D01*
X988028Y810233D01*
X989303Y808958D01*
X989560Y808851D01*
Y807202D01*
X989049Y806990D01*
X987774Y805715D01*
X987084Y804050D01*
Y802246D01*
X987774Y800581D01*
X989049Y799306D01*
X990714Y798616D01*
X992517D01*
X994183Y799306D01*
X995458Y800581D01*
X996148Y802246D01*
Y804050D01*
X995458Y805715D01*
X994183Y806990D01*
X993926Y807097D01*
Y808746D01*
X994437Y808958D01*
X995712Y810233D01*
X996402Y811898D01*
Y813701D01*
X995712Y815367D01*
X994596Y816483D01*
X995712Y817599D01*
X996402Y819265D01*
Y821068D01*
X995712Y822733D01*
X994437Y824008D01*
X992879Y824653D01*
X992752Y825043D01*
X992683Y826222D01*
X993929Y826738D01*
X995204Y828013D01*
X995894Y829678D01*
Y831481D01*
X995204Y833147D01*
X993929Y834422D01*
X992263Y835112D01*
D02*
G37*
G36*
X314135Y806919D02*
X312332D01*
X310666Y806229D01*
X309391Y804954D01*
X308701Y803289D01*
Y801486D01*
X309391Y799820D01*
X310666Y798545D01*
X312332Y797855D01*
X314135D01*
X315800Y798545D01*
X317075Y799820D01*
X317765Y801486D01*
Y803289D01*
X317075Y804954D01*
X315800Y806229D01*
X314135Y806919D01*
D02*
G37*
G36*
X428891Y804886D02*
X427089D01*
X425423Y804196D01*
X424148Y802921D01*
X423458Y801255D01*
Y799453D01*
X424148Y797787D01*
X425423Y796512D01*
X427089Y795822D01*
X428891D01*
X430557Y796512D01*
X431832Y797787D01*
X432522Y799453D01*
Y801255D01*
X431832Y802921D01*
X430557Y804196D01*
X428891Y804886D01*
D02*
G37*
G36*
X569281Y804152D02*
X567478D01*
X565812Y803462D01*
X564538Y802187D01*
X563848Y800521D01*
Y798718D01*
X564538Y797053D01*
X565812Y795778D01*
X567478Y795088D01*
X569281D01*
X570947Y795778D01*
X572222Y797053D01*
X572912Y798718D01*
Y800521D01*
X572222Y802187D01*
X570947Y803462D01*
X569281Y804152D01*
D02*
G37*
G36*
X1248549Y808950D02*
X1246747D01*
X1245081Y808260D01*
X1243806Y806985D01*
X1243116Y805320D01*
Y803516D01*
X1243806Y801851D01*
X1244922Y800735D01*
X1244314Y800127D01*
X1243624Y798462D01*
Y796658D01*
X1244314Y794993D01*
X1245589Y793718D01*
X1247254Y793028D01*
X1249057D01*
X1250723Y793718D01*
X1251998Y794993D01*
X1252688Y796658D01*
Y798462D01*
X1251998Y800127D01*
X1250882Y801243D01*
X1251490Y801851D01*
X1252180Y803516D01*
Y805320D01*
X1251490Y806985D01*
X1250215Y808260D01*
X1248549Y808950D01*
D02*
G37*
G36*
X1146695Y796250D02*
X1144893D01*
X1143227Y795560D01*
X1141952Y794285D01*
X1141262Y792619D01*
Y790816D01*
X1141952Y789151D01*
X1143227Y787876D01*
X1144893Y787186D01*
X1146695D01*
X1148361Y787876D01*
X1149636Y789151D01*
X1150326Y790816D01*
Y792619D01*
X1149636Y794285D01*
X1148361Y795560D01*
X1146695Y796250D01*
D02*
G37*
G36*
X868311Y798536D02*
X866508D01*
X864843Y797846D01*
X863568Y796571D01*
X862878Y794905D01*
Y793102D01*
X863547Y791488D01*
X863199Y791344D01*
X861924Y790069D01*
X861234Y788403D01*
Y786600D01*
X861924Y784934D01*
X863199Y783660D01*
X864865Y782970D01*
X866667D01*
X868333Y783660D01*
X869608Y784934D01*
X870298Y786600D01*
Y788403D01*
X869629Y790018D01*
X869977Y790162D01*
X871252Y791437D01*
X871942Y793102D01*
Y794905D01*
X871252Y796571D01*
X869977Y797846D01*
X868311Y798536D01*
D02*
G37*
G36*
X503126Y785625D02*
X501323D01*
X499658Y784935D01*
X498383Y783660D01*
X497693Y781994D01*
Y780191D01*
X498383Y778525D01*
X499658Y777251D01*
X501323Y776561D01*
X503126D01*
X504792Y777251D01*
X506067Y778525D01*
X506757Y780191D01*
Y781994D01*
X506067Y783660D01*
X504792Y784935D01*
X503126Y785625D01*
D02*
G37*
G36*
X643674Y783753D02*
X641871D01*
X640205Y783063D01*
X638930Y781788D01*
X638240Y780123D01*
Y778320D01*
X638930Y776654D01*
X640205Y775379D01*
X641871Y774689D01*
X643674D01*
X645340Y775379D01*
X646615Y776654D01*
X647304Y778320D01*
Y780123D01*
X646615Y781788D01*
X645340Y783063D01*
X643674Y783753D01*
D02*
G37*
G36*
X1217544Y783296D02*
X1215741D01*
X1214075Y782606D01*
X1212801Y781331D01*
X1212111Y779666D01*
Y777862D01*
X1212801Y776197D01*
X1214075Y774922D01*
X1215741Y774232D01*
X1217544D01*
X1219210Y774922D01*
X1220485Y776197D01*
X1221175Y777862D01*
Y779666D01*
X1220485Y781331D01*
X1219210Y782606D01*
X1217544Y783296D01*
D02*
G37*
G36*
X616369Y777276D02*
X614566D01*
X612900Y776586D01*
X611625Y775311D01*
X610935Y773646D01*
Y771843D01*
X611625Y770177D01*
X612900Y768902D01*
X614566Y768212D01*
X616369D01*
X618035Y768902D01*
X619310Y770177D01*
X619999Y771843D01*
Y773646D01*
X619310Y775311D01*
X618035Y776586D01*
X616369Y777276D01*
D02*
G37*
G36*
X560718Y772247D02*
X558914D01*
X557249Y771557D01*
X555974Y770282D01*
X555284Y768616D01*
Y766814D01*
X555974Y765148D01*
X557249Y763873D01*
X558914Y763183D01*
X560718D01*
X562383Y763873D01*
X563658Y765148D01*
X564348Y766814D01*
Y768616D01*
X563658Y770282D01*
X562383Y771557D01*
X560718Y772247D01*
D02*
G37*
G36*
X909714Y777200D02*
X907911D01*
X906245Y776510D01*
X904970Y775235D01*
X904280Y773569D01*
Y771767D01*
X904970Y770101D01*
X906245Y768826D01*
X907911Y768136D01*
X909713D01*
X910884Y766971D01*
Y766686D01*
X911574Y765021D01*
X912849Y763746D01*
X914514Y763056D01*
X916318D01*
X917983Y763746D01*
X919258Y765021D01*
X919948Y766686D01*
Y768490D01*
X919258Y770155D01*
X917983Y771430D01*
X916318Y772120D01*
X914515D01*
X913344Y773285D01*
Y773569D01*
X912654Y775235D01*
X911379Y776510D01*
X909714Y777200D01*
D02*
G37*
G36*
X602526Y768869D02*
X600723D01*
X599057Y768179D01*
X597782Y766904D01*
X597092Y765238D01*
Y763435D01*
X597782Y761770D01*
X599057Y760495D01*
X600723Y759805D01*
X602526D01*
X604192Y760495D01*
X605466Y761770D01*
X606156Y763435D01*
Y765238D01*
X605466Y766904D01*
X604192Y768179D01*
X602526Y768869D01*
D02*
G37*
G36*
X867379Y766969D02*
X865576D01*
X863910Y766279D01*
X862635Y765004D01*
X861945Y763338D01*
Y761535D01*
X862635Y759870D01*
X863910Y758595D01*
X865576Y757905D01*
X867379D01*
X869045Y758595D01*
X870320Y759870D01*
X871009Y761535D01*
Y763338D01*
X870320Y765004D01*
X869045Y766279D01*
X867379Y766969D01*
D02*
G37*
G36*
X546748Y772755D02*
X544944D01*
X543279Y772065D01*
X542004Y770790D01*
X541314Y769125D01*
Y767321D01*
X541350Y767235D01*
X541134Y766913D01*
X539469Y766223D01*
X538194Y764948D01*
X537504Y763282D01*
Y761479D01*
X538194Y759814D01*
X539469Y758539D01*
X541134Y757849D01*
X542938D01*
X544603Y758539D01*
X545878Y759814D01*
X546568Y761479D01*
Y763282D01*
X546532Y763369D01*
X546748Y763691D01*
X548413Y764381D01*
X549688Y765656D01*
X550378Y767321D01*
Y769125D01*
X549688Y770790D01*
X548413Y772065D01*
X546748Y772755D01*
D02*
G37*
G36*
X1147519Y766175D02*
X1145716D01*
X1144050Y765485D01*
X1142775Y764210D01*
X1142086Y762544D01*
Y760741D01*
X1142775Y759075D01*
X1144050Y757801D01*
X1145716Y757111D01*
X1147519D01*
X1149185Y757801D01*
X1150460Y759075D01*
X1151150Y760741D01*
Y762544D01*
X1150460Y764210D01*
X1149185Y765485D01*
X1147519Y766175D01*
D02*
G37*
G36*
X484010Y765770D02*
X482206D01*
X480541Y765080D01*
X479266Y763805D01*
X478576Y762140D01*
Y760337D01*
X479266Y758671D01*
X480541Y757396D01*
X482206Y756706D01*
X484010D01*
X485675Y757396D01*
X486950Y758671D01*
X487640Y760337D01*
Y762140D01*
X486950Y763805D01*
X485675Y765080D01*
X484010Y765770D01*
D02*
G37*
G36*
X590766Y763001D02*
X588963D01*
X587297Y762311D01*
X586022Y761037D01*
X585332Y759371D01*
Y757568D01*
X586022Y755902D01*
X587297Y754627D01*
X588963Y753937D01*
X590766D01*
X592431Y754627D01*
X593706Y755902D01*
X594396Y757568D01*
Y759371D01*
X593706Y761037D01*
X592431Y762311D01*
X590766Y763001D01*
D02*
G37*
G36*
X907428Y760944D02*
X905624D01*
X903959Y760254D01*
X902684Y758979D01*
X901994Y757314D01*
Y755510D01*
X902684Y753845D01*
X903959Y752570D01*
X905624Y751880D01*
X907428D01*
X909093Y752570D01*
X910368Y753845D01*
X911058Y755510D01*
Y757314D01*
X910368Y758979D01*
X909093Y760254D01*
X907428Y760944D01*
D02*
G37*
G36*
X1058608Y758328D02*
X1056805D01*
X1055140Y757638D01*
X1053865Y756363D01*
X1053175Y754697D01*
Y752894D01*
X1053865Y751229D01*
X1055140Y749954D01*
X1056805Y749264D01*
X1058608D01*
X1060274Y749954D01*
X1061549Y751229D01*
X1062239Y752894D01*
Y754697D01*
X1061549Y756363D01*
X1060274Y757638D01*
X1058608Y758328D01*
D02*
G37*
G36*
X1313573Y759420D02*
X1311770D01*
X1310105Y758730D01*
X1308830Y757455D01*
X1308140Y755789D01*
Y753987D01*
X1308830Y752321D01*
X1310105Y751046D01*
X1311770Y750356D01*
X1313573D01*
X1315239Y751046D01*
X1315469Y751276D01*
X1317212Y751051D01*
X1318487Y749776D01*
X1320152Y749086D01*
X1321956D01*
X1323621Y749776D01*
X1325246Y749246D01*
X1325340Y749019D01*
X1326615Y747744D01*
X1328280Y747054D01*
X1330083D01*
X1331565Y746018D01*
X1331690Y745717D01*
X1332965Y744442D01*
X1334630Y743752D01*
X1336434D01*
X1338099Y744442D01*
X1339374Y745717D01*
X1340064Y747383D01*
Y749185D01*
X1339374Y750851D01*
X1338099Y752126D01*
X1336434Y752816D01*
X1334631D01*
X1333149Y753852D01*
X1333024Y754153D01*
X1331749Y755428D01*
X1330083Y756118D01*
X1328280D01*
X1326615Y755428D01*
X1324990Y755958D01*
X1324896Y756185D01*
X1323621Y757460D01*
X1321956Y758150D01*
X1320152D01*
X1318487Y757460D01*
X1318257Y757230D01*
X1316514Y757455D01*
X1315239Y758730D01*
X1313573Y759420D01*
D02*
G37*
G36*
X919874Y756118D02*
X918071D01*
X916405Y755428D01*
X915130Y754153D01*
X914440Y752487D01*
Y750685D01*
X915130Y749019D01*
X916097Y748052D01*
X916400Y746533D01*
X915710Y744867D01*
Y743064D01*
X916400Y741399D01*
X917643Y740156D01*
X917162Y739675D01*
X916472Y738009D01*
Y736207D01*
X917162Y734541D01*
X918437Y733266D01*
X920102Y732576D01*
X921906D01*
X923571Y733266D01*
X924846Y734541D01*
X925536Y736207D01*
Y738009D01*
X924846Y739675D01*
X923603Y740918D01*
X924084Y741399D01*
X924774Y743064D01*
Y744867D01*
X924084Y746533D01*
X923117Y747500D01*
X922814Y749019D01*
X923504Y750685D01*
Y752487D01*
X922814Y754153D01*
X921539Y755428D01*
X919874Y756118D01*
D02*
G37*
G36*
X581037Y738465D02*
X579235D01*
X577569Y737775D01*
X576294Y736500D01*
X575604Y734835D01*
Y733031D01*
X576294Y731366D01*
X577569Y730091D01*
X579235Y729401D01*
X581037D01*
X582703Y730091D01*
X583978Y731366D01*
X584668Y733031D01*
Y734835D01*
X583978Y736500D01*
X582703Y737775D01*
X581037Y738465D01*
D02*
G37*
G36*
X1108849Y733258D02*
X1107047D01*
X1105381Y732568D01*
X1104106Y731293D01*
X1103416Y729628D01*
Y727824D01*
X1104106Y726159D01*
X1105381Y724884D01*
X1107047Y724194D01*
X1108849D01*
X1110515Y724884D01*
X1111790Y726159D01*
X1112480Y727824D01*
Y729628D01*
X1111790Y731293D01*
X1110515Y732568D01*
X1108849Y733258D01*
D02*
G37*
G36*
X528409Y732166D02*
X526606D01*
X524940Y731476D01*
X523665Y730201D01*
X522975Y728535D01*
Y726732D01*
X523665Y725067D01*
X524940Y723792D01*
X526606Y723102D01*
X528409D01*
X530074Y723792D01*
X531349Y725067D01*
X532039Y726732D01*
Y728535D01*
X531349Y730201D01*
X530074Y731476D01*
X528409Y732166D01*
D02*
G37*
G36*
X1191654Y728940D02*
X1189850D01*
X1188185Y728250D01*
X1186910Y726975D01*
X1186220Y725310D01*
Y723506D01*
X1186910Y721841D01*
X1188185Y720566D01*
X1189850Y719876D01*
X1191654D01*
X1193319Y720566D01*
X1194594Y721841D01*
X1195284Y723506D01*
Y725310D01*
X1194594Y726975D01*
X1193319Y728250D01*
X1191654Y728940D01*
D02*
G37*
G36*
X484010Y725892D02*
X482206D01*
X480541Y725202D01*
X479266Y723927D01*
X478576Y722262D01*
Y720459D01*
X479266Y718793D01*
X480541Y717518D01*
X482206Y716828D01*
X484010D01*
X485675Y717518D01*
X486950Y718793D01*
X487640Y720459D01*
Y722262D01*
X486950Y723927D01*
X485675Y725202D01*
X484010Y725892D01*
D02*
G37*
G36*
X897268Y721066D02*
X895464D01*
X893799Y720376D01*
X892524Y719101D01*
X891834Y717436D01*
Y715632D01*
X892524Y713967D01*
X893386Y713105D01*
X892524Y712243D01*
X891834Y710577D01*
Y708774D01*
X892524Y707109D01*
X893799Y705834D01*
X895464Y705144D01*
X897268D01*
X898933Y705834D01*
X900208Y707109D01*
X900898Y708774D01*
Y710577D01*
X900208Y712243D01*
X899346Y713105D01*
X900208Y713967D01*
X900898Y715632D01*
Y717436D01*
X900208Y719101D01*
X898933Y720376D01*
X897268Y721066D01*
D02*
G37*
G36*
X1528579Y713954D02*
X1526776D01*
X1525110Y713264D01*
X1523835Y711989D01*
X1523145Y710323D01*
Y708521D01*
X1523835Y706855D01*
X1525110Y705580D01*
X1526776Y704890D01*
X1528579D01*
X1530245Y705580D01*
X1531520Y706855D01*
X1532209Y708521D01*
Y710323D01*
X1531520Y711989D01*
X1530245Y713264D01*
X1528579Y713954D01*
D02*
G37*
G36*
X1349255Y713700D02*
X1347452D01*
X1345786Y713010D01*
X1344512Y711735D01*
X1343822Y710070D01*
Y708267D01*
X1344512Y706601D01*
X1345786Y705326D01*
X1347452Y704636D01*
X1349255D01*
X1350921Y705326D01*
X1352196Y706601D01*
X1352885Y708267D01*
Y710070D01*
X1352196Y711735D01*
X1350921Y713010D01*
X1349255Y713700D01*
D02*
G37*
G36*
X1259324Y713643D02*
X1257521D01*
X1255856Y712953D01*
X1254581Y711678D01*
X1253891Y710013D01*
Y708210D01*
X1254581Y706544D01*
X1255856Y705269D01*
X1257521Y704579D01*
X1259324D01*
X1260990Y705269D01*
X1262265Y706544D01*
X1262955Y708210D01*
Y710013D01*
X1262265Y711678D01*
X1260990Y712953D01*
X1259324Y713643D01*
D02*
G37*
G36*
X1235007Y712046D02*
X1233204D01*
X1231539Y711356D01*
X1230264Y710081D01*
X1229574Y708415D01*
Y706612D01*
X1230264Y704947D01*
X1231539Y703672D01*
X1233204Y702982D01*
X1235007D01*
X1236673Y703672D01*
X1237948Y704947D01*
X1238638Y706612D01*
Y708415D01*
X1237948Y710081D01*
X1236673Y711356D01*
X1235007Y712046D01*
D02*
G37*
G36*
X1095387Y704810D02*
X1093585D01*
X1091919Y704120D01*
X1090644Y702845D01*
X1089954Y701180D01*
Y699377D01*
X1090644Y697711D01*
X1091919Y696436D01*
X1093585Y695746D01*
X1095387D01*
X1097053Y696436D01*
X1098328Y697711D01*
X1099018Y699377D01*
Y701180D01*
X1098328Y702845D01*
X1097053Y704120D01*
X1095387Y704810D01*
D02*
G37*
G36*
X1034955Y704317D02*
X1033152D01*
X1031486Y703627D01*
X1030211Y702352D01*
X1029521Y700687D01*
Y698884D01*
X1030211Y697218D01*
X1031486Y695943D01*
X1033152Y695253D01*
X1034955D01*
X1036621Y695943D01*
X1037896Y697218D01*
X1038586Y698884D01*
Y700687D01*
X1037896Y702352D01*
X1036621Y703627D01*
X1034955Y704317D01*
D02*
G37*
G36*
X995770Y703497D02*
X993967D01*
X992301Y702807D01*
X991026Y701532D01*
X990336Y699866D01*
Y698064D01*
X991026Y696398D01*
X992301Y695123D01*
X993967Y694433D01*
X995770D01*
X997435Y695123D01*
X998710Y696398D01*
X999400Y698064D01*
Y699866D01*
X998710Y701532D01*
X997435Y702807D01*
X995770Y703497D01*
D02*
G37*
G36*
X1129424Y709636D02*
X1127620D01*
X1125955Y708946D01*
X1124680Y707671D01*
X1123990Y706005D01*
Y704202D01*
X1124585Y702765D01*
X1124177Y702596D01*
X1122902Y701321D01*
X1122212Y699656D01*
Y697852D01*
X1122902Y696187D01*
X1124177Y694912D01*
X1125843Y694222D01*
X1127645D01*
X1129311Y694912D01*
X1130586Y696187D01*
X1131276Y697852D01*
Y699656D01*
X1130681Y701093D01*
X1131089Y701262D01*
X1132364Y702537D01*
X1133054Y704202D01*
Y706005D01*
X1132364Y707671D01*
X1131089Y708946D01*
X1129424Y709636D01*
D02*
G37*
G36*
X915454Y699491D02*
X913652D01*
X911986Y698801D01*
X910711Y697526D01*
X910021Y695860D01*
Y694057D01*
X910711Y692392D01*
X911986Y691117D01*
X913652Y690427D01*
X915454D01*
X917120Y691117D01*
X918395Y692392D01*
X919085Y694057D01*
Y695860D01*
X918395Y697526D01*
X917120Y698801D01*
X915454Y699491D01*
D02*
G37*
G36*
X1439425Y698516D02*
X1437622D01*
X1435956Y697826D01*
X1434682Y696551D01*
X1433992Y694885D01*
Y693082D01*
X1434682Y691417D01*
X1435956Y690142D01*
X1437622Y689452D01*
X1439425D01*
X1441091Y690142D01*
X1442366Y691417D01*
X1443056Y693082D01*
Y694885D01*
X1442366Y696551D01*
X1441091Y697826D01*
X1439425Y698516D01*
D02*
G37*
G36*
X979055Y695920D02*
X977253D01*
X975587Y695230D01*
X974312Y693955D01*
X973622Y692290D01*
Y690487D01*
X974312Y688821D01*
X975587Y687546D01*
X977253Y686856D01*
X979055D01*
X980721Y687546D01*
X981996Y688821D01*
X982686Y690487D01*
Y692290D01*
X981996Y693955D01*
X980721Y695230D01*
X979055Y695920D01*
D02*
G37*
G36*
X950480Y692745D02*
X948678D01*
X947012Y692055D01*
X945737Y690780D01*
X945047Y689115D01*
Y687311D01*
X945737Y685646D01*
X947012Y684371D01*
X948678Y683681D01*
X950480D01*
X952146Y684371D01*
X953421Y685646D01*
X954111Y687311D01*
Y689115D01*
X953421Y690780D01*
X952146Y692055D01*
X950480Y692745D01*
D02*
G37*
G36*
X602053Y689438D02*
X600251D01*
X598585Y688749D01*
X597310Y687474D01*
X596620Y685808D01*
Y684005D01*
X597310Y682339D01*
X598585Y681064D01*
X600251Y680375D01*
X602053D01*
X603719Y681064D01*
X604994Y682339D01*
X605684Y684005D01*
Y685808D01*
X604994Y687474D01*
X603719Y688749D01*
X602053Y689438D01*
D02*
G37*
G36*
X1159214Y689408D02*
X1157411D01*
X1155745Y688718D01*
X1154470Y687443D01*
X1153780Y685777D01*
Y683974D01*
X1154470Y682308D01*
X1155745Y681033D01*
X1157411Y680344D01*
X1159214D01*
X1160880Y681033D01*
X1162154Y682308D01*
X1162844Y683974D01*
Y685777D01*
X1162154Y687443D01*
X1160880Y688718D01*
X1159214Y689408D01*
D02*
G37*
G36*
X1051700Y687538D02*
X1049896D01*
X1048231Y686848D01*
X1046956Y685573D01*
X1046266Y683907D01*
Y682104D01*
X1046956Y680439D01*
X1048231Y679164D01*
X1049896Y678474D01*
X1051700D01*
X1053365Y679164D01*
X1054640Y680439D01*
X1055330Y682104D01*
Y683907D01*
X1054640Y685573D01*
X1053365Y686848D01*
X1051700Y687538D01*
D02*
G37*
G36*
X961529Y687030D02*
X959726D01*
X958061Y686340D01*
X956786Y685065D01*
X956096Y683400D01*
Y681597D01*
X956786Y679931D01*
X958061Y678656D01*
X959726Y677966D01*
X961529D01*
X963195Y678656D01*
X964470Y679931D01*
X965160Y681597D01*
Y683400D01*
X964470Y685065D01*
X963195Y686340D01*
X961529Y687030D01*
D02*
G37*
G36*
X969911Y678902D02*
X968109D01*
X966443Y678212D01*
X965168Y676937D01*
X964478Y675272D01*
Y673468D01*
X965168Y671803D01*
X966443Y670528D01*
X968109Y669838D01*
X969911D01*
X971577Y670528D01*
X972852Y671803D01*
X973542Y673468D01*
Y675272D01*
X972852Y676937D01*
X971577Y678212D01*
X969911Y678902D01*
D02*
G37*
G36*
X1044587Y673568D02*
X1042785D01*
X1041119Y672878D01*
X1039844Y671603D01*
X1039154Y669938D01*
Y668135D01*
X1039844Y666469D01*
X1041119Y665194D01*
X1042785Y664504D01*
X1044587D01*
X1046253Y665194D01*
X1047528Y666469D01*
X1048218Y668135D01*
Y669938D01*
X1047528Y671603D01*
X1046253Y672878D01*
X1044587Y673568D01*
D02*
G37*
G36*
X783475Y671917D02*
X781673D01*
X780007Y671227D01*
X778732Y669952D01*
X778042Y668287D01*
Y666484D01*
X778732Y664818D01*
X780007Y663543D01*
X781673Y662853D01*
X783475D01*
X785141Y663543D01*
X786416Y664818D01*
X787106Y666484D01*
Y668287D01*
X786416Y669952D01*
X785141Y671227D01*
X783475Y671917D01*
D02*
G37*
G36*
X949083Y671028D02*
X947281D01*
X945615Y670338D01*
X944340Y669063D01*
X943650Y667398D01*
Y665594D01*
X944340Y663929D01*
X945615Y662654D01*
X947281Y661964D01*
X949083D01*
X950749Y662654D01*
X952024Y663929D01*
X952714Y665594D01*
Y667398D01*
X952024Y669063D01*
X950749Y670338D01*
X949083Y671028D01*
D02*
G37*
G36*
X1306443Y675494D02*
X1304641D01*
X1302975Y674804D01*
X1301700Y673529D01*
X1301010Y671863D01*
Y670061D01*
X1301700Y668395D01*
X1301744Y668351D01*
X1301195Y667803D01*
X1300506Y666137D01*
Y664334D01*
X1301195Y662669D01*
X1302263Y661601D01*
X1301042Y660380D01*
X1300352Y658714D01*
Y656911D01*
X1301042Y655246D01*
X1302317Y653971D01*
X1303983Y653281D01*
X1305786D01*
X1307451Y653971D01*
X1308726Y655246D01*
X1309416Y656911D01*
Y658714D01*
X1308726Y660380D01*
X1307659Y661448D01*
X1308880Y662669D01*
X1309570Y664334D01*
Y666137D01*
X1308880Y667803D01*
X1308836Y667847D01*
X1309384Y668395D01*
X1310074Y670061D01*
Y671863D01*
X1309384Y673529D01*
X1308109Y674804D01*
X1306443Y675494D01*
D02*
G37*
G36*
X801509Y658836D02*
X799706D01*
X798041Y658146D01*
X796766Y656871D01*
X796076Y655206D01*
Y653402D01*
X796766Y651737D01*
X798041Y650462D01*
X799706Y649772D01*
X801509D01*
X803175Y650462D01*
X804450Y651737D01*
X805140Y653402D01*
Y655206D01*
X804450Y656871D01*
X803175Y658146D01*
X801509Y658836D01*
D02*
G37*
G36*
X765949Y658582D02*
X764146D01*
X762481Y657892D01*
X761206Y656617D01*
X760516Y654951D01*
Y653148D01*
X761206Y651483D01*
X762481Y650208D01*
X764146Y649518D01*
X765949D01*
X767615Y650208D01*
X768890Y651483D01*
X769580Y653148D01*
Y654951D01*
X768890Y656617D01*
X767615Y657892D01*
X765949Y658582D01*
D02*
G37*
G36*
X984320Y636524D02*
X982517D01*
X980851Y635834D01*
X979576Y634559D01*
X978886Y632893D01*
Y631091D01*
X979576Y629425D01*
X980851Y628150D01*
X982517Y627460D01*
X984320D01*
X985985Y628150D01*
X987260Y629425D01*
X987950Y631091D01*
Y632893D01*
X987260Y634559D01*
X985985Y635834D01*
X984320Y636524D01*
D02*
G37*
G36*
X1143776Y630179D02*
X1141973D01*
X1140307Y629490D01*
X1139032Y628215D01*
X1138342Y626549D01*
Y624746D01*
X1139032Y623080D01*
X1140307Y621805D01*
X1141973Y621115D01*
X1143776D01*
X1145441Y621805D01*
X1145835Y622199D01*
X1147037Y620998D01*
X1148702Y620308D01*
X1150506D01*
X1152171Y620998D01*
X1153446Y622273D01*
X1154136Y623938D01*
Y625742D01*
X1153446Y627407D01*
X1152171Y628682D01*
X1150506Y629372D01*
X1148702D01*
X1147037Y628682D01*
X1146643Y628288D01*
X1145441Y629490D01*
X1143776Y630179D01*
D02*
G37*
G36*
X1132217Y631669D02*
X1130415D01*
X1128749Y630979D01*
X1127474Y629704D01*
X1126784Y628038D01*
Y626236D01*
X1127093Y625490D01*
X1126470Y623582D01*
X1126350Y623532D01*
X1125075Y622257D01*
X1124386Y620592D01*
Y618789D01*
X1125075Y617123D01*
X1126350Y615848D01*
X1128016Y615158D01*
X1129819D01*
X1131485Y615848D01*
X1132759Y617123D01*
X1133449Y618789D01*
Y620592D01*
X1133140Y621338D01*
X1133763Y623245D01*
X1133883Y623295D01*
X1135158Y624570D01*
X1135848Y626236D01*
Y628038D01*
X1135158Y629704D01*
X1133883Y630979D01*
X1132217Y631669D01*
D02*
G37*
G36*
X811924Y628610D02*
X810120D01*
X808455Y627920D01*
X807180Y626645D01*
X806490Y624980D01*
Y623176D01*
X807180Y621511D01*
X808169Y620522D01*
X807180Y619533D01*
X806490Y617868D01*
Y616064D01*
X807180Y614399D01*
X808296Y613283D01*
X807180Y612167D01*
X806490Y610502D01*
Y608699D01*
X807180Y607033D01*
X808455Y605758D01*
X810120Y605068D01*
X811924D01*
X813589Y605758D01*
X814864Y607033D01*
X815554Y608699D01*
Y610502D01*
X814864Y612167D01*
X813748Y613283D01*
X814864Y614399D01*
X815554Y616064D01*
Y617868D01*
X814864Y619533D01*
X813875Y620522D01*
X814864Y621511D01*
X815554Y623176D01*
Y624980D01*
X814864Y626645D01*
X813589Y627920D01*
X811924Y628610D01*
D02*
G37*
G36*
X1418731Y612233D02*
X1416928D01*
X1415263Y611543D01*
X1413988Y610268D01*
X1413298Y608603D01*
Y606800D01*
X1413988Y605134D01*
X1415263Y603859D01*
X1416928Y603169D01*
X1418731D01*
X1420397Y603859D01*
X1421672Y605134D01*
X1422362Y606800D01*
Y608603D01*
X1421672Y610268D01*
X1420397Y611543D01*
X1418731Y612233D01*
D02*
G37*
G36*
X1407554Y615807D02*
X1405750D01*
X1404085Y615117D01*
X1402810Y613842D01*
X1402120Y612177D01*
Y610373D01*
X1402810Y608708D01*
X1403632Y607886D01*
X1402810Y607064D01*
X1402120Y605398D01*
Y603596D01*
X1402810Y601930D01*
X1404085Y600655D01*
X1405750Y599965D01*
X1407554D01*
X1409219Y600655D01*
X1410494Y601930D01*
X1411184Y603596D01*
Y605398D01*
X1410494Y607064D01*
X1409672Y607886D01*
X1410494Y608708D01*
X1411184Y610373D01*
Y612177D01*
X1410494Y613842D01*
X1409219Y615117D01*
X1407554Y615807D01*
D02*
G37*
G36*
X902601D02*
X900798D01*
X899133Y615117D01*
X897858Y613842D01*
X897168Y612177D01*
Y610373D01*
X897858Y608708D01*
X898680Y607886D01*
X897858Y607064D01*
X897168Y605398D01*
Y603596D01*
X897858Y601930D01*
X899133Y600655D01*
X900798Y599965D01*
X902601D01*
X904267Y600655D01*
X905542Y601930D01*
X906232Y603596D01*
Y605398D01*
X905542Y607064D01*
X904720Y607886D01*
X905542Y608708D01*
X906232Y610373D01*
Y612177D01*
X905542Y613842D01*
X904267Y615117D01*
X902601Y615807D01*
D02*
G37*
G36*
X1177176Y600924D02*
X1175372D01*
X1173707Y600234D01*
X1172432Y598959D01*
X1171742Y597294D01*
Y595490D01*
X1172432Y593825D01*
X1173707Y592550D01*
X1175372Y591860D01*
X1177176D01*
X1178841Y592550D01*
X1180116Y593825D01*
X1180806Y595490D01*
Y597294D01*
X1180116Y598959D01*
X1178841Y600234D01*
X1177176Y600924D01*
D02*
G37*
G36*
X1201695Y600618D02*
X1199893D01*
X1198227Y599928D01*
X1196952Y598653D01*
X1196262Y596987D01*
Y595185D01*
X1196952Y593519D01*
X1198227Y592244D01*
X1199893Y591554D01*
X1201695D01*
X1203361Y592244D01*
X1204636Y593519D01*
X1205326Y595185D01*
Y596987D01*
X1204636Y598653D01*
X1203361Y599928D01*
X1201695Y600618D01*
D02*
G37*
G36*
X1174635Y589748D02*
X1172832D01*
X1171167Y589058D01*
X1169892Y587783D01*
X1169202Y586118D01*
Y584314D01*
X1169892Y582649D01*
X1171167Y581374D01*
X1172832Y580684D01*
X1174635D01*
X1176301Y581374D01*
X1177576Y582649D01*
X1178266Y584314D01*
Y586118D01*
X1177576Y587783D01*
X1176301Y589058D01*
X1174635Y589748D01*
D02*
G37*
G36*
X1562747Y593812D02*
X1560945D01*
X1559279Y593122D01*
X1558004Y591847D01*
X1557314Y590182D01*
Y588378D01*
X1558004Y586713D01*
X1558993Y585724D01*
X1558004Y584735D01*
X1557314Y583069D01*
Y581267D01*
X1558004Y579601D01*
X1558866Y578739D01*
X1558004Y577877D01*
X1557314Y576212D01*
Y574408D01*
X1558004Y572743D01*
X1559279Y571468D01*
X1560945Y570778D01*
X1562747D01*
X1564413Y571468D01*
X1565688Y572743D01*
X1566378Y574408D01*
Y576212D01*
X1565688Y577877D01*
X1564826Y578739D01*
X1565688Y579601D01*
X1566378Y581267D01*
Y583069D01*
X1565688Y584735D01*
X1564699Y585724D01*
X1565688Y586713D01*
X1566378Y588378D01*
Y590182D01*
X1565688Y591847D01*
X1564413Y593122D01*
X1562747Y593812D01*
D02*
G37*
G36*
X1471039Y567867D02*
X1469236D01*
X1467571Y567177D01*
X1466296Y565902D01*
X1465606Y564237D01*
Y562434D01*
X1466296Y560768D01*
X1467571Y559493D01*
X1469236Y558803D01*
X1471039D01*
X1472705Y559493D01*
X1473980Y560768D01*
X1474670Y562434D01*
Y564237D01*
X1473980Y565902D01*
X1472705Y567177D01*
X1471039Y567867D01*
D02*
G37*
G36*
X868591Y573784D02*
X850303D01*
Y555496D01*
X868591D01*
Y573784D01*
D02*
G37*
G36*
X833051D02*
X830644D01*
X828318Y573161D01*
X826233Y571957D01*
X824530Y570254D01*
X823327Y568169D01*
X822703Y565844D01*
Y563436D01*
X823327Y561110D01*
X824530Y559025D01*
X826233Y557323D01*
X828318Y556119D01*
X830644Y555496D01*
X833051D01*
X835377Y556119D01*
X837462Y557323D01*
X839165Y559025D01*
X840368Y561110D01*
X840992Y563436D01*
Y565844D01*
X840368Y568169D01*
X839165Y570254D01*
X837462Y571957D01*
X835377Y573161D01*
X833051Y573784D01*
D02*
G37*
G36*
X805452D02*
X803044D01*
X800718Y573161D01*
X798633Y571957D01*
X796931Y570254D01*
X795727Y568169D01*
X795104Y565844D01*
Y563436D01*
X795727Y561110D01*
X796931Y559025D01*
X798633Y557323D01*
X800718Y556119D01*
X803044Y555496D01*
X805452D01*
X807777Y556119D01*
X809862Y557323D01*
X811565Y559025D01*
X812769Y561110D01*
X813392Y563436D01*
Y565844D01*
X812769Y568169D01*
X811565Y570254D01*
X809862Y571957D01*
X807777Y573161D01*
X805452Y573784D01*
D02*
G37*
G36*
X777852D02*
X775444D01*
X773119Y573161D01*
X771034Y571957D01*
X769331Y570254D01*
X768127Y568169D01*
X767504Y565844D01*
Y563436D01*
X768127Y561110D01*
X769331Y559025D01*
X771034Y557323D01*
X773119Y556119D01*
X775444Y555496D01*
X777852D01*
X780178Y556119D01*
X782263Y557323D01*
X783965Y559025D01*
X785169Y561110D01*
X785792Y563436D01*
Y565844D01*
X785169Y568169D01*
X783965Y570254D01*
X782263Y571957D01*
X780178Y573161D01*
X777852Y573784D01*
D02*
G37*
G36*
X1148474Y554188D02*
X1146671D01*
X1145005Y553498D01*
X1143730Y552223D01*
X1143040Y550558D01*
Y548755D01*
X1143730Y547089D01*
X1145005Y545814D01*
X1146671Y545124D01*
X1148474D01*
X1150139Y545814D01*
X1151414Y547089D01*
X1152104Y548755D01*
Y550558D01*
X1151414Y552223D01*
X1150139Y553498D01*
X1148474Y554188D01*
D02*
G37*
G36*
X1486797Y540718D02*
X1485099D01*
X1483529Y540068D01*
X1482944Y539483D01*
X1481949Y539037D01*
X1480953Y539483D01*
X1480368Y540068D01*
X1478799Y540718D01*
X1477100D01*
X1475531Y540068D01*
X1474945Y539482D01*
X1473949Y539037D01*
X1472953Y539482D01*
X1472367Y540068D01*
X1470798Y540718D01*
X1469099D01*
X1467530Y540068D01*
X1466945Y539483D01*
X1465949Y539037D01*
X1464954Y539483D01*
X1464369Y540068D01*
X1462799Y540718D01*
X1461101D01*
X1459531Y540068D01*
X1458330Y538867D01*
X1457680Y537297D01*
Y535599D01*
X1457828Y535242D01*
X1457100Y533718D01*
X1455531Y533068D01*
X1454945Y532481D01*
X1453949Y532037D01*
X1452953Y532481D01*
X1452367Y533068D01*
X1450798Y533718D01*
X1449099D01*
X1447530Y533068D01*
X1446329Y531866D01*
X1445679Y530297D01*
Y528598D01*
X1446329Y527029D01*
X1447530Y525828D01*
X1449099Y525178D01*
X1450798D01*
X1452367Y525828D01*
X1452953Y526414D01*
X1453949Y526859D01*
X1454945Y526414D01*
X1455531Y525828D01*
X1457100Y525178D01*
X1458799D01*
X1460368Y525828D01*
X1460953Y526413D01*
X1461949Y526859D01*
X1462944Y526413D01*
X1463529Y525828D01*
X1465099Y525178D01*
X1466797D01*
X1468367Y525828D01*
X1469568Y527029D01*
X1470218Y528598D01*
Y530297D01*
X1470070Y530654D01*
X1470798Y532178D01*
X1472367Y532828D01*
X1472953Y533414D01*
X1473949Y533859D01*
X1474945Y533414D01*
X1475531Y532828D01*
X1477100Y532178D01*
X1477828Y530654D01*
X1477680Y530297D01*
Y528598D01*
X1478330Y527029D01*
X1479531Y525828D01*
X1481101Y525178D01*
X1482799D01*
X1484369Y525828D01*
X1484955Y526414D01*
X1485950Y526859D01*
X1486946Y526414D01*
X1487532Y525828D01*
X1489102Y525178D01*
X1490800D01*
X1492370Y525828D01*
X1492955Y526413D01*
X1493950Y526859D01*
X1494946Y526413D01*
X1495531Y525828D01*
X1497100Y525178D01*
X1498799D01*
X1500368Y525828D01*
X1501569Y527029D01*
X1502220Y528598D01*
Y530297D01*
X1501569Y531866D01*
X1500368Y533068D01*
X1498799Y533718D01*
X1497100D01*
X1495531Y533068D01*
X1494946Y532483D01*
X1493950Y532037D01*
X1492955Y532483D01*
X1492370Y533068D01*
X1490800Y533718D01*
X1490070Y535242D01*
X1490218Y535599D01*
Y537297D01*
X1489568Y538867D01*
X1488367Y540068D01*
X1486797Y540718D01*
D02*
G37*
G36*
X1511493Y549025D02*
X1509902D01*
X1509109Y548867D01*
X1507639Y548258D01*
X1506967Y547809D01*
X1505842Y546684D01*
X1505393Y546012D01*
X1504784Y544541D01*
X1504626Y543749D01*
Y542157D01*
X1504784Y541365D01*
X1505393Y539894D01*
X1505842Y539222D01*
X1506967Y538097D01*
X1507639Y537648D01*
X1509109Y537039D01*
X1509902Y536881D01*
X1511493D01*
X1512286Y537039D01*
X1513756Y537648D01*
X1514429Y538097D01*
X1515554Y539222D01*
X1516003Y539894D01*
X1516612Y541364D01*
X1516770Y542157D01*
Y543749D01*
X1516612Y544541D01*
X1516003Y546012D01*
X1515554Y546684D01*
X1514429Y547809D01*
X1513756Y548258D01*
X1512286Y548867D01*
X1511493Y549025D01*
D02*
G37*
G36*
X1437993D02*
X1436402D01*
X1435609Y548867D01*
X1434139Y548258D01*
X1433467Y547809D01*
X1432342Y546684D01*
X1431893Y546012D01*
X1431284Y544541D01*
X1431126Y543749D01*
Y542157D01*
X1431284Y541365D01*
X1431893Y539894D01*
X1432342Y539222D01*
X1433467Y538097D01*
X1434139Y537648D01*
X1435609Y537039D01*
X1436402Y536881D01*
X1437993D01*
X1438786Y537039D01*
X1440256Y537648D01*
X1440928Y538097D01*
X1442054Y539222D01*
X1442503Y539894D01*
X1443112Y541364D01*
X1443270Y542157D01*
Y543749D01*
X1443112Y544541D01*
X1442503Y546012D01*
X1442054Y546684D01*
X1440929Y547809D01*
X1440257Y548258D01*
X1438786Y548867D01*
X1437993Y549025D01*
D02*
G37*
G36*
X846851Y545384D02*
X844443D01*
X842118Y544761D01*
X840033Y543557D01*
X838330Y541855D01*
X837126Y539770D01*
X836503Y537444D01*
Y535036D01*
X837126Y532711D01*
X838330Y530626D01*
X840033Y528923D01*
X842118Y527719D01*
X844443Y527096D01*
X846851D01*
X849177Y527719D01*
X851262Y528923D01*
X852964Y530626D01*
X854168Y532711D01*
X854791Y535036D01*
Y537444D01*
X854168Y539770D01*
X852964Y541855D01*
X851262Y543557D01*
X849177Y544761D01*
X846851Y545384D01*
D02*
G37*
G36*
X819251D02*
X816844D01*
X814518Y544761D01*
X812433Y543557D01*
X810731Y541855D01*
X809527Y539770D01*
X808904Y537444D01*
Y535036D01*
X809527Y532711D01*
X810731Y530626D01*
X812433Y528923D01*
X814518Y527719D01*
X816844Y527096D01*
X819251D01*
X821577Y527719D01*
X823662Y528923D01*
X825365Y530626D01*
X826569Y532711D01*
X827192Y535036D01*
Y537444D01*
X826569Y539770D01*
X825365Y541855D01*
X823662Y543557D01*
X821577Y544761D01*
X819251Y545384D01*
D02*
G37*
G36*
X791652D02*
X789244D01*
X786918Y544761D01*
X784834Y543557D01*
X783131Y541855D01*
X781927Y539770D01*
X781304Y537444D01*
Y535036D01*
X781927Y532711D01*
X783131Y530626D01*
X784834Y528923D01*
X786918Y527719D01*
X789244Y527096D01*
X791652D01*
X793978Y527719D01*
X796062Y528923D01*
X797765Y530626D01*
X798969Y532711D01*
X799592Y535036D01*
Y537444D01*
X798969Y539770D01*
X797765Y541855D01*
X796062Y543557D01*
X793978Y544761D01*
X791652Y545384D01*
D02*
G37*
G36*
X764052D02*
X761645D01*
X759319Y544761D01*
X757234Y543557D01*
X755531Y541855D01*
X754327Y539770D01*
X753704Y537444D01*
Y535036D01*
X754327Y532711D01*
X755531Y530626D01*
X757234Y528923D01*
X759319Y527719D01*
X761645Y527096D01*
X764052D01*
X766378Y527719D01*
X768463Y528923D01*
X770165Y530626D01*
X771369Y532711D01*
X771992Y535036D01*
Y537444D01*
X771369Y539770D01*
X770165Y541855D01*
X768463Y543557D01*
X766378Y544761D01*
X764052Y545384D01*
D02*
G37*
G36*
X1142377Y535646D02*
X1140574D01*
X1138909Y534956D01*
X1137634Y533681D01*
X1136944Y532015D01*
Y530213D01*
X1137634Y528547D01*
X1138909Y527272D01*
X1140574Y526582D01*
X1142377D01*
X1144043Y527272D01*
X1145318Y528547D01*
X1146008Y530213D01*
Y532015D01*
X1145318Y533681D01*
X1144043Y534956D01*
X1142377Y535646D01*
D02*
G37*
G36*
X1186066Y535138D02*
X1184262D01*
X1182597Y534448D01*
X1181322Y533173D01*
X1180632Y531507D01*
Y529705D01*
X1181322Y528039D01*
X1182597Y526764D01*
X1184262Y526074D01*
X1186066D01*
X1187731Y526764D01*
X1189006Y528039D01*
X1189696Y529705D01*
Y531507D01*
X1189006Y533173D01*
X1187731Y534448D01*
X1186066Y535138D01*
D02*
G37*
G36*
X1164221Y532598D02*
X1162419D01*
X1160753Y531908D01*
X1159478Y530633D01*
X1158788Y528968D01*
Y527164D01*
X1159478Y525499D01*
X1160753Y524224D01*
X1162419Y523534D01*
X1164221D01*
X1165887Y524224D01*
X1167162Y525499D01*
X1167852Y527164D01*
Y528968D01*
X1167162Y530633D01*
X1165887Y531908D01*
X1164221Y532598D01*
D02*
G37*
G36*
X1198750Y534281D02*
X1196978D01*
X1195265Y533822D01*
X1193730Y532936D01*
X1192476Y531682D01*
X1191590Y530147D01*
X1191131Y528434D01*
Y526662D01*
X1191590Y524949D01*
X1192476Y523414D01*
X1193730Y522160D01*
X1195265Y521274D01*
X1196978Y520815D01*
X1198750D01*
X1200463Y521274D01*
X1201998Y522160D01*
X1203252Y523414D01*
X1204138Y524949D01*
X1204597Y526662D01*
Y528434D01*
X1204138Y530147D01*
X1203252Y531682D01*
X1201998Y532936D01*
X1200463Y533822D01*
X1198750Y534281D01*
D02*
G37*
G36*
X1122550Y524131D02*
X1120778D01*
X1119065Y523672D01*
X1117530Y522786D01*
X1116276Y521532D01*
X1115390Y519997D01*
X1114931Y518284D01*
Y516512D01*
X1115390Y514799D01*
X1116276Y513264D01*
X1117530Y512010D01*
X1119065Y511124D01*
X1120778Y510665D01*
X1122550D01*
X1124263Y511124D01*
X1125798Y512010D01*
X1127052Y513264D01*
X1127938Y514799D01*
X1128397Y516512D01*
Y518284D01*
X1127938Y519997D01*
X1127052Y521532D01*
X1125798Y522786D01*
X1124263Y523672D01*
X1122550Y524131D01*
D02*
G37*
G36*
X915151Y514969D02*
X913348D01*
X911682Y514279D01*
X910407Y513004D01*
X909717Y511338D01*
Y509535D01*
X910407Y507869D01*
X911682Y506595D01*
X913348Y505905D01*
X915151D01*
X916817Y506595D01*
X918092Y507869D01*
X918781Y509535D01*
Y511338D01*
X918092Y513004D01*
X916817Y514279D01*
X915151Y514969D01*
D02*
G37*
G36*
X1146949Y510246D02*
X1145146D01*
X1143481Y509556D01*
X1142206Y508281D01*
X1141516Y506615D01*
Y504813D01*
X1142206Y503147D01*
X1143481Y501872D01*
X1145146Y501182D01*
X1146949D01*
X1148615Y501872D01*
X1149890Y503147D01*
X1150580Y504813D01*
Y506615D01*
X1149890Y508281D01*
X1148615Y509556D01*
X1146949Y510246D01*
D02*
G37*
G36*
X1173365Y509738D02*
X1171562D01*
X1169897Y509048D01*
X1168622Y507773D01*
X1167932Y506107D01*
Y504305D01*
X1168622Y502639D01*
X1169897Y501364D01*
X1171562Y500674D01*
X1173365D01*
X1175031Y501364D01*
X1176306Y502639D01*
X1176996Y504305D01*
Y506107D01*
X1176306Y507773D01*
X1175031Y509048D01*
X1173365Y509738D01*
D02*
G37*
G36*
X1198750Y513981D02*
X1196978D01*
X1195265Y513522D01*
X1193730Y512636D01*
X1192476Y511382D01*
X1191590Y509847D01*
X1191131Y508134D01*
Y506362D01*
X1191590Y504649D01*
X1192476Y503114D01*
X1193730Y501860D01*
X1195265Y500974D01*
X1196978Y500515D01*
X1198750D01*
X1200463Y500974D01*
X1201998Y501860D01*
X1203252Y503114D01*
X1204138Y504649D01*
X1204597Y506362D01*
Y508134D01*
X1204138Y509847D01*
X1203252Y511382D01*
X1201998Y512636D01*
X1200463Y513522D01*
X1198750Y513981D01*
D02*
G37*
G36*
X1135266Y507960D02*
X1133463D01*
X1131797Y507270D01*
X1130522Y505995D01*
X1129832Y504329D01*
Y502527D01*
X1130522Y500861D01*
X1131797Y499586D01*
X1133463Y498896D01*
X1135266D01*
X1136931Y499586D01*
X1138206Y500861D01*
X1138896Y502527D01*
Y504329D01*
X1138206Y505995D01*
X1136931Y507270D01*
X1135266Y507960D01*
D02*
G37*
G36*
X591802Y505344D02*
X589999D01*
X588333Y504654D01*
X587058Y503379D01*
X586368Y501713D01*
Y499910D01*
X587058Y498244D01*
X588333Y496969D01*
X589999Y496280D01*
X591802D01*
X593468Y496969D01*
X594743Y498244D01*
X595433Y499910D01*
Y501713D01*
X594743Y503379D01*
X593468Y504654D01*
X591802Y505344D01*
D02*
G37*
G36*
X579102D02*
X577299D01*
X575633Y504654D01*
X574358Y503379D01*
X573669Y501713D01*
Y499910D01*
X574358Y498244D01*
X575633Y496969D01*
X577299Y496280D01*
X579102D01*
X580768Y496969D01*
X582043Y498244D01*
X582733Y499910D01*
Y501713D01*
X582043Y503379D01*
X580768Y504654D01*
X579102Y505344D01*
D02*
G37*
G36*
X566402D02*
X564599D01*
X562933Y504654D01*
X561659Y503379D01*
X560969Y501713D01*
Y499910D01*
X561659Y498244D01*
X562933Y496969D01*
X564599Y496280D01*
X566402D01*
X568068Y496969D01*
X569343Y498244D01*
X570033Y499910D01*
Y501713D01*
X569343Y503379D01*
X568068Y504654D01*
X566402Y505344D01*
D02*
G37*
G36*
X553702D02*
X551899D01*
X550233Y504654D01*
X548959Y503379D01*
X548269Y501713D01*
Y499910D01*
X548959Y498244D01*
X550233Y496969D01*
X551899Y496280D01*
X553702D01*
X555368Y496969D01*
X556643Y498244D01*
X557332Y499910D01*
Y501713D01*
X556643Y503379D01*
X555368Y504654D01*
X553702Y505344D01*
D02*
G37*
G36*
X528383Y505035D02*
X526580D01*
X524915Y504345D01*
X523640Y503070D01*
X522950Y501405D01*
Y499602D01*
X523640Y497936D01*
X524915Y496661D01*
X526580Y495971D01*
X528383D01*
X530049Y496661D01*
X531324Y497936D01*
X532014Y499602D01*
Y501405D01*
X531324Y503070D01*
X530049Y504345D01*
X528383Y505035D01*
D02*
G37*
G36*
X515892Y504429D02*
X514089D01*
X512424Y503739D01*
X511149Y502464D01*
X510459Y500798D01*
Y498995D01*
X511149Y497330D01*
X512424Y496055D01*
X514089Y495365D01*
X515892D01*
X517558Y496055D01*
X518833Y497330D01*
X519523Y498995D01*
Y500798D01*
X518833Y502464D01*
X517558Y503739D01*
X515892Y504429D01*
D02*
G37*
G36*
X604388Y504156D02*
X602585D01*
X600919Y503466D01*
X599645Y502191D01*
X598955Y500525D01*
Y498722D01*
X599645Y497057D01*
X600919Y495782D01*
X602585Y495092D01*
X604388D01*
X606054Y495782D01*
X607329Y497057D01*
X608018Y498722D01*
Y500525D01*
X607329Y502191D01*
X606054Y503466D01*
X604388Y504156D01*
D02*
G37*
G36*
X540753Y504126D02*
X538950D01*
X537285Y503436D01*
X536010Y502161D01*
X535320Y500495D01*
Y498692D01*
X536010Y497026D01*
X537285Y495752D01*
X538950Y495062D01*
X540753D01*
X542419Y495752D01*
X543694Y497026D01*
X544384Y498692D01*
Y500495D01*
X543694Y502161D01*
X542419Y503436D01*
X540753Y504126D01*
D02*
G37*
G36*
X249569Y832318D02*
X247766D01*
X246101Y831628D01*
X244826Y830353D01*
X244136Y828688D01*
Y827492D01*
X243447D01*
X241781Y826802D01*
X240506Y825527D01*
X239816Y823861D01*
Y822058D01*
X240506Y820393D01*
X241781Y819118D01*
X243447Y818428D01*
X245250D01*
X246915Y819118D01*
X248190Y820393D01*
X248880Y822058D01*
Y823254D01*
X249569D01*
X251235Y823944D01*
X252510Y825219D01*
X253200Y826885D01*
Y828688D01*
X252510Y830353D01*
X251235Y831628D01*
X249569Y832318D01*
D02*
G37*
G36*
X223913Y822412D02*
X222111D01*
X220445Y821722D01*
X219170Y820447D01*
X218480Y818782D01*
Y816979D01*
X219170Y815313D01*
X220445Y814038D01*
X222111Y813348D01*
X223913D01*
X225579Y814038D01*
X226854Y815313D01*
X227544Y816979D01*
Y818782D01*
X226854Y820447D01*
X225579Y821722D01*
X223913Y822412D01*
D02*
G37*
G36*
X155333Y808442D02*
X153531D01*
X151865Y807752D01*
X151130Y807017D01*
X150395Y807752D01*
X148729Y808442D01*
X146926D01*
X145261Y807752D01*
X144653Y807144D01*
X144045Y807752D01*
X142380Y808442D01*
X140576D01*
X138911Y807752D01*
X137636Y806477D01*
X136946Y804811D01*
Y803008D01*
X137636Y801343D01*
X138911Y800068D01*
X140576Y799378D01*
X142380D01*
X144045Y800068D01*
X144653Y800676D01*
X145261Y800068D01*
X146926Y799378D01*
X148729D01*
X150395Y800068D01*
X151130Y800803D01*
X151865Y800068D01*
X153531Y799378D01*
X155333D01*
X156999Y800068D01*
X158274Y801343D01*
X158964Y803008D01*
Y804811D01*
X158274Y806477D01*
X156999Y807752D01*
X155333Y808442D01*
D02*
G37*
G36*
X185814Y815949D02*
X184011D01*
X182345Y815259D01*
X181070Y813984D01*
X180380Y812318D01*
Y810516D01*
X181070Y808850D01*
X182345Y807575D01*
X184011Y806885D01*
X185814D01*
X187479Y807575D01*
X188754Y808850D01*
X189444Y810516D01*
Y812318D01*
X188754Y813984D01*
X187479Y815259D01*
X185814Y815949D01*
D02*
G37*
G36*
X181241Y805902D02*
X179438D01*
X177773Y805212D01*
X176911Y804350D01*
X176049Y805212D01*
X174384Y805902D01*
X172581D01*
X170915Y805212D01*
X169640Y803937D01*
X168950Y802271D01*
Y800469D01*
X169640Y798803D01*
X170915Y797528D01*
X172581Y796838D01*
X174384D01*
X176049Y797528D01*
X176911Y798390D01*
X177773Y797528D01*
X179438Y796838D01*
X181241D01*
X182907Y797528D01*
X184182Y798803D01*
X184872Y800469D01*
Y802271D01*
X184182Y803937D01*
X182907Y805212D01*
X181241Y805902D01*
D02*
G37*
G36*
X269634Y803108D02*
X267831D01*
X266165Y802418D01*
X264890Y801143D01*
X264200Y799477D01*
Y797674D01*
X264890Y796009D01*
X266165Y794734D01*
X267831Y794044D01*
X269634D01*
X271299Y794734D01*
X272574Y796009D01*
X273264Y797674D01*
Y799477D01*
X272574Y801143D01*
X271299Y802418D01*
X269634Y803108D01*
D02*
G37*
G36*
X263792Y780502D02*
X261989D01*
X260323Y779812D01*
X259048Y778537D01*
X258358Y776871D01*
Y775069D01*
X259048Y773403D01*
X260323Y772128D01*
X261989Y771438D01*
X263792D01*
X265457Y772128D01*
X266732Y773403D01*
X267422Y775069D01*
Y776871D01*
X266732Y778537D01*
X265457Y779812D01*
X263792Y780502D01*
D02*
G37*
G36*
X237122Y775168D02*
X235319D01*
X233653Y774478D01*
X232378Y773203D01*
X231688Y771537D01*
Y769734D01*
X232378Y768069D01*
X233653Y766794D01*
X235319Y766104D01*
X237122D01*
X238787Y766794D01*
X240062Y768069D01*
X240752Y769734D01*
Y771537D01*
X240062Y773203D01*
X238787Y774478D01*
X237122Y775168D01*
D02*
G37*
G36*
X212484Y773898D02*
X210681D01*
X209015Y773208D01*
X207740Y771933D01*
X207050Y770267D01*
Y768465D01*
X207740Y766799D01*
X209015Y765524D01*
X210681Y764834D01*
X212484D01*
X214149Y765524D01*
X215424Y766799D01*
X216114Y768465D01*
Y770267D01*
X215424Y771933D01*
X214149Y773208D01*
X212484Y773898D01*
D02*
G37*
G36*
X384845Y609030D02*
X382504D01*
X380243Y608424D01*
X378216Y607254D01*
X376561Y605599D01*
X375391Y603572D01*
X374785Y601311D01*
Y598970D01*
X375391Y596709D01*
X376561Y594682D01*
X378216Y593026D01*
X380243Y591856D01*
X382504Y591250D01*
X384845D01*
X387106Y591856D01*
X389133Y593026D01*
X390788Y594682D01*
X391959Y596709D01*
X392565Y598970D01*
Y601311D01*
X391959Y603572D01*
X390788Y605599D01*
X389133Y607254D01*
X387106Y608424D01*
X384845Y609030D01*
D02*
G37*
G36*
X361944D02*
X359604D01*
X357343Y608424D01*
X355315Y607254D01*
X353660Y605599D01*
X352490Y603572D01*
X351884Y601311D01*
Y598970D01*
X352490Y596709D01*
X353660Y594682D01*
X355315Y593026D01*
X357343Y591856D01*
X359604Y591250D01*
X361944D01*
X364205Y591856D01*
X366233Y593026D01*
X367888Y594682D01*
X369058Y596709D01*
X369664Y598970D01*
Y601311D01*
X369058Y603572D01*
X367888Y605599D01*
X366233Y607254D01*
X364205Y608424D01*
X361944Y609030D01*
D02*
G37*
G36*
X270545D02*
X268204D01*
X265943Y608424D01*
X263916Y607254D01*
X262261Y605599D01*
X261091Y603572D01*
X260485Y601311D01*
Y598970D01*
X261091Y596709D01*
X262261Y594682D01*
X263916Y593026D01*
X265943Y591856D01*
X268204Y591250D01*
X270545D01*
X272806Y591856D01*
X274833Y593026D01*
X276488Y594682D01*
X277659Y596709D01*
X278265Y598970D01*
Y601311D01*
X277659Y603572D01*
X276488Y605599D01*
X274833Y607254D01*
X272806Y608424D01*
X270545Y609030D01*
D02*
G37*
G36*
X247644D02*
X245304D01*
X243043Y608424D01*
X241015Y607254D01*
X239360Y605599D01*
X238190Y603572D01*
X237584Y601311D01*
Y598970D01*
X238190Y596709D01*
X239360Y594682D01*
X241015Y593026D01*
X243043Y591856D01*
X245304Y591250D01*
X247644D01*
X249905Y591856D01*
X251933Y593026D01*
X253588Y594682D01*
X254758Y596709D01*
X255364Y598970D01*
Y601311D01*
X254758Y603572D01*
X253588Y605599D01*
X251933Y607254D01*
X249905Y608424D01*
X247644Y609030D01*
D02*
G37*
G36*
X112408Y583144D02*
X110604D01*
X108939Y582454D01*
X107664Y581179D01*
X106974Y579514D01*
Y577710D01*
X107664Y576045D01*
X108939Y574770D01*
X110604Y574080D01*
X112408D01*
X114073Y574770D01*
X115348Y576045D01*
X116038Y577710D01*
Y579514D01*
X115348Y581179D01*
X114073Y582454D01*
X112408Y583144D01*
D02*
G37*
G36*
X233057Y580350D02*
X231255D01*
X229589Y579660D01*
X228314Y578385D01*
X227624Y576720D01*
Y574916D01*
X228314Y573251D01*
X229589Y571976D01*
X231255Y571286D01*
X233057D01*
X234723Y571976D01*
X235998Y573251D01*
X236688Y574916D01*
Y576720D01*
X235998Y578385D01*
X234723Y579660D01*
X233057Y580350D01*
D02*
G37*
G36*
X143736Y556982D02*
X141933D01*
X140268Y556292D01*
X138993Y555017D01*
X138303Y553352D01*
Y551549D01*
X138993Y549883D01*
X140268Y548608D01*
X141933Y547918D01*
X143736D01*
X145402Y548608D01*
X146677Y549883D01*
X147367Y551549D01*
Y553352D01*
X146677Y555017D01*
X145402Y556292D01*
X143736Y556982D01*
D02*
G37*
G36*
X341744Y560930D02*
X339403D01*
X337142Y560324D01*
X335115Y559154D01*
X333460Y557499D01*
X332289Y555472D01*
X331683Y553211D01*
Y550870D01*
X332289Y548609D01*
X333460Y546582D01*
X335115Y544926D01*
X337142Y543756D01*
X339403Y543150D01*
X341744D01*
X344005Y543756D01*
X346032Y544926D01*
X347687Y546582D01*
X348857Y548609D01*
X349463Y550870D01*
Y553211D01*
X348857Y555472D01*
X347687Y557499D01*
X346032Y559154D01*
X344005Y560324D01*
X341744Y560930D01*
D02*
G37*
G36*
X321345D02*
X319004D01*
X316743Y560324D01*
X314716Y559154D01*
X313061Y557499D01*
X311891Y555472D01*
X311285Y553211D01*
Y550870D01*
X311891Y548609D01*
X313061Y546582D01*
X314716Y544926D01*
X316743Y543756D01*
X319004Y543150D01*
X321345D01*
X323606Y543756D01*
X325633Y544926D01*
X327288Y546582D01*
X328459Y548609D01*
X329065Y550870D01*
Y553211D01*
X328459Y555472D01*
X327288Y557499D01*
X325633Y559154D01*
X323606Y560324D01*
X321345Y560930D01*
D02*
G37*
G36*
X300944D02*
X298603D01*
X296342Y560324D01*
X294315Y559154D01*
X292660Y557499D01*
X291489Y555472D01*
X290883Y553211D01*
Y550870D01*
X291489Y548609D01*
X292660Y546582D01*
X294315Y544926D01*
X296342Y543756D01*
X298603Y543150D01*
X300944D01*
X303205Y543756D01*
X305232Y544926D01*
X306887Y546582D01*
X308057Y548609D01*
X308663Y550870D01*
Y553211D01*
X308057Y555472D01*
X306887Y557499D01*
X305232Y559154D01*
X303205Y560324D01*
X300944Y560930D01*
D02*
G37*
G36*
X280545D02*
X278204D01*
X275943Y560324D01*
X273916Y559154D01*
X272261Y557499D01*
X271090Y555472D01*
X270485Y553211D01*
Y550870D01*
X271090Y548609D01*
X272261Y546582D01*
X273916Y544926D01*
X275943Y543756D01*
X278204Y543150D01*
X280545D01*
X282806Y543756D01*
X284833Y544926D01*
X286488Y546582D01*
X287659Y548609D01*
X288265Y550870D01*
Y553211D01*
X287659Y555472D01*
X286488Y557499D01*
X284833Y559154D01*
X282806Y560324D01*
X280545Y560930D01*
D02*
G37*
G36*
X351944Y543130D02*
X349604D01*
X347343Y542524D01*
X345315Y541354D01*
X343660Y539698D01*
X342490Y537671D01*
X341884Y535410D01*
Y533069D01*
X342490Y530808D01*
X343660Y528781D01*
X345315Y527126D01*
X347343Y525956D01*
X349604Y525350D01*
X351944D01*
X354205Y525956D01*
X356233Y527126D01*
X357888Y528781D01*
X359058Y530808D01*
X359664Y533069D01*
Y535410D01*
X359058Y537671D01*
X357888Y539698D01*
X356233Y541354D01*
X354205Y542524D01*
X351944Y543130D01*
D02*
G37*
G36*
X331546D02*
X329205D01*
X326944Y542524D01*
X324917Y541354D01*
X323261Y539698D01*
X322091Y537671D01*
X321485Y535410D01*
Y533069D01*
X322091Y530808D01*
X323261Y528781D01*
X324917Y527126D01*
X326944Y525956D01*
X329205Y525350D01*
X331546D01*
X333807Y525956D01*
X335834Y527126D01*
X337489Y528781D01*
X338659Y530808D01*
X339265Y533069D01*
Y535410D01*
X338659Y537671D01*
X337489Y539698D01*
X335834Y541354D01*
X333807Y542524D01*
X331546Y543130D01*
D02*
G37*
G36*
X311144D02*
X308804D01*
X306543Y542524D01*
X304515Y541354D01*
X302860Y539698D01*
X301690Y537671D01*
X301084Y535410D01*
Y533069D01*
X301690Y530808D01*
X302860Y528781D01*
X304515Y527126D01*
X306543Y525956D01*
X308804Y525350D01*
X311144D01*
X313405Y525956D01*
X315433Y527126D01*
X317088Y528781D01*
X318258Y530808D01*
X318864Y533069D01*
Y535410D01*
X318258Y537671D01*
X317088Y539698D01*
X315433Y541354D01*
X313405Y542524D01*
X311144Y543130D01*
D02*
G37*
G36*
X290746D02*
X288405D01*
X286144Y542524D01*
X284117Y541354D01*
X282461Y539698D01*
X281291Y537671D01*
X280685Y535410D01*
Y533069D01*
X281291Y530808D01*
X282461Y528781D01*
X284117Y527126D01*
X286144Y525956D01*
X288405Y525350D01*
X290746D01*
X293007Y525956D01*
X295034Y527126D01*
X296689Y528781D01*
X297859Y530808D01*
X298465Y533069D01*
Y535410D01*
X297859Y537671D01*
X296689Y539698D01*
X295034Y541354D01*
X293007Y542524D01*
X290746Y543130D01*
D02*
G37*
G36*
X380199Y527412D02*
X376949D01*
X376749Y527372D01*
X376545D01*
X373357Y526738D01*
X373169Y526660D01*
X372968Y526620D01*
X369966Y525376D01*
X369796Y525263D01*
X369608Y525185D01*
X366905Y523379D01*
X366761Y523235D01*
X366591Y523121D01*
X364293Y520823D01*
X364179Y520653D01*
X364035Y520509D01*
X362229Y517807D01*
X362151Y517618D01*
X362038Y517448D01*
X360794Y514446D01*
X360754Y514245D01*
X360676Y514057D01*
X360042Y510869D01*
Y510665D01*
X360002Y510465D01*
Y507215D01*
X360042Y507015D01*
Y506810D01*
X360676Y503623D01*
X360754Y503434D01*
X360794Y503234D01*
X362038Y500231D01*
X362151Y500062D01*
X362229Y499873D01*
X364035Y497171D01*
X364179Y497026D01*
X364293Y496857D01*
X366591Y494558D01*
X366761Y494445D01*
X366905Y494301D01*
X369608Y492495D01*
X369796Y492417D01*
X369966Y492304D01*
X372968Y491060D01*
X373169Y491020D01*
X373357Y490942D01*
X376545Y490308D01*
X376749D01*
X376949Y490268D01*
X380199D01*
X380400Y490308D01*
X380604D01*
X383791Y490942D01*
X383980Y491020D01*
X384180Y491060D01*
X387183Y492304D01*
X387352Y492417D01*
X387541Y492495D01*
X390243Y494301D01*
X390388Y494445D01*
X390558Y494558D01*
X392856Y496857D01*
X392969Y497026D01*
X393113Y497171D01*
X394919Y499873D01*
X394997Y500062D01*
X395111Y500231D01*
X396354Y503234D01*
X396394Y503434D01*
X396472Y503623D01*
X397106Y506810D01*
Y507015D01*
X397146Y507215D01*
Y510465D01*
X397106Y510665D01*
Y510869D01*
X396472Y514057D01*
X396394Y514245D01*
X396354Y514446D01*
X395111Y517448D01*
X394997Y517618D01*
X394919Y517807D01*
X393113Y520509D01*
X392969Y520653D01*
X392856Y520823D01*
X390558Y523121D01*
X390388Y523235D01*
X390243Y523379D01*
X387541Y525185D01*
X387352Y525263D01*
X387183Y525376D01*
X384180Y526620D01*
X383980Y526660D01*
X383791Y526738D01*
X380604Y527372D01*
X380400D01*
X380199Y527412D01*
D02*
G37*
G36*
X253199D02*
X249949D01*
X249749Y527372D01*
X249545D01*
X246357Y526738D01*
X246169Y526660D01*
X245968Y526620D01*
X242966Y525376D01*
X242796Y525263D01*
X242607Y525185D01*
X239905Y523379D01*
X239761Y523235D01*
X239591Y523121D01*
X237293Y520823D01*
X237179Y520653D01*
X237035Y520509D01*
X235229Y517807D01*
X235151Y517618D01*
X235038Y517448D01*
X233794Y514446D01*
X233754Y514245D01*
X233676Y514057D01*
X233042Y510869D01*
Y510665D01*
X233002Y510465D01*
Y507215D01*
X233042Y507015D01*
Y506810D01*
X233676Y503623D01*
X233754Y503434D01*
X233794Y503234D01*
X235038Y500231D01*
X235151Y500062D01*
X235229Y499873D01*
X237035Y497171D01*
X237180Y497026D01*
X237293Y496857D01*
X239591Y494558D01*
X239761Y494445D01*
X239905Y494301D01*
X242607Y492495D01*
X242796Y492417D01*
X242966Y492304D01*
X245968Y491060D01*
X246169Y491020D01*
X246357Y490942D01*
X249545Y490308D01*
X249749D01*
X249949Y490268D01*
X253199D01*
X253400Y490308D01*
X253604D01*
X256791Y490942D01*
X256980Y491020D01*
X257180Y491060D01*
X260183Y492304D01*
X260352Y492417D01*
X260541Y492495D01*
X263244Y494301D01*
X263388Y494445D01*
X263557Y494558D01*
X265856Y496857D01*
X265969Y497026D01*
X266113Y497171D01*
X267919Y499873D01*
X267997Y500062D01*
X268111Y500231D01*
X269354Y503234D01*
X269394Y503434D01*
X269472Y503623D01*
X270106Y506810D01*
Y507015D01*
X270146Y507215D01*
Y510465D01*
X270106Y510665D01*
Y510869D01*
X269472Y514057D01*
X269394Y514245D01*
X269354Y514446D01*
X268111Y517448D01*
X267997Y517618D01*
X267919Y517807D01*
X266113Y520509D01*
X265969Y520653D01*
X265856Y520823D01*
X263557Y523121D01*
X263388Y523235D01*
X263244Y523379D01*
X260541Y525185D01*
X260352Y525263D01*
X260183Y525376D01*
X257180Y526620D01*
X256980Y526660D01*
X256791Y526738D01*
X253604Y527372D01*
X253400D01*
X253199Y527412D01*
D02*
G37*
%LPD*%
D27*
X1560068Y1019556D02*
G03*
X1561338Y1018286I1270J0D01*
G01*
D206*
X1740538Y511940D02*
D03*
X1747567Y528910D02*
D03*
Y494969D02*
D03*
X1764538Y535940D02*
D03*
Y487940D02*
D03*
X1781509Y528910D02*
D03*
Y494969D02*
D03*
X1788538Y511940D02*
D03*
X104538Y1297940D02*
D03*
X111567Y1314911D02*
D03*
Y1280969D02*
D03*
X128538Y1321940D02*
D03*
Y1273940D02*
D03*
X145508Y1314911D02*
D03*
Y1280969D02*
D03*
X152538Y1297940D02*
D03*
X104538Y511940D02*
D03*
X111567Y528910D02*
D03*
Y494969D02*
D03*
X128538Y535940D02*
D03*
Y487940D02*
D03*
X145508Y528910D02*
D03*
Y494969D02*
D03*
X152538Y511940D02*
D03*
X1788538Y1297940D02*
D03*
X1781509Y1280969D02*
D03*
Y1314911D02*
D03*
X1764538Y1273940D02*
D03*
Y1321940D02*
D03*
X1747567Y1280969D02*
D03*
Y1314911D02*
D03*
X1740538Y1297940D02*
D03*
D207*
X1764538Y511940D02*
D03*
X128538Y1297940D02*
D03*
Y511940D02*
D03*
X1764538Y1297940D02*
D03*
D208*
X1756156Y1081631D02*
Y1081786D01*
D236*
X481425Y1266419D02*
D03*
X531425D02*
D03*
X558317Y995680D02*
D03*
X593319D02*
D03*
D237*
X196088Y1087627D02*
D03*
X196087Y1189227D02*
D03*
X335788D02*
D03*
X386587D02*
D03*
X500887D02*
D03*
X551688D02*
D03*
Y1087627D02*
D03*
X500887D02*
D03*
X386587D02*
D03*
X335788D02*
D03*
D238*
X233774Y544440D02*
D03*
X396375D02*
D03*
X670127Y1254760D02*
D03*
X720128D02*
D03*
X1436116D02*
D03*
X1486116D02*
D03*
X1330452D02*
D03*
X311658D02*
D03*
X1226490D02*
D03*
X1176490D02*
D03*
X1126490D02*
D03*
X873214D02*
D03*
X1023214D02*
D03*
X973214D02*
D03*
X923214D02*
D03*
X823214D02*
D03*
D239*
X383675Y600140D02*
D03*
X360774D02*
D03*
X269375D02*
D03*
X246474D02*
D03*
X279375Y552040D02*
D03*
X289575Y534240D02*
D03*
X299773Y552040D02*
D03*
X309974Y534240D02*
D03*
X320175Y552040D02*
D03*
X330375Y534240D02*
D03*
X340573Y552040D02*
D03*
X350774Y534240D02*
D03*
D240*
X770127Y1254760D02*
D03*
X1536116D02*
D03*
X1380452D02*
D03*
X361658D02*
D03*
X1276490D02*
D03*
X1073214D02*
D03*
D241*
X804248Y564640D02*
D03*
X831848D02*
D03*
X776648D02*
D03*
X749048D02*
D03*
X845647Y536240D02*
D03*
X818048D02*
D03*
X790448D02*
D03*
X762848D02*
D03*
D242*
X679249Y550441D02*
D03*
X929249D02*
D03*
D243*
X859447Y564640D02*
D03*
D244*
X1440673Y1066241D02*
D03*
X1562675Y1186236D02*
D03*
Y1066236D02*
D03*
X1582675Y1126236D02*
D03*
X1440673Y1186231D02*
D03*
D245*
X1429047Y486547D02*
D03*
X1518849D02*
D03*
X1432649Y530448D02*
D03*
X1515247D02*
D03*
D246*
X1469948Y536448D02*
D03*
X1477950D02*
D03*
X1461950D02*
D03*
X1485948D02*
D03*
X1465948Y529448D02*
D03*
X1481950D02*
D03*
X1457950D02*
D03*
X1489951D02*
D03*
X1449949D02*
D03*
X1497950D02*
D03*
X1501947Y536448D02*
D03*
X1445948D02*
D03*
D247*
X1760474Y1201166D02*
D03*
X1770634Y1150366D02*
D03*
X1750314D02*
D03*
X1121664Y517398D02*
D03*
X1197864Y507248D02*
D03*
Y527548D02*
D03*
D248*
X1736955Y1101656D02*
D03*
X1430588Y563798D02*
D03*
X1448310Y580579D02*
D03*
X1518457Y569330D02*
D03*
X1561760Y530905D02*
D03*
X1640865Y972693D02*
D03*
X1655080Y972738D02*
D03*
X1654851Y945611D02*
D03*
X1640754Y958946D02*
D03*
X1654851Y959099D02*
D03*
X1640830Y944773D02*
D03*
X888468Y977956D02*
D03*
X847563Y981730D02*
D03*
X836717Y917519D02*
D03*
X838745Y883793D02*
D03*
X839508Y868553D02*
D03*
Y853313D02*
D03*
X527574Y924326D02*
D03*
X458282Y863686D02*
D03*
X325821Y904489D02*
D03*
X325519Y879809D02*
D03*
X359487Y883823D02*
D03*
X354549Y855010D02*
D03*
X377917Y806216D02*
D03*
X399253Y803092D02*
D03*
X446903Y787318D02*
D03*
X623357Y759734D02*
D03*
X649036Y791713D02*
D03*
X700852Y766414D02*
D03*
X991362Y830580D02*
D03*
X790319Y765813D02*
D03*
X789761Y830278D02*
D03*
X785443Y789257D02*
D03*
X589864Y758469D02*
D03*
X536296Y793394D02*
D03*
X472146Y998109D02*
D03*
X643001Y1279652D02*
D03*
X1579733Y901143D02*
D03*
X1251145Y881474D02*
D03*
X1245684Y878614D02*
D03*
X1245464Y885139D02*
D03*
X750545Y832968D02*
D03*
X983418Y631992D02*
D03*
X1043686Y669036D02*
D03*
X1177696Y966724D02*
D03*
X1199957Y966601D02*
D03*
X1244597Y918286D02*
D03*
X642772Y779221D02*
D03*
X865766Y787502D02*
D03*
X904494Y727202D02*
D03*
X917448Y726948D02*
D03*
X527507Y727634D02*
D03*
X607339Y733933D02*
D03*
X601624Y764337D02*
D03*
X615467Y772744D02*
D03*
X1151966Y901624D02*
D03*
X1162199Y895478D02*
D03*
X1156716Y848868D02*
D03*
X1150704Y849068D02*
D03*
X1286510Y839978D02*
D03*
X1219022Y976503D02*
D03*
X1057707Y753796D02*
D03*
X485083Y1059791D02*
D03*
X343840Y1064920D02*
D03*
X531089Y1252982D02*
D03*
X538614D02*
D03*
X523994D02*
D03*
X533146Y1297280D02*
D03*
X540672D02*
D03*
X526051D02*
D03*
X532917Y1290091D02*
D03*
X540443D02*
D03*
X525823D02*
D03*
X184937Y1255547D02*
D03*
Y1248855D02*
D03*
Y1241330D02*
D03*
X191491Y1255624D02*
D03*
Y1248932D02*
D03*
Y1241406D02*
D03*
X208102Y1259764D02*
D03*
Y1247775D02*
D03*
Y1235100D02*
D03*
X156413Y1222604D02*
D03*
X206607Y1222248D02*
D03*
X253111Y1309911D02*
D03*
X1312697Y1193444D02*
D03*
X1398016Y1151700D02*
D03*
X1382146D02*
D03*
X1335205Y1227920D02*
D03*
X1353517Y1230618D02*
D03*
X1372986Y1230826D02*
D03*
X1392686Y1082736D02*
D03*
X1392941Y1097976D02*
D03*
Y1121062D02*
D03*
Y1136940D02*
D03*
X1392686Y1067308D02*
D03*
X1201241Y759193D02*
D03*
X1216643Y778764D02*
D03*
X1202947Y738500D02*
D03*
X467702Y1272881D02*
D03*
X412242Y576326D02*
D03*
X232156Y575818D02*
D03*
X525798Y1283030D02*
D03*
X142835Y552450D02*
D03*
X158539Y1254756D02*
D03*
X165481Y1254633D02*
D03*
X172757Y1254771D02*
D03*
X158285Y1248406D02*
D03*
X172503Y1248421D02*
D03*
X158285Y1241802D02*
D03*
X165227Y1241679D02*
D03*
Y1248283D02*
D03*
X172503Y1241817D02*
D03*
X1742694Y1132332D02*
D03*
X1735190Y1132044D02*
D03*
X1737222Y1072354D02*
D03*
X1736460Y1051780D02*
D03*
X1670821Y1058411D02*
D03*
X1671436Y1051272D02*
D03*
X986764Y985930D02*
D03*
X1017656Y993937D02*
D03*
X986922Y1001581D02*
D03*
X1092200Y1018286D02*
D03*
X1077214Y1019302D02*
D03*
X1062482Y1018794D02*
D03*
X1037336Y1016000D02*
D03*
X1037082Y1009142D02*
D03*
X243456Y1109117D02*
D03*
X243269Y1116121D02*
D03*
Y1123233D02*
D03*
X250381Y1123487D02*
D03*
Y1116375D02*
D03*
X250568Y1109371D02*
D03*
X101279Y994518D02*
D03*
X101092Y1001522D02*
D03*
Y1008634D02*
D03*
X108204Y1008888D02*
D03*
Y1001776D02*
D03*
X108391Y994772D02*
D03*
X726491Y608559D02*
D03*
X733495Y608745D02*
D03*
X740607D02*
D03*
X740861Y601633D02*
D03*
X733749D02*
D03*
X726745Y601447D02*
D03*
X736200Y502987D02*
D03*
X743204Y503174D02*
D03*
X750316D02*
D03*
X750570Y496062D02*
D03*
X743458D02*
D03*
X736454Y495875D02*
D03*
X474783Y1254192D02*
D03*
X481787Y1254379D02*
D03*
X488899D02*
D03*
X489153Y1247267D02*
D03*
X482041D02*
D03*
X475037Y1247080D02*
D03*
X828910Y1144337D02*
D03*
X835914Y1144524D02*
D03*
X843026D02*
D03*
X843280Y1137412D02*
D03*
X836168D02*
D03*
X829164Y1137225D02*
D03*
X1680572Y677231D02*
D03*
X1687576Y677418D02*
D03*
X1694688D02*
D03*
X1694942Y670306D02*
D03*
X1687830D02*
D03*
X1680826Y670119D02*
D03*
X1765408Y834457D02*
D03*
X1772412Y834644D02*
D03*
X1779524D02*
D03*
X1779778Y827532D02*
D03*
X1772666D02*
D03*
X1765662Y827345D02*
D03*
X1557668Y821330D02*
D03*
X1564673Y821517D02*
D03*
X1571785D02*
D03*
X1572039Y814405D02*
D03*
X1564926D02*
D03*
X1557922Y814218D02*
D03*
X1131316Y627137D02*
D03*
X1408679Y595963D02*
D03*
X1414526Y617220D02*
D03*
X848094Y633270D02*
D03*
X847060Y612532D02*
D03*
X1149604Y624840D02*
D03*
X1142874Y625648D02*
D03*
X1128917Y619690D02*
D03*
X895350Y607822D02*
D03*
X1019156Y866969D02*
D03*
X1026160Y867156D02*
D03*
X1033272D02*
D03*
X1033526Y860044D02*
D03*
X1026414D02*
D03*
X1019410Y859857D02*
D03*
X896366Y716534D02*
D03*
X380384Y910269D02*
D03*
X373380Y910082D02*
D03*
X366268D02*
D03*
X366522Y902970D02*
D03*
X373634D02*
D03*
X380638Y903157D02*
D03*
X304225Y893934D02*
D03*
X304038Y900938D02*
D03*
Y908050D02*
D03*
X296926Y907796D02*
D03*
Y900684D02*
D03*
X297113Y893680D02*
D03*
X703005Y1158602D02*
D03*
X702818Y1165606D02*
D03*
Y1172718D02*
D03*
X695706Y1172464D02*
D03*
Y1165352D02*
D03*
X695893Y1158348D02*
D03*
X1232008Y1124271D02*
D03*
X1239012Y1124458D02*
D03*
X1246124D02*
D03*
X1245870Y1131570D02*
D03*
X1238758D02*
D03*
X1231754Y1131383D02*
D03*
X1466958Y1272353D02*
D03*
X1473962Y1272540D02*
D03*
X1481074D02*
D03*
X1480820Y1279652D02*
D03*
X1473708D02*
D03*
X1466704Y1279465D02*
D03*
X1755502Y1231205D02*
D03*
X1762506Y1231392D02*
D03*
X1769618D02*
D03*
X1769364Y1238504D02*
D03*
X1762252D02*
D03*
X1755248Y1238317D02*
D03*
X1638916Y991429D02*
D03*
X1645920Y991616D02*
D03*
X1653032D02*
D03*
X1652778Y998728D02*
D03*
X1645666D02*
D03*
X1638662Y998541D02*
D03*
X1645266Y526101D02*
D03*
X1652270Y526288D02*
D03*
X1659382D02*
D03*
X1659128Y533400D02*
D03*
X1652016D02*
D03*
X1645012Y533213D02*
D03*
X1464926Y485715D02*
D03*
X1471930Y485902D02*
D03*
X1479042D02*
D03*
X1478788Y493014D02*
D03*
X1471676D02*
D03*
X1464672Y492827D02*
D03*
X1297794Y498669D02*
D03*
X1304798Y498856D02*
D03*
X1311910D02*
D03*
X1312164Y491744D02*
D03*
X1305052D02*
D03*
X1298048Y491557D02*
D03*
X680466Y846836D02*
D03*
X1305542Y670962D02*
D03*
X614528Y734289D02*
D03*
X1607312Y1223264D02*
D03*
X1772666Y1135380D02*
D03*
X1772412Y1163574D02*
D03*
X1388957Y911836D02*
D03*
X1234106Y707514D02*
D03*
X509524Y911352D02*
D03*
X534924Y851916D02*
D03*
X1146048Y505714D02*
D03*
X1134364Y503428D02*
D03*
X514991Y499897D02*
D03*
X527482Y500503D02*
D03*
X539852Y499594D02*
D03*
X1442664Y552532D02*
D03*
X1435848Y552159D02*
D03*
X1561846Y589280D02*
D03*
Y582168D02*
D03*
Y575310D02*
D03*
X1647444Y1115060D02*
D03*
X1641094D02*
D03*
X1634744Y1114806D02*
D03*
X456971Y897037D02*
D03*
X427990Y800354D02*
D03*
X646176Y977138D02*
D03*
X639318Y976884D02*
D03*
X336296Y1129284D02*
D03*
Y1136904D02*
D03*
Y1143181D02*
D03*
Y1149858D02*
D03*
X329438Y1129284D02*
D03*
Y1136904D02*
D03*
Y1143181D02*
D03*
Y1149858D02*
D03*
X507157Y1123567D02*
D03*
Y1131187D02*
D03*
Y1137463D02*
D03*
Y1144141D02*
D03*
X499618Y1144524D02*
D03*
Y1137847D02*
D03*
Y1131570D02*
D03*
Y1123950D02*
D03*
X371094Y996950D02*
D03*
X245872Y753138D02*
D03*
X251714D02*
D03*
X211582Y769366D02*
D03*
X223012Y817880D02*
D03*
X350012Y814324D02*
D03*
X264160Y763016D02*
D03*
X313233Y802387D02*
D03*
X201676Y702929D02*
D03*
X288036Y778002D02*
D03*
X288290Y771398D02*
D03*
X135460Y911606D02*
D03*
X147828Y803910D02*
D03*
X154432D02*
D03*
X141478D02*
D03*
X194818Y971550D02*
D03*
X188902Y971489D02*
D03*
X182118Y971296D02*
D03*
X157274Y733564D02*
D03*
X217480Y695476D02*
D03*
X259080Y847344D02*
D03*
X271272Y847090D02*
D03*
X202184Y717042D02*
D03*
X209984Y721978D02*
D03*
X268732Y798576D02*
D03*
X244348Y822960D02*
D03*
X248668Y827786D02*
D03*
X180340Y801370D02*
D03*
X173482D02*
D03*
X204724Y752856D02*
D03*
X198120Y753110D02*
D03*
X204247Y879328D02*
D03*
X198270Y879507D02*
D03*
X188964Y879540D02*
D03*
X183206Y879846D02*
D03*
X119538Y835050D02*
D03*
X112067Y834949D02*
D03*
X104952D02*
D03*
X164705Y835244D02*
D03*
X158009Y835521D02*
D03*
X152099Y835706D02*
D03*
X144780Y835406D02*
D03*
X194818Y804926D02*
D03*
X190754Y798068D02*
D03*
X256937Y804628D02*
D03*
X250366Y804584D02*
D03*
X262890Y775970D02*
D03*
X287406Y798302D02*
D03*
X236220Y770636D02*
D03*
X1674515Y902807D02*
D03*
X483108Y761238D02*
D03*
Y721360D02*
D03*
X111506Y578612D02*
D03*
X303276Y1006094D02*
D03*
X315468Y1022858D02*
D03*
X348996Y1028192D02*
D03*
X331470Y1028446D02*
D03*
X143256Y651002D02*
D03*
X176784D02*
D03*
X184912Y811417D02*
D03*
X1070610Y936244D02*
D03*
X499509Y742023D02*
D03*
X218111Y1063663D02*
D03*
X240463Y1011532D02*
D03*
X223210Y1012639D02*
D03*
X1147572Y549656D02*
D03*
X1185164Y530606D02*
D03*
X906526Y756412D02*
D03*
X918972Y751586D02*
D03*
X1176274Y596392D02*
D03*
X1173734Y585216D02*
D03*
X1560068Y1019556D02*
D03*
X1574546Y1017016D02*
D03*
X1664462Y877316D02*
D03*
X1561338Y868172D02*
D03*
X1651762Y932688D02*
D03*
X1634490Y911860D02*
D03*
X1699260Y926338D02*
D03*
Y938784D02*
D03*
X1756156Y1081631D02*
D03*
X1756664Y1088390D02*
D03*
X1757172Y1095502D02*
D03*
X1699514Y1021334D02*
D03*
X1759712Y1115060D02*
D03*
X1776222Y1182878D02*
D03*
X1733042Y1176274D02*
D03*
X1667764Y885698D02*
D03*
X800608Y654304D02*
D03*
X921004Y737108D02*
D03*
X765048Y654050D02*
D03*
X920242Y743966D02*
D03*
X782574Y667385D02*
D03*
X867410Y794004D02*
D03*
X565500Y500812D02*
D03*
X603487Y499624D02*
D03*
X590900Y500812D02*
D03*
X578200D02*
D03*
X1387602Y846582D02*
D03*
X1450848Y846836D02*
D03*
X1436878Y846074D02*
D03*
X1214628Y765415D02*
D03*
X1289558Y765556D02*
D03*
X1303020D02*
D03*
X1380022Y765541D02*
D03*
X1392682Y765556D02*
D03*
X1469644D02*
D03*
X1490980Y771652D02*
D03*
X1551940Y771398D02*
D03*
X1257872Y693984D02*
D03*
X1527677Y709422D02*
D03*
Y693984D02*
D03*
X1438524D02*
D03*
X1361694Y694690D02*
D03*
X1348353Y709168D02*
D03*
X756158Y637540D02*
D03*
X914249Y510437D02*
D03*
X1163320Y528066D02*
D03*
X1172464Y505206D02*
D03*
X1141476Y531114D02*
D03*
X901700Y604497D02*
D03*
Y611275D02*
D03*
X1406652Y604497D02*
D03*
Y611275D02*
D03*
X1050798Y683006D02*
D03*
X1238504Y588518D02*
D03*
X1240536Y636270D02*
D03*
X1725422Y846328D02*
D03*
X1335532Y748284D02*
D03*
X1329182Y751586D02*
D03*
X1321054Y753618D02*
D03*
X1312672Y754888D02*
D03*
X494515Y798918D02*
D03*
X680263Y840784D02*
D03*
X1145794Y791718D02*
D03*
X1442974Y918210D02*
D03*
X745998Y1177290D02*
D03*
X746440Y1163138D02*
D03*
X745778Y1075209D02*
D03*
X745535Y1062298D02*
D03*
X745743Y1099819D02*
D03*
X745743Y1125747D02*
D03*
X1258423Y709111D02*
D03*
X1304884Y657813D02*
D03*
X1305038Y665236D02*
D03*
X913563Y979668D02*
D03*
X896366Y709676D02*
D03*
X1128522Y705104D02*
D03*
X1119124Y761492D02*
D03*
X1107948Y728726D02*
D03*
X1165840Y934350D02*
D03*
X1158312Y684876D02*
D03*
X1218019Y835271D02*
D03*
X1211966Y835523D02*
D03*
X1193469Y683708D02*
D03*
X1186995Y674887D02*
D03*
X1159256Y669798D02*
D03*
X1190752Y724408D02*
D03*
X695867Y890733D02*
D03*
X695815Y874232D02*
D03*
X1505007Y553517D02*
D03*
X631190Y897382D02*
D03*
X631444Y909574D02*
D03*
X631190Y903478D02*
D03*
X706512Y960152D02*
D03*
X706557Y966029D02*
D03*
X707227Y972248D02*
D03*
X678525Y935418D02*
D03*
X678177Y929817D02*
D03*
X678271Y924242D02*
D03*
X744982Y946658D02*
D03*
X545052Y749578D02*
D03*
X545076Y734887D02*
D03*
X559816Y734949D02*
D03*
Y749427D02*
D03*
X542036Y762381D02*
D03*
X864632Y1003902D02*
D03*
X866479Y852040D02*
D03*
X869950Y898144D02*
D03*
X857250Y917448D02*
D03*
X826516Y870458D02*
D03*
X865632Y1010229D02*
D03*
X865546Y997710D02*
D03*
X865194Y947672D02*
D03*
X866780Y871011D02*
D03*
X865124Y954024D02*
D03*
X857606Y959966D02*
D03*
X540418Y1283030D02*
D03*
X532892D02*
D03*
X197993Y1241533D02*
D03*
Y1249059D02*
D03*
Y1255751D02*
D03*
X467887Y1259561D02*
D03*
X461195Y1259601D02*
D03*
X467702Y1266277D02*
D03*
X461010Y1266317D02*
D03*
Y1272921D02*
D03*
X523815Y787697D02*
D03*
X568380Y799620D02*
D03*
X502225Y781093D02*
D03*
X724389Y834189D02*
D03*
X715349Y836865D02*
D03*
X736124Y834826D02*
D03*
X580136Y733933D02*
D03*
X545846Y768223D02*
D03*
X559816Y767715D02*
D03*
X1486154Y846582D02*
D03*
X1366520D02*
D03*
X1331195Y1049162D02*
D03*
X830993Y1161322D02*
D03*
X877797Y1161234D02*
D03*
X928671Y1161499D02*
D03*
X977775D02*
D03*
X1027234Y1161676D02*
D03*
X1077400Y1161322D02*
D03*
X1125708Y1161411D02*
D03*
X1176317Y1161588D02*
D03*
X1224788Y1161288D02*
D03*
X1273556Y1161542D02*
D03*
X1275487Y1092503D02*
D03*
X1226055Y1092579D02*
D03*
X1174277Y1092881D02*
D03*
X1125753Y1092806D02*
D03*
X1075186Y1092881D02*
D03*
X1027572Y1092806D02*
D03*
X977989Y1092352D02*
D03*
X928027Y1092427D02*
D03*
X878444Y1092579D02*
D03*
X828331Y1092805D02*
D03*
X640588Y1197102D02*
D03*
X650240Y1187450D02*
D03*
X680720Y1176782D02*
D03*
X680363Y1150977D02*
D03*
X649224Y1074166D02*
D03*
X661670Y1056894D02*
D03*
X640588Y1059604D02*
D03*
X1661180Y481674D02*
D03*
X1650775D02*
D03*
X1640439Y481534D02*
D03*
X1538464Y531585D02*
D03*
X1206975Y634232D02*
D03*
X1243584Y596646D02*
D03*
X1271542Y670962D02*
D03*
X1276322Y653696D02*
D03*
X1277112Y630682D02*
D03*
X1347216Y647192D02*
D03*
X1346454Y630682D02*
D03*
X1076452Y562864D02*
D03*
X881380Y674032D02*
D03*
X599790Y611159D02*
D03*
X584551D02*
D03*
X569498D02*
D03*
X554324D02*
D03*
X539019D02*
D03*
X523778D02*
D03*
X508539D02*
D03*
X479013Y587430D02*
D03*
X468204Y587482D02*
D03*
X457228Y587356D02*
D03*
X432816Y587572D02*
D03*
X425704Y587318D02*
D03*
X578971Y621054D02*
D03*
X530382Y611985D02*
D03*
X598572Y620069D02*
D03*
X574679Y704789D02*
D03*
X533146Y741807D02*
D03*
X601152Y684906D02*
D03*
X1169528Y825432D02*
D03*
X1155954Y823722D02*
D03*
X1150242Y822566D02*
D03*
X908812Y772668D02*
D03*
X520919Y604619D02*
D03*
X552800Y500812D02*
D03*
X674878Y957326D02*
D03*
Y963168D02*
D03*
X745490Y926592D02*
D03*
X745236Y932942D02*
D03*
X826516Y905002D02*
D03*
X829937Y1054640D02*
D03*
X880824Y1056740D02*
D03*
X930595Y1054662D02*
D03*
X1028902Y1054688D02*
D03*
X1077216Y1054262D02*
D03*
X1126948Y1054333D02*
D03*
X1176666Y1054361D02*
D03*
X1227274Y1054434D02*
D03*
X1274361Y1053173D02*
D03*
X1282891Y1045993D02*
D03*
X1393587Y1052103D02*
D03*
X1195324Y930402D02*
D03*
Y922020D02*
D03*
X784498Y855472D02*
D03*
X792988D02*
D03*
X802208D02*
D03*
X810082D02*
D03*
X809752Y863315D02*
D03*
X801878D02*
D03*
X792658D02*
D03*
X784169D02*
D03*
X1109980Y811530D02*
D03*
X1155700Y876300D02*
D03*
X1324560Y936720D02*
D03*
X938530Y999744D02*
D03*
X1104138Y940816D02*
D03*
X1109472Y1013460D02*
D03*
X1103884Y1018453D02*
D03*
X1119886Y989076D02*
D03*
X1338580Y1078230D02*
D03*
X1130808Y975614D02*
D03*
X915416Y767588D02*
D03*
X1114552Y831850D02*
D03*
X904959Y976742D02*
D03*
X897890Y976122D02*
D03*
X787654Y1012698D02*
D03*
X763016Y1006348D02*
D03*
X764540Y998220D02*
D03*
X974598Y849884D02*
D03*
X979932Y840232D02*
D03*
X969010Y840486D02*
D03*
X991616Y803148D02*
D03*
X991870Y820166D02*
D03*
Y812800D02*
D03*
X1370199Y925256D02*
D03*
X1113790Y863854D02*
D03*
X1368044Y889254D02*
D03*
X1363980Y882396D02*
D03*
X1479254Y919354D02*
D03*
X1459216Y919595D02*
D03*
X1342197Y911566D02*
D03*
X1361994Y915486D02*
D03*
X1341881Y936548D02*
D03*
X1354582Y933958D02*
D03*
X641096Y1153668D02*
D03*
X640588Y1093604D02*
D03*
X1248156Y797560D02*
D03*
X1247648Y804418D02*
D03*
X1213104Y813562D02*
D03*
X1223772Y808736D02*
D03*
X1118870Y794766D02*
D03*
X1159002Y909320D02*
D03*
X1117515Y877689D02*
D03*
X1116422Y870999D02*
D03*
X1117854Y855980D02*
D03*
X811022Y616966D02*
D03*
Y624078D02*
D03*
Y609600D02*
D03*
X1419745Y908319D02*
D03*
X1404729Y907790D02*
D03*
X1369568Y882904D02*
D03*
X866477Y762437D02*
D03*
X1126744Y698754D02*
D03*
X1034053Y699785D02*
D03*
X994868Y698965D02*
D03*
X914553Y694959D02*
D03*
X866618Y827373D02*
D03*
X866400Y932907D02*
D03*
X919406Y979428D02*
D03*
X1017015Y978517D02*
D03*
X1147572Y952246D02*
D03*
X1140714Y955548D02*
D03*
X1146618Y761643D02*
D03*
X1150620Y937006D02*
D03*
X929386Y977900D02*
D03*
X939471Y980569D02*
D03*
X1094486Y700278D02*
D03*
X1205738Y835406D02*
D03*
X1120902Y811784D02*
D03*
X1115314Y822960D02*
D03*
X960628Y682498D02*
D03*
X948182Y666496D02*
D03*
X949579Y688213D02*
D03*
X1470138Y563335D02*
D03*
X1200794Y596086D02*
D03*
X1207230Y590290D02*
D03*
X1417830Y607701D02*
D03*
X1435403Y607885D02*
D03*
X978154Y691388D02*
D03*
X969010Y674370D02*
D03*
X1340104Y1123442D02*
D03*
X1595120Y951484D02*
D03*
X1609090Y953516D02*
D03*
X1120140Y918718D02*
D03*
X1116584Y954278D02*
D03*
X1103884Y678942D02*
D03*
X1101344Y726948D02*
D03*
X845312Y789432D02*
D03*
X1146048Y984250D02*
D03*
X1119886Y787400D02*
D03*
X1153414Y736346D02*
D03*
X1134872Y672846D02*
D03*
X1035050Y671576D02*
D03*
X995172Y671068D02*
D03*
X913960Y667448D02*
D03*
X898466Y667194D02*
D03*
X838200Y763016D02*
D03*
X838454Y828040D02*
D03*
X838140Y933582D02*
D03*
X917702Y994664D02*
D03*
X1028954Y727456D02*
D03*
X989330D02*
D03*
X894080Y797306D02*
D03*
X894588Y832612D02*
D03*
X894334Y847852D02*
D03*
X894080Y867664D02*
D03*
Y892556D02*
D03*
X894334Y927354D02*
D03*
X924306Y953008D02*
D03*
X934212Y952754D02*
D03*
X989330Y953770D02*
D03*
X1019302Y953262D02*
D03*
X1120140Y847344D02*
D03*
X1405128Y880110D02*
D03*
X1419606Y880618D02*
D03*
M02*
