G04*
G04 #@! TF.GenerationSoftware,Altium Limited,Altium Designer,24.8.2 (39)*
G04*
G04 Layer_Color=8388736*
%FSLAX44Y44*%
%MOMM*%
G71*
G04*
G04 #@! TF.SameCoordinates,39C3E627-9C26-4201-8F53-7C701A0798BB*
G04*
G04*
G04 #@! TF.FilePolarity,Negative*
G04*
G01*
G75*
G04:AMPARAMS|DCode=28|XSize=0.8mm|YSize=0.95mm|CornerRadius=0.1mm|HoleSize=0mm|Usage=FLASHONLY|Rotation=270.000|XOffset=0mm|YOffset=0mm|HoleType=Round|Shape=RoundedRectangle|*
%AMROUNDEDRECTD28*
21,1,0.8000,0.7500,0,0,270.0*
21,1,0.6000,0.9500,0,0,270.0*
1,1,0.2000,-0.3750,-0.3000*
1,1,0.2000,-0.3750,0.3000*
1,1,0.2000,0.3750,0.3000*
1,1,0.2000,0.3750,-0.3000*
%
%ADD28ROUNDEDRECTD28*%
G04:AMPARAMS|DCode=29|XSize=0.8mm|YSize=0.95mm|CornerRadius=0.1mm|HoleSize=0mm|Usage=FLASHONLY|Rotation=0.000|XOffset=0mm|YOffset=0mm|HoleType=Round|Shape=RoundedRectangle|*
%AMROUNDEDRECTD29*
21,1,0.8000,0.7500,0,0,0.0*
21,1,0.6000,0.9500,0,0,0.0*
1,1,0.2000,0.3000,-0.3750*
1,1,0.2000,-0.3000,-0.3750*
1,1,0.2000,-0.3000,0.3750*
1,1,0.2000,0.3000,0.3750*
%
%ADD29ROUNDEDRECTD29*%
G04:AMPARAMS|DCode=37|XSize=1.125mm|YSize=1.75mm|CornerRadius=0.1238mm|HoleSize=0mm|Usage=FLASHONLY|Rotation=90.000|XOffset=0mm|YOffset=0mm|HoleType=Round|Shape=RoundedRectangle|*
%AMROUNDEDRECTD37*
21,1,1.1250,1.5025,0,0,90.0*
21,1,0.8775,1.7500,0,0,90.0*
1,1,0.2475,0.7512,0.4387*
1,1,0.2475,0.7512,-0.4387*
1,1,0.2475,-0.7512,-0.4387*
1,1,0.2475,-0.7512,0.4387*
%
%ADD37ROUNDEDRECTD37*%
G04:AMPARAMS|DCode=39|XSize=1mm|YSize=1.45mm|CornerRadius=0.125mm|HoleSize=0mm|Usage=FLASHONLY|Rotation=90.000|XOffset=0mm|YOffset=0mm|HoleType=Round|Shape=RoundedRectangle|*
%AMROUNDEDRECTD39*
21,1,1.0000,1.2000,0,0,90.0*
21,1,0.7500,1.4500,0,0,90.0*
1,1,0.2500,0.6000,0.3750*
1,1,0.2500,0.6000,-0.3750*
1,1,0.2500,-0.6000,-0.3750*
1,1,0.2500,-0.6000,0.3750*
%
%ADD39ROUNDEDRECTD39*%
G04:AMPARAMS|DCode=40|XSize=1.15mm|YSize=1.8mm|CornerRadius=0.1265mm|HoleSize=0mm|Usage=FLASHONLY|Rotation=0.000|XOffset=0mm|YOffset=0mm|HoleType=Round|Shape=RoundedRectangle|*
%AMROUNDEDRECTD40*
21,1,1.1500,1.5470,0,0,0.0*
21,1,0.8970,1.8000,0,0,0.0*
1,1,0.2530,0.4485,-0.7735*
1,1,0.2530,-0.4485,-0.7735*
1,1,0.2530,-0.4485,0.7735*
1,1,0.2530,0.4485,0.7735*
%
%ADD40ROUNDEDRECTD40*%
G04:AMPARAMS|DCode=43|XSize=1.025mm|YSize=1.4mm|CornerRadius=0.123mm|HoleSize=0mm|Usage=FLASHONLY|Rotation=0.000|XOffset=0mm|YOffset=0mm|HoleType=Round|Shape=RoundedRectangle|*
%AMROUNDEDRECTD43*
21,1,1.0250,1.1540,0,0,0.0*
21,1,0.7790,1.4000,0,0,0.0*
1,1,0.2460,0.3895,-0.5770*
1,1,0.2460,-0.3895,-0.5770*
1,1,0.2460,-0.3895,0.5770*
1,1,0.2460,0.3895,0.5770*
%
%ADD43ROUNDEDRECTD43*%
G04:AMPARAMS|DCode=44|XSize=1.025mm|YSize=1.4mm|CornerRadius=0.123mm|HoleSize=0mm|Usage=FLASHONLY|Rotation=270.000|XOffset=0mm|YOffset=0mm|HoleType=Round|Shape=RoundedRectangle|*
%AMROUNDEDRECTD44*
21,1,1.0250,1.1540,0,0,270.0*
21,1,0.7790,1.4000,0,0,270.0*
1,1,0.2460,-0.5770,-0.3895*
1,1,0.2460,-0.5770,0.3895*
1,1,0.2460,0.5770,0.3895*
1,1,0.2460,0.5770,-0.3895*
%
%ADD44ROUNDEDRECTD44*%
G04:AMPARAMS|DCode=84|XSize=0.9mm|YSize=0.95mm|CornerRadius=0.1125mm|HoleSize=0mm|Usage=FLASHONLY|Rotation=180.000|XOffset=0mm|YOffset=0mm|HoleType=Round|Shape=RoundedRectangle|*
%AMROUNDEDRECTD84*
21,1,0.9000,0.7250,0,0,180.0*
21,1,0.6750,0.9500,0,0,180.0*
1,1,0.2250,-0.3375,0.3625*
1,1,0.2250,0.3375,0.3625*
1,1,0.2250,0.3375,-0.3625*
1,1,0.2250,-0.3375,-0.3625*
%
%ADD84ROUNDEDRECTD84*%
G04:AMPARAMS|DCode=97|XSize=1.15mm|YSize=1.8mm|CornerRadius=0.1265mm|HoleSize=0mm|Usage=FLASHONLY|Rotation=90.000|XOffset=0mm|YOffset=0mm|HoleType=Round|Shape=RoundedRectangle|*
%AMROUNDEDRECTD97*
21,1,1.1500,1.5470,0,0,90.0*
21,1,0.8970,1.8000,0,0,90.0*
1,1,0.2530,0.7735,0.4485*
1,1,0.2530,0.7735,-0.4485*
1,1,0.2530,-0.7735,-0.4485*
1,1,0.2530,-0.7735,0.4485*
%
%ADD97ROUNDEDRECTD97*%
G04:AMPARAMS|DCode=98|XSize=1mm|YSize=1.45mm|CornerRadius=0.125mm|HoleSize=0mm|Usage=FLASHONLY|Rotation=0.000|XOffset=0mm|YOffset=0mm|HoleType=Round|Shape=RoundedRectangle|*
%AMROUNDEDRECTD98*
21,1,1.0000,1.2000,0,0,0.0*
21,1,0.7500,1.4500,0,0,0.0*
1,1,0.2500,0.3750,-0.6000*
1,1,0.2500,-0.3750,-0.6000*
1,1,0.2500,-0.3750,0.6000*
1,1,0.2500,0.3750,0.6000*
%
%ADD98ROUNDEDRECTD98*%
G04:AMPARAMS|DCode=102|XSize=0.9mm|YSize=0.95mm|CornerRadius=0.1125mm|HoleSize=0mm|Usage=FLASHONLY|Rotation=90.000|XOffset=0mm|YOffset=0mm|HoleType=Round|Shape=RoundedRectangle|*
%AMROUNDEDRECTD102*
21,1,0.9000,0.7250,0,0,90.0*
21,1,0.6750,0.9500,0,0,90.0*
1,1,0.2250,0.3625,0.3375*
1,1,0.2250,0.3625,-0.3375*
1,1,0.2250,-0.3625,-0.3375*
1,1,0.2250,-0.3625,0.3375*
%
%ADD102ROUNDEDRECTD102*%
G04:AMPARAMS|DCode=104|XSize=0.54mm|YSize=0.64mm|CornerRadius=0.0675mm|HoleSize=0mm|Usage=FLASHONLY|Rotation=0.000|XOffset=0mm|YOffset=0mm|HoleType=Round|Shape=RoundedRectangle|*
%AMROUNDEDRECTD104*
21,1,0.5400,0.5050,0,0,0.0*
21,1,0.4050,0.6400,0,0,0.0*
1,1,0.1350,0.2025,-0.2525*
1,1,0.1350,-0.2025,-0.2525*
1,1,0.1350,-0.2025,0.2525*
1,1,0.1350,0.2025,0.2525*
%
%ADD104ROUNDEDRECTD104*%
%ADD107R,1.4532X1.2032*%
%ADD108R,1.9032X1.3032*%
%ADD109R,1.9016X1.3016*%
%ADD110R,3.0068X3.0116*%
%ADD111R,3.9000X4.7000*%
%ADD112R,1.3000X0.8000*%
%ADD113R,1.9032X0.6032*%
%ADD114R,1.4032X1.3032*%
%ADD115R,1.1132X1.4232*%
%ADD116R,2.7032X2.6289*%
%ADD117R,1.2032X1.4532*%
%ADD118R,3.5576X1.3841*%
%ADD119O,0.4832X2.0032*%
%ADD120O,2.0032X0.4832*%
%ADD121R,2.2032X2.2032*%
%ADD122R,4.4032X3.7032*%
%ADD123R,1.3032X1.7032*%
%ADD124R,1.7032X1.5621*%
%ADD125R,1.5621X1.7032*%
%ADD126R,1.8032X1.7422*%
%ADD127R,1.7422X1.8032*%
%ADD128R,2.8016X1.3841*%
%ADD129R,0.4000X2.9000*%
%ADD130R,0.5000X0.3500*%
%ADD131R,0.5000X0.3000*%
%ADD132R,0.6250X0.3500*%
%ADD133R,1.2032X0.9532*%
%ADD134R,0.9532X1.2032*%
%ADD135R,1.4532X0.9032*%
%ADD136R,2.2032X2.2032*%
%ADD137R,1.1832X2.4682*%
%ADD138R,0.6932X1.3602*%
%ADD139R,0.6932X1.3782*%
%ADD140R,1.9032X1.3532*%
%ADD141R,0.4016X1.4016*%
%ADD142R,0.3300X1.3300*%
%ADD143R,1.2020X0.7020*%
%ADD144R,0.7020X1.2020*%
%ADD145O,0.7632X2.0432*%
%ADD146R,3.8032X2.5432*%
%ADD147R,1.3032X2.7032*%
%ADD148R,2.7032X1.3032*%
%ADD149R,2.5432X3.8032*%
%ADD150R,1.2732X0.8032*%
%ADD151R,0.8032X1.2732*%
%ADD152O,0.7716X2.1534*%
%ADD153O,0.6266X0.3016*%
%ADD154R,0.6266X0.5016*%
%ADD155R,2.0016X2.0016*%
%ADD156O,0.3016X0.6266*%
%ADD157R,0.5016X0.6266*%
%ADD158R,0.3516X0.3516*%
%ADD159R,0.3516X0.3516*%
%ADD160R,0.9632X1.8631*%
%ADD161O,2.5632X0.7982*%
%ADD162R,1.9016X2.6016*%
%ADD163R,0.3750X1.3500*%
%ADD164R,1.2032X1.4032*%
%ADD165R,1.5032X2.1032*%
%ADD166R,1.2032X3.0032*%
%ADD167R,1.2032X1.0032*%
%ADD168R,0.9032X1.4032*%
%ADD169R,1.0000X1.6000*%
%ADD170R,1.6000X1.0000*%
%ADD171R,1.1032X1.1032*%
%ADD172R,2.9032X3.5032*%
%ADD173C,1.2032*%
%ADD174R,0.8128X0.6858*%
%ADD175R,1.0032X1.2032*%
%ADD176O,2.0180X0.5588*%
%ADD177R,0.6858X0.8128*%
%ADD178R,3.2131X3.0023*%
%ADD179R,1.6432X1.8232*%
%ADD180R,2.7432X1.4732*%
%ADD181R,2.7032X2.4032*%
%ADD182R,2.1032X2.5792*%
%ADD183R,0.8122X0.4532*%
%ADD184R,0.8122X0.5832*%
%ADD185C,0.9902*%
%ADD186R,2.5232X2.1272*%
%ADD187R,0.6032X0.9532*%
%ADD188R,1.1532X1.3532*%
%ADD189R,3.5576X1.5866*%
%ADD190R,0.9882X0.7632*%
%ADD191R,0.6232X0.8032*%
%ADD192R,0.3700X3.1000*%
%ADD193C,1.7000*%
%ADD194C,2.4000*%
%ADD195C,1.8032*%
%ADD196C,2.7032*%
%ADD197C,1.7272*%
%ADD198R,2.7032X2.7032*%
%ADD199C,1.7780*%
%ADD200C,5.2032*%
%ADD201R,1.7780X1.7780*%
%ADD202C,2.9972*%
%ADD203O,1.1000X1.7000*%
%ADD204C,0.7000*%
%ADD205C,1.1942*%
%ADD206C,0.8000*%
%ADD207C,6.4000*%
G36*
X1575839Y1313535D02*
X1611865Y1313512D01*
X1612300Y1313535D01*
X1612529Y1313398D01*
X1612552Y1313192D01*
X1612438Y1313077D01*
X1612346Y1313031D01*
X1612094Y1312825D01*
X1611980Y1312711D01*
X1611659Y1312665D01*
X1611476Y1312619D01*
X1611361Y1312505D01*
X1611224Y1311955D01*
X1611109Y1311840D01*
X1610926Y1311795D01*
X1610651Y1311749D01*
X1610491Y1311634D01*
X1610354Y1311405D01*
X1610285Y1311337D01*
X1610193Y1311291D01*
X1609987Y1311085D01*
X1609941Y1310993D01*
X1609827Y1310878D01*
X1609735Y1310833D01*
X1609621Y1310764D01*
X1609529Y1310535D01*
X1609483Y1310214D01*
X1609277Y1310008D01*
X1609185Y1309962D01*
X1609117Y1309894D01*
X1609071Y1309802D01*
X1608773Y1309504D01*
X1608705Y1309481D01*
X1608659Y1309390D01*
X1608361Y1309092D01*
X1608292Y1309069D01*
X1608246Y1308978D01*
X1605956Y1306687D01*
X1605933Y1306618D01*
X1605842Y1306573D01*
X1605498Y1306229D01*
X1605452Y1306138D01*
X1605292Y1306023D01*
X1605040Y1305771D01*
X1605017Y1305702D01*
X1604926Y1305657D01*
X1604628Y1305359D01*
X1604605Y1305290D01*
X1604513Y1305244D01*
X1604170Y1304901D01*
X1604147Y1304832D01*
X1604055Y1304786D01*
X1591848Y1292579D01*
X1591825Y1292510D01*
X1591733Y1292464D01*
X1591436Y1292167D01*
X1591413Y1292098D01*
X1591321Y1292052D01*
X1590817Y1291548D01*
X1590726Y1291503D01*
X1590611Y1291388D01*
X1590565Y1291297D01*
X1590405Y1291136D01*
X1589970Y1291067D01*
X1589832Y1290976D01*
X1589695Y1290655D01*
X1589741Y1290334D01*
X1589993Y1290220D01*
X1604147Y1290174D01*
X1604261Y1290060D01*
X1604399Y1289831D01*
X1604467Y1289762D01*
X1605315Y1289785D01*
X1605475Y1289716D01*
X1605590Y1289602D01*
X1605636Y1289510D01*
X1605842Y1289304D01*
X1605933Y1289258D01*
X1606048Y1289144D01*
X1606094Y1289052D01*
X1606300Y1288846D01*
X1606391Y1288800D01*
X1606460Y1288731D01*
X1606506Y1288640D01*
X1606712Y1288434D01*
X1606803Y1288388D01*
X1606918Y1288273D01*
X1606941Y1288067D01*
X1606918Y1287769D01*
X1607033Y1287609D01*
X1607124Y1287563D01*
X1607330Y1287403D01*
X1607376Y1287220D01*
X1607330Y1285479D01*
X1607262Y1285410D01*
X1606964Y1285250D01*
X1606918Y1285067D01*
X1606941Y1284449D01*
X1606895Y1284265D01*
X1606506Y1283876D01*
X1606460Y1283784D01*
X1606254Y1283578D01*
X1606162Y1283532D01*
X1606094Y1283464D01*
X1606048Y1283372D01*
X1605842Y1283166D01*
X1605750Y1283120D01*
X1605636Y1283006D01*
X1605590Y1282914D01*
X1605384Y1282708D01*
X1605292Y1282662D01*
X1605177Y1282547D01*
X1605132Y1282456D01*
X1604971Y1282296D01*
X1604880Y1282250D01*
X1604765Y1282135D01*
X1604719Y1282044D01*
X1604513Y1281837D01*
X1604422Y1281792D01*
X1604307Y1281677D01*
X1604261Y1281494D01*
X1604216Y1281219D01*
X1604101Y1281059D01*
X1603780Y1281013D01*
X1603483Y1280898D01*
X1603391Y1280670D01*
X1603345Y1280257D01*
X1603185Y1280097D01*
X1603093Y1280051D01*
X1602979Y1279937D01*
X1602933Y1279845D01*
X1602773Y1279685D01*
X1602681Y1279639D01*
X1602521Y1279479D01*
X1602475Y1279387D01*
X1602315Y1279227D01*
X1602223Y1279181D01*
X1602108Y1279066D01*
X1602063Y1278975D01*
X1601857Y1278768D01*
X1601765Y1278723D01*
X1601605Y1278562D01*
X1601559Y1278471D01*
X1601444Y1278356D01*
X1601353Y1278310D01*
X1601284Y1278242D01*
X1601238Y1278150D01*
X1601032Y1277898D01*
X1600940Y1277852D01*
X1600734Y1277646D01*
X1600688Y1277555D01*
X1600620Y1277486D01*
X1600528Y1277440D01*
X1600322Y1277234D01*
X1600276Y1277142D01*
X1600162Y1277028D01*
X1600070Y1276982D01*
X1599864Y1276776D01*
X1599818Y1276684D01*
X1599749Y1276616D01*
X1599658Y1276570D01*
X1599452Y1276364D01*
X1599406Y1276272D01*
X1599291Y1276158D01*
X1599200Y1276112D01*
X1598994Y1275906D01*
X1598948Y1275814D01*
X1598833Y1275699D01*
X1598742Y1275654D01*
X1598536Y1275448D01*
X1598490Y1275356D01*
X1598421Y1275287D01*
X1598329Y1275241D01*
X1598123Y1275035D01*
X1598078Y1274944D01*
X1597963Y1274829D01*
X1597871Y1274783D01*
X1597665Y1274577D01*
X1597619Y1274486D01*
X1597551Y1274417D01*
X1597459Y1274371D01*
X1597253Y1274165D01*
X1597207Y1274073D01*
X1597093Y1273959D01*
X1597001Y1273913D01*
X1596795Y1273707D01*
X1596749Y1273615D01*
X1596635Y1273501D01*
X1596543Y1273455D01*
X1596429Y1273386D01*
X1596337Y1273157D01*
X1596291Y1272837D01*
X1596131Y1272676D01*
X1595696Y1272608D01*
X1595535Y1272493D01*
X1595467Y1272241D01*
X1595421Y1271875D01*
X1595352Y1271806D01*
X1595260Y1271760D01*
X1595054Y1271600D01*
X1595009Y1271508D01*
X1594802Y1271302D01*
X1594711Y1271256D01*
X1594642Y1271188D01*
X1594596Y1271096D01*
X1594344Y1270844D01*
X1594253Y1270798D01*
X1594184Y1270730D01*
X1594138Y1270638D01*
X1593932Y1270432D01*
X1593840Y1270386D01*
X1593726Y1270272D01*
X1593680Y1270180D01*
X1593314Y1269813D01*
X1593268Y1269722D01*
X1593062Y1269516D01*
X1592970Y1269470D01*
X1592856Y1269355D01*
X1592810Y1269264D01*
X1592650Y1269103D01*
X1592558Y1269058D01*
X1592443Y1268943D01*
X1592398Y1268851D01*
X1592191Y1268645D01*
X1592100Y1268600D01*
X1592031Y1268531D01*
X1591985Y1268439D01*
X1591733Y1268187D01*
X1591642Y1268141D01*
X1591573Y1268073D01*
X1591527Y1267981D01*
X1591275Y1267729D01*
X1591184Y1267683D01*
X1591069Y1267523D01*
X1590863Y1267317D01*
X1590771Y1267271D01*
X1590703Y1267203D01*
X1590657Y1267111D01*
X1590405Y1266859D01*
X1590313Y1266813D01*
X1590245Y1266744D01*
X1590199Y1266653D01*
X1589993Y1266447D01*
X1589901Y1266401D01*
X1589832Y1266332D01*
X1589787Y1266241D01*
X1589535Y1265989D01*
X1589443Y1265943D01*
X1589374Y1265874D01*
X1589329Y1265782D01*
X1589077Y1265531D01*
X1588985Y1265485D01*
X1588916Y1265416D01*
X1588871Y1265324D01*
X1588664Y1265118D01*
X1588573Y1265072D01*
X1588504Y1265004D01*
X1588458Y1264912D01*
X1588206Y1264660D01*
X1588115Y1264614D01*
X1588046Y1264546D01*
X1588000Y1264454D01*
X1587886Y1264294D01*
X1587702Y1264248D01*
X1564502Y1264271D01*
X1564273Y1264225D01*
X1564066Y1264202D01*
X1563860Y1264317D01*
X1563815Y1264500D01*
X1563975Y1264706D01*
X1564066Y1264752D01*
X1564319Y1264958D01*
X1564364Y1265050D01*
X1564433Y1265118D01*
X1564525Y1265164D01*
X1564731Y1265370D01*
X1564777Y1265462D01*
X1564891Y1265576D01*
X1564983Y1265622D01*
X1565189Y1265828D01*
X1565235Y1265920D01*
X1565303Y1265989D01*
X1565395Y1266034D01*
X1565601Y1266241D01*
X1565647Y1266332D01*
X1565761Y1266447D01*
X1565853Y1266492D01*
X1566059Y1266699D01*
X1566105Y1266790D01*
X1566219Y1266905D01*
X1566311Y1266951D01*
X1566471Y1267111D01*
X1566517Y1267203D01*
X1566632Y1267317D01*
X1566723Y1267363D01*
X1566929Y1267569D01*
X1566975Y1267661D01*
X1567090Y1267775D01*
X1567181Y1267821D01*
X1567388Y1268027D01*
X1567433Y1268119D01*
X1567502Y1268187D01*
X1567594Y1268233D01*
X1567800Y1268439D01*
X1567846Y1268531D01*
X1567960Y1268645D01*
X1568052Y1268691D01*
X1568258Y1268897D01*
X1568304Y1268989D01*
X1568418Y1269103D01*
X1568510Y1269149D01*
X1568670Y1269310D01*
X1568716Y1269401D01*
X1568830Y1269516D01*
X1568922Y1269561D01*
X1569128Y1269768D01*
X1569174Y1269859D01*
X1569288Y1269974D01*
X1569380Y1270020D01*
X1569586Y1270226D01*
X1569632Y1270317D01*
X1569701Y1270386D01*
X1569792Y1270432D01*
X1569998Y1270638D01*
X1570044Y1270730D01*
X1570159Y1270844D01*
X1570250Y1270890D01*
X1570457Y1271096D01*
X1570502Y1271188D01*
X1570617Y1271302D01*
X1570708Y1271348D01*
X1570869Y1271508D01*
X1570915Y1271600D01*
X1571029Y1271714D01*
X1571121Y1271760D01*
X1571327Y1271966D01*
X1571373Y1272058D01*
X1571487Y1272172D01*
X1571579Y1272218D01*
X1571785Y1272424D01*
X1571831Y1272516D01*
X1571899Y1272585D01*
X1571991Y1272630D01*
X1572197Y1272837D01*
X1572243Y1272928D01*
X1572357Y1273043D01*
X1572449Y1273089D01*
X1572655Y1273295D01*
X1572701Y1273386D01*
X1572816Y1273501D01*
X1572907Y1273547D01*
X1573067Y1273707D01*
X1573113Y1273799D01*
X1573228Y1273913D01*
X1573319Y1273959D01*
X1573526Y1274165D01*
X1573571Y1274257D01*
X1573686Y1274371D01*
X1573777Y1274417D01*
X1573983Y1274623D01*
X1574029Y1274715D01*
X1574098Y1274783D01*
X1574190Y1274829D01*
X1574396Y1275035D01*
X1574442Y1275127D01*
X1574556Y1275241D01*
X1574648Y1275287D01*
X1574854Y1275493D01*
X1574900Y1275585D01*
X1575014Y1275699D01*
X1575106Y1275745D01*
X1575266Y1275906D01*
X1575312Y1275997D01*
X1575426Y1276112D01*
X1575518Y1276158D01*
X1575724Y1276364D01*
X1575770Y1276455D01*
X1575885Y1276570D01*
X1575976Y1276616D01*
X1576182Y1276822D01*
X1576228Y1276913D01*
X1576297Y1276982D01*
X1576388Y1277028D01*
X1576595Y1277234D01*
X1576640Y1277326D01*
X1576755Y1277440D01*
X1576846Y1277486D01*
X1577052Y1277692D01*
X1577098Y1277784D01*
X1577213Y1277898D01*
X1577305Y1277944D01*
X1577465Y1278104D01*
X1577511Y1278196D01*
X1577625Y1278310D01*
X1577717Y1278356D01*
X1577923Y1278562D01*
X1577969Y1278654D01*
X1578083Y1278768D01*
X1578175Y1278814D01*
X1578381Y1279020D01*
X1578427Y1279112D01*
X1578495Y1279181D01*
X1578587Y1279227D01*
X1578793Y1279433D01*
X1578839Y1279524D01*
X1578954Y1279639D01*
X1579045Y1279685D01*
X1579251Y1279891D01*
X1579297Y1279982D01*
X1579366Y1280051D01*
X1579457Y1280097D01*
X1579664Y1280303D01*
X1579709Y1280395D01*
X1579824Y1280509D01*
X1579915Y1280555D01*
X1580122Y1280761D01*
X1580167Y1280853D01*
X1580282Y1280967D01*
X1580374Y1281013D01*
X1580580Y1281219D01*
X1580625Y1281311D01*
X1580694Y1281380D01*
X1580786Y1281425D01*
X1580992Y1281631D01*
X1581038Y1281723D01*
X1581152Y1281837D01*
X1581244Y1281883D01*
X1581450Y1282090D01*
X1581496Y1282181D01*
X1581564Y1282250D01*
X1581656Y1282296D01*
X1581862Y1282502D01*
X1581908Y1282593D01*
X1582023Y1282708D01*
X1582114Y1282754D01*
X1582320Y1282960D01*
X1582366Y1283051D01*
X1582481Y1283166D01*
X1582572Y1283212D01*
X1582778Y1283418D01*
X1582824Y1283509D01*
X1582893Y1283578D01*
X1582984Y1283624D01*
X1583191Y1283830D01*
X1583236Y1283922D01*
X1583351Y1284036D01*
X1583443Y1284082D01*
X1583649Y1284288D01*
X1583694Y1284380D01*
X1583763Y1284449D01*
X1583855Y1284494D01*
X1584061Y1284700D01*
X1584107Y1284792D01*
X1584221Y1284906D01*
X1584313Y1284952D01*
X1584519Y1285158D01*
X1584565Y1285250D01*
X1584679Y1285365D01*
X1584771Y1285410D01*
X1584977Y1285616D01*
X1585023Y1285708D01*
X1585092Y1285777D01*
X1585183Y1285823D01*
X1585389Y1286029D01*
X1585435Y1286120D01*
X1585550Y1286235D01*
X1585641Y1286281D01*
X1585847Y1286487D01*
X1585893Y1286578D01*
X1585962Y1286647D01*
X1586053Y1286693D01*
X1586260Y1286899D01*
X1586305Y1286991D01*
X1586420Y1287105D01*
X1586512Y1287151D01*
X1586718Y1287357D01*
X1586763Y1287449D01*
X1586878Y1287563D01*
X1586969Y1287609D01*
X1587176Y1287815D01*
X1587222Y1287907D01*
X1587290Y1287975D01*
X1587382Y1288021D01*
X1587588Y1288227D01*
X1587634Y1288319D01*
X1587748Y1288434D01*
X1587840Y1288479D01*
X1588046Y1288685D01*
X1588092Y1288777D01*
X1588161Y1288846D01*
X1588252Y1288892D01*
X1588504Y1289144D01*
X1588550Y1289235D01*
X1588664Y1289350D01*
X1588756Y1289395D01*
X1589077Y1289716D01*
X1589168Y1289762D01*
X1589283Y1289831D01*
X1589329Y1290014D01*
X1589283Y1290151D01*
X1589214Y1290220D01*
X1588985Y1290266D01*
X1588848Y1290220D01*
X1588389Y1290174D01*
X1588206Y1290220D01*
X1570823Y1290197D01*
X1570640Y1290243D01*
X1570502Y1290334D01*
X1570365Y1290564D01*
X1570296Y1290632D01*
X1569884Y1290678D01*
X1569747Y1290632D01*
X1569243Y1290678D01*
X1569128Y1290793D01*
X1568991Y1291022D01*
X1568762Y1291159D01*
X1568716Y1291251D01*
X1568624Y1291342D01*
X1568578Y1291434D01*
X1568510Y1291503D01*
X1568418Y1291548D01*
X1568212Y1291754D01*
X1568166Y1291846D01*
X1568098Y1291915D01*
X1568006Y1291961D01*
X1567914Y1292052D01*
X1567846Y1292075D01*
X1567800Y1292167D01*
X1567594Y1292419D01*
X1567502Y1292510D01*
X1567433Y1292533D01*
X1567342Y1292762D01*
X1567388Y1310764D01*
X1567754Y1310993D01*
X1567800Y1311176D01*
X1567846Y1311634D01*
X1567914Y1311703D01*
X1568006Y1311749D01*
X1568166Y1311863D01*
X1568212Y1311955D01*
X1568304Y1312047D01*
X1568349Y1312138D01*
X1568624Y1312321D01*
X1568670Y1312413D01*
X1568830Y1312619D01*
X1569059Y1312757D01*
X1569220Y1312917D01*
X1569243Y1312986D01*
X1569472Y1313077D01*
X1570090Y1313054D01*
X1570273Y1313100D01*
X1570457Y1313237D01*
X1570502Y1313329D01*
X1570571Y1313444D01*
X1570937Y1313535D01*
X1571281Y1313512D01*
X1571579Y1313535D01*
X1571716Y1313489D01*
X1571854Y1313535D01*
X1575793D01*
X1575839D01*
D02*
G37*
G36*
X1626638Y1265682D02*
X1623842D01*
X1619250Y1278495D01*
X1622046D01*
X1625305Y1269015D01*
X1628434Y1278495D01*
X1631193D01*
X1626638Y1265682D01*
D02*
G37*
G36*
X1638230D02*
X1635767D01*
Y1274959D01*
X1635748Y1274940D01*
X1635711Y1274903D01*
X1635637Y1274848D01*
X1635526Y1274755D01*
X1635397Y1274644D01*
X1635248Y1274533D01*
X1635063Y1274403D01*
X1634859Y1274255D01*
X1634637Y1274107D01*
X1634397Y1273959D01*
X1634137Y1273792D01*
X1633860Y1273644D01*
X1633267Y1273366D01*
X1632601Y1273107D01*
Y1275329D01*
X1632619D01*
X1632637Y1275348D01*
X1632693Y1275366D01*
X1632767Y1275385D01*
X1632952Y1275477D01*
X1633212Y1275588D01*
X1633526Y1275736D01*
X1633878Y1275940D01*
X1634267Y1276199D01*
X1634674Y1276496D01*
X1634693Y1276514D01*
X1634730Y1276533D01*
X1634785Y1276588D01*
X1634859Y1276662D01*
X1635063Y1276848D01*
X1635285Y1277088D01*
X1635545Y1277384D01*
X1635804Y1277755D01*
X1636045Y1278144D01*
X1636230Y1278570D01*
X1638230D01*
Y1265682D01*
D02*
G37*
G36*
X1639692Y1283429D02*
X1637415D01*
Y1284781D01*
X1637396Y1284744D01*
X1637322Y1284651D01*
X1637193Y1284503D01*
X1637026Y1284337D01*
X1636841Y1284151D01*
X1636600Y1283948D01*
X1636341Y1283763D01*
X1636063Y1283596D01*
X1636026Y1283578D01*
X1635934Y1283540D01*
X1635767Y1283485D01*
X1635582Y1283411D01*
X1635341Y1283337D01*
X1635063Y1283281D01*
X1634785Y1283244D01*
X1634489Y1283226D01*
X1634341D01*
X1634230Y1283244D01*
X1634082Y1283263D01*
X1633934Y1283300D01*
X1633748Y1283337D01*
X1633545Y1283392D01*
X1633341Y1283448D01*
X1633119Y1283540D01*
X1632897Y1283633D01*
X1632656Y1283763D01*
X1632434Y1283911D01*
X1632193Y1284077D01*
X1631971Y1284281D01*
X1631749Y1284503D01*
X1631730Y1284522D01*
X1631693Y1284559D01*
X1631638Y1284633D01*
X1631582Y1284744D01*
X1631490Y1284874D01*
X1631397Y1285040D01*
X1631286Y1285226D01*
X1631193Y1285448D01*
X1631082Y1285688D01*
X1630971Y1285948D01*
X1630878Y1286244D01*
X1630804Y1286559D01*
X1630730Y1286911D01*
X1630675Y1287281D01*
X1630638Y1287670D01*
X1630619Y1288096D01*
Y1288114D01*
Y1288207D01*
Y1288318D01*
X1630638Y1288484D01*
X1630656Y1288688D01*
X1630675Y1288910D01*
X1630712Y1289169D01*
X1630749Y1289429D01*
X1630878Y1290021D01*
X1630971Y1290318D01*
X1631082Y1290614D01*
X1631212Y1290910D01*
X1631360Y1291188D01*
X1631526Y1291447D01*
X1631712Y1291688D01*
X1631730Y1291706D01*
X1631767Y1291743D01*
X1631823Y1291799D01*
X1631915Y1291891D01*
X1632027Y1291984D01*
X1632156Y1292077D01*
X1632304Y1292188D01*
X1632489Y1292317D01*
X1632675Y1292428D01*
X1632897Y1292540D01*
X1633360Y1292743D01*
X1633637Y1292817D01*
X1633915Y1292873D01*
X1634211Y1292910D01*
X1634526Y1292928D01*
X1634674D01*
X1634785Y1292910D01*
X1634915Y1292891D01*
X1635082Y1292854D01*
X1635248Y1292817D01*
X1635452Y1292762D01*
X1635656Y1292706D01*
X1635878Y1292614D01*
X1636100Y1292502D01*
X1636322Y1292391D01*
X1636563Y1292225D01*
X1636785Y1292058D01*
X1637007Y1291854D01*
X1637230Y1291632D01*
Y1296243D01*
X1639692D01*
Y1283429D01*
D02*
G37*
G36*
X1628749Y1294076D02*
X1621842D01*
Y1291243D01*
X1628268D01*
Y1289077D01*
X1621842D01*
Y1285596D01*
X1628990D01*
Y1283429D01*
X1619250D01*
Y1296243D01*
X1628749D01*
Y1294076D01*
D02*
G37*
G36*
X1656931Y1292910D02*
X1657098Y1292891D01*
X1657302Y1292854D01*
X1657524Y1292817D01*
X1657764Y1292762D01*
X1658024Y1292688D01*
X1658283Y1292595D01*
X1658561Y1292484D01*
X1658839Y1292336D01*
X1659098Y1292188D01*
X1659357Y1292003D01*
X1659616Y1291780D01*
X1659838Y1291540D01*
X1659857Y1291521D01*
X1659894Y1291484D01*
X1659949Y1291391D01*
X1660024Y1291280D01*
X1660116Y1291132D01*
X1660209Y1290966D01*
X1660320Y1290743D01*
X1660431Y1290503D01*
X1660542Y1290225D01*
X1660653Y1289910D01*
X1660746Y1289577D01*
X1660838Y1289188D01*
X1660912Y1288781D01*
X1660968Y1288336D01*
X1661005Y1287873D01*
Y1287355D01*
X1654857D01*
Y1287336D01*
Y1287299D01*
Y1287244D01*
X1654876Y1287170D01*
X1654895Y1286985D01*
X1654931Y1286725D01*
X1655006Y1286466D01*
X1655117Y1286170D01*
X1655246Y1285892D01*
X1655431Y1285651D01*
X1655450Y1285633D01*
X1655542Y1285559D01*
X1655654Y1285466D01*
X1655820Y1285355D01*
X1656024Y1285244D01*
X1656283Y1285151D01*
X1656561Y1285077D01*
X1656857Y1285059D01*
X1656950D01*
X1657061Y1285077D01*
X1657191Y1285096D01*
X1657339Y1285133D01*
X1657505Y1285188D01*
X1657672Y1285262D01*
X1657820Y1285374D01*
X1657839Y1285392D01*
X1657894Y1285429D01*
X1657968Y1285503D01*
X1658042Y1285614D01*
X1658153Y1285762D01*
X1658246Y1285929D01*
X1658338Y1286151D01*
X1658431Y1286392D01*
X1660875Y1285985D01*
Y1285966D01*
X1660857Y1285929D01*
X1660820Y1285855D01*
X1660783Y1285762D01*
X1660727Y1285651D01*
X1660672Y1285522D01*
X1660505Y1285226D01*
X1660301Y1284892D01*
X1660042Y1284540D01*
X1659727Y1284226D01*
X1659375Y1283929D01*
X1659357D01*
X1659338Y1283892D01*
X1659264Y1283874D01*
X1659190Y1283818D01*
X1659098Y1283763D01*
X1658968Y1283707D01*
X1658839Y1283652D01*
X1658672Y1283578D01*
X1658302Y1283448D01*
X1657876Y1283337D01*
X1657376Y1283263D01*
X1656839Y1283226D01*
X1656728D01*
X1656617Y1283244D01*
X1656450D01*
X1656246Y1283281D01*
X1656006Y1283318D01*
X1655746Y1283355D01*
X1655487Y1283429D01*
X1655191Y1283504D01*
X1654895Y1283615D01*
X1654598Y1283744D01*
X1654302Y1283892D01*
X1654006Y1284077D01*
X1653728Y1284281D01*
X1653487Y1284522D01*
X1653246Y1284800D01*
X1653228Y1284818D01*
X1653209Y1284855D01*
X1653172Y1284929D01*
X1653098Y1285022D01*
X1653043Y1285151D01*
X1652969Y1285300D01*
X1652876Y1285466D01*
X1652802Y1285670D01*
X1652710Y1285892D01*
X1652635Y1286133D01*
X1652543Y1286392D01*
X1652487Y1286688D01*
X1652432Y1286985D01*
X1652376Y1287299D01*
X1652358Y1287651D01*
X1652339Y1288003D01*
Y1288022D01*
Y1288096D01*
Y1288225D01*
X1652358Y1288392D01*
X1652376Y1288577D01*
X1652395Y1288799D01*
X1652432Y1289040D01*
X1652487Y1289318D01*
X1652635Y1289892D01*
X1652728Y1290188D01*
X1652839Y1290503D01*
X1652987Y1290799D01*
X1653154Y1291077D01*
X1653339Y1291355D01*
X1653543Y1291614D01*
X1653561Y1291632D01*
X1653598Y1291669D01*
X1653672Y1291743D01*
X1653765Y1291817D01*
X1653876Y1291910D01*
X1654024Y1292021D01*
X1654191Y1292151D01*
X1654376Y1292280D01*
X1654580Y1292391D01*
X1654820Y1292521D01*
X1655061Y1292632D01*
X1655339Y1292725D01*
X1655617Y1292799D01*
X1655931Y1292873D01*
X1656246Y1292910D01*
X1656579Y1292928D01*
X1656783D01*
X1656931Y1292910D01*
D02*
G37*
G36*
X1645636D02*
X1645766D01*
X1645895Y1292873D01*
X1646081Y1292854D01*
X1646266Y1292799D01*
X1646469Y1292743D01*
X1646692Y1292651D01*
X1646914Y1292558D01*
X1647155Y1292428D01*
X1647395Y1292280D01*
X1647636Y1292114D01*
X1647877Y1291891D01*
X1648099Y1291669D01*
X1648321Y1291391D01*
Y1292725D01*
X1650617D01*
Y1284374D01*
Y1284355D01*
Y1284300D01*
Y1284226D01*
Y1284115D01*
Y1283966D01*
X1650599Y1283818D01*
X1650580Y1283466D01*
X1650543Y1283059D01*
X1650506Y1282652D01*
X1650432Y1282263D01*
X1650395Y1282096D01*
X1650339Y1281929D01*
X1650321Y1281893D01*
X1650284Y1281800D01*
X1650228Y1281652D01*
X1650136Y1281467D01*
X1650025Y1281263D01*
X1649895Y1281041D01*
X1649747Y1280837D01*
X1649562Y1280652D01*
X1649543Y1280633D01*
X1649469Y1280578D01*
X1649358Y1280485D01*
X1649228Y1280393D01*
X1649043Y1280282D01*
X1648821Y1280152D01*
X1648562Y1280041D01*
X1648266Y1279930D01*
X1648228Y1279911D01*
X1648117Y1279893D01*
X1647951Y1279837D01*
X1647710Y1279800D01*
X1647395Y1279745D01*
X1647043Y1279689D01*
X1646636Y1279670D01*
X1646192Y1279652D01*
X1645970D01*
X1645803Y1279670D01*
X1645618D01*
X1645395Y1279689D01*
X1645155Y1279726D01*
X1644895Y1279763D01*
X1644340Y1279856D01*
X1643784Y1280004D01*
X1643525Y1280096D01*
X1643266Y1280208D01*
X1643044Y1280319D01*
X1642840Y1280467D01*
X1642822Y1280485D01*
X1642803Y1280504D01*
X1642692Y1280615D01*
X1642525Y1280782D01*
X1642359Y1281022D01*
X1642174Y1281319D01*
X1642007Y1281670D01*
X1641896Y1282078D01*
X1641877Y1282300D01*
X1641859Y1282522D01*
Y1282541D01*
Y1282615D01*
Y1282707D01*
X1641877Y1282818D01*
X1644692Y1282485D01*
Y1282466D01*
X1644710Y1282411D01*
X1644729Y1282318D01*
X1644747Y1282226D01*
X1644840Y1282004D01*
X1644914Y1281893D01*
X1645007Y1281818D01*
X1645025Y1281800D01*
X1645081Y1281781D01*
X1645155Y1281726D01*
X1645284Y1281689D01*
X1645432Y1281633D01*
X1645618Y1281578D01*
X1645840Y1281559D01*
X1646099Y1281541D01*
X1646266D01*
X1646432Y1281559D01*
X1646636Y1281578D01*
X1646877Y1281615D01*
X1647117Y1281670D01*
X1647340Y1281744D01*
X1647543Y1281837D01*
X1647562Y1281855D01*
X1647599Y1281874D01*
X1647655Y1281911D01*
X1647728Y1281985D01*
X1647803Y1282078D01*
X1647877Y1282189D01*
X1647951Y1282318D01*
X1648025Y1282466D01*
Y1282485D01*
X1648043Y1282522D01*
X1648062Y1282596D01*
X1648099Y1282726D01*
X1648117Y1282874D01*
X1648136Y1283059D01*
X1648154Y1283300D01*
Y1283578D01*
Y1284929D01*
X1648136Y1284911D01*
X1648099Y1284874D01*
X1648043Y1284800D01*
X1647951Y1284689D01*
X1647858Y1284577D01*
X1647728Y1284448D01*
X1647562Y1284318D01*
X1647395Y1284189D01*
X1647210Y1284040D01*
X1646988Y1283911D01*
X1646525Y1283670D01*
X1646266Y1283578D01*
X1645988Y1283504D01*
X1645692Y1283448D01*
X1645377Y1283429D01*
X1645303D01*
X1645192Y1283448D01*
X1645062D01*
X1644914Y1283485D01*
X1644729Y1283522D01*
X1644525Y1283559D01*
X1644303Y1283633D01*
X1644081Y1283707D01*
X1643840Y1283818D01*
X1643581Y1283948D01*
X1643340Y1284096D01*
X1643099Y1284281D01*
X1642859Y1284485D01*
X1642637Y1284725D01*
X1642414Y1285003D01*
Y1285022D01*
X1642377Y1285059D01*
X1642340Y1285133D01*
X1642285Y1285226D01*
X1642211Y1285355D01*
X1642137Y1285503D01*
X1642063Y1285670D01*
X1641988Y1285874D01*
X1641914Y1286077D01*
X1641840Y1286318D01*
X1641766Y1286577D01*
X1641692Y1286855D01*
X1641599Y1287448D01*
X1641581Y1287781D01*
X1641562Y1288114D01*
Y1288133D01*
Y1288225D01*
Y1288336D01*
X1641581Y1288503D01*
X1641599Y1288688D01*
X1641618Y1288910D01*
X1641655Y1289169D01*
X1641711Y1289429D01*
X1641840Y1290021D01*
X1641933Y1290318D01*
X1642025Y1290614D01*
X1642155Y1290892D01*
X1642303Y1291188D01*
X1642470Y1291447D01*
X1642673Y1291688D01*
X1642692Y1291706D01*
X1642729Y1291743D01*
X1642785Y1291799D01*
X1642877Y1291891D01*
X1642988Y1291984D01*
X1643118Y1292077D01*
X1643266Y1292188D01*
X1643451Y1292317D01*
X1643636Y1292428D01*
X1643859Y1292540D01*
X1644321Y1292743D01*
X1644599Y1292817D01*
X1644877Y1292873D01*
X1645173Y1292910D01*
X1645470Y1292928D01*
X1645544D01*
X1645636Y1292910D01*
D02*
G37*
G36*
X1658005Y1312722D02*
X1658209Y1312703D01*
X1658431Y1312666D01*
X1658690Y1312629D01*
X1658968Y1312574D01*
X1659264Y1312500D01*
X1659579Y1312407D01*
X1659894Y1312296D01*
X1660227Y1312148D01*
X1660542Y1312000D01*
X1660838Y1311815D01*
X1661153Y1311592D01*
X1661431Y1311352D01*
X1661449D01*
X1661468Y1311315D01*
X1661523Y1311259D01*
X1661579Y1311203D01*
X1661653Y1311111D01*
X1661727Y1311000D01*
X1661931Y1310741D01*
X1662134Y1310407D01*
X1662357Y1310000D01*
X1662560Y1309537D01*
X1662746Y1309000D01*
X1660190Y1308389D01*
Y1308407D01*
X1660172Y1308426D01*
Y1308482D01*
X1660135Y1308556D01*
X1660079Y1308722D01*
X1659987Y1308945D01*
X1659857Y1309204D01*
X1659690Y1309463D01*
X1659468Y1309722D01*
X1659227Y1309944D01*
X1659190Y1309963D01*
X1659098Y1310037D01*
X1658950Y1310130D01*
X1658746Y1310241D01*
X1658487Y1310352D01*
X1658190Y1310444D01*
X1657857Y1310518D01*
X1657487Y1310537D01*
X1657357D01*
X1657246Y1310518D01*
X1657135Y1310500D01*
X1656987Y1310481D01*
X1656672Y1310407D01*
X1656302Y1310278D01*
X1655913Y1310092D01*
X1655709Y1309981D01*
X1655524Y1309852D01*
X1655339Y1309685D01*
X1655172Y1309500D01*
Y1309482D01*
X1655135Y1309444D01*
X1655098Y1309389D01*
X1655043Y1309296D01*
X1654969Y1309185D01*
X1654895Y1309056D01*
X1654820Y1308889D01*
X1654746Y1308704D01*
X1654654Y1308482D01*
X1654580Y1308241D01*
X1654506Y1307963D01*
X1654431Y1307667D01*
X1654376Y1307334D01*
X1654339Y1306982D01*
X1654320Y1306593D01*
X1654302Y1306167D01*
Y1306149D01*
Y1306056D01*
Y1305926D01*
X1654320Y1305778D01*
Y1305574D01*
X1654357Y1305334D01*
X1654376Y1305093D01*
X1654413Y1304815D01*
X1654524Y1304241D01*
X1654672Y1303667D01*
X1654765Y1303389D01*
X1654895Y1303130D01*
X1655024Y1302890D01*
X1655172Y1302686D01*
X1655191Y1302667D01*
X1655209Y1302649D01*
X1655265Y1302593D01*
X1655339Y1302519D01*
X1655524Y1302371D01*
X1655783Y1302186D01*
X1656098Y1301982D01*
X1656487Y1301834D01*
X1656931Y1301705D01*
X1657172Y1301686D01*
X1657431Y1301667D01*
X1657524D01*
X1657598Y1301686D01*
X1657802Y1301705D01*
X1658042Y1301741D01*
X1658302Y1301834D01*
X1658598Y1301945D01*
X1658894Y1302093D01*
X1659190Y1302316D01*
X1659227Y1302353D01*
X1659320Y1302445D01*
X1659449Y1302593D01*
X1659598Y1302816D01*
X1659783Y1303112D01*
X1659949Y1303464D01*
X1660116Y1303889D01*
X1660264Y1304389D01*
X1662782Y1303612D01*
Y1303593D01*
X1662764Y1303519D01*
X1662727Y1303408D01*
X1662671Y1303260D01*
X1662597Y1303093D01*
X1662523Y1302890D01*
X1662431Y1302667D01*
X1662320Y1302427D01*
X1662060Y1301927D01*
X1661727Y1301408D01*
X1661320Y1300908D01*
X1661098Y1300686D01*
X1660857Y1300482D01*
X1660838Y1300464D01*
X1660801Y1300445D01*
X1660727Y1300390D01*
X1660616Y1300316D01*
X1660486Y1300242D01*
X1660320Y1300168D01*
X1660135Y1300075D01*
X1659931Y1299982D01*
X1659690Y1299871D01*
X1659431Y1299779D01*
X1659153Y1299705D01*
X1658857Y1299631D01*
X1658542Y1299557D01*
X1658190Y1299501D01*
X1657839Y1299483D01*
X1657450Y1299464D01*
X1657339D01*
X1657209Y1299483D01*
X1657024Y1299501D01*
X1656820Y1299520D01*
X1656561Y1299557D01*
X1656283Y1299612D01*
X1655968Y1299686D01*
X1655654Y1299779D01*
X1655320Y1299890D01*
X1654969Y1300038D01*
X1654617Y1300205D01*
X1654265Y1300390D01*
X1653913Y1300630D01*
X1653580Y1300890D01*
X1653265Y1301205D01*
X1653246Y1301223D01*
X1653191Y1301279D01*
X1653117Y1301390D01*
X1653006Y1301519D01*
X1652895Y1301705D01*
X1652746Y1301908D01*
X1652598Y1302167D01*
X1652450Y1302464D01*
X1652302Y1302778D01*
X1652154Y1303130D01*
X1652006Y1303538D01*
X1651895Y1303963D01*
X1651784Y1304408D01*
X1651710Y1304908D01*
X1651654Y1305426D01*
X1651635Y1305982D01*
Y1306000D01*
Y1306019D01*
Y1306130D01*
X1651654Y1306297D01*
Y1306519D01*
X1651691Y1306778D01*
X1651728Y1307093D01*
X1651765Y1307426D01*
X1651839Y1307815D01*
X1651932Y1308204D01*
X1652043Y1308611D01*
X1652173Y1309019D01*
X1652339Y1309444D01*
X1652524Y1309852D01*
X1652746Y1310241D01*
X1652987Y1310611D01*
X1653284Y1310963D01*
X1653302Y1310981D01*
X1653358Y1311037D01*
X1653450Y1311129D01*
X1653580Y1311241D01*
X1653746Y1311370D01*
X1653950Y1311518D01*
X1654172Y1311685D01*
X1654450Y1311852D01*
X1654746Y1312018D01*
X1655061Y1312185D01*
X1655431Y1312333D01*
X1655802Y1312463D01*
X1656228Y1312574D01*
X1656653Y1312666D01*
X1657135Y1312722D01*
X1657616Y1312740D01*
X1657839D01*
X1658005Y1312722D01*
D02*
G37*
G36*
X1680521Y1309167D02*
X1680725Y1309130D01*
X1680984Y1309074D01*
X1681262Y1308981D01*
X1681540Y1308870D01*
X1681836Y1308704D01*
X1681058Y1306574D01*
X1681040Y1306593D01*
X1680947Y1306630D01*
X1680836Y1306704D01*
X1680688Y1306778D01*
X1680503Y1306852D01*
X1680318Y1306926D01*
X1680114Y1306963D01*
X1679910Y1306982D01*
X1679836D01*
X1679725Y1306963D01*
X1679614Y1306945D01*
X1679485Y1306908D01*
X1679336Y1306852D01*
X1679188Y1306778D01*
X1679040Y1306685D01*
X1679022Y1306667D01*
X1678985Y1306630D01*
X1678911Y1306556D01*
X1678836Y1306445D01*
X1678744Y1306315D01*
X1678651Y1306130D01*
X1678559Y1305908D01*
X1678485Y1305648D01*
Y1305612D01*
X1678466Y1305556D01*
X1678448Y1305500D01*
Y1305408D01*
X1678429Y1305297D01*
X1678410Y1305149D01*
X1678392Y1304982D01*
X1678374Y1304797D01*
X1678355Y1304556D01*
X1678336Y1304315D01*
Y1304019D01*
X1678318Y1303704D01*
X1678299Y1303353D01*
Y1302964D01*
Y1302538D01*
Y1299686D01*
X1675837D01*
Y1308981D01*
X1678114D01*
Y1307667D01*
X1678133Y1307685D01*
X1678207Y1307796D01*
X1678318Y1307963D01*
X1678466Y1308167D01*
X1678614Y1308371D01*
X1678799Y1308574D01*
X1678966Y1308759D01*
X1679151Y1308889D01*
X1679170Y1308907D01*
X1679225Y1308945D01*
X1679336Y1308981D01*
X1679466Y1309037D01*
X1679614Y1309093D01*
X1679799Y1309148D01*
X1679984Y1309167D01*
X1680207Y1309185D01*
X1680355D01*
X1680521Y1309167D01*
D02*
G37*
G36*
X1635008D02*
X1635193Y1309148D01*
X1635397Y1309130D01*
X1635619Y1309111D01*
X1636082Y1309037D01*
X1636544Y1308926D01*
X1636989Y1308759D01*
X1637193Y1308667D01*
X1637378Y1308556D01*
X1637396D01*
X1637415Y1308519D01*
X1637526Y1308445D01*
X1637693Y1308296D01*
X1637878Y1308093D01*
X1638100Y1307852D01*
X1638304Y1307537D01*
X1638507Y1307167D01*
X1638655Y1306741D01*
X1636341Y1306315D01*
Y1306334D01*
X1636304Y1306408D01*
X1636267Y1306500D01*
X1636211Y1306611D01*
X1636137Y1306759D01*
X1636026Y1306889D01*
X1635915Y1307019D01*
X1635767Y1307130D01*
X1635748Y1307148D01*
X1635693Y1307185D01*
X1635600Y1307222D01*
X1635470Y1307278D01*
X1635304Y1307334D01*
X1635100Y1307389D01*
X1634859Y1307408D01*
X1634582Y1307426D01*
X1634415D01*
X1634248Y1307408D01*
X1634045Y1307389D01*
X1633804Y1307352D01*
X1633582Y1307315D01*
X1633378Y1307241D01*
X1633193Y1307148D01*
X1633174D01*
X1633156Y1307111D01*
X1633063Y1307019D01*
X1632952Y1306852D01*
X1632934Y1306759D01*
X1632915Y1306648D01*
Y1306630D01*
Y1306611D01*
X1632952Y1306500D01*
X1633026Y1306352D01*
X1633082Y1306278D01*
X1633156Y1306204D01*
X1633174Y1306185D01*
X1633248Y1306167D01*
X1633286Y1306130D01*
X1633360Y1306111D01*
X1633452Y1306074D01*
X1633563Y1306019D01*
X1633712Y1305982D01*
X1633860Y1305926D01*
X1634045Y1305871D01*
X1634267Y1305815D01*
X1634508Y1305741D01*
X1634785Y1305667D01*
X1635100Y1305593D01*
X1635452Y1305500D01*
X1635470D01*
X1635545Y1305482D01*
X1635637Y1305463D01*
X1635767Y1305426D01*
X1635934Y1305371D01*
X1636119Y1305334D01*
X1636526Y1305204D01*
X1636989Y1305038D01*
X1637433Y1304852D01*
X1637655Y1304741D01*
X1637859Y1304649D01*
X1638026Y1304519D01*
X1638192Y1304408D01*
X1638230Y1304371D01*
X1638322Y1304297D01*
X1638433Y1304149D01*
X1638581Y1303945D01*
X1638730Y1303686D01*
X1638841Y1303371D01*
X1638933Y1303001D01*
X1638970Y1302593D01*
Y1302575D01*
Y1302538D01*
Y1302464D01*
X1638952Y1302371D01*
X1638933Y1302278D01*
X1638915Y1302149D01*
X1638841Y1301834D01*
X1638711Y1301501D01*
X1638618Y1301316D01*
X1638526Y1301131D01*
X1638396Y1300945D01*
X1638248Y1300760D01*
X1638081Y1300575D01*
X1637896Y1300390D01*
X1637878Y1300371D01*
X1637841Y1300353D01*
X1637785Y1300316D01*
X1637693Y1300242D01*
X1637581Y1300186D01*
X1637452Y1300112D01*
X1637285Y1300020D01*
X1637100Y1299945D01*
X1636896Y1299853D01*
X1636656Y1299779D01*
X1636396Y1299686D01*
X1636119Y1299631D01*
X1635804Y1299575D01*
X1635470Y1299520D01*
X1635119Y1299501D01*
X1634748Y1299483D01*
X1634563D01*
X1634434Y1299501D01*
X1634267D01*
X1634082Y1299520D01*
X1633878Y1299538D01*
X1633656Y1299575D01*
X1633174Y1299668D01*
X1632675Y1299797D01*
X1632175Y1299982D01*
X1631952Y1300112D01*
X1631730Y1300242D01*
X1631712Y1300260D01*
X1631675Y1300279D01*
X1631619Y1300316D01*
X1631564Y1300390D01*
X1631360Y1300556D01*
X1631138Y1300797D01*
X1630897Y1301093D01*
X1630675Y1301445D01*
X1630471Y1301871D01*
X1630304Y1302334D01*
X1632767Y1302704D01*
Y1302667D01*
X1632804Y1302593D01*
X1632841Y1302464D01*
X1632897Y1302297D01*
X1632989Y1302112D01*
X1633100Y1301945D01*
X1633230Y1301760D01*
X1633397Y1301612D01*
X1633415Y1301593D01*
X1633489Y1301556D01*
X1633600Y1301501D01*
X1633748Y1301445D01*
X1633934Y1301371D01*
X1634174Y1301316D01*
X1634434Y1301279D01*
X1634748Y1301260D01*
X1634897D01*
X1635082Y1301279D01*
X1635285Y1301297D01*
X1635508Y1301334D01*
X1635748Y1301408D01*
X1635970Y1301482D01*
X1636174Y1301593D01*
X1636193Y1301612D01*
X1636230Y1301649D01*
X1636285Y1301705D01*
X1636341Y1301779D01*
X1636396Y1301871D01*
X1636452Y1301982D01*
X1636489Y1302112D01*
X1636508Y1302260D01*
Y1302278D01*
Y1302316D01*
X1636489Y1302427D01*
X1636433Y1302575D01*
X1636322Y1302723D01*
X1636285Y1302760D01*
X1636230Y1302778D01*
X1636156Y1302834D01*
X1636045Y1302871D01*
X1635896Y1302927D01*
X1635730Y1302982D01*
X1635508Y1303038D01*
X1635470D01*
X1635378Y1303075D01*
X1635230Y1303112D01*
X1635026Y1303149D01*
X1634785Y1303204D01*
X1634526Y1303278D01*
X1634230Y1303353D01*
X1633915Y1303445D01*
X1633267Y1303630D01*
X1632952Y1303723D01*
X1632656Y1303834D01*
X1632378Y1303927D01*
X1632119Y1304038D01*
X1631897Y1304149D01*
X1631730Y1304241D01*
X1631712Y1304260D01*
X1631675Y1304278D01*
X1631638Y1304315D01*
X1631564Y1304389D01*
X1631378Y1304556D01*
X1631193Y1304797D01*
X1630990Y1305093D01*
X1630804Y1305445D01*
X1630730Y1305648D01*
X1630693Y1305871D01*
X1630656Y1306093D01*
X1630638Y1306334D01*
Y1306352D01*
Y1306389D01*
Y1306445D01*
X1630656Y1306537D01*
X1630675Y1306630D01*
X1630693Y1306759D01*
X1630749Y1307037D01*
X1630860Y1307352D01*
X1631045Y1307685D01*
X1631138Y1307870D01*
X1631267Y1308037D01*
X1631415Y1308204D01*
X1631582Y1308352D01*
X1631601Y1308371D01*
X1631619Y1308389D01*
X1631675Y1308426D01*
X1631767Y1308482D01*
X1631860Y1308537D01*
X1631989Y1308611D01*
X1632138Y1308685D01*
X1632304Y1308778D01*
X1632508Y1308852D01*
X1632730Y1308926D01*
X1632971Y1309000D01*
X1633230Y1309056D01*
X1633526Y1309111D01*
X1633841Y1309148D01*
X1634174Y1309185D01*
X1634859D01*
X1635008Y1309167D01*
D02*
G37*
G36*
X1628749Y1310333D02*
X1621842D01*
Y1307500D01*
X1628268D01*
Y1305334D01*
X1621842D01*
Y1301853D01*
X1628990D01*
Y1299686D01*
X1619250D01*
Y1312500D01*
X1628749D01*
Y1310333D01*
D02*
G37*
G36*
X1686780Y1309167D02*
X1686947Y1309148D01*
X1687150Y1309111D01*
X1687373Y1309074D01*
X1687613Y1309019D01*
X1687872Y1308945D01*
X1688132Y1308852D01*
X1688409Y1308741D01*
X1688687Y1308593D01*
X1688947Y1308445D01*
X1689206Y1308259D01*
X1689465Y1308037D01*
X1689687Y1307796D01*
X1689706Y1307778D01*
X1689743Y1307741D01*
X1689798Y1307648D01*
X1689872Y1307537D01*
X1689965Y1307389D01*
X1690058Y1307222D01*
X1690169Y1307000D01*
X1690280Y1306759D01*
X1690391Y1306482D01*
X1690502Y1306167D01*
X1690594Y1305834D01*
X1690687Y1305445D01*
X1690761Y1305038D01*
X1690817Y1304593D01*
X1690854Y1304130D01*
Y1303612D01*
X1684706D01*
Y1303593D01*
Y1303556D01*
Y1303501D01*
X1684725Y1303427D01*
X1684743Y1303241D01*
X1684780Y1302982D01*
X1684854Y1302723D01*
X1684965Y1302427D01*
X1685095Y1302149D01*
X1685280Y1301908D01*
X1685299Y1301890D01*
X1685391Y1301816D01*
X1685502Y1301723D01*
X1685669Y1301612D01*
X1685873Y1301501D01*
X1686132Y1301408D01*
X1686410Y1301334D01*
X1686706Y1301316D01*
X1686799D01*
X1686910Y1301334D01*
X1687039Y1301353D01*
X1687187Y1301390D01*
X1687354Y1301445D01*
X1687521Y1301519D01*
X1687669Y1301630D01*
X1687687Y1301649D01*
X1687743Y1301686D01*
X1687817Y1301760D01*
X1687891Y1301871D01*
X1688002Y1302019D01*
X1688095Y1302186D01*
X1688187Y1302408D01*
X1688280Y1302649D01*
X1690724Y1302242D01*
Y1302223D01*
X1690706Y1302186D01*
X1690668Y1302112D01*
X1690632Y1302019D01*
X1690576Y1301908D01*
X1690520Y1301779D01*
X1690354Y1301482D01*
X1690150Y1301149D01*
X1689891Y1300797D01*
X1689576Y1300482D01*
X1689224Y1300186D01*
X1689206D01*
X1689187Y1300149D01*
X1689113Y1300131D01*
X1689039Y1300075D01*
X1688947Y1300020D01*
X1688817Y1299964D01*
X1688687Y1299908D01*
X1688521Y1299834D01*
X1688150Y1299705D01*
X1687724Y1299594D01*
X1687224Y1299520D01*
X1686687Y1299483D01*
X1686576D01*
X1686465Y1299501D01*
X1686299D01*
X1686095Y1299538D01*
X1685854Y1299575D01*
X1685595Y1299612D01*
X1685336Y1299686D01*
X1685040Y1299760D01*
X1684743Y1299871D01*
X1684447Y1300001D01*
X1684151Y1300149D01*
X1683854Y1300334D01*
X1683577Y1300538D01*
X1683336Y1300779D01*
X1683095Y1301056D01*
X1683077Y1301075D01*
X1683058Y1301112D01*
X1683021Y1301186D01*
X1682947Y1301279D01*
X1682892Y1301408D01*
X1682818Y1301556D01*
X1682725Y1301723D01*
X1682651Y1301927D01*
X1682558Y1302149D01*
X1682484Y1302390D01*
X1682392Y1302649D01*
X1682336Y1302945D01*
X1682280Y1303241D01*
X1682225Y1303556D01*
X1682206Y1303908D01*
X1682188Y1304260D01*
Y1304278D01*
Y1304352D01*
Y1304482D01*
X1682206Y1304649D01*
X1682225Y1304834D01*
X1682243Y1305056D01*
X1682280Y1305297D01*
X1682336Y1305574D01*
X1682484Y1306149D01*
X1682577Y1306445D01*
X1682688Y1306759D01*
X1682836Y1307056D01*
X1683003Y1307334D01*
X1683188Y1307611D01*
X1683392Y1307870D01*
X1683410Y1307889D01*
X1683447Y1307926D01*
X1683521Y1308000D01*
X1683614Y1308074D01*
X1683725Y1308167D01*
X1683873Y1308278D01*
X1684040Y1308407D01*
X1684225Y1308537D01*
X1684428Y1308648D01*
X1684669Y1308778D01*
X1684910Y1308889D01*
X1685188Y1308981D01*
X1685465Y1309056D01*
X1685780Y1309130D01*
X1686095Y1309167D01*
X1686428Y1309185D01*
X1686632D01*
X1686780Y1309167D01*
D02*
G37*
G36*
X1669560D02*
X1669745Y1309148D01*
X1669948Y1309111D01*
X1670189Y1309074D01*
X1670430Y1309019D01*
X1670708Y1308945D01*
X1670985Y1308852D01*
X1671263Y1308741D01*
X1671559Y1308611D01*
X1671856Y1308445D01*
X1672133Y1308259D01*
X1672411Y1308056D01*
X1672670Y1307815D01*
X1672689Y1307796D01*
X1672726Y1307759D01*
X1672800Y1307667D01*
X1672874Y1307574D01*
X1672985Y1307426D01*
X1673096Y1307278D01*
X1673226Y1307074D01*
X1673356Y1306871D01*
X1673467Y1306630D01*
X1673596Y1306371D01*
X1673707Y1306074D01*
X1673818Y1305778D01*
X1673893Y1305445D01*
X1673967Y1305112D01*
X1674004Y1304741D01*
X1674022Y1304352D01*
Y1304334D01*
Y1304260D01*
Y1304149D01*
X1674004Y1304001D01*
X1673985Y1303815D01*
X1673948Y1303612D01*
X1673911Y1303371D01*
X1673855Y1303130D01*
X1673781Y1302852D01*
X1673689Y1302575D01*
X1673578Y1302278D01*
X1673448Y1301982D01*
X1673281Y1301686D01*
X1673096Y1301408D01*
X1672893Y1301131D01*
X1672652Y1300853D01*
X1672633Y1300834D01*
X1672596Y1300797D01*
X1672522Y1300723D01*
X1672411Y1300630D01*
X1672281Y1300538D01*
X1672115Y1300427D01*
X1671930Y1300297D01*
X1671726Y1300168D01*
X1671485Y1300038D01*
X1671226Y1299908D01*
X1670948Y1299797D01*
X1670634Y1299705D01*
X1670319Y1299612D01*
X1669967Y1299538D01*
X1669615Y1299501D01*
X1669226Y1299483D01*
X1669097D01*
X1669004Y1299501D01*
X1668893D01*
X1668763Y1299520D01*
X1668449Y1299557D01*
X1668060Y1299631D01*
X1667652Y1299723D01*
X1667227Y1299871D01*
X1666782Y1300056D01*
X1666764D01*
X1666727Y1300075D01*
X1666671Y1300112D01*
X1666597Y1300168D01*
X1666393Y1300297D01*
X1666134Y1300482D01*
X1665856Y1300723D01*
X1665560Y1301019D01*
X1665282Y1301353D01*
X1665023Y1301741D01*
Y1301760D01*
X1665004Y1301797D01*
X1664967Y1301853D01*
X1664931Y1301945D01*
X1664893Y1302056D01*
X1664838Y1302186D01*
X1664782Y1302334D01*
X1664727Y1302501D01*
X1664671Y1302686D01*
X1664616Y1302890D01*
X1664523Y1303353D01*
X1664449Y1303889D01*
X1664431Y1304464D01*
Y1304482D01*
Y1304519D01*
Y1304593D01*
X1664449Y1304667D01*
Y1304778D01*
X1664467Y1304908D01*
X1664505Y1305223D01*
X1664579Y1305574D01*
X1664690Y1305963D01*
X1664819Y1306389D01*
X1665023Y1306815D01*
Y1306834D01*
X1665060Y1306871D01*
X1665079Y1306926D01*
X1665134Y1307000D01*
X1665282Y1307204D01*
X1665467Y1307463D01*
X1665708Y1307741D01*
X1666004Y1308037D01*
X1666338Y1308315D01*
X1666727Y1308574D01*
X1666745D01*
X1666782Y1308593D01*
X1666838Y1308630D01*
X1666930Y1308667D01*
X1667023Y1308722D01*
X1667152Y1308759D01*
X1667301Y1308815D01*
X1667449Y1308889D01*
X1667819Y1309000D01*
X1668245Y1309093D01*
X1668708Y1309167D01*
X1669208Y1309185D01*
X1669411D01*
X1669560Y1309167D01*
D02*
G37*
G36*
X1645692D02*
X1645877Y1309148D01*
X1646081Y1309111D01*
X1646321Y1309074D01*
X1646562Y1309019D01*
X1646840Y1308945D01*
X1647117Y1308852D01*
X1647395Y1308741D01*
X1647691Y1308611D01*
X1647988Y1308445D01*
X1648266Y1308259D01*
X1648543Y1308056D01*
X1648802Y1307815D01*
X1648821Y1307796D01*
X1648858Y1307759D01*
X1648932Y1307667D01*
X1649006Y1307574D01*
X1649117Y1307426D01*
X1649228Y1307278D01*
X1649358Y1307074D01*
X1649488Y1306871D01*
X1649599Y1306630D01*
X1649728Y1306371D01*
X1649839Y1306074D01*
X1649951Y1305778D01*
X1650025Y1305445D01*
X1650099Y1305112D01*
X1650136Y1304741D01*
X1650154Y1304352D01*
Y1304334D01*
Y1304260D01*
Y1304149D01*
X1650136Y1304001D01*
X1650117Y1303815D01*
X1650080Y1303612D01*
X1650043Y1303371D01*
X1649988Y1303130D01*
X1649913Y1302852D01*
X1649821Y1302575D01*
X1649710Y1302278D01*
X1649580Y1301982D01*
X1649413Y1301686D01*
X1649228Y1301408D01*
X1649025Y1301131D01*
X1648784Y1300853D01*
X1648766Y1300834D01*
X1648728Y1300797D01*
X1648654Y1300723D01*
X1648543Y1300630D01*
X1648414Y1300538D01*
X1648247Y1300427D01*
X1648062Y1300297D01*
X1647858Y1300168D01*
X1647617Y1300038D01*
X1647358Y1299908D01*
X1647080Y1299797D01*
X1646766Y1299705D01*
X1646451Y1299612D01*
X1646099Y1299538D01*
X1645747Y1299501D01*
X1645358Y1299483D01*
X1645229D01*
X1645136Y1299501D01*
X1645025D01*
X1644895Y1299520D01*
X1644581Y1299557D01*
X1644192Y1299631D01*
X1643784Y1299723D01*
X1643359Y1299871D01*
X1642914Y1300056D01*
X1642896D01*
X1642859Y1300075D01*
X1642803Y1300112D01*
X1642729Y1300168D01*
X1642525Y1300297D01*
X1642266Y1300482D01*
X1641988Y1300723D01*
X1641692Y1301019D01*
X1641414Y1301353D01*
X1641155Y1301741D01*
Y1301760D01*
X1641137Y1301797D01*
X1641100Y1301853D01*
X1641063Y1301945D01*
X1641026Y1302056D01*
X1640970Y1302186D01*
X1640914Y1302334D01*
X1640859Y1302501D01*
X1640803Y1302686D01*
X1640748Y1302890D01*
X1640655Y1303353D01*
X1640581Y1303889D01*
X1640563Y1304464D01*
Y1304482D01*
Y1304519D01*
Y1304593D01*
X1640581Y1304667D01*
Y1304778D01*
X1640600Y1304908D01*
X1640637Y1305223D01*
X1640711Y1305574D01*
X1640822Y1305963D01*
X1640952Y1306389D01*
X1641155Y1306815D01*
Y1306834D01*
X1641192Y1306871D01*
X1641211Y1306926D01*
X1641266Y1307000D01*
X1641414Y1307204D01*
X1641599Y1307463D01*
X1641840Y1307741D01*
X1642137Y1308037D01*
X1642470Y1308315D01*
X1642859Y1308574D01*
X1642877D01*
X1642914Y1308593D01*
X1642970Y1308630D01*
X1643062Y1308667D01*
X1643155Y1308722D01*
X1643284Y1308759D01*
X1643433Y1308815D01*
X1643581Y1308889D01*
X1643951Y1309000D01*
X1644377Y1309093D01*
X1644840Y1309167D01*
X1645340Y1309185D01*
X1645544D01*
X1645692Y1309167D01*
D02*
G37*
%LPC*%
G36*
X1635174Y1291040D02*
X1635137D01*
X1635026Y1291021D01*
X1634859Y1291003D01*
X1634674Y1290947D01*
X1634434Y1290873D01*
X1634193Y1290743D01*
X1633952Y1290577D01*
X1633712Y1290336D01*
X1633693Y1290299D01*
X1633619Y1290206D01*
X1633526Y1290040D01*
X1633434Y1289818D01*
X1633323Y1289521D01*
X1633230Y1289169D01*
X1633156Y1288744D01*
X1633137Y1288262D01*
Y1288244D01*
Y1288207D01*
Y1288114D01*
Y1288022D01*
X1633156Y1287892D01*
Y1287762D01*
X1633193Y1287448D01*
X1633230Y1287096D01*
X1633304Y1286725D01*
X1633415Y1286392D01*
X1633471Y1286244D01*
X1633545Y1286114D01*
Y1286096D01*
X1633582Y1286077D01*
X1633656Y1285966D01*
X1633786Y1285818D01*
X1633971Y1285651D01*
X1634211Y1285466D01*
X1634489Y1285318D01*
X1634823Y1285207D01*
X1635008Y1285188D01*
X1635193Y1285170D01*
X1635230D01*
X1635341Y1285188D01*
X1635489Y1285207D01*
X1635693Y1285262D01*
X1635915Y1285337D01*
X1636156Y1285466D01*
X1636396Y1285633D01*
X1636637Y1285874D01*
X1636656Y1285911D01*
X1636730Y1286003D01*
X1636822Y1286170D01*
X1636933Y1286411D01*
X1637045Y1286707D01*
X1637137Y1287077D01*
X1637211Y1287522D01*
X1637230Y1288022D01*
Y1288040D01*
Y1288096D01*
Y1288170D01*
Y1288281D01*
X1637211Y1288410D01*
X1637193Y1288577D01*
X1637156Y1288910D01*
X1637081Y1289299D01*
X1636989Y1289669D01*
X1636841Y1290040D01*
X1636748Y1290188D01*
X1636637Y1290336D01*
X1636619Y1290373D01*
X1636526Y1290447D01*
X1636415Y1290558D01*
X1636248Y1290688D01*
X1636026Y1290818D01*
X1635785Y1290929D01*
X1635489Y1291003D01*
X1635174Y1291040D01*
D02*
G37*
G36*
X1656728D02*
X1656598D01*
X1656450Y1291003D01*
X1656265Y1290966D01*
X1656061Y1290892D01*
X1655839Y1290799D01*
X1655617Y1290651D01*
X1655413Y1290447D01*
X1655394Y1290429D01*
X1655339Y1290336D01*
X1655246Y1290206D01*
X1655154Y1290021D01*
X1655043Y1289799D01*
X1654969Y1289521D01*
X1654913Y1289207D01*
X1654895Y1288855D01*
X1658561D01*
Y1288873D01*
Y1288910D01*
Y1288947D01*
X1658542Y1289021D01*
X1658524Y1289225D01*
X1658487Y1289447D01*
X1658413Y1289707D01*
X1658320Y1289984D01*
X1658172Y1290244D01*
X1658005Y1290466D01*
X1657987Y1290484D01*
X1657913Y1290558D01*
X1657802Y1290651D01*
X1657653Y1290762D01*
X1657468Y1290854D01*
X1657246Y1290947D01*
X1657005Y1291021D01*
X1656728Y1291040D01*
D02*
G37*
G36*
X1646099D02*
X1646062D01*
X1645951Y1291021D01*
X1645784Y1291003D01*
X1645581Y1290947D01*
X1645358Y1290873D01*
X1645099Y1290743D01*
X1644859Y1290577D01*
X1644636Y1290336D01*
X1644618Y1290299D01*
X1644544Y1290206D01*
X1644470Y1290040D01*
X1644359Y1289818D01*
X1644266Y1289521D01*
X1644173Y1289169D01*
X1644099Y1288744D01*
X1644081Y1288244D01*
Y1288225D01*
Y1288188D01*
Y1288096D01*
X1644099Y1288003D01*
Y1287892D01*
X1644118Y1287744D01*
X1644155Y1287429D01*
X1644210Y1287077D01*
X1644321Y1286725D01*
X1644451Y1286392D01*
X1644636Y1286096D01*
X1644655Y1286059D01*
X1644747Y1285985D01*
X1644859Y1285874D01*
X1645025Y1285762D01*
X1645229Y1285633D01*
X1645470Y1285522D01*
X1645747Y1285448D01*
X1646044Y1285411D01*
X1646081D01*
X1646192Y1285429D01*
X1646358Y1285448D01*
X1646581Y1285503D01*
X1646821Y1285577D01*
X1647062Y1285707D01*
X1647321Y1285874D01*
X1647562Y1286114D01*
X1647580Y1286151D01*
X1647655Y1286244D01*
X1647766Y1286411D01*
X1647877Y1286633D01*
X1647988Y1286929D01*
X1648099Y1287281D01*
X1648173Y1287707D01*
X1648191Y1288188D01*
Y1288207D01*
Y1288244D01*
Y1288318D01*
Y1288429D01*
X1648173Y1288540D01*
X1648154Y1288688D01*
X1648117Y1289003D01*
X1648043Y1289355D01*
X1647951Y1289707D01*
X1647803Y1290040D01*
X1647599Y1290336D01*
X1647580Y1290373D01*
X1647488Y1290447D01*
X1647358Y1290558D01*
X1647191Y1290688D01*
X1646969Y1290818D01*
X1646710Y1290929D01*
X1646432Y1291003D01*
X1646099Y1291040D01*
D02*
G37*
G36*
X1686576Y1307296D02*
X1686447D01*
X1686299Y1307260D01*
X1686113Y1307222D01*
X1685910Y1307148D01*
X1685688Y1307056D01*
X1685465Y1306908D01*
X1685262Y1306704D01*
X1685243Y1306685D01*
X1685188Y1306593D01*
X1685095Y1306463D01*
X1685002Y1306278D01*
X1684891Y1306056D01*
X1684817Y1305778D01*
X1684762Y1305463D01*
X1684743Y1305112D01*
X1688409D01*
Y1305130D01*
Y1305167D01*
Y1305204D01*
X1688391Y1305278D01*
X1688372Y1305482D01*
X1688335Y1305704D01*
X1688261Y1305963D01*
X1688169Y1306241D01*
X1688021Y1306500D01*
X1687854Y1306723D01*
X1687836Y1306741D01*
X1687761Y1306815D01*
X1687650Y1306908D01*
X1687502Y1307019D01*
X1687317Y1307111D01*
X1687095Y1307204D01*
X1686854Y1307278D01*
X1686576Y1307296D01*
D02*
G37*
G36*
X1669226Y1307185D02*
X1669134D01*
X1669060Y1307167D01*
X1668893Y1307148D01*
X1668671Y1307093D01*
X1668412Y1307000D01*
X1668134Y1306871D01*
X1667856Y1306685D01*
X1667597Y1306445D01*
X1667578Y1306408D01*
X1667504Y1306315D01*
X1667393Y1306130D01*
X1667282Y1305908D01*
X1667152Y1305612D01*
X1667060Y1305241D01*
X1666986Y1304815D01*
X1666949Y1304334D01*
Y1304315D01*
Y1304278D01*
Y1304204D01*
X1666967Y1304112D01*
Y1303982D01*
X1666986Y1303852D01*
X1667023Y1303556D01*
X1667115Y1303204D01*
X1667227Y1302852D01*
X1667375Y1302501D01*
X1667597Y1302204D01*
X1667634Y1302167D01*
X1667708Y1302093D01*
X1667856Y1301982D01*
X1668060Y1301853D01*
X1668282Y1301705D01*
X1668560Y1301593D01*
X1668875Y1301519D01*
X1669226Y1301482D01*
X1669319D01*
X1669393Y1301501D01*
X1669560Y1301519D01*
X1669782Y1301575D01*
X1670041Y1301667D01*
X1670319Y1301779D01*
X1670578Y1301964D01*
X1670837Y1302204D01*
X1670874Y1302242D01*
X1670948Y1302334D01*
X1671041Y1302519D01*
X1671171Y1302741D01*
X1671300Y1303056D01*
X1671393Y1303408D01*
X1671467Y1303852D01*
X1671504Y1304334D01*
Y1304352D01*
Y1304389D01*
Y1304464D01*
X1671485Y1304556D01*
Y1304667D01*
X1671467Y1304815D01*
X1671430Y1305112D01*
X1671337Y1305445D01*
X1671226Y1305797D01*
X1671059Y1306149D01*
X1670837Y1306445D01*
X1670800Y1306482D01*
X1670726Y1306556D01*
X1670578Y1306685D01*
X1670393Y1306815D01*
X1670152Y1306945D01*
X1669893Y1307074D01*
X1669578Y1307148D01*
X1669226Y1307185D01*
D02*
G37*
G36*
X1645358D02*
X1645266D01*
X1645192Y1307167D01*
X1645025Y1307148D01*
X1644803Y1307093D01*
X1644544Y1307000D01*
X1644266Y1306871D01*
X1643988Y1306685D01*
X1643729Y1306445D01*
X1643710Y1306408D01*
X1643636Y1306315D01*
X1643525Y1306130D01*
X1643414Y1305908D01*
X1643284Y1305612D01*
X1643192Y1305241D01*
X1643118Y1304815D01*
X1643081Y1304334D01*
Y1304315D01*
Y1304278D01*
Y1304204D01*
X1643099Y1304112D01*
Y1303982D01*
X1643118Y1303852D01*
X1643155Y1303556D01*
X1643248Y1303204D01*
X1643359Y1302852D01*
X1643507Y1302501D01*
X1643729Y1302204D01*
X1643766Y1302167D01*
X1643840Y1302093D01*
X1643988Y1301982D01*
X1644192Y1301853D01*
X1644414Y1301705D01*
X1644692Y1301593D01*
X1645007Y1301519D01*
X1645358Y1301482D01*
X1645451D01*
X1645525Y1301501D01*
X1645692Y1301519D01*
X1645914Y1301575D01*
X1646173Y1301667D01*
X1646451Y1301779D01*
X1646710Y1301964D01*
X1646969Y1302204D01*
X1647006Y1302242D01*
X1647080Y1302334D01*
X1647173Y1302519D01*
X1647303Y1302741D01*
X1647432Y1303056D01*
X1647525Y1303408D01*
X1647599Y1303852D01*
X1647636Y1304334D01*
Y1304352D01*
Y1304389D01*
Y1304464D01*
X1647617Y1304556D01*
Y1304667D01*
X1647599Y1304815D01*
X1647562Y1305112D01*
X1647469Y1305445D01*
X1647358Y1305797D01*
X1647191Y1306149D01*
X1646969Y1306445D01*
X1646932Y1306482D01*
X1646858Y1306556D01*
X1646710Y1306685D01*
X1646525Y1306815D01*
X1646284Y1306945D01*
X1646025Y1307074D01*
X1645710Y1307148D01*
X1645358Y1307185D01*
D02*
G37*
%LPD*%
D28*
X245811Y1310063D02*
D03*
Y1293564D02*
D03*
X261457D02*
D03*
Y1310063D02*
D03*
X1683309Y1236542D02*
D03*
Y1220042D02*
D03*
X1390650Y1207008D02*
D03*
Y1223508D02*
D03*
X1398016Y1158250D02*
D03*
Y1174750D02*
D03*
X1335294Y1222138D02*
D03*
Y1205638D02*
D03*
X1319734Y1222138D02*
D03*
Y1205638D02*
D03*
X1442974Y893064D02*
D03*
Y909564D02*
D03*
X1091880Y1003036D02*
D03*
Y986536D02*
D03*
X1061908Y1003036D02*
D03*
Y986536D02*
D03*
X1076960Y1003036D02*
D03*
Y986536D02*
D03*
X294706Y814382D02*
D03*
Y797883D02*
D03*
X208976Y594291D02*
D03*
Y577791D02*
D03*
X224282Y594614D02*
D03*
Y578114D02*
D03*
X493456Y604706D02*
D03*
Y588205D02*
D03*
X508539Y604609D02*
D03*
Y588109D02*
D03*
X523778Y604609D02*
D03*
Y588109D02*
D03*
X539019Y604609D02*
D03*
Y588109D02*
D03*
X554324Y604609D02*
D03*
Y588109D02*
D03*
X569498Y604609D02*
D03*
Y588109D02*
D03*
X584551Y604609D02*
D03*
Y588109D02*
D03*
X599790Y604609D02*
D03*
Y588109D02*
D03*
X388940Y622877D02*
D03*
Y639376D02*
D03*
X585912Y707956D02*
D03*
Y691457D02*
D03*
X601152D02*
D03*
Y707956D02*
D03*
X502159Y787120D02*
D03*
Y770620D02*
D03*
X1420302Y902393D02*
D03*
Y885893D02*
D03*
X1405062Y902393D02*
D03*
Y885893D02*
D03*
X1531606Y531067D02*
D03*
Y514567D02*
D03*
X1072322Y679391D02*
D03*
Y695891D02*
D03*
X1113978Y676344D02*
D03*
Y692843D02*
D03*
X1150300Y811217D02*
D03*
Y827718D02*
D03*
X1199957Y960051D02*
D03*
Y943551D02*
D03*
X708980Y839792D02*
D03*
Y856292D02*
D03*
X725932Y839978D02*
D03*
Y856478D02*
D03*
X741172Y839978D02*
D03*
Y856478D02*
D03*
X710880Y938716D02*
D03*
Y922215D02*
D03*
X1325626Y958586D02*
D03*
Y942086D02*
D03*
X1341120D02*
D03*
Y958586D02*
D03*
D29*
X244112Y1277356D02*
D03*
X260612D02*
D03*
X1184308Y880125D02*
D03*
X1167808D02*
D03*
X1167783Y895436D02*
D03*
X1184283D02*
D03*
X1238047Y918286D02*
D03*
X1221547D02*
D03*
X1386391Y1097976D02*
D03*
X1369890D02*
D03*
X1369637Y1067308D02*
D03*
X1386136D02*
D03*
Y1082736D02*
D03*
X1369637D02*
D03*
Y1051880D02*
D03*
X1386136D02*
D03*
X1369890Y1121062D02*
D03*
X1386391D02*
D03*
Y1136940D02*
D03*
X1369890D02*
D03*
X568130Y704789D02*
D03*
X551629D02*
D03*
X1534227Y709422D02*
D03*
X1550728D02*
D03*
X1354904Y709168D02*
D03*
X1371404D02*
D03*
X519118Y858840D02*
D03*
X535617D02*
D03*
X616034Y753024D02*
D03*
X599534D02*
D03*
X553788Y777555D02*
D03*
X570289D02*
D03*
Y792927D02*
D03*
X553788D02*
D03*
X841258Y1008126D02*
D03*
X857758D02*
D03*
X1376749Y925256D02*
D03*
X1393248D02*
D03*
X1457892Y568772D02*
D03*
X1441391D02*
D03*
X1189668Y925896D02*
D03*
X1173167D02*
D03*
X840036Y1200338D02*
D03*
X823537D02*
D03*
X889566D02*
D03*
X873066D02*
D03*
X939790D02*
D03*
X923290D02*
D03*
X990590D02*
D03*
X974090D02*
D03*
X1040120D02*
D03*
X1023620D02*
D03*
X1089650D02*
D03*
X1073150D02*
D03*
X1142990D02*
D03*
X1126490D02*
D03*
X1191826D02*
D03*
X1175327D02*
D03*
X1242626D02*
D03*
X1226126D02*
D03*
X1293427D02*
D03*
X1276926D02*
D03*
X1280922Y709422D02*
D03*
X1264422D02*
D03*
X1461573Y693984D02*
D03*
X1445074D02*
D03*
D37*
X185420Y1024636D02*
D03*
Y1053886D02*
D03*
X459715Y968767D02*
D03*
Y998017D02*
D03*
X414892Y923901D02*
D03*
Y894651D02*
D03*
X974742Y539687D02*
D03*
Y510437D02*
D03*
X628904Y1306068D02*
D03*
Y1276818D02*
D03*
D39*
X640588Y1067104D02*
D03*
Y1086104D02*
D03*
X881428Y984650D02*
D03*
Y1003650D02*
D03*
X938990Y1006202D02*
D03*
Y987202D02*
D03*
X440738Y835298D02*
D03*
Y854298D02*
D03*
X548894Y878332D02*
D03*
Y897332D02*
D03*
X157274Y741064D02*
D03*
Y760064D02*
D03*
X218900Y721976D02*
D03*
Y702976D02*
D03*
X420164Y835298D02*
D03*
Y854298D02*
D03*
X762000Y935940D02*
D03*
Y916940D02*
D03*
X846211Y918019D02*
D03*
Y899019D02*
D03*
X1214676Y807358D02*
D03*
Y826358D02*
D03*
X1481280Y912984D02*
D03*
Y893984D02*
D03*
X1460706Y912984D02*
D03*
Y893984D02*
D03*
X1381204Y909416D02*
D03*
Y890416D02*
D03*
X881380Y681532D02*
D03*
Y700532D02*
D03*
X1094280Y675786D02*
D03*
Y694786D02*
D03*
X1135174Y679850D02*
D03*
Y698850D02*
D03*
X1167844Y831196D02*
D03*
Y812196D02*
D03*
X1180846Y941882D02*
D03*
Y960882D02*
D03*
X1331770Y1056278D02*
D03*
Y1075278D02*
D03*
X786130Y1057656D02*
D03*
Y1076656D02*
D03*
X781256Y1182986D02*
D03*
Y1163986D02*
D03*
X1360726Y890416D02*
D03*
Y909416D02*
D03*
D40*
X141188Y965708D02*
D03*
X170688D02*
D03*
X310434Y1004605D02*
D03*
X280934D02*
D03*
X310068Y775876D02*
D03*
X280568D02*
D03*
X430088Y945482D02*
D03*
X459588D02*
D03*
D43*
X748284Y878840D02*
D03*
X730034D02*
D03*
X124206Y963930D02*
D03*
X105956D02*
D03*
X204052Y1004232D02*
D03*
X222302D02*
D03*
X239250Y1002733D02*
D03*
X257500D02*
D03*
X211728Y818363D02*
D03*
X229978D02*
D03*
X212744Y841019D02*
D03*
X230994D02*
D03*
X765448Y879323D02*
D03*
X783698D02*
D03*
X1634782Y1053846D02*
D03*
X1653032D02*
D03*
X537826Y837667D02*
D03*
X519576D02*
D03*
X519684Y817626D02*
D03*
X537934D02*
D03*
X234487Y740070D02*
D03*
X216237D02*
D03*
X523132Y1061237D02*
D03*
X541382D02*
D03*
X523241Y1041099D02*
D03*
X541491D02*
D03*
X488480Y1041146D02*
D03*
X506730D02*
D03*
X1283970Y1054631D02*
D03*
X1302220D02*
D03*
X1267460D02*
D03*
X1249210D02*
D03*
X1220578D02*
D03*
X1202328D02*
D03*
X1169778D02*
D03*
X1151528D02*
D03*
X1120248D02*
D03*
X1101998D02*
D03*
X1070718D02*
D03*
X1052468D02*
D03*
X1022458D02*
D03*
X1004208D02*
D03*
X937152D02*
D03*
X955402D02*
D03*
X887260D02*
D03*
X905510D02*
D03*
X836460D02*
D03*
X854710D02*
D03*
X1637938Y1224051D02*
D03*
X1656188D02*
D03*
X1695958Y1073150D02*
D03*
X1677708D02*
D03*
D44*
X177775Y776116D02*
D03*
Y794366D02*
D03*
X307055Y1024469D02*
D03*
Y1042719D02*
D03*
X642899Y951884D02*
D03*
Y970134D02*
D03*
X177063Y759568D02*
D03*
Y741318D02*
D03*
X276885Y816972D02*
D03*
Y798722D02*
D03*
X187985Y821328D02*
D03*
Y839578D02*
D03*
X351251Y1052879D02*
D03*
Y1034629D02*
D03*
X436651Y890124D02*
D03*
Y871874D02*
D03*
X436626Y924268D02*
D03*
Y906018D02*
D03*
X456971Y889362D02*
D03*
Y871112D02*
D03*
X400329Y854056D02*
D03*
Y835806D02*
D03*
D84*
X859985Y883544D02*
D03*
X844484D02*
D03*
X845247Y868304D02*
D03*
X860747D02*
D03*
X845247Y853064D02*
D03*
X860747D02*
D03*
X119185Y743072D02*
D03*
X134685D02*
D03*
X1510096Y569082D02*
D03*
X1494595D02*
D03*
X1534727Y693984D02*
D03*
X1550228D02*
D03*
X1355403Y693730D02*
D03*
X1370903D02*
D03*
X1071112Y562864D02*
D03*
X1086612D02*
D03*
X1319794Y1190265D02*
D03*
X1335293D02*
D03*
X601283Y736341D02*
D03*
X585784D02*
D03*
X1461073Y709422D02*
D03*
X1445573D02*
D03*
X1195898Y738500D02*
D03*
X1180397D02*
D03*
X1129604Y983356D02*
D03*
X1114103D02*
D03*
X1282992Y653420D02*
D03*
X1298492D02*
D03*
X844993Y933328D02*
D03*
X860492D02*
D03*
X845500Y830204D02*
D03*
X861001D02*
D03*
X860492Y763402D02*
D03*
X844993D02*
D03*
X1280422Y693984D02*
D03*
X1264922D02*
D03*
D97*
X329636Y1035245D02*
D03*
Y1064745D02*
D03*
D98*
X1696374Y1052995D02*
D03*
X1677374D02*
D03*
X1712118Y1073198D02*
D03*
X1731118D02*
D03*
X1712118Y1052624D02*
D03*
X1731118D02*
D03*
X363366Y855932D02*
D03*
X382366D02*
D03*
X841140Y950928D02*
D03*
X860140D02*
D03*
X1271574Y901700D02*
D03*
X1290574D02*
D03*
X1306214Y901652D02*
D03*
X1325214D02*
D03*
X840594Y633270D02*
D03*
X821594D02*
D03*
X840594Y612696D02*
D03*
X821594D02*
D03*
X1168050Y684070D02*
D03*
X1187050D02*
D03*
X858266Y789178D02*
D03*
X839266D02*
D03*
X1279042Y670962D02*
D03*
X1298042D02*
D03*
D102*
X1382146Y1158750D02*
D03*
Y1174250D02*
D03*
X472131Y786620D02*
D03*
Y771120D02*
D03*
X487117Y786620D02*
D03*
Y771120D02*
D03*
X517173D02*
D03*
Y786620D02*
D03*
X532280D02*
D03*
Y771120D02*
D03*
X1152520Y671765D02*
D03*
Y687264D02*
D03*
X1162436Y956932D02*
D03*
Y941432D02*
D03*
X1342512Y889966D02*
D03*
Y905466D02*
D03*
X1151758Y895285D02*
D03*
Y910785D02*
D03*
X1201241Y766243D02*
D03*
Y781743D02*
D03*
X1152774Y758130D02*
D03*
Y742630D02*
D03*
X1153292Y870269D02*
D03*
Y854770D02*
D03*
X1238103Y899378D02*
D03*
Y883878D02*
D03*
X1146810Y972318D02*
D03*
Y956818D02*
D03*
X1017402Y984564D02*
D03*
Y1000063D02*
D03*
X986160Y992691D02*
D03*
Y1008192D02*
D03*
X914082Y673732D02*
D03*
Y689232D02*
D03*
X898842Y673478D02*
D03*
Y688978D02*
D03*
X1035050Y678180D02*
D03*
Y693680D02*
D03*
X995172Y692918D02*
D03*
Y677418D02*
D03*
X917194Y985520D02*
D03*
Y1001020D02*
D03*
X901954Y985520D02*
D03*
Y1001020D02*
D03*
X864240Y916751D02*
D03*
Y901252D02*
D03*
D104*
X1160526Y923290D02*
D03*
X1150326D02*
D03*
D107*
X1703069Y1214600D02*
D03*
Y1236601D02*
D03*
X224359Y1304014D02*
D03*
Y1282012D02*
D03*
X1219784Y943783D02*
D03*
Y965784D02*
D03*
D108*
X1372870Y1189754D02*
D03*
Y1223754D02*
D03*
X1353262Y1223636D02*
D03*
Y1189636D02*
D03*
X1615186Y1137430D02*
D03*
Y1171430D02*
D03*
D109*
X1190498Y825848D02*
D03*
Y805848D02*
D03*
D110*
X419862Y1300734D02*
D03*
Y1254135D02*
D03*
D111*
X251018Y1241298D02*
D03*
D112*
X274617Y1222299D02*
D03*
Y1234897D02*
D03*
Y1247597D02*
D03*
Y1260297D02*
D03*
X216619Y1260348D02*
D03*
Y1247648D02*
D03*
Y1234948D02*
D03*
Y1222248D02*
D03*
D113*
X228229Y1024127D02*
D03*
Y1030627D02*
D03*
Y1037127D02*
D03*
Y1043627D02*
D03*
Y1050127D02*
D03*
Y1056627D02*
D03*
Y1063126D02*
D03*
X284231D02*
D03*
Y1056627D02*
D03*
Y1050127D02*
D03*
Y1043627D02*
D03*
Y1037127D02*
D03*
Y1030627D02*
D03*
Y1024127D02*
D03*
D114*
X1219302Y899117D02*
D03*
X1200302D02*
D03*
Y884116D02*
D03*
X1219302D02*
D03*
D115*
X196869Y1222604D02*
D03*
X164167D02*
D03*
D116*
X482854Y827278D02*
D03*
Y887730D02*
D03*
D117*
X1650746Y1074420D02*
D03*
X1628745D02*
D03*
D118*
X114554Y827420D02*
D03*
Y888746D02*
D03*
X156718D02*
D03*
Y827420D02*
D03*
D119*
X1114316Y714502D02*
D03*
X1109314D02*
D03*
X1104316D02*
D03*
X1099314D02*
D03*
X1094316D02*
D03*
X1089315D02*
D03*
X1084316D02*
D03*
X1079315D02*
D03*
X1074316D02*
D03*
X1069315D02*
D03*
X1064316D02*
D03*
X1059315D02*
D03*
X1054316D02*
D03*
X1049315D02*
D03*
X1044316D02*
D03*
X1039315D02*
D03*
X1034316D02*
D03*
X1029315D02*
D03*
X1024316D02*
D03*
X1019315D02*
D03*
X1014316D02*
D03*
X1009315D02*
D03*
X1004316D02*
D03*
X999315D02*
D03*
X994316D02*
D03*
X989315D02*
D03*
X984316D02*
D03*
X979315D02*
D03*
X974316D02*
D03*
X969315D02*
D03*
X964316D02*
D03*
X959315D02*
D03*
X954316D02*
D03*
X949315D02*
D03*
X944316D02*
D03*
X939315D02*
D03*
X934316D02*
D03*
X929315D02*
D03*
X924316D02*
D03*
X919315D02*
D03*
X914316D02*
D03*
X909315D02*
D03*
X904316D02*
D03*
X899315D02*
D03*
Y965500D02*
D03*
X904316D02*
D03*
X909315D02*
D03*
X914316D02*
D03*
X919315D02*
D03*
X924316D02*
D03*
X929315D02*
D03*
X934316D02*
D03*
X939315D02*
D03*
X944316D02*
D03*
X949315D02*
D03*
X954316D02*
D03*
X959315D02*
D03*
X964316D02*
D03*
X969315D02*
D03*
X974316D02*
D03*
X979315D02*
D03*
X984316D02*
D03*
X989315D02*
D03*
X994316D02*
D03*
X999315D02*
D03*
X1004316D02*
D03*
X1009315D02*
D03*
X1014316D02*
D03*
X1019315D02*
D03*
X1024316D02*
D03*
X1029315D02*
D03*
X1034316D02*
D03*
X1039315D02*
D03*
X1044316D02*
D03*
X1049315D02*
D03*
X1054316D02*
D03*
X1059315D02*
D03*
X1064316D02*
D03*
X1069315D02*
D03*
X1074316D02*
D03*
X1079315D02*
D03*
X1084316D02*
D03*
X1089315D02*
D03*
X1094316D02*
D03*
X1099314D02*
D03*
X1104316D02*
D03*
X1109314D02*
D03*
X1114316D02*
D03*
D120*
X881317Y732500D02*
D03*
Y737502D02*
D03*
Y742500D02*
D03*
Y747502D02*
D03*
Y752500D02*
D03*
Y757502D02*
D03*
Y762500D02*
D03*
Y767502D02*
D03*
Y772500D02*
D03*
Y777502D02*
D03*
Y782500D02*
D03*
Y787502D02*
D03*
Y792500D02*
D03*
Y797502D02*
D03*
Y802500D02*
D03*
Y807502D02*
D03*
Y812500D02*
D03*
Y817502D02*
D03*
Y822500D02*
D03*
Y827502D02*
D03*
Y832500D02*
D03*
Y837502D02*
D03*
Y842500D02*
D03*
Y847502D02*
D03*
Y852500D02*
D03*
Y857502D02*
D03*
Y862500D02*
D03*
Y867501D02*
D03*
Y872500D02*
D03*
Y877501D02*
D03*
Y882500D02*
D03*
Y887501D02*
D03*
Y892500D02*
D03*
Y897501D02*
D03*
Y902500D02*
D03*
Y907501D02*
D03*
Y912500D02*
D03*
Y917501D02*
D03*
Y922500D02*
D03*
Y927501D02*
D03*
Y932500D02*
D03*
Y937501D02*
D03*
Y942500D02*
D03*
Y947501D02*
D03*
X1132314D02*
D03*
Y942500D02*
D03*
Y937501D02*
D03*
Y932500D02*
D03*
Y927501D02*
D03*
Y922500D02*
D03*
Y917501D02*
D03*
Y912500D02*
D03*
Y907501D02*
D03*
Y902500D02*
D03*
Y897501D02*
D03*
Y892500D02*
D03*
Y887501D02*
D03*
Y882500D02*
D03*
Y877501D02*
D03*
Y872500D02*
D03*
Y867501D02*
D03*
Y862500D02*
D03*
Y857502D02*
D03*
Y852500D02*
D03*
Y847502D02*
D03*
Y842500D02*
D03*
Y837502D02*
D03*
Y832500D02*
D03*
Y827502D02*
D03*
Y822500D02*
D03*
Y817502D02*
D03*
Y812500D02*
D03*
Y807502D02*
D03*
Y802500D02*
D03*
Y797502D02*
D03*
Y792500D02*
D03*
Y787502D02*
D03*
Y782500D02*
D03*
Y777502D02*
D03*
Y772500D02*
D03*
Y767502D02*
D03*
Y762500D02*
D03*
Y757502D02*
D03*
Y752500D02*
D03*
Y747502D02*
D03*
Y742500D02*
D03*
Y737502D02*
D03*
Y732500D02*
D03*
D121*
X159512Y1144016D02*
D03*
Y1188014D02*
D03*
D122*
X1688592Y826026D02*
D03*
Y526270D02*
D03*
D123*
X598932Y1218904D02*
D03*
Y1308904D02*
D03*
X1006094Y486114D02*
D03*
Y576114D02*
D03*
D124*
X825815Y878332D02*
D03*
X801817D02*
D03*
Y897128D02*
D03*
X825815D02*
D03*
X1736659Y1092454D02*
D03*
X1712661D02*
D03*
D125*
X640842Y1163574D02*
D03*
Y1187572D02*
D03*
X606526Y807449D02*
D03*
Y831447D02*
D03*
X625322D02*
D03*
Y807449D02*
D03*
X1561846Y540705D02*
D03*
Y564703D02*
D03*
D126*
X668437Y930148D02*
D03*
X626364D02*
D03*
D127*
X496569Y969472D02*
D03*
Y927400D02*
D03*
X657351Y862122D02*
D03*
Y904194D02*
D03*
D128*
X427990Y530895D02*
D03*
Y578718D02*
D03*
D129*
X1207072Y613107D02*
D03*
D130*
Y595606D02*
D03*
Y630608D02*
D03*
D131*
X1201072Y599106D02*
D03*
Y603107D02*
D03*
Y607108D02*
D03*
Y611108D02*
D03*
Y615106D02*
D03*
Y619106D02*
D03*
Y623107D02*
D03*
Y627108D02*
D03*
X1213072D02*
D03*
Y623107D02*
D03*
Y619106D02*
D03*
Y615106D02*
D03*
Y611108D02*
D03*
Y607108D02*
D03*
Y603107D02*
D03*
Y599106D02*
D03*
D132*
X1422819Y602886D02*
D03*
Y607885D02*
D03*
Y612886D02*
D03*
X1430069D02*
D03*
Y607885D02*
D03*
Y602886D02*
D03*
D133*
X1282005Y727915D02*
D03*
X1222005D02*
D03*
X1282005Y765415D02*
D03*
X1222005D02*
D03*
X1312005D02*
D03*
X1372005D02*
D03*
X1312005Y727915D02*
D03*
X1372005D02*
D03*
X1462005D02*
D03*
X1402005D02*
D03*
X1462005Y765415D02*
D03*
X1402005D02*
D03*
X1492005D02*
D03*
X1552005D02*
D03*
X1492005Y727915D02*
D03*
X1552005D02*
D03*
X1150071Y702567D02*
D03*
X1173523D02*
D03*
X1148546Y719836D02*
D03*
X1171998D02*
D03*
D134*
X1087328Y548922D02*
D03*
Y488922D02*
D03*
X1049828Y548922D02*
D03*
Y488922D02*
D03*
D135*
X725932Y646887D02*
D03*
Y627888D02*
D03*
X745932Y637388D02*
D03*
X400210Y810006D02*
D03*
X420210Y819506D02*
D03*
Y800506D02*
D03*
D136*
X118209Y713994D02*
D03*
X162207D02*
D03*
D137*
X160433Y594525D02*
D03*
X185437D02*
D03*
X160433Y651174D02*
D03*
X185437D02*
D03*
X134693D02*
D03*
X109689D02*
D03*
X134693Y594525D02*
D03*
X109689D02*
D03*
D138*
X857606Y992485D02*
D03*
X848106D02*
D03*
X838606D02*
D03*
D139*
Y969411D02*
D03*
X857606D02*
D03*
D140*
X1180084Y781855D02*
D03*
Y755353D02*
D03*
D141*
X1350105Y1088767D02*
D03*
X1345104Y1088766D02*
D03*
X1340103Y1088765D02*
D03*
X1335104Y1088766D02*
D03*
X1330105Y1088765D02*
D03*
D142*
X1330103Y1135765D02*
D03*
X1335104Y1135766D02*
D03*
X1340105Y1135767D02*
D03*
X1345104Y1135766D02*
D03*
X1350103Y1135765D02*
D03*
D143*
X115278Y923188D02*
D03*
Y932688D02*
D03*
Y942188D02*
D03*
X142278D02*
D03*
Y932688D02*
D03*
Y923188D02*
D03*
D144*
X725830Y912622D02*
D03*
X735330D02*
D03*
X744830D02*
D03*
Y939622D02*
D03*
X735330D02*
D03*
X725830D02*
D03*
X509829Y902284D02*
D03*
X519328D02*
D03*
X528828D02*
D03*
Y875284D02*
D03*
X519328D02*
D03*
X509829D02*
D03*
D145*
X514701Y489011D02*
D03*
X527401D02*
D03*
X540101D02*
D03*
X552800D02*
D03*
X565500D02*
D03*
X578200D02*
D03*
X590900D02*
D03*
X603601D02*
D03*
X514701Y565912D02*
D03*
X527401D02*
D03*
X540101D02*
D03*
X552800D02*
D03*
X565500D02*
D03*
X578200D02*
D03*
X590900D02*
D03*
X603601D02*
D03*
D146*
X135382Y1115314D02*
D03*
D147*
X158382Y1055915D02*
D03*
X135382D02*
D03*
X112382D02*
D03*
D148*
X1501648Y633501D02*
D03*
Y610502D02*
D03*
Y587502D02*
D03*
D149*
X1561047Y610502D02*
D03*
D150*
X1355693Y959714D02*
D03*
Y940714D02*
D03*
X1380395Y950214D02*
D03*
D151*
X192278Y734473D02*
D03*
X201778Y709771D02*
D03*
X182778D02*
D03*
X1620876Y1233075D02*
D03*
X1601876D02*
D03*
X1611376Y1208373D02*
D03*
D152*
X801624Y667385D02*
D03*
X788924D02*
D03*
X776224D02*
D03*
X763524D02*
D03*
X801624Y613283D02*
D03*
X788924D02*
D03*
X776224D02*
D03*
X763524D02*
D03*
D153*
X538117Y751103D02*
D03*
Y747103D02*
D03*
Y737103D02*
D03*
Y733105D02*
D03*
X566865D02*
D03*
Y737103D02*
D03*
Y747103D02*
D03*
Y751103D02*
D03*
D154*
X538117Y742104D02*
D03*
X566865D02*
D03*
D155*
X552491D02*
D03*
D156*
X543491Y756478D02*
D03*
X547489D02*
D03*
X557489D02*
D03*
X561490D02*
D03*
Y727730D02*
D03*
X557489D02*
D03*
X547489D02*
D03*
X543491D02*
D03*
D157*
X552491Y756478D02*
D03*
Y727730D02*
D03*
D158*
X565739Y755353D02*
D03*
X539242Y728853D02*
D03*
D159*
X539240Y755353D02*
D03*
X565739Y728856D02*
D03*
D160*
X354076Y626110D02*
D03*
X341376D02*
D03*
X328676D02*
D03*
X315976D02*
D03*
X303276D02*
D03*
X290576D02*
D03*
X277876D02*
D03*
X265176D02*
D03*
Y712470D02*
D03*
X277876D02*
D03*
X290576D02*
D03*
X303276D02*
D03*
X315976D02*
D03*
X328676D02*
D03*
X341376D02*
D03*
X354076D02*
D03*
D161*
X759516Y1062228D02*
D03*
Y1074928D02*
D03*
Y1087628D02*
D03*
Y1100328D02*
D03*
Y1113028D02*
D03*
Y1125728D02*
D03*
Y1138428D02*
D03*
Y1151128D02*
D03*
Y1163828D02*
D03*
Y1176528D02*
D03*
X664916Y1062228D02*
D03*
Y1074928D02*
D03*
Y1087628D02*
D03*
Y1100328D02*
D03*
Y1113028D02*
D03*
Y1125728D02*
D03*
Y1138428D02*
D03*
Y1151128D02*
D03*
Y1163828D02*
D03*
Y1176528D02*
D03*
D162*
X1638554Y1197841D02*
D03*
X1663954D02*
D03*
Y1099843D02*
D03*
X1638554D02*
D03*
X1102360Y1176020D02*
D03*
X1076960D02*
D03*
Y1078021D02*
D03*
X1102360D02*
D03*
X1052830D02*
D03*
X1027430D02*
D03*
Y1176020D02*
D03*
X1052830D02*
D03*
X1300480D02*
D03*
X1275080D02*
D03*
Y1078021D02*
D03*
X1300480D02*
D03*
X1250950D02*
D03*
X1225550D02*
D03*
Y1176020D02*
D03*
X1250950D02*
D03*
X1003300D02*
D03*
X977900D02*
D03*
Y1078021D02*
D03*
X1003300D02*
D03*
X1201420D02*
D03*
X1176020D02*
D03*
Y1176020D02*
D03*
X1201420D02*
D03*
X953770D02*
D03*
X928370D02*
D03*
Y1078021D02*
D03*
X953770D02*
D03*
X1151890D02*
D03*
X1126490D02*
D03*
Y1176020D02*
D03*
X1151890D02*
D03*
X904240D02*
D03*
X878840D02*
D03*
Y1078021D02*
D03*
X904240D02*
D03*
X854710D02*
D03*
X829310D02*
D03*
Y1176020D02*
D03*
X854710D02*
D03*
D163*
X1501447Y549699D02*
D03*
X1496448D02*
D03*
X1491447D02*
D03*
X1486448D02*
D03*
X1481447D02*
D03*
X1476448D02*
D03*
X1471447D02*
D03*
X1466448D02*
D03*
X1461447D02*
D03*
X1456448D02*
D03*
X1451447D02*
D03*
X1446047D02*
D03*
D164*
X1347781Y638872D02*
D03*
X1236283Y595873D02*
D03*
D165*
X1371281Y487872D02*
D03*
D166*
X1236283Y492373D02*
D03*
D167*
Y533871D02*
D03*
D168*
X1245782Y638872D02*
D03*
X1255282D02*
D03*
X1266283D02*
D03*
X1277281D02*
D03*
X1288282D02*
D03*
X1299282D02*
D03*
X1310283D02*
D03*
X1321281D02*
D03*
X1332282D02*
D03*
D169*
X1725168Y1032002D02*
D03*
X1712468D02*
D03*
X1699768D02*
D03*
X1687068D02*
D03*
X1674368D02*
D03*
X1661668D02*
D03*
X1648968D02*
D03*
X1636268D02*
D03*
X1623568D02*
D03*
X1610868D02*
D03*
X1598168D02*
D03*
X1585468D02*
D03*
X1572768D02*
D03*
X1560068D02*
D03*
Y857001D02*
D03*
X1572768D02*
D03*
X1585468D02*
D03*
X1598168D02*
D03*
X1610868D02*
D03*
X1623568D02*
D03*
X1636268D02*
D03*
X1648968D02*
D03*
X1661668D02*
D03*
X1674368D02*
D03*
X1687068D02*
D03*
X1699768D02*
D03*
X1712468D02*
D03*
X1725168D02*
D03*
D170*
X1547269Y1014352D02*
D03*
Y1001652D02*
D03*
Y988951D02*
D03*
Y976252D02*
D03*
Y963551D02*
D03*
Y950852D02*
D03*
Y938151D02*
D03*
Y925452D02*
D03*
Y912751D02*
D03*
Y900051D02*
D03*
Y887352D02*
D03*
X1547569Y874651D02*
D03*
D171*
X1633967Y945502D02*
D03*
Y959503D02*
D03*
Y973503D02*
D03*
X1661968D02*
D03*
Y959503D02*
D03*
Y945502D02*
D03*
X1647967D02*
D03*
Y973503D02*
D03*
Y959503D02*
D03*
D172*
X356075Y990092D02*
D03*
X429801D02*
D03*
D173*
X610108Y932942D02*
D03*
X664718Y839216D02*
D03*
X1217168Y846328D02*
D03*
X1711842Y1182253D02*
D03*
X1227328Y708406D02*
D03*
D174*
X363474Y814375D02*
D03*
X377698Y814273D02*
D03*
D175*
X325018Y814718D02*
D03*
X334518Y791718D02*
D03*
X344019Y814718D02*
D03*
D176*
X198750Y801243D02*
D03*
Y794893D02*
D03*
Y788543D02*
D03*
Y782193D02*
D03*
Y775843D02*
D03*
Y769493D02*
D03*
Y763143D02*
D03*
Y756793D02*
D03*
X251846Y801243D02*
D03*
Y794893D02*
D03*
Y788543D02*
D03*
Y782193D02*
D03*
Y775843D02*
D03*
Y769493D02*
D03*
Y763143D02*
D03*
Y756793D02*
D03*
D177*
X244907Y842010D02*
D03*
X244805Y827786D02*
D03*
X309372Y801878D02*
D03*
X309474Y816102D02*
D03*
D178*
X376936Y942368D02*
D03*
Y882368D02*
D03*
D179*
X470792Y1061212D02*
D03*
X506092D02*
D03*
D180*
X325394Y887984D02*
D03*
Y912984D02*
D03*
Y937984D02*
D03*
Y962984D02*
D03*
X193294Y887984D02*
D03*
Y912984D02*
D03*
Y937984D02*
D03*
Y962984D02*
D03*
D181*
X119888Y761073D02*
D03*
Y804075D02*
D03*
D182*
X165953Y680974D02*
D03*
X113955D02*
D03*
X665734Y967232D02*
D03*
X717733D02*
D03*
D183*
X506458Y751769D02*
D03*
Y746770D02*
D03*
Y736770D02*
D03*
Y731769D02*
D03*
X514749Y751769D02*
D03*
Y746770D02*
D03*
Y736770D02*
D03*
Y731769D02*
D03*
D184*
X506458Y741769D02*
D03*
X514749D02*
D03*
D185*
X1754124Y1188466D02*
D03*
X1766824D02*
D03*
X1754124Y1175766D02*
D03*
X1766824D02*
D03*
X1754124Y1163066D02*
D03*
X1766824D02*
D03*
X1134364Y523748D02*
D03*
X1147064D02*
D03*
X1159764D02*
D03*
X1172464D02*
D03*
X1185164D02*
D03*
Y511048D02*
D03*
X1172464D02*
D03*
X1159764D02*
D03*
X1147064D02*
D03*
X1134364D02*
D03*
D186*
X800862Y918972D02*
D03*
Y970532D02*
D03*
X587502Y904112D02*
D03*
Y852552D02*
D03*
D187*
X1470016Y593264D02*
D03*
X1478012D02*
D03*
Y574765D02*
D03*
X1470016D02*
D03*
D188*
X182212Y687070D02*
D03*
X216060D02*
D03*
D189*
X465328Y577408D02*
D03*
Y531556D02*
D03*
D190*
X265128Y834644D02*
D03*
Y847344D02*
D03*
X312976D02*
D03*
Y834644D02*
D03*
D191*
X1766270Y1095502D02*
D03*
X1772770D02*
D03*
X1779270D02*
D03*
Y1114501D02*
D03*
X1772770D02*
D03*
X1766270D02*
D03*
D192*
X1314282Y861807D02*
D03*
X1321283D02*
D03*
X1328283D02*
D03*
X1335280D02*
D03*
X1342281D02*
D03*
X1349281D02*
D03*
X1356281D02*
D03*
X1363282D02*
D03*
X1370282D02*
D03*
X1384282D02*
D03*
X1391283D02*
D03*
X1377282D02*
D03*
X1398283D02*
D03*
X1405280D02*
D03*
X1412281D02*
D03*
X1419281D02*
D03*
X1426281D02*
D03*
X1433281D02*
D03*
X1440282D02*
D03*
X1447282D02*
D03*
X1454282D02*
D03*
X1461282D02*
D03*
X1468283D02*
D03*
X1475232Y861822D02*
D03*
X1482222Y861832D02*
D03*
X1489212D02*
D03*
X1293282Y861807D02*
D03*
X1300282D02*
D03*
X1307282D02*
D03*
X1286231Y861786D02*
D03*
D193*
X481425Y1266419D02*
D03*
X531425D02*
D03*
D194*
X196088Y1087627D02*
D03*
X196087Y1189227D02*
D03*
X335788D02*
D03*
X386587D02*
D03*
X500887D02*
D03*
X551688D02*
D03*
Y1087627D02*
D03*
X500887D02*
D03*
X386587D02*
D03*
X335788D02*
D03*
D195*
X558317Y995680D02*
D03*
X593319D02*
D03*
D196*
X233774Y544440D02*
D03*
X396375D02*
D03*
X670127Y1254760D02*
D03*
X720128D02*
D03*
X1436116D02*
D03*
X1486116D02*
D03*
X1330452D02*
D03*
X311658D02*
D03*
X1226490D02*
D03*
X1176490D02*
D03*
X1126490D02*
D03*
X873214D02*
D03*
X1023214D02*
D03*
X973214D02*
D03*
X923214D02*
D03*
X823214D02*
D03*
D197*
X383675Y600140D02*
D03*
X360774D02*
D03*
X269375D02*
D03*
X246474D02*
D03*
X279375Y552040D02*
D03*
X289575Y534240D02*
D03*
X299773Y552040D02*
D03*
X309974Y534240D02*
D03*
X320175Y552040D02*
D03*
X330375Y534240D02*
D03*
X340573Y552040D02*
D03*
X350774Y534240D02*
D03*
D198*
X770127Y1254760D02*
D03*
X1536116D02*
D03*
X1380452D02*
D03*
X361658D02*
D03*
X1276490D02*
D03*
X1073214D02*
D03*
D199*
X804248Y564640D02*
D03*
X831848D02*
D03*
X776648D02*
D03*
X749048D02*
D03*
X845647Y536240D02*
D03*
X818048D02*
D03*
X790448D02*
D03*
X762848D02*
D03*
D200*
X679249Y550441D02*
D03*
X929249D02*
D03*
D201*
X859447Y564640D02*
D03*
D202*
X1440673Y1066241D02*
D03*
X1562675Y1186236D02*
D03*
Y1066236D02*
D03*
X1582675Y1126236D02*
D03*
X1440673Y1186231D02*
D03*
D203*
X1429047Y486547D02*
D03*
X1518849D02*
D03*
X1432649Y530448D02*
D03*
X1515247D02*
D03*
D204*
X1469948Y536448D02*
D03*
X1477950D02*
D03*
X1461950D02*
D03*
X1485948D02*
D03*
X1465948Y529448D02*
D03*
X1481950D02*
D03*
X1457950D02*
D03*
X1489951D02*
D03*
X1449949D02*
D03*
X1497950D02*
D03*
X1501947Y536448D02*
D03*
X1445948D02*
D03*
D205*
X1760474Y1201166D02*
D03*
X1770634Y1150366D02*
D03*
X1750314D02*
D03*
X1121664Y517398D02*
D03*
X1197864Y507248D02*
D03*
Y527548D02*
D03*
D206*
X1740538Y511940D02*
D03*
X1747567Y528910D02*
D03*
Y494969D02*
D03*
X1764538Y535940D02*
D03*
Y487940D02*
D03*
X1781509Y528910D02*
D03*
Y494969D02*
D03*
X1788538Y511940D02*
D03*
X104538Y1297940D02*
D03*
X111567Y1314911D02*
D03*
Y1280969D02*
D03*
X128538Y1321940D02*
D03*
Y1273940D02*
D03*
X145508Y1314911D02*
D03*
Y1280969D02*
D03*
X152538Y1297940D02*
D03*
X104538Y511940D02*
D03*
X111567Y528910D02*
D03*
Y494969D02*
D03*
X128538Y535940D02*
D03*
Y487940D02*
D03*
X145508Y528910D02*
D03*
Y494969D02*
D03*
X152538Y511940D02*
D03*
X1788538Y1297940D02*
D03*
X1781509Y1280969D02*
D03*
Y1314911D02*
D03*
X1764538Y1273940D02*
D03*
Y1321940D02*
D03*
X1747567Y1280969D02*
D03*
Y1314911D02*
D03*
X1740538Y1297940D02*
D03*
D207*
X1764538Y511940D02*
D03*
X128538Y1297940D02*
D03*
Y511940D02*
D03*
X1764538Y1297940D02*
D03*
M02*
