M48
;Layer_Color=9474304
;FILE_FORMAT=4:4
METRIC,LZ
;TYPE=PLATED
T01F00S00C0.3000
T02F00S00C0.4000
T03F00S00C0.5000
T05F00S00C0.9144
T06F00S00C1.0000
T07F00S00C1.4000
T08F00S00C1.5240
T09F00S00C1.6000
T10F00S00C1.9000
T11F00S00C3.2000
T12F00S00C3.2500
;TYPE=NON_PLATED
T13F00S00C0.9910
%
T01
X01640439Y00481534
X01650775Y00481674
X0166118
X01659382Y00526288
X0165227
X01645266Y00526101
X01645012Y00533213
X01652016Y005334
X01659128
X01680826Y00670119
X0168783Y00670306
X01694942
X01694688Y00677418
X01687576
X01680572Y00677231
X01527677Y00693984
Y00709422
X0155194Y00771398
X0149098Y00771652
X01469644Y00765556
X01392682
X01380022Y00765541
X01335532Y00748284
X01329182Y00751586
X01321054Y00753618
X01312672Y00754888
X0130302Y00765556
X01289558
X01214628Y00765415
X01216643Y00778764
X01201241Y00759193
X01202947Y007385
X01190752Y00724408
X01193469Y00683708
X01206975Y00634232
X01240536Y0063627
X01277112Y00630682
X01276322Y00653696
X01271542Y00670962
X01305542
X01305038Y00665236
X01304884Y00657813
X01347216Y00647192
X01346454Y00630682
X01361694Y0069469
X01348353Y00709168
X01258423Y00709111
X01257872Y00693984
X01234106Y00707514
X01243584Y00596646
X01238504Y00588518
X0120723Y0059029
X01200794Y00596086
X01297794Y00498669
X01304798Y00498856
X0131191
X01312164Y00491744
X01305052
X01298048Y00491557
X01464672Y00492827
X01471676Y00493014
X01478788
X01479042Y00485902
X0147193
X01464926Y00485715
X01470138Y00563335
X01442664Y00552532
X01435848Y00552159
X01430588Y00563798
X0144831Y00580579
X01435403Y00607885
X0141783Y00607701
X01414526Y0061722
X01406652Y00611275
Y00604497
X01408679Y00595963
X01438524Y00693984
X01518457Y0056933
X01505007Y00553517
X01538464Y00531585
X0156176Y00530905
X01561846Y0057531
Y00582168
Y0058928
X01173734Y00585216
X01176274Y00596392
X01149604Y0062484
X01142874Y00625648
X01131316Y00627137
X01128917Y0061969
X01134872Y00672846
X01159256Y00669798
X01158312Y00684876
X01186995Y00674887
X01126744Y00698754
X01128522Y00705104
X01094486Y00700278
X01103884Y00678942
X01101344Y00726948
X01107948Y00728726
X01119124Y00761492
X01119886Y007874
X01145794Y00791718
X01146618Y00761643
X01153414Y00736346
X01057707Y00753796
X01028954Y00727456
X01034053Y00699785
X0103505Y00671576
X01043686Y00669036
X01050798Y00683006
X00995172Y00671068
X00994868Y00698965
X00978154Y00691388
X0096901Y0067437
X00960628Y00682498
X00949579Y00688213
X00948182Y00666496
X0091396Y00667448
X00898466Y00667194
X0088138Y00674032
X00896366Y00709676
Y00716534
X00904494Y00727202
X00917448Y00726948
X00921004Y00737108
X00920242Y00743966
X00918972Y00751586
X00906526Y00756412
X00908812Y00772668
X00915416Y00767588
X00866477Y00762437
X00865766Y00787502
X00845312Y00789432
X008382Y00763016
X00848094Y0063327
X0084706Y00612532
X00811022Y006096
Y00616966
Y00624078
X00800608Y00654304
X0089535Y00607822
X009017Y00604497
Y00611275
X00914553Y00694959
X0098933Y00727456
X00983418Y00631992
X01076452Y00562864
X01147572Y00549656
X01141476Y00531114
X0116332Y00528066
X01185164Y00530606
X01172464Y00505206
X01146048Y00505714
X01134364Y00503428
X00914249Y00510437
X00750316Y00503174
X00743204
X007362Y00502987
X00736454Y00495875
X00743458Y00496062
X0075057
X00740861Y00601633
X00733749
X00726745Y00601447
X00726491Y00608559
X00733495Y00608745
X00740607
X00756158Y0063754
X00765048Y0065405
X00782574Y00667385
X00790319Y00765813
X00785443Y00789257
X00700852Y00766414
X00642772Y00779221
X00649036Y00791713
X00615467Y00772744
X00623357Y00759734
X00601624Y00764337
X00589864Y00758469
X00580136Y00733933
X00559816Y00734949
Y00749427
X00545052Y00749578
X00545076Y00734887
X00533146Y00741807
X00527507Y00727634
X00499509Y00742023
X00483108Y00761238
X00502225Y00781093
X00523815Y00787697
X00536296Y00793394
X00545846Y00768223
X00542036Y00762381
X00559816Y00767715
X00574679Y00704789
X00601152Y00684906
X00607339Y00733933
X00614528Y00734289
X00598572Y00620069
X0059979Y00611159
X00584551
X00569498
X00554324
X00539019
X00530382Y00611985
X00523778Y00611159
X00520919Y00604619
X00508539Y00611159
X00479013Y0058743
X00468204Y00587482
X00457228Y00587356
X00432816Y00587572
X00425704Y00587318
X00412242Y00576326
X00514991Y00499897
X00527482Y00500503
X00539852Y00499594
X005528Y00500812
X005655
X005782
X005909
X00603487Y00499624
X00578971Y00621054
X00483108Y0072136
X00446903Y00787318
X00288036Y00778002
X0028829Y00771398
X0026289Y0077597
X0026416Y00763016
X00251714Y00753138
X00245872
X0023622Y00770636
X00211582Y00769366
X00204724Y00752856
X0019812Y0075311
X00202184Y00717042
X00209984Y00721978
X00201676Y00702929
X0021748Y00695476
X00176784Y00651002
X00143256
X00157274Y00733564
X00142835Y0055245
X00111506Y00578612
X00232156Y00575818
X00250366Y00804584
X00256937Y00804628
X00268732Y00798576
X00287406Y00798302
X00313233Y00802387
X00350012Y00814324
X00377917Y00806216
X00354549Y0085501
X00359487Y00883823
X00366522Y0090297
X00373634
X00380638Y00903157
X00380384Y00910269
X0037338Y00910082
X00366268
X00325821Y00904489
X00325519Y00879809
X00304225Y00893934
X00304038Y00900938
Y0090805
X00296926Y00907796
Y00900684
X00297113Y0089368
X00271272Y0084709
X0025908Y00847344
X00248668Y00827786
X00244348Y0082296
X00223012Y0081788
X00194818Y00804926
X00190754Y00798068
X0018034Y0080137
X00173482
X00184912Y00811417
X00154432Y0080391
X00147828
X00141478
X0014478Y00835406
X00152099Y00835706
X00158009Y00835521
X00164705Y00835244
X00119538Y0083505
X00112067Y00834949
X00104952
X0013546Y00911606
X00183206Y00879846
X00188964Y0087954
X0019827Y00879507
X00204247Y00879328
X00194818Y0097155
X00188902Y00971489
X00182118Y00971296
X0022321Y01012639
X00240463Y01011532
X00303276Y01006094
X00315468Y01022858
X0033147Y01028446
X00348996Y01028192
X0034384Y0106492
X00336296Y01129284
X00329438
Y01136904
Y01143181
Y01149858
X00336296
Y01143181
Y01136904
X00250381Y01123487
Y01116375
X00250568Y01109371
X00243456Y01109117
X00243269Y01116121
Y01123233
X00218111Y01063663
X00108204Y01008888
Y01001776
X00108391Y00994772
X00101279Y00994518
X00101092Y01001522
Y01008634
X00371094Y0099695
X00472146Y00998109
X00485083Y01059791
X00499618Y0112395
Y0113157
Y01137847
Y01144524
X00507157Y01144141
Y01137463
Y01131187
Y01123567
X00640588Y01093604
X00649224Y01074166
X00640588Y01059604
X0066167Y01056894
X00745535Y01062298
X00745778Y01075209
X00745743Y01099819
X00745743Y01125747
X0074644Y01163138
X00745998Y0117729
X00702818Y01172718
Y01165606
X00703005Y01158602
X00695893Y01158348
X00695706Y01165352
Y01172464
X0068072Y01176782
X00680363Y01150977
X00641096Y01153668
X0065024Y0118745
X00646176Y00977138
X00639318Y00976884
X00674878Y00963168
Y00957326
X00678525Y00935418
X00678177Y00929817
X00678271Y00924242
X00695867Y00890733
X00695815Y00874232
X00680466Y00846836
X00680263Y00840784
X00715349Y00836865
X00724389Y00834189
X00736124Y00834826
X00750545Y00832968
X00789761Y00830278
X00792988Y00855472
X00792658Y00863315
X00784169
X00784498Y00855472
X0074549Y00926592
X00745236Y00932942
X00744982Y00946658
X00706512Y00960152
X00706557Y00966029
X00707227Y00972248
X0076454Y0099822
X00763016Y01006348
X00787654Y01012698
X00631444Y00909574
X0063119Y00903478
Y00897382
X00527574Y00924326
X00509524Y00911352
X00456971Y00897037
X00458282Y00863686
X00534924Y00851916
X0056838Y0079962
X00494515Y00798918
X0042799Y00800354
X00399253Y00803092
X00802208Y00855472
X00810082
X00809752Y00863315
X00801878
X00826516Y00870458
X00839508Y00868553
Y00853313
X00838454Y0082804
X00866618Y00827373
X00866479Y0085204
X0086678Y00871011
X0086995Y00898144
X0089408Y00892556
Y00867664
X00894334Y00847852
X00894588Y00832612
X0089408Y00797306
X0086741Y00794004
X00838745Y00883793
X00826516Y00905002
X00836717Y00917519
X0083814Y00933582
X008664Y00932907
X00865194Y00947672
X00865124Y00954024
X00857606Y00959966
X00847563Y0098173
X00865546Y0099771
X00864632Y01003902
X00865632Y01010229
X00888468Y00977956
X0089789Y00976122
X00904959Y00976742
X00913563Y00979668
X00919406Y00979428
X00929386Y009779
X00939471Y00980569
X0093853Y00999744
X00917702Y00994664
X00924306Y00953008
X00934212Y00952754
X0098933Y0095377
X01019302Y00953262
X01017015Y00978517
X01017656Y00993937
X01037082Y01009142
X01037336Y01016
X01062482Y01018794
X01077214Y01019302
X010922Y01018286
X01103884Y01018453
X01109472Y0101346
X01119886Y00989076
X01130808Y00975614
X01146048Y0098425
X01147572Y00952246
X01140714Y00955548
X01116584Y00954278
X01104138Y00940816
X0107061Y00936244
X0112014Y00918718
X01117515Y00877689
X01116422Y00870999
X0111379Y00863854
X01117854Y0085598
X0112014Y00847344
X01114552Y0083185
X01115314Y0082296
X0110998Y0081153
X01120902Y00811784
X0111887Y00794766
X01150242Y00822566
X01155954Y00823722
X01169528Y00825432
X01156716Y00848868
X01150704Y00849068
X011557Y008763
X01162199Y00895478
X01151966Y00901624
X01159002Y0090932
X0116584Y0093435
X0115062Y00937006
X01177696Y00966724
X01176666Y01054361
X01174277Y01092881
X01125753Y01092806
X01126948Y01054333
X01077216Y01054262
X01075186Y01092881
X01027572Y01092806
X01028902Y01054688
X00977989Y01092352
X00928027Y01092427
X00930595Y01054662
X00880824Y0105674
X00878444Y01092579
X00828331Y01092805
X00829937Y0105464
X00829164Y01137225
X00836168Y01137412
X0084328
X00843026Y01144524
X00835914
X0082891Y01144337
X00830993Y01161322
X00877797Y01161234
X00928671Y01161499
X00977775
X01027234Y01161676
X010774Y01161322
X01125708Y01161411
X01176317Y01161588
X00986922Y01001581
X00986764Y0098593
X00974598Y00849884
X00979932Y00840232
X0096901Y00840486
X00991362Y0083058
X0099187Y00820166
Y008128
X00991616Y00803148
X0101941Y00859857
X01026414Y00860044
X01033526
X01033272Y00867156
X0102616
X01019156Y00866969
X00894334Y00927354
X0085725Y00917448
X01195324Y0092202
Y00930402
X01199957Y00966601
X01219022Y00976503
X01244597Y00918286
X01245464Y00885139
X01245684Y00878614
X01251145Y00881474
X0128651Y00839978
X01218019Y00835271
X01211966Y00835523
X01205738Y00835406
X01213104Y00813562
X01223772Y00808736
X01247648Y00804418
X01248156Y0079756
X0136652Y00846582
X01387602
X01436878Y00846074
X01450848Y00846836
X01486154Y00846582
X01479254Y00919354
X01459216Y00919595
X01442974Y0091821
X01419745Y00908319
X01404729Y0090779
X01388957Y00911836
X01361994Y00915486
X01370199Y00925256
X01354582Y00933958
X01341881Y00936548
X0132456Y0093672
X01342197Y00911566
X01368044Y00889254
X01369568Y00882904
X0136398Y00882396
X01405128Y0088011
X01419606Y00880618
X01561338Y00868172
X01564673Y00821517
X01571785
X01572039Y00814405
X01564926
X01557922Y00814218
X01557668Y0082133
X01579733Y00901143
X01574546Y01017016
X01560068Y01019556
X01393587Y01052103
X01392686Y01067308
Y01082736
X01392941Y01097976
Y01121062
Y0113694
X01398016Y011517
X01382146
X01340104Y01123442
X0133858Y0107823
X01331195Y01049162
X01282891Y01045993
X01274361Y01053173
X01275487Y01092503
X01226055Y01092579
X01232008Y01124271
X01239012Y01124458
X01246124
X0124587Y0113157
X01238758
X01231754Y01131383
X01224788Y01161288
X01273556Y01161542
X01227274Y01054434
X01671436Y01051272
X01670821Y01058411
X01699514Y01021334
X0173646Y0105178
X01737222Y01072354
X01756156Y01081631
X01756664Y0108839
X01757172Y01095502
X01759712Y0111506
X01772666Y0113538
X01772412Y01163574
X01776222Y01182878
X01733042Y01176274
X0173519Y01132044
X01742694Y01132332
X01736955Y01101656
X01647444Y0111506
X01641094
X01634744Y01114806
X01638662Y00998541
X01645666Y00998728
X01652778
X01653032Y00991616
X0164592
X01638916Y00991429
X01640865Y00972693
X01640754Y00958946
X01654851Y00959099
Y00945611
X0164083Y00944773
X01651762Y00932688
X0163449Y0091186
X01674515Y00902807
X01667764Y00885698
X01664462Y00877316
X0169926Y00926338
Y00938784
X0165508Y00972738
X0160909Y00953516
X0159512Y00951484
X01725422Y00846328
X01765408Y00834457
X01772412Y00834644
X01779524
X01779778Y00827532
X01772666
X01765662Y00827345
X01762506Y01231392
X01769618
X01769364Y01238504
X01762252
X01755248Y01238317
X01755502Y01231205
X01607312Y01223264
X01481074Y0127254
X01473962
X01466958Y01272353
X01466704Y01279465
X01473708Y01279652
X0148082
X01372986Y01230826
X01353517Y01230618
X01335205Y0122792
X01312697Y01193444
X00640588Y01197102
X00643001Y01279652
X00540418Y0128303
X00540443Y01290091
X00540672Y0129728
X00533146
X00526051
X00525823Y01290091
X00525798Y0128303
X00532892
X00532917Y01290091
X00531089Y01252982
X00523994
X00538614
X00488899Y01254379
X00481787
X00474783Y01254192
X00475037Y0124708
X00482041Y01247267
X00489153
X00467887Y01259561
X00461195Y01259601
X0046101Y01266317
Y01272921
X00467702Y01272881
Y01266277
X00253111Y01309911
X00208102Y01259764
Y01247775
X00197993Y01249059
X00191491Y01248932
X00184937Y01248855
Y01255547
X00191491Y01255624
X00197993Y01255751
Y01241533
X00191491Y01241406
X00184937Y0124133
X00172503Y01241817
Y01248421
X00172757Y01254771
X00165481Y01254633
X00165227Y01248283
Y01241679
X00158285Y01241802
Y01248406
X00158539Y01254756
X00156413Y01222604
X00206607Y01222248
X00208102Y012351
T02
X01449949Y00529448
X0145795Y00529449
X01465948Y00529447
X0146195Y00536449
X01469948Y00536448
X01477949Y00536449
X01485948Y00536447
X0148195Y00529449
X01489951
X0149795Y00529447
X01501947Y00536448
X01445948Y00536448
T03
X01747567Y00494969
X01740538Y0051194
X01747567Y0052891
X01764538Y0053594
X01781509Y0052891
X01788538Y0051194
X01781509Y00494969
X01764538Y0048794
X00145508Y00494969
X00128538Y0048794
X00111567Y00494969
X00104538Y0051194
X00111567Y0052891
X00128538Y0053594
X00145508Y0052891
X00152538Y0051194
X01747567Y01280969
X01764538Y0127394
X01781509Y01280969
X01788538Y0129794
X01781509Y01314911
X01764538Y0132194
X01747567Y01314911
X01740538Y0129794
X00152538
X00145508Y01314911
X00128538Y0132194
X00111567Y01314911
X00104538Y0129794
X00111567Y01280969
X00128538Y0127394
X00145508Y01280969
T05
X00289574Y0053424
X00309974
X00330374
X00350774
X00340574Y0055204
X00320174
X00299774
X00279374
X00269374Y0060014
X00246474
X00360774
X00383674
T06
X00818048Y0053624
X00845647
X00859447Y0056464
X00831848
X00804248
X00776648
X00749048
X00762848Y0053624
X00790448
X00593319Y0099568
X00558317
X00531428Y01266419
X00481428
T07
X00196088Y01087628
X00196088Y01189228
X00335788
X00386588
Y01087628
X00335788
X00500888
X00551688
Y01189228
X00500888
T08
X01440674Y01066241
X01440674Y01186231
X01562674Y01186236
X01582674Y01126236
X01562674Y01066236
T09
X0122649Y0125476
X0127649
X01330452
X01380452
X01436116
X01486116
X01536116
X0117649
X0112649
X01073214
X01023214
X00973214
X00923214
X00873214
X00823214
X00770127
X00720128
X00670127
X00361658
X00311658
T10
X00233774Y0054444
X00396374
T11
X01764538Y0051194
X00128538
X01764538Y0129794
X00128538
T12
X00929249Y00550441
X00679249
T13
X01197864Y00507248
Y00527548
X01121664Y00517398
X01750314Y01150366
X01770634
X01760474Y01201166
M30
